<svg height="249.6" version="1.2" xmlns="http://www.w3.org/2000/svg" baseProfile="tiny" width="288" viewBox="0 0 15 13"><g fill-rule="evenodd" stroke-linejoin="bevel" stroke="#000" fill="none" stroke-linecap="square" font-weight="400" font-family=".AppleSystemUIFont" font-size=".903"><path d="M-1.981-1.981h19.81v17.829h-19.81V-1.981" stroke="none" fill="#fff"/><path d="M0 0h14.857v13H0V0" stroke="none" fill="#fff"/><path fill="none" d="M0 0h14.857v12.876H0z" fill-opacity="0" stroke="none"/><g stroke-width=".051" stroke="#96cb65" fill="#96cb65"><path d="M4.95 3.607h-.198v-.1h-.1v-.099l.1-.099V3.21v.1-.1h.099-.1.199-.1.199l.099.1h.198v.198h-.1.1-.1v.099h.1-.1v.099H4.95v-.1h0M3.167 14.106v-.1h.099v-.099.1h.099v.157H3.01l.058-.058h-.1.1-.1.199M9.605 4.2v-.098.099l.099.099.099.099-.099-.1v-.098.099l-.1-.1h0M1.681 2.22h-.099v-.198.099-.1l.1.1v.099h0M1.978 2.22v-.1h.1-.1l.1.1v.099-.1h-.1 0M5.643 3.507h.1-.1v.1-.1h-.099.099" stroke-width=".05051448"/><path d="M5.241 3.356h.11v-.089h-.11v.089M2.374 2.418h.1-.199.1M1.978 2.12l.1-.098v.099h-.1v-.1.1h0M4.976 3.224h.08v-.036h-.08v.036M2.719 13.74h.035v-.058H2.72v.059M1.585 3.623h.064v-.03h-.064v.03M4.206 3.845h.053v-.03h-.053v.03M2.431 11.961h.062v-.025H2.43v.025M1.78 3.62h.05v-.031h-.05v.03M4.144 3.845h.038V3.81h-.038v.035M1.725 3.71h.031v-.043h-.03v.044M3.15 3.574l-.004-.007.03.037-.005-.002-.02-.028" stroke-width=".05051448"/><path d="M4.247 3.842h.043v-.024h-.043v.024M1.76 3.683h.025v-.037H1.76v.037M4.19 3.833h.028v-.03H4.19v.03M4.835 3.641h.027v-.032h-.027v.032M-1.003 13.454h.021v-.04h-.02v.04" stroke-width=".05051448"/><path d="M1.78 3.706v-.1h-.099.1v.1h0M-1.253 2.11h.034v-.022h-.034v.022M4.963 3.196h.03v-.024h-.03v.024M3.331 13.655h.021v-.033h-.02v.033M5.607 3.582h.03V3.56h-.03v.023M-.52 13.879h.038v-.018H-.52v.018M2.077 2.418v-.1.1-.1.1h0M-.495 1.91h.017v-.037h-.017v.037M4.164 3.83h.022v-.025h-.022v.026M1.795 3.654h.025v-.02h-.025v.02M4.637 3.466h.019v-.024h-.019v.024M1.241 3.373h.012v-.036h-.012v.036M5.6 3.505l-.006.007-.014.011.004-.005.016-.014h0M1.414 3.552h.016v-.026h-.016v.026M-1.213 2.088h.027v-.015h-.027v.015M2.72 13.71h.01v-.033h-.01v.033M1.84 3.657h.016v-.02H1.84v.02M4.623 3.49l.013-.023h.002l-.01.02-.005.002M4.37 3.78l.004-.002-.016.01-.01.003.022-.01M5.205 3.26h.016l.018.007-.003.002h-.004l-.027-.01M2.633 12.059h.017v-.017h-.017v.017" stroke-width=".05051448"/><path d="M1.4 3.535h.018v-.016H1.4v.016M1.79 3.69h.015v-.018H1.79v.019M7.404 3.343l-.023-.01v-.001l.022.01h0M-1.455 2.153l-.008-.011.013-.005.002.005-.007.011M2.963 13.326h.015v-.017h-.015v.017M6.63 12.37h.015v-.016H6.63v.015M6.998 3.503h.008V3.47h-.008v.032M2.753 12.582h.013v-.018h-.013v.018M2.186 3.645h.01v-.02h-.01v.02M1.765 3.622h.014V3.61h-.014v.013M2.17 3.656h.008v-.022H2.17v.022M2.833 11.262h.013v-.014h-.013v.014M1.828 3.646h.013V3.63h-.013v.015M1.325 12.545l-.01-.002v-.003l.009-.009.003.012-.002.002M4.214 3.822h.015V3.81h-.015v.012M2.541 12.63l-.002-.001.007-.02h.001v.015l-.006.006M1.695 3.73H1.68l-.001-.001.005-.005.01-.004v.01M4.847 3.91l-.008-.004v-.008l.011.001-.003.012M-1.009 13.673h.014v-.01h-.014v.01M1.428 3.542l.003-.01.009.005.004.005h-.016M-.513 13.98l-.006-.008.01-.006-.003.013v.002-.001M1.255 3.349 1.25 3.33v-.009l.005.002v.025M1.806 3.69h.008v-.016h-.008v.015M4.275 3.846h.01v-.013h-.01v.013M4.614 3.506l-.001-.001.009-.012h0l-.008.013M1.752 3.663h.007v-.016h-.007v.016M2.619 14.026l.004.011-.007.003v-.007l.003-.007M1.74 3.668l-.01-.006v-.005l.008.003.002.008M2.64 12.035l-.003-.009.002-.003.005-.002-.005.014M5.109 3.27h.011v-.008H5.11v.008M2.634 14.024h.01v-.01h-.01v.01M5.154 3.287h.009v-.01h-.01v.01M6.759 3.219h.004v.004l-.007.006v-.002l.003-.008M2.25 12.907h.006v-.012H2.25v.012M1.782 3.595l-.002-.001.001-.003.006-.005.002.001-.007.008M5.181 3.28l-.005-.004-.002-.005V3.27l.007.007v.003M7.18 3.316l.017-.003h0l-.017.003M9.26 9.12l-.003-.004-.002-.006.003.002.003.008M8.313 8.683h.01v-.006h-.01v.006M7.009 3.485l-.003-.009.003-.005.002.003-.002.01" stroke-width=".05051448"/><path d="M7.003 3.507v.002l-.006-.007V3.5l.005.005v.003M-1.006 13.671v.003h-.005l-.001-.003.002-.005.004.005M2.282 12.85l-.003-.002.002-.004.006-.001-.005.007M6.945 3.49l.001-.002.008-.001-.002.005-.007-.003M5.92 3.962l.005-.003-.005.01v-.007M5.192 3.3l-.003-.005v-.002h.003l.003.008-.003-.001M7.007 3.507v.002l-.003-.006.004-.008-.001.012M1.772 3.587h.009v-.005h-.01v.005M5.183 3.29v-.003h.004l.003.005-.007-.002M4.66 3.46h-.002l.006-.004h.006l-.01.004M-.494 1.886h.006v-.007h-.006v.007M1.776 3.6h-.003l-.002-.004h.003l.004.003-.002.002M7.375 3.33l-.011-.003h0l.01.002h.001M5.923 3.967v-.003l.002-.003.001.007-.003.003v-.004M3.287 10.967h.007v-.004h-.007v.004M7.2 3.376l-.004-.004v-.001l.004.002.001.002h0M-1.065 13.624h.006v-.005h-.006v.005M7.308 3.353h-.003l-.002-.005h.003l.002.005M3.18 3.61l-.003-.002-.002-.003h0l.005.005M-.957 13.362h-.002l-.002-.006.001.001h.002l.001.005M4.224 3.81l-.003.002h-.003l.002-.002h.006-.002M1.785 3.626h-.001l-.001-.005.005.004h-.003M4.186 3.837l-.002.001v-.002l.002-.003.003.001-.003.003M1.58 3.604l-.004-.002V3.6h.003l.002.004M1.705 3.706 1.7 3.704h0l.002-.002.004.002v.002M1.464 11.856h.008v-.002h-.008v.002M4.677 3.47l-.001.002-.004-.004h.003l.002.002M2.294 3.7l-.001-.004.002-.002.001.003-.002.002M6.999 3.489l-.003-.005.001-.002.002.001v.006M1.346 12.122h.007l-.007.003v-.003M1.52 12.495h-.002l.002-.004.003.001-.002.003M9.276 9.1l.002.003v.002L9.275 9.1h-.002.002M-.604 13.97H-.6v-.005h-.004v.005M6.792 12.23l-.004-.003-.001.001.001-.001.004.003M1.474 3.591l-.003-.002v-.002h.002l.001.004M2.936 13.417v.003l-.004-.001v-.003l.004.001M-.962 13.327l-.002-.004.003.002-.001-.003.002.004-.002.001M1.747 3.667h-.004v-.002h.006l-.002.002M1.632 3.627l-.003-.002v-.002l.003.001v.003M1.386 3.519h.002l.003.003-.003-.001-.002-.002M1.65 3.614V3.61h.004l-.001.001-.004.002M-.96 13.779h-.003l-.002-.003.006.002H-.96M6.479 12.587h-.002v-.004l.003.002-.001.002M2.201 3.632l-.002-.002v-.003l.003.002-.001.003M5.918 3.96l.002-.002h.001l-.002.005V3.96M1.398 3.521l-.002-.003v-.001H1.4v.004M7.004 3.507l.001.004h0l-.002-.006.001.002M9.75 4.366l.002.001v.002H9.75v-.003M3.349 11.039h-.003 0l.002-.003v.003M5.583 4.663l-.003-.001V4.66h.003v.003M1.516 12.531h.002l.001.003h-.002v-.003M5.852 3.48h0v-.003l.002.002-.002.002M2.217 3.62l-.002-.002.001-.002.002.001-.001.002M1.949 2.075l.001.002h-.005l.002-.002h.002M9.491 4.08 9.49 4.08l.005.001h0-.003M1.151 11.785H1.15v-.003l.002.002-.001.001M2.847 11.238h.002l-.002.002v-.002M1.77 3.677h-.002v-.003l.002.002v.001M5.851 3.481v.002l-.001.001V3.48l.001.001M2.465 11.916l-.001-.002.002-.001v.001l-.001.002M3.35 11.007h-.003l.002-.002v.002" stroke-width=".05051448"/></g><g stroke-width=".051" stroke="#a9d168" fill="#a9d168"><path d="M13.072 7.47v.098h-.1V7.47h-.098v-.198h.099v-.099h.099V7.47h0M13.468 7.866h-.1v.099l-.098-.1-.1-.098v-.1h.199v-.099.1h.099v.198h0M10.992 7.37h-.1v-.099h.1v-.099.198h0M12.576 9.054v.1h-.099v-.199h-.099v-.198h.1v-.1l.098-.098h.1v.495h-.1 0" stroke-width=".05051448"/></g><path d="M9.506 6.083h.099l-.1.099h-.098v-.198h.099v.099h0" stroke-width=".05051448" stroke="#bdd66b" fill="#bdd66b"/><g stroke-width=".051" stroke="#a9d168" fill="#a9d168"><path d="M6.435 3.507v.1h.1v.198h.098-.099v.099h-.198l-.099-.1v-.098l-.099-.1v-.198l.1-.099.098.1.1.098h0M2.573 4.597v.099h-.1V4.399h-.099V4.1l.1-.098.099.099h.099V4.2l.099.099v.099l-.1.099-.098.099h0M6.435 12.422l-.099.099-.198.099-.099.099H5.94l-.099.099h-.099v-.198l.1-.1V12.225h-.1l-.099.099v.099l.1.099-.1.099h-.199l-.098-.1v-.098h-.1v-.1h-.098v-.098.099H4.95v-.1h-.1v.199l-.098.099-.1.099h-.099V12.322l-.099-.098v-.1l-.099.1h-.198l-.099.099H3.96v-.1l.1-.098.098-.1.1-.098h.098l.1-.1v-.099h.098v-.099l.1-.099v-.099l.099-.099h.099v-.099l.099-.099v-.099l.099-.099.099-.099v-.1h.099l.099-.098.099-.1v-.098l.099-.1h.099v-.098h.694l.098-.1v-.198h.1v-.198l.098-.099V9.55l.1-.099v-.198h.099v.1l.099.098v.1l.099.098h.099v.1l.099.099-.1.099v.099l-.098.099-.1.099v-.1h-.198v.397l.1-.1h.099v-.098h.099v.099H7.723v-.1l.1-.098h.198l.098.099h.198v.099h.198v.198h-.099v.198l-.099.099-.099.1H7.921v-.1l-.099-.099-.099-.1h-.099v.1l-.1.099-.098.1-.1-.1h-.098l-.1.1V11.331l-.098.1v.098h-.1v.198h-.198v.199l-.099.099v.198h-.099v.099l-.099.099h0" stroke-width=".05051448"/><path d="M7.426 11.233v.1h-.1v-.199.1h.1M2.374 11.332l.1.1v.198h-.1v.098l-.099.1h-.099l-.099.099-.099.198-.099.099-.099.099h-.198v-.396l.1-.1v-.198l.098-.099.1-.099h.098l.198-.099h.198M3.761 12.62l-.099.099-.099.099h-.099v-.1l-.1-.098v-.198l.1-.1v-.098l.099-.1h.1l.098.1v.099h.1l-.1.099v.198h0" stroke-width=".05051448"/></g><g stroke-width=".051" stroke="#96cb65" fill="#96cb65"><path d="M10.794 8.262h-.496.694v-.1.1h-.198 0M12.973 9.054h-.1.1v-.198.1-.1h.099v.1h.099-.1v.098h-.098 0M12.874 9.153v-.099h.099v.1h-.1 0M12.081 6.578v-.1.1-.1.199h-.099.1v-.1h-.1.1M14.458 7.866v.099h-.099.1v-.1h0M12.068 6.166h.026V6.13h-.026v.037M12.333 7.473h.021v-.04h-.021v.04M13.08 8.254h.016v-.025h-.015v.025M10.368 7.62h.026v-.009h-.026v.01M11.987 7.096H12V7.08h-.014v.015M12.044 6.454h.006v-.028h-.006v.028M10.795 5.292h.007V5.27h-.007v.02M10.84 5.325h.008v-.018h-.008v.018M12.17 7.37h.01v-.015h-.01v.014M13.008 8.277h.01v-.008h-.01v.008M13.482 7.973h-.005l.002-.006h.01l-.002.005h-.005M12.043 6.48h.004v-.017h-.004v.018" stroke-width=".05051448"/><path d="M12.026 6.588h.004v-.019h-.004v.019M11.953 7.015h.006v-.012h-.006v.012M10.89 5.285h.01v-.007h-.01v.007M12.17 7.422h.009v-.007h-.009v.007M12.86 8.91v-.006l.006.001v.004l-.002.002h-.005M12.049 6.45h.005v-.01h-.005v.01M11.957 7.032h-.003l-.001-.006.006.004-.002.002M13.046 9.117l-.005-.003-.002-.001.006-.002.002.003v.003M9.916 7.933h.009v-.004h-.009v.004M12.045 6.484h-.002l.007-.005-.002.003-.003.002M12.318 7.484l-.001-.004.006-.001-.005.006v-.001M12.959 8.052h0l-.007.003h-.006l.013-.003M10.353 7.635l-.005.002-.003.002.003-.003.005-.001M12.946 8.055h-.003l-.006.002.009-.003h0M12.967 8.049l-.004.002h-.004.003l.005-.002M13.072 8.12h.004v-.005h-.004v.005M12.877 9.056h-.002v-.002l.004-.002.001.003-.003.001M12.638 9.17h-.001l-.002-.005.004.003v.002M10.397 7.568v.1-.1.1-.1h0M12.862 6.602l-.003.002-.003-.003h.003l.003.001M13.454 7.95h-.004v-.003h.002l.002.003M11.989 7.097l-.001-.003.002-.001.001.003h-.002M12.039 6.494l-.002.001v-.008l.002.001v.006M11.935 7.02v-.003h.002v.002l-.002.002M10.806 5.28l-.001-.002v-.003l.002.004v.002M11.124 8.067l-.004-.001v-.002h.005l-.001.003" stroke-width=".05051448"/><path d="M9.803 8.658v.099h-.099v.099h-.1v.1h-.198l-.098.098v.1h-.1.1v-.1h-.496v-.099h-.099l.1-.099h-.1.1v-.099h-.1v.099h-.099v-.199h-.198v.1-.1h-.099v.1h.198v-.1.1h.1v.099l.098.1v-.1.1h-.198v-.1.1-.1h-.099l-.099.1v-.1h-.099v.1h.1v.098h-.1v.1h.1v-.1h.098v.1h.1v-.1h.098l.1-.099h.099l-.1.1V9.35h.1v.1h.099v.098h.099V9.45v.1-.1h.099v-.198.1l.099.197v.198l.099.199V10.243l.099.099v.099h.099v.099h.099v.099h-.1v.099h.1v.198h.099-.1v.198h-.198v.1h.1-.1.1v.098h-.1v-.099h-.198l-.098-.099h-.1l-.098-.099H8.614l-.099.1h-.099l-.099.098-.099.1H8.02l-.099.098-.099.1h-.099v.098h-.099v.1H7.326v.098h-.098v.1-.1H7.03v.199h-.1v.099h-.098v-.1h-.1v.1h.1v.099h-.1v.099h-.099v-.1h-.099v.1h.1-.1.1v.099h-.199v-.1.1l.1-.1v-.098h.098v-.198l.1-.1v-.198h.198v-.198h.099v-.099l.099-.099V11.035l.099-.099h.099l.099.1.099-.1.099-.099v-.1h.099l.1.1.098.099v.1H8.22l.098-.1.1-.099v-.198h.098v-.198h-.198v-.1H8.12l-.099-.098h-.198l-.099.099v.099H7.03v-.1h-.1v.1h-.098l-.1.099v-.396h.199v.099l.099-.1.099-.098v-.1l.099-.098-.1-.1v-.099H7.03l-.1-.099V9.45l-.098-.099v-.099h-.1v.198l-.099.1v.098l-.099.1v.198h-.099v.198l-.099.099h-.693v.099h-.099l-.1.099v.099l-.098.099-.1.099h-.098v.099l-.1.099-.098.1v.098l-.1.1v.098h-.098l-.1.1v.098l-.099.1v.098h-.099v.1l-.099.099h-.099l-.099.099-.099.099-.099.099v.099h.1l.098-.1h.198l.1-.098v.099l.098.099V12.62h.1l.099-.1.099-.098v-.198h.099v.099h.198v-.1.1h.099v.099h.099v.099l.099.099h.198l.1-.1-.1-.098v-.1l.1-.098h.098V12.52l-.099.099v.198h.1l.098-.1h.1l.098-.098.198-.1.1-.098h.098-.099.1v.099h-.1v.099-.1.1h-.198l.1.099h-.199v.099H6.04v.099H5.94v.099-.099l-.099.099v-.099.199l-.099.098v.198-.099h-.099l-.099-.099v-.198h-.1v-.099h-.098v-.1h-.594v.1h-.1v-.1.1h-.198v.099h-.099v-.099.099-.099.199h-.099v.098h-.099v.1h-.099v.198H3.96V13.213h.1V12.917H3.86v.099h.1v-.099.099h-.1v.1h-.198v.098h-.198.099-.099v.1-.1h.099v.198h-.099v.1h-.1v-.199h-.098.099-.1v-.099h-.098.099l-.1.1v-.1.198h-.098.099-.1.1v-.099h-.198.099-.198.099v.1H2.77V13.708v-.099.1h-.1.1-.1.1V14.006v-.1h-.1v.1h.1v.099h-.1.1-.1v-.1h-.098.099-.1.1-.1v.1h.1v.058H1.285v-.158h.099v-.099h.099v-.099h.1v-.099h.098v-.099h.1v-.099h.098v-.099h.1v-.099h.098v-.099h.1V12.917h.098v-.1H2.573v-.198H2.87v-.098h.099v.099-.1h-.1v-.098.099-.198h.1v-.1h.099v-.198h-.1v.1-.198l.1-.1v-.495h.099v-.099h.099v-.099h.198v.1h.099v-.1h-.099v-.099h-.1v-.099H3.069v.1H2.77v.098h-.098l.099.1v.098h-.1v.198h.1-.1v.198-.099.198h.1v.1h-.1v.099-.1h-.098.099-.1v-.099h-.099v.1h.1-.1v-.1h-.099v.1h-.099v.198h-.099v.099h-.198.1v.099h-.1v.099H1.88v.099H1.78v.099h-.099v.099-.1.1h-.099v-.1.1h-.099.1-.1v.099h-.099.099-.099.099V12.52h.1-.1.1-.1.1v-.098h-.199v.099h-.1v-.1h.1v-.198h-.1.1-.1v-.098.099h.1v-.198h.099v-.199h.1v-.099h-.1.1-.1.1v-.099h-.199v.198h-.198v.1-.199.1-.1h-.1v-.099H.889v.1H.593v.098h-.1v-.099H.295v.1H.195l-.099.099v.099h-.099V12.323l-.099-.1v.1H-.2v.099H-.3v.198h-.099.1-.1l.1.099h-.199v.099l-.099.099v-.1.1h-.099v.099-.099.099h-.1v.1h-.098v.197h-.1v.1-.1h.1v-.099h-.1v.198h-.098v.198h.099v.1-.1h-.1v.198h.1v-.099.1h.099-.1v-.1h.199v.1-.1h.099v.198h.099-.099v.1H-.994v.099h-.198v-.1h-.098v-.099.1h-.1v-.1.1-.1.1-.1.1h-.096.097-.097.097v.099h-.097.097-.097v-.793h.196l.099-.099.099-.099.099-.099h.099l.099-.099.099-.1.099-.098.1-.198H-.4v-.1l.1-.098.098-.1v-.098l.1-.1v-.098h.098l.1-.1v-.099h.098l.1-.099H.69l.099-.198H1.087l.099-.099.099-.099v-.099h.099v-.099l.198-.099h.198l.1-.099.098-.1v-.098l.1.099h.495l.099-.1h.495l.099.1h.099v.099h.099v-.1h.099v-.198h.1l.098-.098h.396v-.1l.1-.197.098-.1v-.197l.1-.1.098-.099H4.851V9.55h.198V8.757l-.1-.1-.098-.098v-.1l.099-.098v-.198h.099v.594h.099l.099.099.099-.099h.099l.099-.1.099-.197v-.198l.1-.1.098-.098.1-.1h.098l.1-.098h.098l.1-.1h.098v-.099l.1.1h.098l.1-.1v-.495l.099-.198v-.099l.099-.099.099-.198.099-.1V6.38l.099-.1.099.1.099.198.099.099v.099h.099V7.073l-.1.1v.197l-.098.297v.496l.099-.1.099-.098.099-.198v-.199l.1-.198.098-.198.1-.099h.098l.1.1v.198l.098.098h.198l.1-.099H8.911l.099.1.099.098h.099V7.47h.099l.099-.099v.1h.198l.198.098.1-.099V7.37h.198l.098-.099.1-.099h.098v-.099.1h.397v.098l.099-.099v-.099l.099-.099-.1-.099v-.198l-.098-.1h-.1V6.48H10.397v.198h-.099v.099l-.099-.099H10.1v-.594h.1V5.29l-.1-.099-.099-.099v-.099h-.099v-.099h-.099l-.099-.099v-.099h-.1l-.098-.099h-.1l-.197-.1-.1-.098-.098-.1-.1-.098-.098-.1h-.1l-.099-.098H8.12l-.099.099h-.099l-.099.099V4.3l-.099.099h-.099l-.1-.1h-.098v-.098h-.1V4.3l-.098.099v.099l-.1.099H7.03l-.1-.1v.1l-.098.198V5.093l-.1.098v.1l-.099.098v.1l-.099.098-.099.1v.099H6.04l-.198-.1h-.099l-.198-.099-.1-.099-.098-.198v-.099l-.1-.099v-.099l-.098-.099-.1-.099H4.753l-.1-.099h-.198l-.099-.099-.099-.1-.099-.098h-.099l-.099-.1-.099-.098-.099-.1-.099-.098h-.099l-.099.099h-.198v-.1H2.968v.1l-.098-.1V4.3l.099.099.099.099v.099l.099.099.099.1v.197l.099.1v.098l.099.1.099.098v.1l-.099.098-.1.1h-.396v.198l-.098.099-.1.099V6.38l.1.099H3.167l.099-.1h.099v.1h.099V6.776l-.1.1h-.198l-.098.098-.1.1v.098H2.87v.1h-.397l-.099-.1h-.099l-.099-.099v-.099h-.099l-.099-.099v-.099H1.88v-.397H1.78v-.098l-.099-.1v-.098l-.099-.1h-.099v-.098h-.099l-.1-.1h-.198v.199l.1.099.099.099.099.099.099.099.1.099h.098l.1.099v.198h.098v.198H1.78v.1H1.483v.098l-.099.1v.098h-.1l-.098.1h-.1v.594l-.098.099h-.1l-.098-.1h-.1v-.197H.593v-.1h-.1v-.099H.394l.1-.099.099.1H.79v-.1l.099-.099v-.198l.099-.099v-.099l-.1-.099H.69v.1H.593l-.1.098v.1l-.099.098H.294v.1H.195v-.1H.096V7.073l-.099-.099v-.099h-.099v.1h.1v.098h-.1V7.371H-.796l-.098-.1-.1-.099-.098-.099h-.198V7.371l-.1.197v.199l-.096.096V2.12H-1.19v-.1h.198l.099-.098v.099l.099-.1H-.498v-.098H.294v.099H.592l.099.099H.79l.099.099h.099v.099h.099l.099.099v.099h.099v.099l.099.099v.495h-.1V3.41h-.098.099v.098h.099v.1-.1l.099.1-.099-.1h.099v.1h.1v.099h.098v-.1.1h-.099v-.1h.1-.1.1v.1h.098-.099H1.98v-.1l.098.1v-.1h.1v.1h.098v-.1h.198-.099.397v-.099.1h.198l.099-.1h.099v.1-.1.1l.099.099h.595l.098.099H4.257h-.1.198l.1-.1.098-.098v-.1h.1-.1.199v.199h.099V4.2H5.148V4.3h.198V4.597l.099.099h.099l.099-.099h.1v.099-.099h.098-.099.1v-.1h.098V4.4h.1V4.2h-.1V3.903v.1-.198h-.099v-.1h-.198v-.098h.1v-.1.1-.1h.098v-.396h-.099v-.099h.1v.1h.396v.098H6.533l.1.1h.099v-.1.1h.099v.098h.198-.1v.1-.1.1h.1v-.1h.099-.1V3.31h-.098.099-.1v.1-.1h.199v.1h.099-.1.1-.1.1-.1.199v-.1l.099.1v-.1.1h.495l.1-.1.098.1v-.1h.1v.198h.098l.1.1h.098l.1.099h.198v.099h.198v.099H9.308l.099.099.099.099h.099-.1l.1.099.099.099h-.1.1v.099h.099-.099.099-.099v-.1h-.1.1v.1h.099l.1.099h.198-.1.1v.099h.098l.1.099.098.1.1.098.197.198.1.1h.099v.098-.099h-.1.1-.1v.1h.199v.098h.099l.099.1.198.098v.1h.198v.099h.099l.099.099v.198h.099v.099h.1v.198h.098-.099.1v.099-.1h-.1.1-.1v-.098.099-.1.496h.1-.1.1v.198l-.1-.099v.1h-.099v.098l.1-.099v.1h.098-.099.1v.098h.098v.1-.1.1-.1V7.47v-.1h.1v-.198.1l.098-.1V7.47h-.099.1-.1.1v-.1h.098-.099.1v-.099l-.1-.099h-.099v-.099.1l-.099-.1h.198v-.396h-.099.1-.1v-.1h-.099.1-.199.198-.198.793v.1h.495v.099h-.1.1v.1h.099v.198h.099v.098h.099v.1h.099v.098h.198v.1l.1.098h.098v.1h-.198v.099h-.099v.099h-.1.1v.099h-.1.1v.099h-.1.1-.1.1-.1v.099l-.098-.1h-.1v-.098h-.098V7.667h-.1v-.099.1h-.198v.099l.1.099.099.099v-.1h.099v.199h.099v.099h.099-.1.1-.1v.099h-.098v-.1h-.1v.1h-.198.1v-.1h-.198v-.098.099-.1h-.198.099v.1-.1.1h.099-.1.1v.099h-.1.199l-.1.099v.198l.1.099-.1.099-.098.099h-.199v.1h-.099.1v-.1.1h.099v.098h-.1.1-.1v.1h.1-.1.199v.098h.099v.1h-.198v-.1h-.1.1v.198H12.576v-.099h.1v-.099.1-.199.1-.1h-.1.1v.1l-.1.098h-.198v-.099h-.099v-.099l-.099-.099h-.099v-.099h-.397.1v-.099h-.1v-.099h-.098V8.459l-.1-.098.1.099h-.1v-.1.1h.1l-.1-.1h.1-.1v-.098h-.098l-.198-.1h-.198.099v-.098.099-.1.1h.099v-.1h-.1v.1-.1.1h-.098v.099h-.595v-.1h.1v-.198h-.1v-.098.099-.1h-.099v-.198.1l.1-.1v-.099.1-.1h.098-.099V7.47h.1-.1.1v-.198.1-.1h-.1v.198h-.099.1-.1v.1-.1.1-.1.1H10.2v-.1.1-.199.1l-.099-.1v.1h.1l-.1.098h-.198.1-.1v.397-.1.1h.1v.099h.098-.099.1v.198H10V8.559h-.099v.099h-.099 0M3.761 12.62v-.198l.1-.1h-.1v-.098l-.099-.1h-.099l-.099.1v.099l-.1.099v.198l.1.099v.099h.099l.1-.1.098-.098h0m-1.387-1.288h-.198l-.198.1H1.88l-.099.098-.099.1v.197l-.099.1v.396h.198l.1-.1.098-.098.1-.198.098-.1h.1l.098-.099v-.099h.1v-.198l-.1-.099h0m5.052-.099h-.1v-.099.198h.1v-.099h0m-5.11 2.93.058-.057v-.1l.1-.198v-.099l.099-.099V13.313h-.199v-.099h-.099v.1h-.099l-.099.098-.099.1-.099.098-.099.1v.098l-.099.1-.099.099v.157h.734m4.12-10.657-.1-.099-.099-.099-.099.1v.198l.1.099v.099l.098.099h.198v-.1h.1-.1v-.198h-.099v-.099h0m-3.862 1.09.099-.1.099-.098v-.1l-.1-.098v-.1h-.098l-.1-.098-.099.099V4.399h.1V4.696h.099v-.099h0m10.003 4.457h.1V8.56h-.1l-.099.099v.099h-.099v.199h.1v.198h.098v-.1h0m.496-1.585V7.172h-.1v.1h-.098v.198h.099v.098h.099V7.47h0m-2.08-.099v-.198.1h-.1v.098h.1" stroke-width=".05051448"/></g><path d="m9.803 7.568-.198-.099h-.198V7.37l-.1.1H9.21v.098h-.1l-.098-.099-.1-.099H8.615l-.099.1h-.198l-.099-.1v-.198l-.099-.099H8.02l-.099.1-.099.197-.099.198v.199l-.099.198-.1.099-.098.099V7.667l.099-.297v-.198l.099-.099V6.776h-.1v-.099l-.098-.1-.1-.197-.098-.1-.1.1v.099l-.098.099-.1.198-.098.1v.098l-.1.198v.496l-.099.099h-.099l-.099-.1v.1h-.099l-.099.099h-.099l-.099.099H5.94l-.099.099-.099.099-.099.099v.198l-.099.198-.1.099h-.098l-.1.099-.098-.099h-.1v-.594H4.95v.198l-.1.099v.099l.1.099.099.099V9.55H4.85v.098H4.553l-.099.1-.099.099v.198l-.099.099-.099.198v.099h-.396l-.099.099h-.099v.198h-.099v.099h-.1v-.1h-.098l-.1-.098H2.673l-.1.099h-.495l-.099-.1v.1l-.099.099-.099.099h-.198l-.198.1v.098h-.1v.1l-.098.098-.1.1H.79l-.1.197H.295l-.099.1H.096v.098l-.099.1h-.099v.099l-.099.099v.099l-.099.099-.099.099v.099h-.099l-.099.198-.099.099-.1.099-.098.099h-.1l-.098.1-.1.098-.098.1h-.196V7.862l.097-.096v-.199l.099-.198V7.073h.198l.099.1.099.098.099.1h.694V7.072h.098v-.099h-.099v-.099h.1v.1l.098.098V7.371h.1v.098h.098V7.37h.1l.099-.099v-.099l.099-.099H.69v-.099h.198l.099.1v.098l-.1.1v.198l-.098.098v.1H.592l-.1-.1-.099.1h.1v.099h.099v.099H.69v.198H.79l.099.099h.099l.099-.1V7.47h.099l.099-.099h.099v-.099l.099-.099v-.099H1.781v-.099h.098v-.198H1.78v-.199l-.099-.098h-.099l-.099-.1-.099-.098-.1-.1-.098-.098-.1-.1v-.198h.199l.099.1h.099v.099h.1l.098.099v.099l.1.099v.099h.098v.396h.1v.1l.098.098h.1v.1l.098.098h.1l.098.1h.397v-.1h.099v-.099l.099-.099.099-.099h.198l.099-.099V6.479h-.1v-.1h-.098l-.1.1H2.87l-.1-.1V6.084l.1-.1.099-.098v-.198h.396l.099-.1.099-.099V5.39l-.099-.099-.1-.099v-.099l-.098-.099v-.198l-.1-.099-.098-.099v-.1l-.1-.098-.098-.1V4.004l.099.099v-.1H3.266v.1h.198l.099-.1h.1l.098.1.1.099.098.099.1.099h.098l.1.099.098.099.1.099h.198l.099.1H5.049l.099.098.099.1v.098l.099.1v.098l.099.198.099.1.198.099h.1l.197.099h.396v-.1l.1-.099.098-.099V5.39l.1-.099v-.099l.099-.099V4.795l.099-.198v-.1l.099.1h.099l.099-.1V4.4l.099-.1v-.098h.099V4.3h.099l.099.099h.099l.1-.1v-.098l.098-.1h.1l.098-.098H8.614l.1.099h.099l.099.099.099.099.099.099.099.099.198.099h.099l.099.099h.099v.1l.099.098h.1v.1H10v.098l.1.1.098.098V6.083H10.1v.594h.1l.098.099v-.099h.1v-.198H10.693v.099h.1l.099.099v.199l.099.098-.1.1v.098l-.098.1v-.1h-.397v-.099.1h-.099l-.099.098-.099.1h-.198v.098l-.099.1h0m-.297-1.486v-.1h-.1v.199h.1l.099-.1h-.1 0" stroke-width=".05051448" stroke="#a9d168" fill="#a9d168"/><g stroke-width=".051" stroke="#96cb65" fill="#96cb65"><path d="M9.803 1.23h.1v-.1.1-.1.1H10v-.1.1h.198-.099.1v-.1h.098v.1-.1.1-.1h.1v.1h.198v.098-.099.1-.1h-.1v.1h.198v.098l-.099-.099v.1h.1-.1.1v.099h.099-.1v-.1.1h.1v.099h.099v.099l-.1.099-.099.099h-.198v.099-.1h-.099.1-.1.1l-.1.1H10.2v.099H10.1v-.1.1l.1-.1h-.1v.1-.1.1-.1.1-.1h-.099.1v.1-.1l-.1.1v-.1.1-.1.1h.1-.1.1-.1v-.1h-.099l-.099-.098v.099h-.099v.099h-.198.099-.198l-.1.099v-.198l-.098-.1v-.098h.099v-.198h.198v-.199h.099v-.099h.099-.1v.1-.1h.199V1.23h-.099v.1-.1.1-.1h.099" stroke-width=".05051448"/><path d="M10.2 1.13h.098l.1.1h.198-.199v-.1H10.2h0M10.694 1.328v.1-.1h-.099V1.23v.1h.1M10.1 1.13h.1-.1.1-.1 0M9.702 1.323h.04v-.037h-.04v.037M9.97 1.167h.069V1.15H9.97v.016M10.1 2.022v.099-.1.1-.1h0" stroke-width=".05051448"/><path d="M10.657 1.387h.01v-.01h-.01v.01M9.95 1.173l-.008.004h-.005l.009-.004h.004M10.695 1.396l-.003-.004-.001-.005.002.003.002.006M10.207 1.206v-.01h0l.003.004-.003.006M10.065 2.081l.001-.002h.006l-.003.004-.004-.002M10.133 1.216v-.001l.006-.002h.004l-.01.003M10.127 2.067h.005V2.06h-.005v.006M10.54 1.27h.009v-.003h-.01v.003M10.65 1.419l-.003-.002v-.002l.005.002-.002.002M9.953 1.172h.003l.002.002-.005-.001v-.001M10.224 1.15h.001v.002l-.002-.001v-.002" stroke-width=".05051448"/></g><g stroke-width=".051" stroke="#fff"><path d="M7.525 11.728h-.198v.1h-.1v.099-.1H7.03v.199h-.098v.099h-.1v-.1h-.098v.1h.099v.099h-.1v.099h-.099v-.1h-.099v.1h.1-.1.1v.099h-.199v-.1.1h.1-.1.1v.099h-.1v.099-.1.1h-.198l.1.099h-.199v.099H6.04v.099H5.94v.099-.099l-.099.099v-.099.199l-.099.098v.198-.099h-.099l-.099-.099v-.198h-.1v-.099h-.098v-.1h-.594v.1h-.1v-.1.1h-.198v.099h-.099v-.099.099-.099.199h-.099v.098h-.099v.1h-.099v.198H3.96V13.213h.1V12.917H3.86v.099h.1v-.099.099h-.1v.1h-.198v.098h-.198.099-.099v.1-.1h.099v.198h-.099v.1h-.1v-.199h-.098.099-.1v-.099h-.098.099l-.1.1v-.1.198h-.098.099-.1.1v-.099h-.198.099-.198.099v.1H2.77V13.708v-.099.1h-.1.1-.1.1V14.006v-.1h-.1v.1h.1v.099h-.1.1-.1v-.1h-.098.099-.1.1-.1v.1h.1v.058H1.285v-.158h.099v-.099h.099v-.099h.1v-.099h.098v-.099h.1v-.099h.098v-.099h.1v-.099h.098v-.099h.1V12.917h.098v-.1H2.573v-.198H2.87v-.098h.099v.099-.1h-.1v-.098.099-.198h.1v-.1h.099v-.198h-.1v.1-.198l.1-.1v-.495h.099v-.099h.099v-.099h.198v.1h.099v-.1h-.099v-.099h-.1v-.099H3.069v.1H2.77v.098h-.098l.099.1v.098h-.1v.198h.1-.1v.198-.099.198h.1v.1h-.1v.099-.1h-.098.099-.1v-.099h-.099v.1h.1-.1v-.1h-.099v-.198h.1v-.099h-.1.1-.1v-.099h-.099.1v-.099h.198v-.198l-.1-.099h.1v-.099h-.1v-.099h-.099v-.1h-.099.1v-.198h.198v-.198h-.1.1v-.098h.099v-.1h-.1.1-.1.1v-.098h-.1v-.1h-.099.1-.1v-.098h.1V9.549h.198v-.198h.099-.1v-.198h-.098.099-.1.1-.1v-.099h.1v-.099.1-.1h-.1.1v-.099h.099v-.099.099-.099.099-.099.099H3.167v-.099.099h.099v.1h.198v.098-.198h.099v.1h.198v.098h.1v.1H4.156v.098-.099.1-.1h.1v.1-.1h.198v-.099.198h.098v.1h.1v.098-.099.1h.198v-.1.1h.198v.198h.099v.098h.099-.1.1-.1.199v.1h.099v.198h-.1v.099h.1-.198v.099h-.1v.099H5.05h.099-.1v.099h.1-.1v.099H4.95v.099h.198v.099-.1h.099v.1h.099v.099-.1.1h.099v.099h.198v.1h-.099v.098h.099v.198h.396v-.099h.1v.1-.1.1-.1.1h.098v-.1h.198-.099.1v-.099h.098v.1h.1v-.1h.099v.1h.198v-.1h.198v-.099.1h.198v.396h.099v.098h.099-.1.1-.1.1v.1h-.1.1" stroke-width=".05051448"/><path d="M3.167 14.106v-.1h.099v-.099.1h.099v.157H3.01l.058-.058h-.1.1-.1.199M2.719 13.74h.035v-.058H2.72v.059M2.431 11.961h.062v-.025H2.43v.025M3.331 13.655h.021v-.033h-.02v.033" stroke-width=".05051448"/><path d="M2.72 13.71h.01v-.033h-.01v.033M2.633 12.059h.017v-.017h-.017v.017M2.963 13.326h.015v-.017h-.015v.017M6.63 12.37h.015v-.016H6.63v.015M2.753 12.582h.013v-.018h-.013v.018M2.833 11.262h.013v-.014h-.013v.014M2.541 12.63l-.002-.001.007-.02h.001v.015l-.006.006M2.619 14.026l.004.011-.007.003v-.007l.003-.007M2.64 12.035l-.003-.009.002-.003.005-.002-.005.014M2.634 14.024h.01v-.01h-.01v.01M2.25 12.907h.006v-.012H2.25v.012M2.282 12.85l-.003-.002.002-.004.006-.001-.005.007M3.287 10.967h.007v-.004h-.007v.004M6.792 12.23l-.004-.003-.001.001.001-.001.004.003M2.936 13.417v.003l-.004-.001v-.003l.004.001M6.479 12.587h-.002v-.004l.003.002-.001.002M3.349 11.039h-.003 0l.002-.003v.003M2.847 11.238h.002l-.002.002v-.002M2.465 11.916l-.001-.002.002-.001v.001l-.001.002M3.35 11.007h-.003l.002-.002v.002M-1.486 2.12H-1.19v-.098h.198l.099-.1v.1l.099-.1H-.498v-.098H.294v.099H.592l.099.099H.79l.099.099h.099v.099h.099l.099.099v.099h.099v.099l.099.099v.495h-.1V3.41h-.098.099v.098h.099v.1-.1l.099.1-.099-.1h.099v.1h.1v.099h.098v-.1.1h-.099v-.1h.1-.1.1v.1h.098-.099H1.98v-.1l.098.1v-.1h.1v.1h.098v-.1h.1V3.905h.098v.198h.1l-.1.099h.1-.1V4.498h.1v.198h-.1v.198h.1-.1V5.192h-.099v.098-.099H2.077v-.099H1.88v.1H1.78v.098h-.496v.1-.1h-.198v.1-.1.1-.1.1H.79v.098h-.1v.1H.593v.198H.69v.099H.493v.099h-.1v.099h.1-.1v.099h.1v.198h.099v.099H.69v.099h.198v.396h-.1.1-.1v.198H.692.79h-.1.1v.1h-.1v.098h.1-.1.1-.1.1-.1v.198h.1-.1v.1-.1H.394v.1H.294v.198H.195v-.1.1-.1H.096v-.099h-.099V7.47v.1h-.099v.098H-.399v-.099h-.495V7.47h-.1v.198h-.098.099v.199h-.1v.099-.1H-1.388v.1h.099v.099h-.1v.198h.1v.099h-.196V2.12M1.681 2.22h-.099v-.198.099-.1l.1.1v.099h0M1.978 2.22v-.1h.1-.1l.1.1v.099-.1h-.1 0M2.374 2.418h.1-.199.1" stroke-width=".05051448"/><path d="m1.978 2.12.1-.098v.099h-.1v-.1.1h0M1.585 3.623h.064v-.03h-.064v.03M1.78 3.62h.05v-.031h-.05v.03M1.725 3.71h.031v-.043h-.03v.044M1.76 3.683h.025v-.037H1.76v.037" stroke-width=".05051448"/><path d="M1.78 3.706v-.1h-.099.1v.1h0M-1.253 2.11h.034v-.022h-.034v.022M2.077 2.418v-.1.1-.1.1h0M-.495 1.91h.017v-.037h-.017v.037M1.795 3.654h.025v-.02h-.025v.02M1.241 3.373h.012v-.036h-.012v.036M1.414 3.552h.016v-.026h-.016v.026M-1.213 2.088h.027v-.015h-.027v.015M1.84 3.657h.016v-.02H1.84v.02" stroke-width=".05051448"/><path d="M1.4 3.535h.018v-.016H1.4v.016M1.79 3.69h.015v-.018H1.79v.019M-1.455 2.153l-.008-.011.013-.005.002.005-.007.011M2.186 3.645h.01v-.02h-.01v.02M1.765 3.622h.014V3.61h-.014v.013M2.17 3.656h.008v-.022H2.17v.022M1.828 3.646h.013V3.63h-.013v.015M1.695 3.73H1.68l-.001-.001.005-.005.01-.004v.01M1.428 3.542l.003-.01.009.005.004.005h-.016M1.255 3.349 1.25 3.33v-.009l.005.002v.025M1.806 3.69h.008v-.016h-.008v.015M1.752 3.663h.007v-.016h-.007v.016M1.74 3.668l-.01-.006v-.005l.008.003.002.008M1.782 3.595l-.002-.001.001-.003.006-.005.002.001-.007.008M1.772 3.587h.009v-.005h-.01v.005M-.494 1.886h.006v-.007h-.006v.007M1.776 3.6h-.003l-.002-.004h.003l.004.003-.002.002M1.785 3.626h-.001l-.001-.005.005.004h-.003M1.58 3.604l-.004-.002V3.6h.003l.002.004M1.705 3.706 1.7 3.704h0l.002-.002.004.002v.002M2.294 3.7l-.001-.004.002-.002.001.003-.002.002M1.474 3.591l-.003-.002v-.002h.002l.001.004M1.747 3.667h-.004v-.002h.006l-.002.002M1.632 3.627l-.003-.002v-.002l.003.001v.003M1.386 3.519h.002l.003.003-.003-.001-.002-.002M1.65 3.614V3.61h.004l-.001.001-.004.002M2.201 3.632l-.002-.002v-.003l.003.002-.001.003M1.398 3.521l-.002-.003v-.001H1.4v.004M2.217 3.62l-.002-.002.001-.002.002.001-.001.002M1.949 2.075l.001.002h-.005l.002-.002h.002M1.77 3.677h-.002v-.003l.002.002v.001M2.374 11.827v.1h-.099v.198h-.099v.099h-.198.1v.099h-.1v.099H1.88v.099H1.78v.099h-.099v.099-.1.1h-.099v-.1.1h-.099.1-.1v.099h-.099.099-.099.099V12.52h.1-.1.1-.1.1v-.098h-.199v.099h-.1v-.1h.1v-.198h-.1.1-.1v-.098.099h.1v-.198h.099v-.199h.1v-.099h-.1.1-.1.1v-.099h-.199v.198h-.198v.1-.199.1-.1h-.1v-.099H.889v.1H.593v.098h-.1v-.099H.295v.1H.195l-.099.099v.099h-.099V12.323l-.099-.1v.1H-.2v.099H-.3v.198h-.099.1-.1l.1.099h-.199v.099l-.099.099v-.1.1h-.099v.099-.099.099h-.1v.1h-.098v.197h-.1v.1-.1h.1v-.099h-.1v.198h-.098v.198h.099v.1-.1h-.1v.198h.1v-.099.1h.099-.1v-.1h.199v.1-.1h.099v.198h.099-.099v.1H-.994v.099h-.198v-.1h-.098v-.099.1h-.1v-.1.1-.1.1-.1.1h-.096.097-.097.097v.099h-.097.097-.097V8.36h.196v-.1h-.1v-.198h.1v-.098h-.1v-.1H-1.091v.1-.1h.099v-.198h-.1.1V7.47h.099v.1H-.4v.098H-.1v-.099h.098V7.47v.198h.1v.1h.098v.099-.1.1h.1v-.199h.098v-.099H.691v.1-.1H.79h-.1V7.37h.1-.1.1-.1.199v.1h.198v.098h-.1v.199l-.098.099v.099h.099v.099h.198v.099h.099v.099-.1h.099v.1-.1.1h.099v.198h.1v.099h.396v.099h.098v.198h.1v.1H2.472v.098H2.771h-.1v.1h.1-.1.1-.1.1v.198h.099-.1v.198h-.198V9.846h-.099v.099h.1-.1.1v.099h.099v.099h-.1.1-.1.1v.099h-.1v.099h-.099.1v.198h-.199v.198h-.099.1v.099h.098v.099h.1v.1h-.1l.1.098v.198h-.199v.1h-.099.1v.098h.098-.099.1v.1h-.1v.198h0" stroke-width=".05051448"/><path d="M-1.003 13.454h.021v-.04h-.02v.04M-.52 13.879h.038v-.018H-.52v.018M1.325 12.545l-.01-.002v-.003l.009-.009.003.012-.002.002M-1.009 13.673h.014v-.01h-.014v.01M-.513 13.98l-.006-.008.01-.006-.003.013v.002-.001" stroke-width=".05051448"/><path d="M-1.006 13.671v.003h-.005l-.001-.003.002-.005.004.005M-1.065 13.624h.006v-.005h-.006v.005M-.957 13.362h-.002l-.002-.006.001.001h.002l.001.005M1.464 11.856h.008v-.002h-.008v.002M1.346 12.122h.007l-.007.003v-.003M1.52 12.495h-.002l.002-.004.003.001-.002.003M-.604 13.97H-.6v-.005h-.004v.005M-.962 13.327l-.002-.004.003.002-.001-.003.002.004-.002.001M-.96 13.779h-.003l-.002-.003.006.002H-.96M1.516 12.531h.002l.001.003h-.002v-.003M1.151 11.785H1.15v-.003l.002.002-.001.001M9.803 1.23h.1v-.1.1-.1.1H10v-.1.1h.198-.099.1v-.1h.098v.1-.1.1-.1h.1v.1h.198v.098-.099.1-.1h-.1v.1h.198v.098l-.099-.099v.1h.1-.1.1v.099h.099-.1v-.1.1h.1v.099h.099v.099l-.1.099-.099.099h-.198v.099-.1h-.099.1-.1.1l-.1.1H10.2v.099H10.1v-.1.1l.1-.1h-.1v.1-.1.1-.1.1-.1h-.099.1v.1-.1l-.1.1v-.1.1-.1.1h.1-.1.1-.1v-.1h-.099l-.099-.098v.099h-.099v.099h-.198.099-.198l-.1.099v-.198l-.098-.1v-.098h.099v-.198h.198v-.199h.099v-.099h.099-.1v.1-.1h.199V1.23h-.099v.1-.1.1-.1h.099" stroke-width=".05051448"/><path d="M10.2 1.13h.098l.1.1h.198-.199v-.1H10.2h0M10.694 1.328v.1-.1h-.099V1.23v.1h.1M10.1 1.13h.1-.1.1-.1 0M9.702 1.323h.04v-.037h-.04v.037M9.97 1.167h.069V1.15H9.97v.016M10.1 2.022v.099-.1.1-.1h0" stroke-width=".05051448"/><path d="M10.657 1.387h.01v-.01h-.01v.01M9.95 1.173l-.008.004h-.005l.009-.004h.004M10.695 1.396l-.003-.004-.001-.005.002.003.002.006M10.207 1.206v-.01h0l.003.004-.003.006M10.065 2.081l.001-.002h.006l-.003.004-.004-.002M10.133 1.216v-.001l.006-.002h.004l-.01.003M10.127 2.067h.005V2.06h-.005v.006M10.54 1.27h.009v-.003h-.01v.003M10.65 1.419l-.003-.002v-.002l.005.002-.002.002M9.953 1.172h.003l.002.002-.005-.001v-.001M10.224 1.15h.001v.002l-.002-.001v-.002M9.803 8.658v.099h-.099v.099h-.1v.1h-.198l-.098.098v.1h-.1.1v-.1h-.496v-.099h-.099l.1-.099h-.1.1v-.099h-.1v.099h-.099v-.199h-.198v.1-.1h-.099v.1h.198v-.1.1h.1v.099l.098.1v-.1.1h-.198v-.1.1-.1h-.099l-.099.1v-.1h-.099v.1h.1v.098h-.1v.1h.1v-.1h.098v.1h.1v-.1h.098l.1-.099h.099l-.1.1V9.35h.1v.1h.099v.098h.099V9.45v.1-.1h.099v-.198.1l.099.197v.198l.099.199V10.243l.099.099v.099h.099v.099h.099v.099h-.1v.099h.1v.198h.099-.1v.198h-.198v.1h.1-.1.1v.098h-.1v-.099h-.198l-.098-.099h-.1l-.098-.099H8.614l-.099.1h-.099l-.099.098-.099.1H8.02l-.099.098-.099.1h-.099v.098h-.099v.1h-.198.099v-.1h-.1.1-.1.1-.1v-.099h-.098v-.396h-.198v-.099.1H6.93v.098h-.198v-.099h-.1v.1h-.099v-.1h-.099v.1h-.099.1-.199v.098h-.099v-.099.1-.1.1-.1H6.04v.1h-.396v-.199h-.099v-.099h.099v-.099h-.199v-.099h-.098v-.1.1-.1h-.1v-.098h-.098v.099-.1H4.95v-.098h.099v-.1h.099-.1v-.098h.1-.1.1v-.1h.099v-.098h.198-.1v-.1h.1v-.198h-.1v-.099h-.198.1-.1.1-.1v-.099H5.05V9.45H4.85v-.099.1h-.198v-.1.1-.1h-.1v-.099h-.099v-.198.1h-.198v.098-.099h-.099v.1-.1.1-.1H3.86v-.099h-.099v-.099h-.198v-.099h-.099v.198-.099h-.198v-.099h-.1v-.099.099H2.87v-.099.099-.099.099-.099.099h-.1v.1h-.098.099v.098-.099.1H2.473v-.1H2.176v-.099h-.099v-.199h-.099V8.56h-.396v-.1h-.099v-.198h-.099v-.098.099-.1h-.1v.1-.1h-.098v-.098H.988v-.1h-.1v-.098l.1-.1v-.198h.099V7.47H.889V7.37H.69v-.099H.79v-.099h-.1.1-.1.1v-.198h.099-.1.1v-.397H.69V6.48h-.1v-.1H.494v-.198h-.1v-.098h.1-.1v-.1h.1v-.098H.69v-.1h-.1v-.198h.1v-.099H.79V5.39H1.087V5.29v.1-.1.1-.1h.198v.1-.1h.496v-.099h.098v-.099h.198v.1H2.375v.098-.099h.098V4.894h.1-.1v-.198h.1v-.199h-.1V4.202h.1-.1l.1-.1h-.1v-.198h-.099V3.608h.1-.1.397v-.1.1h.198l.099-.1h.099v.1-.1.1l.099.099h.595l.098.099H4.257h-.1.198l.1-.1.098-.098v-.1h.1-.1.199v.199h.099V4.2H5.148V4.3h.198V4.597l.099.099h.099l.099-.099h.1v.099-.099h.098-.099.1v-.1h.098V4.4h.1V4.2h-.1V3.903v.1-.198h-.099v-.1h-.198v-.098h.1v-.1.1-.1h.098v-.396h-.099v-.099h.1v.1h.396v.098H6.533l.1.1h.099v-.1.1h.099v.098h.198-.1v.1-.1.1h.1v-.1h.099-.1V3.31h-.098.099-.1v.1-.1h.199v.1h.099-.1.1-.1.1-.1.199v-.1l.099.1v-.1.1h.495l.1-.1.098.1v-.1h.1v.198h.098l.1.1h.098l.1.099h.198v.099h.198v.099H9.308l.099.099.099.099h.099-.1l.1.099.099.099h-.1.1v.099h.099-.099.099-.099v-.1h-.1.1v.1h.099l.1.099h.198-.1.1v.099h.098l.1.099.098.1.1.098.197.198.1.1h.099v.098-.099h-.1.1-.1v.1h.199v.098h.099l.099.1.198.098v.1h.198v.099h.099l.099.099v.198h.099v.099h.1v.198h.098-.099.1v.099-.1h-.1.1-.1v-.098.099-.1.496h.1-.1.1v.198l-.1-.099v.1h-.099v.098l.1-.099v.1h.098-.099.1v.098h.098v.1-.1.1-.1V7.47v-.1h.1v-.198.1l.098-.1V7.47h-.099.1-.1.1v-.1h.098-.099.1v-.099l-.1-.099h-.099v-.099.1l-.099-.1h.198v-.396h-.099.1-.1v-.1h-.099.1-.199.198-.198.793v.1h.495v.099h-.1.1v.1h.099v.198h.099v.098h.099v.1h.099v.098h.198v.1l.1.098h.098v.1h-.198v.099h-.099v.099h-.1.1v.099h-.1.1v.099h-.1.1-.1.1-.1v.099l-.098-.1h-.1v-.098h-.098v-.1h-.1.1v.199h.099v.099h.099-.1.1-.1v.099h-.098v-.1h-.1v.1h-.198.1v-.1h-.198v-.098.099-.1h-.198.099v.1-.1.1h.099-.1.1v.099h-.1.199l-.1.099v.198l.1.099-.1.099-.098.099h-.199v.1h-.099.1v-.1.1h.099v.098h-.1.1-.1v.1h.1-.1.199v.098h.099v.1h-.198v-.1h-.1.1v.198H12.576v-.099h.1v-.099.1-.199.1-.1h-.1.1v.1l-.1.098h-.198v-.099h-.099v-.099l-.099-.099h-.099v-.099h-.397.1v-.099h-.1v-.099h-.098V8.459l-.1-.098.1.099h-.1v-.1.1h.1l-.1-.1h.1-.1v-.098h-.098l-.198-.1h-.198.099v-.098.099-.1.1h.099v-.1h-.1v.1-.1.1h-.098v.099h-.595v-.1h.1v-.198h-.1v-.098.099-.1h-.099v-.198.1l.1-.1v-.099.1-.1h.098-.099V7.47h.1-.1.1v-.198.1-.1h-.1v.198h-.099.1-.1v.1-.1.1-.1.1H10.2v-.1.1-.199.1l-.099-.1v.1h.1l-.1.098h-.198.1-.1v.397-.1.1h.1v.099h.098-.099.1v.198H10V8.559h-.099v.099h-.099 0" stroke-width=".05051448"/><path d="M4.95 3.607h-.198v-.1h-.1v-.099l.1-.099V3.21v.1-.1h.099-.1.199-.1.199l.099.1h.198v.198h-.1.1-.1v.099h.1-.1v.099H4.95v-.1h0M9.605 4.2v-.098.099l.099.099.099.099-.099-.1v-.098.099l-.1-.1h0M10.794 8.262h-.496.694v-.1.1h-.198 0M12.973 9.054h-.1.1v-.198.1-.1h.099v.1h.099-.1v.098h-.098 0M5.643 3.507h.1-.1v.1-.1h-.099.099" stroke-width=".05051448"/><path d="M5.241 3.356h.11v-.089h-.11v.089M12.874 9.153v-.099h.099v.1h-.1 0M12.081 6.578v-.1.1-.1.199h-.099.1v-.1h-.1.1M14.458 7.866v.099h-.099.1v-.1h0M4.976 3.224h.08v-.036h-.08v.036M4.206 3.845h.053v-.03h-.053v.03M4.144 3.845h.038V3.81h-.038v.035M3.15 3.574l-.004-.007.03.037-.005-.002-.02-.028" stroke-width=".05051448"/><path d="M4.247 3.842h.043v-.024h-.043v.024M12.068 6.166h.026V6.13h-.026v.037M12.333 7.473h.021v-.04h-.021v.04M4.19 3.833h.028v-.03H4.19v.03M4.835 3.641h.027v-.032h-.027v.032M4.963 3.196h.03v-.024h-.03v.024M5.607 3.582h.03V3.56h-.03v.023M4.164 3.83h.022v-.025h-.022v.026M4.637 3.466h.019v-.024h-.019v.024M5.6 3.505l-.006.007-.014.011.004-.005.016-.014h0M13.08 8.254h.016v-.025h-.015v.025M4.623 3.49l.013-.023h.002l-.01.02-.005.002M4.37 3.78l.004-.002-.016.01-.01.003.022-.01M5.205 3.26h.016l.018.007-.003.002h-.004l-.027-.01M7.404 3.343l-.023-.01v-.001l.022.01h0M10.368 7.62h.026v-.009h-.026v.01M6.998 3.503h.008V3.47h-.008v.032M11.987 7.096H12V7.08h-.014v.015" stroke-width=".05051448"/><path d="M4.214 3.822h.015V3.81h-.015v.012M12.044 6.454h.006v-.028h-.006v.028M10.795 5.292h.007V5.27h-.007v.02M4.847 3.91l-.008-.004v-.008l.011.001-.003.012M10.84 5.325h.008v-.018h-.008v.018M4.275 3.846h.01v-.013h-.01v.013M4.614 3.506l-.001-.001.009-.012h0l-.008.013M12.17 7.37h.01v-.015h-.01v.014M5.109 3.27h.011v-.008H5.11v.008M5.154 3.287h.009v-.01h-.01v.01M6.759 3.219h.004v.004l-.007.006v-.002l.003-.008M13.008 8.277h.01v-.008h-.01v.008M13.482 7.973h-.005l.002-.006h.01l-.002.005h-.005M12.043 6.48h.004v-.017h-.004v.018M5.181 3.28l-.005-.004-.002-.005V3.27l.007.007v.003M12.026 6.588h.004v-.019h-.004v.019M11.953 7.015h.006v-.012h-.006v.012M10.89 5.285h.01v-.007h-.01v.007M7.18 3.316l.017-.003h0l-.017.003M9.26 9.12l-.003-.004-.002-.006.003.002.003.008M8.313 8.683h.01v-.006h-.01v.006M12.17 7.422h.009v-.007h-.009v.007M7.009 3.485l-.003-.009.003-.005.002.003-.002.01M7.003 3.507v.002l-.006-.007V3.5l.005.005v.003M6.945 3.49l.001-.002.008-.001-.002.005-.007-.003M5.92 3.962l.005-.003-.005.01v-.007M12.86 8.91v-.006l.006.001v.004l-.002.002h-.005M5.192 3.3l-.003-.005v-.002h.003l.003.008-.003-.001M7.007 3.507v.002l-.003-.006.004-.008-.001.012" stroke-width=".05051448"/><path d="M12.049 6.45h.005v-.01h-.005v.01M5.183 3.29v-.003h.004l.003.005-.007-.002M4.66 3.46h-.002l.006-.004h.006l-.01.004M11.957 7.032h-.003l-.001-.006.006.004-.002.002M13.046 9.117l-.005-.003-.002-.001.006-.002.002.003v.003M9.916 7.933h.009v-.004h-.009v.004M7.375 3.33l-.011-.003h0l.01.002h.001M12.045 6.484h-.002l.007-.005-.002.003-.003.002M12.318 7.484l-.001-.004.006-.001-.005.006v-.001M5.923 3.967v-.003l.002-.003.001.007-.003.003v-.004M12.959 8.052h0l-.007.003h-.006l.013-.003M10.353 7.635l-.005.002-.003.002.003-.003.005-.001M7.2 3.376l-.004-.004v-.001l.004.002.001.002h0M7.308 3.353h-.003l-.002-.005h.003l.002.005M3.18 3.61l-.003-.002-.002-.003h0l.005.005M12.946 8.055h-.003l-.006.002.009-.003h0M4.224 3.81l-.003.002h-.003l.002-.002h.006-.002M4.186 3.837l-.002.001v-.002l.002-.003.003.001-.003.003M12.967 8.049l-.004.002h-.004.003l.005-.002M13.072 8.12h.004v-.005h-.004v.005M4.677 3.47l-.001.002-.004-.004h.003l.002.002M12.877 9.056h-.002v-.002l.004-.002.001.003-.003.001M12.638 9.17h-.001l-.002-.005.004.003v.002M6.999 3.489l-.003-.005.001-.002.002.001v.006M9.276 9.1l.002.003v.002L9.275 9.1h-.002.002M10.397 7.568v.1-.1.1-.1h0M12.862 6.602l-.003.002-.003-.003h.003l.003.001M13.454 7.95h-.004v-.003h.002l.002.003M11.989 7.097l-.001-.003.002-.001.001.003h-.002M12.039 6.494l-.002.001v-.008l.002.001v.006M5.918 3.96l.002-.002h.001l-.002.005V3.96M11.935 7.02v-.003h.002v.002l-.002.002M10.806 5.28l-.001-.002v-.003l.002.004v.002M11.124 8.067l-.004-.001v-.002h.005l-.001.003M7.004 3.507l.001.004h0l-.002-.006.001.002M9.75 4.366l.002.001v.002H9.75v-.003M5.583 4.663l-.003-.001V4.66h.003v.003M5.852 3.48h0v-.003l.002.002-.002.002M9.491 4.08 9.49 4.08l.005.001h0-.003M5.851 3.481v.002l-.001.001V3.48l.001.001" stroke-width=".05051448"/></g><path d="M-1.486 14.164h17.829V-1.288H-1.486v15.452m11.71-13.015.001.001v.002l-.002-.001v-.002m.427.27-.003-.002v-.002l.005.002-.002.002m.045-.023-.003-.004-.001-.005.002.003.002.006m-.745-.223-.008.004h-.005l.009-.004h.004m.003-.001h.003l.002.002-.005-.001v-.001m.18.044v-.001l.006-.002h.004l-.01.003m.074-.01v-.01l.003.004-.003.006m-.116-.062v.003l.006-.003.004.002h.006l-.006-.002.012.003h.012l.005-.002.01.004.002-.001-.001-.002.007.004.004-.001.004.002h.003l.002-.001.004.002h.002l.011.002.002-.002v-.005.009h-.008l.005.002-.017-.005-.013-.002-.006.002-.007.008-.004.001-.003.004-.002.002-.003.001.007-.005-.002-.007-.006-.005-.01-.002h-.004l-.01.012-.003-.008-.006-.01h-.008l-.006.006-.002-.001v.002l-.002-.002.007-.006h.013l.058-.009.015.001.024.005.012.004.002.003-.014-.006-.001.001-.008-.003-.017-.003-.009.002v-.002l-.003.005v-.004l-.006.003v-.003l-.002.003-.001-.003-.006.003h-.004v.003l-.002-.003-.002.002v-.003l-.014.005.005-.004h-.001l-.005.003.001.002-.004-.002h-.01v.002l-.001-.001h-.006m-.026.937.001-.002h.006l-.003.004-.004-.002m.064-.016-.002.002V2.06l.003.001.002-.001-.002.002-.001.002m-.853 7.036.002.002v.002L9.275 9.1h-.002.002m-.015.019-.004-.004-.002-.006.003.002.003.008m.488-4.754.003.001v.002H9.75v-.003m-4.167.297-.003-.001V4.66h.003v.003M4.37 3.78l.004-.002-.016.01-.01.003.022-.01m5.121.3-.002-.002.005.001h-.003m-3.568-.113v-.003l.002-.003.001.007-.003.003v-.004m-1.076-.056-.008-.005v-.008l.011.001-.003.012m-.623-.1h-.003l-.003.002.002-.003h.006-.002m-.006.004.007-.004.004.003-.003.001v.008l-.008-.002-.003.002v-.003l.003-.005m.067.011-.002.004h.002l-.009.007h-.003l-.003-.003v.003h-.006l.002.002-.006-.002.001.003-.004-.002v.005l-.003-.002-.003-.005v-.01l-.004-.004.011-.003h.008l.016.003.007.003v.002l-.004-.001m-.099.012-.002.001v-.002l.002-.003.003.001-.003.003m.044-.015.004.001h-.002l.002.002.01-.003.007.003v.01l.004.007.004.002-.006.001-.025-.008h-.013v-.005l-.009-.003.001-.003.01-.005.009.001.002-.006.003.002-.002.001v.003m-.085.022.001-.006.01-.002.005-.007-.002-.008-.009-.006v-.004l.003-.001h.004l.007.003.007.02.004.003.008-.002-.002.004-.029.005-.006.002h-.001m1.774.116.002-.003h.001l-.002.005V3.96M7.2 3.376l-.004-.004v-.001l.004.002.001.002m.203-.032-.023-.01v-.001l.022.01m-.028-.012-.011-.003.01.002h.001m-.195-.013.017-.003-.017.003m.128.037h-.003l-.002-.005h.003l.002.005M4.66 3.46h-.002l.006-.004h.006l-.01.004m.532-.16-.003-.005v-.002h.003l.003.008-.003-.001m.05-.033.034.014.031.02.021.02.017.023.007.012-.024-.034-.02-.02-.005.002-.006-.005-.016-.006-.01.001-.008-.003-.008-.005-.008-.013-.006-.003v-.003h.002m-.062.012-.005-.003-.002-.005V3.27l.007.007v.003m.024-.02.016.002.018.006-.003.002h-.004l-.027-.01M7 3.49l-.003-.005.001-.002.002.001v.006m.005.018.001.004-.002-.006.001.002m-.001 0v.002l-.006-.007V3.5l.005.005v.003m.005 0v.002l-.003-.006.004-.008-.001.012M7 3.502l-.003-.004L7 3.482l.004-.01.002.021-.004.01h-.001m-2.387.003-.001-.001.009-.012-.008.013m.986-.001-.006.007-.014.011.004-.005.016-.014m-2.42.106-.003-.002-.002-.003.005.005m3.829-.125-.003-.009.003-.005.002.003-.002.01M5.85 3.482v.002l-.001.001V3.48l.001.001m.001 0v-.004l.002.002-.002.002m-1.23.008.014-.022h.002l-.01.02-.005.002m.054-.019-.001.002-.004-.004h.003l.002.002m7.961 5.7h-.001l-.002-.005.004.003v.002m.238-.114h-.002v-.002l.004-.002.001.003-.003.001m-1.753-.989-.004-.001v-.002h.005l-.001.003m-1.203-.135-.005.001.003-.004v.001h.002l-.002.001.006.001h-.004m.432-.297-.005.002-.003.002.003-.003.005-.001m.025-.018h-.002l-.002.002.005-.004v.003h-.002.001m-.007 0-.003.002.003-.003.01-.004.004-.001H10.394l-.001.002-.002-.002h-.008l-.012.006m1.947-.134-.001-.004.006-.001-.005.006v-.001m-.383-.463v-.004h.002v.002l-.002.002m.022.011h-.003l-.001-.006.006.004-.002.002m-.003-.017v-.003l.003-.007v.004l.002-.006v.004l-.002.003h-.002v.005m.034.082-.001-.003.002-.001.001.003h-.002m.008-.005-.006-.009-.004.002v-.002h.005l.01.014-.005-.005m1.078 1.028h.001-.002l-.002-.004.004.002h-.002l.001.002m-.129-.064h-.003l-.006.002.009-.003m.013-.002-.007.003h-.006l.013-.003m.008-.003-.004.002h-.004.003l.005-.002m.487-.099h-.004v-.003h.002l.002.003m-1.425-1.362h-.003l.002-.008v-.003l.002-.002V6.57v.006l-.003.011h.002v.002m.833.014-.003.002-.003-.003h.003l.003.001m-.823-.108-.002.001v-.008l.002.001v.006m.006-.01h-.002l.007-.005-.002.003-.003.002m0-.004h-.002l.002-.006-.001-.005.002-.006.001.004-.003.013m.005-.03.001-.005.002-.004h-.002.003v.002l.001-.003-.005.01m0 .001-.005.003.004-.01-.003-.009.003-.01.001.01v-.002l-.001.004v-.003.017-.002l.002.002m-1.244-1.17-.001-.003v-.003l.002.004v.002m-.146-3.9.005.006-.009-.01.004.003m-.116-.11-.005-.003.009.003h-.004m-.538-.12.032.006-.028-.004-.04.015.036-.016m.114.919h-.016l.022-.004-.006.004m-.416-.751v.004l-.003-.005.023-.023.016-.008-.014.007-.001.012L9.72 1.3l-.016.019M8.317 8.683l-.004-.006.01.004-.006.002m-4.038-4.85.005.013-.009-.007.004-.006m-.088 0v-.014l.007-.01.01-.005.01.004-.007.015h-.016l-.004.01m-.01-.004-.009-.003-.006-.02.008.008.011-.006v.017l-.005.004m1.74.133.005-.003-.005.01v-.007m-1.282-.496.018-.024-.001.013-.017.011m.545-.176.004-.003.003.005-.007-.002m-.027-.004v-.008l.007.007h-.007M6.76 3.22l.004.004-.007.006.003-.01m-1.771-.023-.025-.024.025.01.004.01-.004.004m.132.072-.007.002-.004-.005.007-.003.004.006m-1.97.306-.004-.007.03.037-.026-.03m3.795-.085.009-.002-.002.005-.007-.003m-1.33.09-.008-.01.01-.01h.009l.002.016.008.005h-.02m-.775.044v-.005l-.004.004.01-.014.007.009v.014l.008.005-.01.004-.012-.004-.005-.007.006-.006m8.205 5.493-.007-.004.006-.002.001.006m-.187-.207v-.006l.007.001-.007.005m-.686-1.488-.002-.004.007-.003-.005.007m.168.05-.008-.02.016-.018.005.014-.013.024m-.162-.104-.008-.006.003-.006.005.012m.908.873-.004-.006.01-.006.003.01-.012.015-.003-.004.006-.009m-.07.035-.01-.005.01-.001v.006m.465-.303h-.005l.002-.006h.01l-.007.006m-1.397-1.807-.017-.037.025.02-.002.014-.006.003m-1.24-.841-.003-.018.006.014-.003.004m-.045-.033-.005-.018.004-.003.001.02m.094-.013.004.007-.008-.004.004-.003m-.6-4.099.005-.004v.002l.01.001.002.006V1.18l.01-.002-.028-.005h.015l.005-.002.001.003.008.001h.004l.002-.003h.004l-.004.001.026.004.012.005-.001.004-.004.003v.004l.006-.01.03.008.005.004-.004.002-.003-.003-.008.001-.001.004.002.002-.002.005.005-.003-.001-.007.005.003h.007L10.4 1.2l.001.001.004-.006.013.004-.002.002v.005h.002v.003l.003.001.001.004h.002l-.002-.003.005-.004h-.001l-.003.002h-.002l-.003-.009.018.003.028.011.006.005.042.02.004.003h.004l.001.002.008.001.004.003v-.002.004l.012.007.003.001.002-.002v.005l.011.01.004.001h.004v.003l.001.001.018.008-.003.002-.007-.003-.004.002-.001-.005-.009-.004-.005.004v-.008l-.02-.007-.002-.006-.01.002-.005.005.002.007h.002l.002.005.004.002-.001.003.002.005.007.002.005.006.018.004h.003l-.004.013-.005.002-.001.008h-.006l-.002.002.01.004h.002l.002-.008.007.001v.003h.004l.007-.002.003.001.006-.003v.004l.007.005.005-.008-.005-.01-.003.004.005-.016h.003v.004l.003.005.006.003-.003.006.006.001-.001-.003.003-.004.004.005h.004l.001.004.003.002h.004l-.001.002.003.003.002.004.004.001-.002.001h-.003l-.003.001-.005-.002-.01.007v.004h.002v-.003l.004-.003.004.001.003-.005.003.004-.002.002.004.004-.003.003.002.005.003-.005v-.006l-.003-.002v-.003h.008l-.001.004.002.005.012.004h.001-.003l.008.005v.008l-.004.002.002-.002-.005.002-.006-.006.004.006-.002.005.007-.001-.003.005-.008.005-.006-.004-.004-.001-.004.004v.004l.004.004.01.004.006-.003v.003l.005.003-.002.006-.005.005-.009.004-.014-.007h-.01l.003.002h.006l.015.01.007-.002-.002.008.002.002-.001.006.002.006.004.004h.005l.001.003h.002v-.002l.01.01-.001.002.002-.003-.007-.007.002-.005-.004.003-.003-.004.001-.002h-.01v-.005l.005-.01-.002-.003v-.002l.006-.001.007-.006-.002.007.003.004.013.004h.005l.006.001h-.002l-.002.003.006.009.004.002v.004h.005l-.002.004v.003l.005.006h.004l-.001.003.006.01.004.004.007.003h.009l-.001.002-.005.005.005.01v.002l-.007.004-.003-.005h-.004l.008.009h.003l-.001.002-.004.001.006.001.002-.001-.001-.004.004-.005h.002l.002.008.002.004h.002v.004l.004.005.001-.002.005.013.013.014v-.004l-.023-.048-.012-.02-.007-.004v-.006l-.008-.011v-.002h-.001l-.001-.006-.01-.02-.003-.002v-.002l-.005-.013.025.049.02.033.026.053.01.016.012.005.015.022.008.006.008.005h.012l.002-.002v-.005l.013.001.007-.006.007.007v.005l-.006.008.005.018.004.004.003-.001.008.003.006-.003.004.002v.002h.003v.012l.004.004-.001.001-.001.01h-.004l-.002.002-.004.01-.006.072-.003-.002-.004.001h-.004l-.007.005-.011.018-.017.044-.009.002-.008.005-.012.012-.01.014-.022.018-.014.001-.01.004-.036.035-.018.012-.014.004h-.006l-.013.004-.021.003-.033.01-.012.001-.002-.003.004.001.001-.002h.003l-.01-.002-.01.007-.021.008-.017.01-.037.019-.015.005-.01.001-.011.004-.014.001-.003-.002h-.006v-.005l.002.001h-.001l.001.002.005.002-.004-.004.005.002.007-.003h.017v-.001l-.004-.003.006.001h-.004l.006.002v.001l-.002-.001v.002h.005l-.002-.003.01.001.035-.016.004-.004h-.004l-.019.004-.01-.001.002.002.003.002-.007-.004h-.013l-.01.006-.011.002v.004h-.002.002v.001l-.006-.002.004-.001v-.002l-.007.003-.032.018-.01-.003-.006.004-.006-.001-.008.004h-.01l-.015.004-.01-.002-.052.025-.02.005-.03.01-.03.015-.047.026-.022.01-.022.008-.005-.001h-.004l-.002-.003h-.005l-.027.014-.01.004-.013.002-.004-.002h-.01l.005-.004.002.002h.008l.004-.003.004.002.002-.002h.011l.023-.014.009-.003h.008l.001.001h-.005l-.006.001.008.002h.007l.002-.002.005.001v-.002h-.008l.014-.001.004-.003-.002.002.002.001.007-.004-.001-.003h-.003l-.005-.005v-.003l-.002-.003-.002-.002-.006.003-.003-.002-.006.002-.002.004-.007-.002-.01.002v-.002l-.003-.002-.003.002.002.003-.004-.001v.002h-.002l-.003-.003h-.003l.002.005-.005-.004-.005.003v-.001h-.002l.001.001h-.002l-.004.003h-.001v-.004l-.007.001-.001.004h-.003l-.001.006-.006.004v-.003l.006-.001V2.07l-.005.004-.01.001h.006l.002-.003V2.07h.003l.002-.007-.002-.003-.008.002-.008-.005h-.004l.006.007h.002l.003.003.002.004-.002-.002-.002.002-.004-.006v.005l-.003.001-.005-.006v.01l.01.01.003-.001-.003-.008.004.008.013-.004-.004.003-.023.005-.015.014-.012.006-.01.001-.012-.002-.002-.003h.003V2.1l.001.002.005-.005v.005l.005.003H10v.002H10v-.002l.014.001h-.002l.01-.004.006-.007.012-.009v-.004l-.044-.038-.018-.023-.034-.024-.044-.013-.052-.022-.014-.003h-.013l-.011.004-.028.006-.017.01-.007.007-.024.035-.019.021-.048.041-.017.012-.024.014-.028.012-.018.003-.025-.007-.006-.004V2.11l-.006-.004v-.002l.003.003v-.002l.005.007.005.003.016.004.007.004h.006l.007-.003h.009l.02-.009.022-.012v-.002l-.01.004-.012-.002-.001-.007h-.003L9.61 2.09l-.003-.008-.004.003L9.6 2.08V2.08l-.001.003h-.01V2.08l-.002.004-.003-.004H9.58v.002l.001.002-.013.005h.007l.006.004h.012l-.003.004-.012.003-.008.004h-.002.002l.004-.003-.005.002-.008-.001.002-.001-.009-.003-.005-.001-.003.001-.006-.004-.023-.004.002.003h.012l.007.002.01.004h-.004l-.003-.003-.007-.002H9.51l-.022.004-.03.01-.041.02-.034.021-.064.051-.021.012h-.01V2.21h.003l.006-.007.003-.017L9.3 2.15l-.004-.035-.015-.064L9.26 2l-.015-.031-.012-.07v-.06l.026-.04.008-.006.02-.023.013-.025h.003l.003-.005h.003l.006-.002.008-.01.017-.037.01-.041.006-.005.054-.034.023-.007.019-.01.016-.014.015-.02.017-.037.035-.033.014-.02.034-.055.015-.02.039-.021.019-.02.017-.015.01-.006.008-.005h.005l.004.003h-.003v.002l-.006-.003-.01.005-.015.011v.005-.004l-.003.002-.006.007-.008.007v.002-.001l-.01.008-.016.012h.006l.021-.019.012-.007.005.002.006-.007h.007l.01.007.023-.003.009-.003.004-.005V1.34l.006-.01-.008-.007v-.004l-.004-.007v-.001.001l.003-.002.001.003v.005l.003-.001.003.004h.003l.007-.004-.003-.004-.008.005v-.002l.002-.002-.002-.001h.005l.003-.003.011-.004.002-.004h.002l-.003.002.001.008.004-.004.007.001.007-.009.001-.007-.002-.02.003.003.004-.001.003-.004.002.001h.003l.002-.006-.002-.01-.006-.003-.023.016-.003.007v.006l-.004-.004-.001.002h-.001l-.002.001.001.001-.001-.001v.001-.002l.003-.004.047-.037.02-.006.018-.008h.002l-.007.003.002.001h-.005l-.001.008v-.002h-.002l-.003.007v.002l.002-.002.003-.002v.001-.003l.002.004v.006l-.003.002.002.003-.001.003h.001V1.25l.004-.003V1.24l.004.001.003-.004.002.003.007-.002.015.01h.001l.013-.006.002.002h.006l.004.003h.004l.003.003.012-.001v-.003l-.004.001-.005-.002H9.9l-.004-.004-.007-.001-.009-.007-.008-.004.002.003-.002-.002-.001-.01.008-.016.004.002.004.007.006.002h.018l.006-.005.007-.021.003-.006.02-.007v.01l-.001.002.001-.007-.002-.002-.002.002-.004.007v.016l.007.01.008.001.006-.008-.001-.011.01.001.006-.003.005-.008.004-.017.006-.005.002.002-.005.006.001.016.002.004.005.002.007.01.004.001.006-.002.009-.012.002.003h.01l-.002.003-.01.009.004.003-.002.007.002.01h.002l.005-.01.004-.003.01-.011h.004l.003-.002.003.005.007-.001.01.007h.004l.006-.004.003.002.003-.002.002.008.005.005h.004l-.001.005.006.011-.006.004v.002l.01-.002v.001h-.003v.004l.002-.003.003.002v-.009l.008-.003.003-.005.003-.002.005-.007h.002l-.003.003.005.007-.002.009.006-.005h.004v-.005l.003-.005.007.002-.002.004.004.004v.007l.002-.007-.004-.004v-.003l.007-.008.009-.005.006-.009.003-.013.007-.007.002.002.008.002-.001.004.005-.004h.002l.003.005.003.014.004.001.003-.001.003-.007v-.005h.002v.003h.008l-.002-.006h-.007v-.004l.002-.002h.009l.003-.004.001-.004-.004-.003h-.003l-.002-.004-.003-.002-.003.001-.005-.009h-.002v.002h-.003v-.004h.002l.02.005h.004l.005-.005v.005l.01.004h.001l.003-.003.003.003h.004l.001-.002h.001v.002l-.005.002v.004l.001-.003h.004l.001-.003.004.01v-.003l.007-.001h.006l.01-.005v.007l.005.006v.009l.001-.003v-.008m.268.076v-.003l-.013-.009h-.004l-.002.001-.001-.003-.003-.001-.003.002V1.24h.001l-.005-.002-.002.001-.002-.004-.003.003-.011-.004-.004.002-.002-.003-.01-.006-.025-.012h-.003l-.021-.01-.018-.004-.024-.01-.022-.004-.035-.016h-.002l-.003-.002h-.003.001l-.016-.005h-.001l-.001.002h-.001l-.003-.003h-.005l-.004-.002-.005.002.003-.002-.02-.005-.002.001h-.001.001v-.002h-.006l-.01-.003-.005.002v-.002h-.006l-.001-.001-.007-.002h-.012l-.003.001-.002-.002-.002.004-.002-.003-.003.002-.004-.005h-.007l.003.001h-.005l.002-.001h-.004l-.006.002-.001.002h-.002l.003-.004.006-.002.031.003.038.006.06.014.044.019h.013l.026.012.04.013.048.022.014.001.018.006.01.006.023.02-.017-.01m-8.147 2.36h.005v.003l.004-.003v-.002l-.001.002h-.002l.002-.002.01.001.01-.002.003-.001.004-.009h.01l.004-.006.02.008.03.027.013.008.01.003.01-.003.002-.006.02.006h.017l.009-.008.007-.013.018-.002.015-.006.017-.01.02-.004.011-.006.043-.028.016-.004.008.001.013-.004h.008l.028.01.013.011.014.004.016.011.007.003.027.003h.035l.053-.007.02-.006.022-.015.018-.018.01-.014.01-.014.004-.014h.005l.003-.002v-.006l.002-.002.01-.003h.004l.005.005.003-.003h.005l.003.005L3.1 3.5l.003.001v.004l.01-.001.004.003.002.003v.003l.01.007.005.011-.001.01.005.014.006.01-.006-.008.001.004.028.036.006.01-.01-.01.01.012.017.012.062.053.037.026.022.01.054.012.048.01.02.002.033-.003.043-.012.018-.003.03-.01.015-.008.01-.002.01.005.019.001-.017-.008-.004.001v-.002h.005l.019.01.032.01.03.006.032.002.056-.003h.048l.015.003.033.013.067.037.025.012.027.01.022.004.086.01.022.001.04-.003.025-.007.02-.008.01-.001.002.004h.005v.003H4.21L4.2 3.8h-.01l-.005.004h-.007v.003h.002-.002l-.01-.004h-.003l-.002.005-.01-.001-.005.003-.002.002.002.004.003.003.006.002.002.004-.005.006-.012.002.003.007-.001.005h.03l.007-.003.003.003.014-.02h.006l.004.005.006.002.002.005.023.008.01.003.025.002.014-.003.002-.01.005-.005h.013l.011-.006h.002v-.002l.003-.001.002-.004.015-.009.01-.01.014-.01.012-.01.001-.004h-.002l.02-.013.02-.02.002-.005.014-.014.048-.055.01-.01.027-.034.061-.072.034-.045.001-.001-.016.025.019-.024.009-.004.011-.02.005-.002.02-.002.028.008.008-.003.007.002.007-.003.001-.006h-.004l.003-.002.015.003.004.01.012.008.02.006.01.005.004.005-.003.003.006.007.002.006-.002.003V3.53l-.007-.001.005.007-.002.012.018.045-.001.004-.006.003.003.004-.002.002-.002-.004v-.003l.002-.001-.001-.003.001-.004-.01-.007-.003-.005-.005.001-.004.004-.016.021-.004.013v-.003l-.003.002-.003.011-.002-.002h-.008l-.002-.008-.001-.002v.002l-.002-.007h-.001l.003.013-.004.002.004.003-.004.002v.002h.008l-.003.003h.002v.002l.004-.006.003.009.007.005.007.012.01.01.005.007.02.02.02.02.012.007.028.01.02.012.003.006v.005l-.006.03.003.032-.003.022H4.86l.002.006-.01.038-.001.013-.011.002-.001.006.002.004.009.006-.005.007h-.003l.002.005-.003.02.002.058.003.039.015.067-.003.003.02.028.014.014.006.003.01-.001.021.003h.016l.003.003.012.001.06-.003.007.001.005.003h.018l.003.003.003.006.004.003.014.005.033.021.018.006.025.028.024.014.01.013.007.006.008.003.008.018.008.007.01.004.02.002.022.01.015-.001.029-.007.004.012.006.009.013.01.006.008.009.037.01.097-.002.014-.013.037v.01l.005.012-.003.006h-.002l.002.008.011.03.007.022.004.007.013.012.02.01.019.02.016.007.022.003.027-.002.055-.01.038-.013h.003l-.004.004v.005l.005.004.004-.002V4.66l.003-.002.001.004.002-.002-.004-.005v-.003l.01-.005.05-.005.045-.012.022-.009h.023l.007-.01.003-.001.005.001.004.008.01.007.004.008v.004l-.005.007v.006l.006.003.012-.006.007-.001.009-.006h.003l.004.003.007-.004h.011l.003-.006v-.006l-.014-.004-.002-.002.009.003h.005l.002-.001.003.002h.001l.002.009.002-.001v-.006l-.004-.006h-.006l-.006-.003h-.01l-.012-.005-.023-.003-.004-.01.002-.003V4.59l.003-.006v-.006h.003l.01-.008h.009l.002-.007h.005l.008-.008v-.006l.002-.003.003-.001.002.001.001-.003.006.002.002-.002.003-.012.006-.004h.004v-.02l.01-.013.004-.002h.005l.014-.01.035-.018.012-.01.021-.02.027-.034.028-.045.01-.01.004-.015.015-.038-.001-.014-.018-.043-.016-.016-.018-.005-.006-.007.008-.022.011-.053-.002-.013.002-.044-.014-.03-.005-.023-.022-.045-.006-.008h-.003l-.002.003-.007-.006-.001-.01h.008l-.009-.002-.007.005v-.009h-.001l-.001.012.006.018-.003-.002-.005-.013v-.02l.003-.05-.002-.022-.004-.009-.006-.005-.008-.004-.003-.006h-.007l-.003-.004.002-.005v-.026l-.001-.029-.009-.035-.01-.023-.012-.017-.014-.015-.007-.004-.013-.004h-.033l-.025.004-.02.006-.004.003-.007.002-.004.005-.03.002h-.016l-.006-.003-.008-.008-.007-.003-.003-.004v-.014l.002-.015.004-.015.01-.017.003-.027.007-.015.002-.002.004.002v.003h.004l.004-.005.004-.01h.004l.003-.006v-.004l-.002-.003-.008.004v-.002l-.001-.008.013.001.013-.003V3.55H5.72h.003v.003l.004-.001.003-.004.01-.004.005-.006.014-.007.01-.002.011.003h.004l.004.003.015-.005.01-.005.014-.012.022-.028v.008h.002l-.011.011.001.003-.001.002-.007.006h.002l.001-.002.001-.001-.001.006h-.004l.006.004.001.004h-.003l.004.001.005.001.004-.004-.002-.002V3.52l-.005.003.004.005h-.002l-.003-.002-.004-.006v-.006l.01-.004-.003-.002v-.003l.002-.002.002.001.001-.005h.003v-.003l.003-.004v.007-.001l.002-.009v-.002l-.006-.002.005-.002-.004.001.003-.005-.003-.003H5.85v.01l-.003-.002-.008-.037h-.002l-.003-.006-.003-.01.004-.063-.003-.01.001-.017-.008-.02-.003-.004-.005-.002-.004-.006.005-.014v-.023l.005-.02-.001-.004.002-.012-.005-.005.008-.02-.002-.003.002-.01-.003-.006.009-.022.005-.024v-.023l-.001-.015-.004-.011-.006-.007-.023-.005-.012-.006-.013-.002-.004-.003-.003-.007.002-.01.011-.008.023-.003.013-.004.013.008.01.01.015.01.006.003h.014l.008.002.02.014.016.006h.031l.034-.008L6 3.086l.03.007.026.013.04.014.02.006.022.003.024-.004.03.006.07.034.025.009h.016l.077.034.069.016.057.003.028.006.014.004.02.012.035.014.023.007.031.003.025-.004.019-.008.01-.009.01-.002h.009l.007-.002.015-.01.007.017.016.017v.003l-.005.004-.002.006.002.006-.001.006.011.015.01.009.039.023.006.01.01.005.001.005.023.018.008.005.026.012.014.004h.011l.016-.006.006.005.002.004h-.006l.002.004h-.004v.002l.013.003.008.019.006.006.011.002h.001-.019l-.004.004v.01l-.012-.004-.004.002v.004l-.004-.001-.001.005.001.008-.002.007.003.001v.003h.005l.003.004-.008-.002h-.006l.005.005.004-.001.001.005.005.002.002.002-.005-.002v.003l.006.001.004.008.006.002h.001l-.004-.006.002-.003-.002-.002-.002.001-.001-.003.003-.011h.005l-.003.002-.002.003.002.001.01-.006.005.002h.007l.004-.005.006-.003.002.025.015.014-.008.002v.005L7 3.527v.003l.004-.005V3.52h.006l.002-.002-.007-.009.007.006h.005l-.007-.004-.002-.005.003-.019.004-.01.005-.005.002.002-.002.005.003.004.008-.004h.004l-.006.002-.002.004-.006.001.002.002.005-.002.019-.012-.007.005-.002.008.014-.016-.003.004v.005l.001-.004.01-.012.016-.023h.002l.002-.003h-.008l-.004-.005-.008-.002-.002-.003.015-.004.002-.003-.004-.002-.01.004.003-.007v-.007l-.007-.004-.01-.001-.002-.007-.01-.007-.003-.012-.01-.007-.004-.007L7 3.358l-.01-.006-.003-.006v-.01l-.002-.004v-.008l-.007-.005.002-.01-.002.001v.003-.004l-.001.004H6.97l.003.006-.006.001-.002.005h-.002l-.003.002-.01.016-.005.017v.016H6.94l-.004-.005v.01l-.002.005-.002-.018.002-.008.01-.023.016-.021.013-.01L7 3.291l.054-.015h.006l.007.004.015.02.017.02.013.012.011.006H7.12v.002l.013.008.015.005.011.007.001.002-.002.002h-.011l-.005.005h-.003l.008.026.004.007.008.013.012.012h.004l.002.004.003-.002.003-.007-.002-.002-.002.005.002-.007-.004.002.002-.007h-.002l.006-.013-.002-.002-.001.004v-.005l-.004-.003V3.4l-.002-.005.001-.006-.001-.001-.002.002-.001-.005.001-.002v-.009l.008-.012.003-.001h.006l.009.018.015.008.007.008h.005v-.007l.007.003v-.006l.01-.005.001-.004.01-.004h.005v.003h.002l.004-.005v.001h.004l-.001-.004.016.006.006-.014.01.006v.006l.004.002.003-.006.01-.005v-.008l.007-.001-.005-.003.004-.002.016.002.001.001-.003.003.024.001.018.008.02.003.001.002.006.002v-.004l.002-.002v-.003l.002-.004h.014l.04.025.019.006h.008l.005-.006.003-.001v.002l.013.003h.004l.018.004.064.003.005-.002.008.002.001.002.018.003.047-.003.023-.003.007-.004.003.003.01.003.035.001.037-.006.084-.02h.012l.004-.003.02-.005.069-.008.042-.008.028.004.044.01.025-.003.034-.01.016.002.009.006.006.006.032.052.05.065.01.011.01.007.018.022.01.008.021.006.031.026.014.006.005-.002.017.013.032.02.064.036.043.018.03.01.027.014.03.01.055-.001.024.004h.01l.042.015.02.013.018.016.006.002.009.005.044.038.034.024.059.035.043.019.016.005.008.001.007-.002.01.004.019.003.016-.003h.019l.023-.005h.013l.029.003.043.014.035.016.059.032.044.03.1.075.087.07.038.032-.005-.002-.055-.046-.006-.004-.006.003-.004-.003v-.008l-.002-.002-.004-.004.005.007v.008l.007.003-.004.002.001.005.013.003.003.005.006.003h.01l.01.008.004.006.003.001.002.004.018.014v.012l.001.004.013.012h.002v.002l.012.012h.003v.003l.004.006.004.002.001-.002v.004l.006.006h.003v.005l.01.008.005.007h.002l.006.012.03.035-.004-.006.004.004.01.017.01.01.005-.002.006.01v.007l.008.007.004.007.012.01h.004l.003.004v.006l.003.006.011.013.016.013.002.005.01.01.005.002.005.009.005.003v.002l.004.003.004.011.02.016-.014.001v.006l-.001-.003-.008-.01-.001-.004-.008-.008-.005.006-.001.004-.004-.008V4.4l-.003-.003-.001-.004h-.002l-.003-.005-.01-.006v.004l.004.004v.002l.008.007-.008-.006-.005-.007-.004-.015-.015-.01-.006-.008-.005.002-.009.01v-.008l-.003-.002.005-.006v-.006L9.7 4.337v-.003h-.005L9.69 4.33v-.008l-.007-.006-.005-.008-.006-.003-.002-.007-.005-.009v-.005L9.66 4.28l-.002.003-.003-.01-.008-.005H9.64l-.006.01-.005.016.003.003.003-.001v-.004l.006.003V4.3l-.007.014v.006l.005.005h.007l.014.007.003.006.01.005.002.005.006.001v.015l.004.014-.002.023.01.003.002.006h.005l.005.004h.005l.002.002.01.008.004.002.003-.001.003.004.006.003h.01l.003.002.009.001.007-.005.006.004h.006l.003.001H9.78l.001.003.004.001.005-.004v.002l.006.002v.002l.004-.004H9.814l.002-.002-.005-.007.046.042.025.02.042.022.022.008.028.002h.012l.016-.006.015-.008.007-.006.003-.007v-.001l-.001-.004v-.002l-.007-.005.004-.002h.006v.005l-.003.003.003.005.007.004.003-.004.007.003h.004v.002h-.004v.004l.006.012.036.038.032.028.02.014.087.051.022.01.037.024.022.022.099.127.06.072.003.001.003-.003.005.003.18.145.059.053.086.088.045.038.046.032v.003l-.006-.003-.003-.004-.005-.001-.002-.004h-.007l-.002-.006-.012-.001v-.006l-.008-.003.001-.002-.003-.003-.005.002v.007-.005l.001-.006-.004-.005-.01-.01h-.008l.002-.002-.001-.003h-.002v.004-.006l-.013-.009-.012-.011v.004l.004.006.006.006.005.001.003.005-.001.006.003.007-.001.006.002.003v.01l.002.006.001.006-.013.004H10.8l-.01.005v.016l.006.011v.01l.039.013.004.01.003.01.013-.001.008-.003.007-.01.012-.01.011-.004h.01l.003-.011.01-.01.02.003-.005-.006.021.016.025.021.054.05.002.006.01.001.125.094.203.157.024.022.002.006.004-.001.016.007.082.05.048.024.008.002h.006l.006-.005v-.002h-.002l.001-.002.006-.002h.01v.003h-.01l-.002.004v.019l-.002.013.002.007h.01l.007.003.033.03.04.032.12.086.006.004h.012l.005.003v.006l.008.006v.004l-.007.004H11.8l-.007.003-.004.005v.01l.007.017v.012l.017.025.005.006.002.01-.005.005v.006l.045.055.032.033.004.008-.002.01.008-.003.041.033.033.03.031.04.005.015v.018l.018.048.003.018-.002.006.005.032.01.019.012.03.002.009.002.02-.004.012.003.013v.01l-.002.004.002-.005h-.003l.001-.004-.013.012.004-.005h-.002l.008-.005.004-.008-.003.001.002-.004h-.002v-.009l-.003-.003.004-.004v-.003l.002-.008v-.003l-.002.006-.004-.004.005-.003v-.002l-.003-.001.003-.002-.003-.007.002.002V6.44h-.005l.002-.001.001-.002-.001.001h-.002l.002-.001V6.43l-.002-.001-.002-.01v.002h-.001v-.006.004l-.002-.007-.003-.002h.002l-.002-.006v.004h-.002.001l-.001-.002h.001v-.005h-.001l-.003-.004-.001.002v-.002h-.004l.004-.002.002.001-.003-.003v.002l-.002-.002.002-.001-.008-.013h.001l.002.002v-.006l-.002-.001.002-.006-.003.004v-.006h-.002v-.003h.003v.005-.008.003h-.002l.002-.001v-.006.006l-.005.003.005-.012v-.006h-.004l.003-.003-.002-.01v.002l-.005-.007h.002v.003h.003l-.001-.005-.003-.003.002-.003-.004-.003-.007.004-.013.001-.001.003-.004-.002v.004L12 6.327l-.008.003-.006.006-.002.005.003.006h-.002l.003.001-.007.002-.004.004-.002.007v.005l.003.002-.001.005.004.003h.004l-.002.003-.002-.002.002.002-.007.004-.003.004-.001.007.004.005-.007.006-.002.006.004.007-.004.006.002.005-.002.003.005.004-.006.014.004.01-.003-.005v.004h.002l-.002.003.003.005v.003l-.004.008v.004l.003.003v.007-.005l-.002.005.002.006-.003.005.002.004v.002l-.002-.006v-.002l.002-.002-.002.004v.003l.003.007-.004.011v.007l.003.006-.002-.001-.005.002-.003.01.003.004-.004.005.002.02.002.002v.001h-.002l.004.003-.002.009.003.004.001.003v-.002l-.001-.001V6.6l-.003.008v.01l.003.004.007.002.006.014.003.002.002.003v.002l-.002-.005-.004.005v.014l.004.008.002.01.01.006v.007l.002.006.007.004.002.006.006.005.003.012.014.011.017.01.004.002-.008-.001-.012.004-.006.006-.002.007.003.013.009.015.002.012-.001.006.001.013.007.03v.022l.006.03v.014l-.003.009.004.018v.008l-.003.004-.003.002v.009-.004h-.004l.003-.003-.001-.005.004-.006.002-.006-.001-.012-.002-.004-.014-.006-.012.001-.003.007-.01.003-.004.004-.01.016-.004.012-.004.006-.003.002-.004-.002-.006.001-.017.02-.003.003-.003-.001-.003.002.007.008-.002-.002h.006v.004h-.002l-.002-.001v.005l-.002.002-.003-.003-.01.001-.004.008-.001.004.002.003.002-.003h.012l.007.013.017.012v.006l.008.007.001.016.003.005-.005-.003v-.002l-.005.003-.006.006-.001.006.002.003h.012l.002-.002v.002l.004-.002.004.01h.002v-.004l.003.001.008-.001.006-.005h.002v.004l.014-.002.007-.003.004-.005-.002-.003-.01.002-.001.002v.004h-.002v.002-.005l.004-.003.002-.001.007-.002.013.002.012.005.001.006.003.003.031.016.006.007.02.016.015.006.013.003.004.006.005.003.002.033.007.017.016.02.001.005-.002.004V7.23l-.001.003.003.001v.003l.007.004.006.007h.003l.008.014-.006-.005v-.003l-.003-.005-.005-.001-.003-.006-.008-.006-.003-.003v-.005l-.003-.002v-.002l.002.003-.003-.01-.009-.002h-.004l-.002.003-.002-.001v-.001l-.003.001v-.001.002l-.002.001.005.002.004-.003-.002.003-.01.005-.003.003v.007l.002.008-.003.023v.004l-.004.005.003.008-.002.019.005.01v.005l.011.018.015.003.003.005-.001.004v.004l-.001.002-.006.002v.002-.002h-.007v.003h-.01l-.003.004.001.006v.004l.003.005.002.008-.004.008.008.007.01.004.002.008-.002.005.002.005.01-.004v-.004l.003-.004.008-.003.003.002.003-.005.006-.001.001-.002h.006l-.002-.002h.006l-.002-.002.002-.001v-.003l.002-.001v-.006l.002-.006-.002-.013v-.008l-.003-.008.002-.006-.01.005.001-.002h-.001l-.002.003V7.35l-.001.01-.004.001h-.003l-.005-.004-.003.003-.007.001v-.001l.01-.004.023-.012.004-.005.003-.006.011-.009v-.007l.005-.006v-.006l.006-.004.02-.006.01-.006.002-.01.007-.008v-.006l-.002-.012-.005-.003-.001-.003v-.004l-.003-.006-.01.002-.006-.016v-.003h.004l.002.008.006.003.002.003.013-.002.036-.011.015-.003.003.003h.007l.003.006h.006l.005.007.003.009.006.002h.002l.003-.005.005-.013-.004.011-.003.007-.008.002-.006.005-.001.006.004.007-.005.004-.003.005.004.026.003.005.004.003.003.008.01.013-.003.02.003.02-.003-.013h-.009l-.004.002-.007.01-.007.004v.002l-.007.003-.001.005v.007l-.002.003.003.005-.003.004-.002.011.001.018-.002.01-.008.008-.011-.001v.002l.009.003.005-.002h.002l.005.024v.004l-.004.002-.006-.003-.006.003-.002-.003v-.004l.003-.005-.007-.014V7.45l-.001.003.006.015-.003.009.006.008h.002l.002-.004.006.003.005-.004.003-.014.006.02.008.01.002-.001.003-.003-.002-.023.011-.01.004-.015.01-.011.004-.01.028-.014.019-.016-.017-.013h-.014l-.01-.01v-.005l.005-.004v-.004l.005-.003.011.006h.013l.009-.005h.003l.001-.001-.001-.001.003-.002.004-.002.001.002V7.35h.005v.003l.003-.004.007-.002V7.34l.008-.008.002-.005-.005-.033.011-.028.001-.005-.002-.002v-.008l-.008-.004.001-.008-.004-.005-.008-.003-.008-.008-.022-.004.002-.004-.002-.006.002-.006-.006-.009-.005-.016-.002-.002-.01-.004-.012-.001-.005-.004-.027.003-.004-.01-.008-.005h-.033l-.002-.004-.01-.003-.001-.01-.008-.004h-.005l-.007.002-.004.006-.001.01h-.003l-.005-.008.004-.002.003-.013-.01-.004-.007.005-.003-.007.002-.002-.006-.011-.009.001-.009.006.002.004v.002l.001.012.003.008.004-.006-.006.01v.01l.003.003h.004l-.006.01.001.01.003.005-.006.001-.002.005-.001-.005.004-.013v-.007l-.001-.028-.004-.017v-.007l.02-.008.006-.009.003-.01.043-.02.036-.026.025-.02.012-.018v-.011l-.005-.022V6.95l-.003-.007.003-.007v-.01l-.002-.031-.006-.015v-.023l-.005-.024V6.82l-.005-.016-.013-.023-.005-.016-.002-.002.004-.025v-.004l-.003-.004v-.01l-.006-.029-.005-.008.002.003.001-.003.006-.002.006-.006.005.008-.001-.007-.005-.003-.01.003-.001-.005-.003.008h-.005l.004.004-.027-.003h-.024l.013-.003.007.002.005-.002-.004-.002V6.67l-.012-.001-.018.004-.003.009.003.003-.004.002-.027-.008.008-.002.007-.005.011-.016.005-.016v-.012l-.004-.006-.004-.003-.033-.007-.003-.001V6.61l.001.002h.009l.02.005.008-.002.004-.007v-.005l-.002-.006-.004-.002h-.006l-.002.002-.017.002-.02.005-.003.002H12.2l-.022.011.038-.006-.003.001-.027.004-.039.01-.029.001-.006-.001-.007-.005v-.004l.002.003.008.004.013.002h.005l.007-.01.01-.003.001-.004.01-.003.018-.013.012-.005.003-.003.013-.003.004.002.015-.002.005.001.003-.002.004.002.027-.01.006-.004.002.001.003-.001v-.002l-.07.003-.004.006-.008-.003-.007.002-.004.004v.004l-.004-.002-.012.003v-.002l.008-.003-.024.004-.002.002v.002h-.006l-.01.007V6.6l-.005.001v.004l-.022.012-.026-.007v-.005l-.001-.002.002-.01.007-.009.011-.005.039-.006.153-.006h.047l.083.008.036-.001.013-.004.015-.008.005-.009-.001-.002v-.015l-.001-.002.003-.002.012.006.003.005.068.023.151.037.016.006.015-.001.067.013.031-.001.055.017.061.017.13.04.057.013.029.003.005-.004.006-.009.004-.001.004.001.01-.004.002-.003-.001-.006h-.003V6.68l.002-.003.005.002v.003l.007.001.002.005-.002.004.003.003.02.01.016.003.005-.002v-.003h-.002l.004-.002.01.003h.009l.008.005h.003v-.004l.006.007h.004l.002.003h.008l.014.013v.008l.005.014-.003.005-.008.005v.002l-.005.001-.002.01h-.005l-.005.006v.006l.005.003-.001.003.004.006-.002.005.009.014.013.013.01.014.035.028.049.03h.019l.006.006.004.005v.015l-.004.006-.008.002-.01.02.005.017v.006l.007.024.012.014.029.025.023.027.018.015.011.012V7.1l.006.005.011.01.044.028.007.005v.005l.004.003.037.026.001.004.009.015.026.02.004.007.006.006.014.01.031.03.001.005.006.008v.004l.013.014.004.008v.006l.01.01.003.007-.001.005.002.005.045.023.092.036.004.004.013.006.011.02.006.006.002.012.006.01.002.007.01.008.003.009V7.496l.016.011.037.015.028.01.059.016h.008l.011.006h.005v.002l.008.011.015.01-.001.002.001.012.006.013-.001.01.004.012v.005l-.004.006-.002.007-.002.017-.007.01-.008.023-.006.013-.003.001-.019.002-.02-.005-.012-.01-.01-.02-.008-.005v-.003l-.003-.001-.016.003-.005-.002-.039.014-.011.006L14 7.69h-.003l-.02.009-.003.004h-.006l-.01.008-.004-.008-.003-.002.003.011.004-.001-.006.005.001.004-.006.013-.015.01-.002.008-.01.007-.002.005-.003.002-.002-.002-.014.006h-.003l-.024.015-.002-.002-.005.004-.003-.004-.008-.002-.001.001.01.008.009-.005-.015.01-.004.008-.019.017-.015.02-.002.008-.003.001-.003.005-.009.004v.007l.006.005-.002.003-.004-.004-.001-.008-.006.012h-.017l-.002.007v.006l.01-.004v.002l.007-.004h.003l.012-.006.003-.006-.003.002.002-.002.005.002.006.008v.003l.007.02.001.014-.005.007-.008.007-.006.01-.004.011.004.01.003.004-.005.004-.002.01v.008l.003.004h.003l.003.003.003.01-.003.011.002.012-.004.004-.001.007.001.007h.007l.002.004-.004.008-.004.003.004.013-.002.001h-.003l-.005.003-.005.01v.01l-.003.003-.011.016-.006.005h-.008l-.008.004-.014-.001v-.006.005l-.01-.005-.01.003-.007-.003-.01-.001-.019-.012h-.024l-.005-.008.002-.005h.002l-.002.006h.003l.002-.007v-.003l-.02-.017-.05-.022-.005-.004-.018-.007-.024-.007-.013-.005-.005-.005h-.008v-.003l.002.002.004-.005-.007-.016-.001-.005-.007-.006V7.98l-.007-.018-.008-.01-.01-.006-.01-.001.002-.003-.002-.005-.011-.005-.01-.012h-.01l.003-.001-.003-.007-.01-.008-.009-.012-.008-.002-.002-.008-.01-.002h-.005l-.006.011.006.002.004.007.006.002.006-.002.002.004-.005.011v.004l.002.006-.001.006.004.003.005.008.005.021.015.011h.003l.004.006.019.007.012.012h.004l-.003.005-.019-.012-.003.002-.005.01.011.012v.002l-.006.001v.005l.005.002h.005l.007.008.016.027.001.007.004.002h.009l.014.005h.01l.027.015.004-.001.001.004.008.005h.005l.003.01v.007l.007.018.005.002.01-.002.001.002v.018l.005.017-.005.024.002.005-.006.01.002.015-.002.006-.011.019-.012.01-.014-.003-.008-.009-.01-.007h-.016l-.001-.004-.008-.003.003-.003V8.23l-.01-.011-.007-.003h-.009v-.007l-.007-.006-.018-.003-.028.006h-.019l-.026.007-.05.002-.019.003-.024.006-.057.021-.036.01-.026.001-.032-.006-.01.002-.002-.003.008-.001.026.001.014-.002.006.004.016-.01.002.001-.003.004.002.002.008.002.012-.005.01-.01-.004.007.002.002.007-.002.012-.002.019-.008.004-.007v-.01l-.005-.005-.009-.002h-.006l-.005-.001-.004.002-.003-.003-.011-.001h-.008l-.003.004-.005-.005h-.015l-.007.007-.001-.003-.013-.002-.014-.026-.012-.007-.008-.003h-.01l-.015.004-.02.02-.004-.003h-.006l-.003-.002.001-.009-.005-.005h-.007l-.013.004-.003-.001-.004.004-.002-.007.016-.016.006-.012v-.007l-.007-.01-.01-.005V8.12l-.007-.008-.003.001-.005-.007-.01-.005-.002-.004.01-.017v-.004l-.004-.003h.004v.008h.004l.007-.005.002-.008-.004-.007h-.005l-.01-.01-.005.004V8.05l.002.001.002-.002-.002-.002v-.003h-.001V8.04h-.002v-.003.004l.001.004h-.002v.006l-.002.003.001.002h.004v.003l-.005.006-.012-.008V8.05l-.002-.002h.001l-.004-.001v-.002l-.002-.003h-.004V8.04l-.002.003-.003-.004-.013-.003-.017.006h-.009l-.016.007v-.008l-.004-.001v-.003h.003l-.004-.003-.007.006-.005.008-.003.001-.004-.002-.005.002.009-.006.005-.011-.003-.008-.009-.003-.005.004v.005l-.011.006-.005.023.003.01-.009.009-.004.01v.008l.008.011.01.006h.007l-.002-.002.008.003.01-.003.006-.004h.01l.01.007.02.008.012.009.002.005.006.002v.003l.01.007.003.002h.008l-.008.005-.007.01-.004.026.012.012.005.01.005.003.018.026.007.017.005.008v.002h-.002v.004-.002h-.002l-.004.006.004-.007.001-.005-.005-.01-.003-.001-.008.004-.007-.006-.015.001-.007-.004h-.007l-.004.002-.005.01h-.011l-.001.005.002-.003.004-.001v.002l-.005.003.007-.004.009.006-.002.005h.006l.002.004h.003l.002.012.01.011.011.007.016.002.01-.002.028-.011.03-.022.01-.01.01-.022.004-.004.002.002-.01.028-.015.025-.013.036-.016.06-.002.018.003.015.003.004h.003l.005.004.002.006-.005.024.004.005v.003l-.002.002-.003-.001-.001.002-.005.028v.015l.005.028.009.027.029.055.007.01.001.007v.008l-.006.017-.007.014-.01.007-.025.029-.026.046-.008.008-.017.007-.009.006-.02.023h-.005l-.004.004-.01.003-.008.001-.027.009-.015.01-.018.02-.005.002-.004-.002-.012.009-.012-.004-.01.017-.014.01-.005.002-.002.004-.006.004-.007-.004h.004v-.005l-.006.003-.008-.008-.008.002-.005-.004-.008.003-.006-.006-.02-.011-.004.002-.01-.002h-.007l-.006.004h-.004l-.005.01-.009.001-.008.006-.004.008-.004.003-.005-.002-.007.003-.001.008.002.005.003.005h.006l.003.009-.002.005-.007.006-.008.008-.01.004-.006-.003-.004.002-.008.008-.002-.002h-.008l.001.025.014-.011h.006l.006-.004-.002.007v.001l.003-.001h.003l.012-.01.012-.004.006-.008.004-.01.013-.013.01-.008h.005l.007-.01.002-.01.006-.004.007-.002.006.009-.007.006-.003.007h.003l.004-.006h.013l.004.004.002.009.01.004.013.017.01.008.014.007.003.01-.005.008v.006l-.005.006v.004l-.005.01-.018-.002-.007.005-.002.007.003.004v.011l-.004.012-.006.002-.002.003-.002-.003-.012-.003-.005.003-.006-.001-.008.004h-.003l-.002.002h-.003l-.003.002-.003-.001-.012.008h-.004l-.001.003-.01.006-.003.004v-.002l-.005.002-.005.01v.005-.005h-.006l.003.007h.002l.001-.002.007.006.014-.005.003-.005.002-.002-.002.003.003-.001v-.002h-.001l.009-.007.008-.004h.002l.003.01h.005l.004-.003v-.004l-.002.005v-.002l.002-.007.01-.009.004.002.006.008.008.005.016.001v.004l-.01.008-.009.015-.002.01.002.007-.008-.005-.006.002.001.003-.003.004.001.01-.003.005-.007.007h-.003l-.014.012.002.004.005.005.005.001h.008l.003-.004h.011l.004-.003.001-.015.002-.003.008-.005-.003-.007h.003l.006-.008.01-.004h.018l.014.008h.003l.008-.001v.014l.003.007h.024l.007.004.005-.002.007.005.002.002v.006l.002.007.008.009.02.003h.005l.018.01.002-.001.01.002.006-.006.006.001.003.007v.014l.002.009.02.039.022.03.026.03.007.005v.002l-.004.002-.06-.004-.02.003-.007.002-.017.014-.021.006h-.01l-.01.008h-.003l-.032-.014-.002-.005-.023-.007.001-.004-.001-.005.003-.003.003-.023-.008-.016-.012-.012.002-.002-.002-.006v-.017l-.001-.003.003-.008-.002-.007-.005-.002-.006.002-.005.01-.012-.002-.012.004-.015-.001-.011.002-.003.003.002.006.007.004.01.001v.002l-.005.002-.007-.001-.007-.006h-.004v-.003h.004l-.002-.006-.014.001-.001.004-.004.005v.006l-.01.004-.013.013-.001.005.003.005h.007l-.003.006-.003.002-.002-.001v.003h.002l.004.002.003-.002h.004v-.004l.006-.003.008.002.005-.003.005.001.004-.003.003-.006.004-.004.006-.001-.003.004.004.003.017-.01v.004l.003.003.004.002.007-.003.003.006.005.021.005.002-.01.015-.003.011-.003.032.002.002-.001-.004h.002l.006.01-.004.01-.001.007-.006.018-.001.022-.007.004-.019.006-.009.006-.003.005v-.004l-.001.003h-.003l.003.004.001-.002-.005.017h-.016l-.007.003-.015-.002-.018.007-.007.008h-.007l-.002.003-.002-.003-.007-.002-.02-.004-.015-.015-.043-.022h-.019l-.005-.008.001-.01-.002-.012.005-.01.004-.016-.004-.018.003-.008h.002l-.003.004v.004l.008.003.003-.005-.002.002v-.002l.008-.006.004-.008.013-.012.007-.013h.003l.001.004-.001-.003v.005l.003.003h-.001v.01l.001.002.003-.008-.004-.003h.006l.004-.005.008-.005.006-.014.009-.008.003-.008.003-.002-.002-.002-.008-.002v-.002l-.002.001-.005.005v.002-.002l-.002.001-.01.016-.004.003-.002-.001-.005.003-.002-.001.003-.027-.002-.014.005-.002.008-.018-.005-.01v-.01l-.001-.002V9.22h.002-.001v.002l.001-.002v-.004l.003-.002.004-.01-.003-.003-.004-.001-.009.009h-.004l-.001.004-.006-.009.003-.01v-.005l-.003-.001.001-.006-.002-.01.001-.016h-.004v-.001l.006-.003-.004-.004-.004.003v.003l-.006.002-.008-.005v-.004l-.008-.013.002-.001v-.01l-.007.002.002.01-.006.006.004.007.002.001.005.018v.005l.007.012v.012l.002.001v.018l.006.004v.008l.009.012.002.006-.011.026.002.015-.01.014-.01.005-.004.008v.004l-.011.015-.013.01-.003.006-.012.011-.004.003-.014.004-.006.01.004-.008-.005.002v.002l-.008-.001-.002.002.002.003-.004.002-.005.007h.003l.006-.008h.009l-.003.004-.01.009-.001-.003-.016-.003-.007.001-.006.004-.005.006h-.005l-.005-.002-.004.001v-.007l-.012-.006h-.006l.001-.002-.004-.007-.006-.004-.02-.008h-.005l-.005-.002-.02-.016-.016-.01h-.013l-.002-.004-.01-.007-.008-.006h-.006l-.011-.008.004-.01-.015-.022v-.006l-.004-.006v-.007l-.007-.013.003-.01-.002-.013.004-.006v-.012l-.003-.006-.01-.012-.023-.018-.011-.008-.004-.005-.03-.02V9.13l-.005-.01-.034-.018-.023-.009-.003-.006-.016-.01-.006-.008-.086-.046-.007-.008-.001-.008-.005-.007-.04-.02-.007-.007v-.003l-.002-.005-.032-.013-.037-.011-.008.002-.006.012-.01.007h-.007l-.003.002h-.006l-.003.004-.022-.008-.028-.006-.008.001-.004.007-.013-.003-.004-.005-.026-.006-.007.001-.005.005-.005-.004-.004-.01-.008-.002h-.01l-.004.004v.006l-.008.005h-.005V8.95l-.002-.008v-.008l-.009-.006.006-.004.005.002.008-.004.002-.002.002-.008.006-.005h.008l.005-.004v-.007l-.006-.012-.008-.005h-.005l-.006.01-.004.002h-.014l-.002-.002-.004.003.002-.005-.003-.001v-.004l-.002-.003.002-.008-.001-.003-.001-.014-.002-.004-.01-.005-.001.003h-.002l-.005.003-.006-.008.001-.006-.005-.005-.016-.012-.024-.01-.003-.008-.027-.01-.03-.008-.003-.004.01-.014-.002-.006-.012-.01-.013-.007-.011-.004-.002-.002v-.003l-.012-.006.005-.006.009-.007h.008l.012-.006.008-.01.004-.021-.005-.024V8.65l.005-.008v-.01l.006-.01.001-.007.007-.009.003-.002.004-.008v-.006l-.003-.014-.007-.013-.02-.03-.02-.035.006.008.003-.003-.005-.004-.009-.01.006.01-.001-.002-.016-.026.001-.02-.007-.022-.013-.026-.028-.046-.016-.022-.001-.005h.004v.002l.016.01.007.009.002.006-.001.008.002.012.014.02.006.012.007.003-.004.002-.001-.003-.002.002.013.022v.004-.003l-.002.001.004.012.005.002h.005l.003-.003.001-.011-.003-.012-.005-.01-.015-.015v.006l-.002-.008.007-.011.004-.015-.001-.011-.002-.002v-.014l-.003-.003v-.003l-.006-.022-.006-.007-.017-.013-.016-.01-.009-.002-.003-.003-.013-.005-.017-.004-.08-.027-.142-.074-.033-.014-.026-.008-.05-.023-.022-.005-.029.003-.02.005-.032.012-.008.004.005-.004.02-.007.003-.003-.001-.002.002-.003.006-.001v-.002l.003.001.008-.003.004.002.004-.002h-.004l.004-.002.01.003.005-.006v-.003l-.004-.003-.008-.003v-.001l.017.007.015.004.006-.01h.008l.012.006.008.001v.001l-.002.001.003.008.009.006.01.002h.007l.001-.007-.004-.01-.005-.003h-.01l-.004-.002-.005.004.004-.005-.01-.003-.005.001-.004-.003-.015.002-.008-.007-.012-.004.005.001-.005-.01.002-.002v-.006h-.005.005l.013.005.006-.002.005.002.003-.006-.003-.006h-.002l.002-.002.004-.002.01.002.004-.001-.001-.004-.014-.005v-.004l-.006.005h-.002l-.006.006-.001.004-.017.005-.006.007.002.003v.01l-.011.007-.003.005h-.005l-.006.006-.004.008h-.002l-.003.002-.004-.001-.005.002-.004.005.001.005-.018.007-.003.003v.003l-.011.008-.023.027-.003.01-.004.002-.001.005h-.003l-.003.003-.006.011-.002.012v-.002l-.001.001v.002h-.001v-.001h-.002l-.002.007-.006.007-.019.005-.018.01-.007.002-.003.003-.004-.002-.022.003-.003.003h-.002l-.002-.002h.004-.006l-.002.002-.007-.001-.004.002-.022-.001-.028.007h-.013l-.008.004-.008-.002-.005.002-.002.004-.004.001-.009-.004v-.002h-.002V8.27h-.002l-.007-.006-.005-.003-.004.001-.003-.002-.014.005-.009.007-.004-.003h-.006l-.001.001V8.27l-.003-.001-.007.004-.01-.004h-.016l-.004.003-.01-.002-.002-.002-.006-.003h-.01l-.005.003-.001-.004-.003-.002-.019-.002-.01.007-.01-.005-.008.001-.01.007-.01.005-.015-.008h-.01l-.007.003-.002-.002h-.014l-.025-.007-.009-.007-.002-.01-.006-.005-.014-.004-.007-.006-.002-.001.003.001-.004-.004-.003.002v.004l-.003-.01v-.007l.006-.014.005-.008.013-.01v-.013l.005-.01V8.15l-.007-.019.004-.006.011-.007v-.014l.004-.025-.003-.006.005-.015.01-.014.004-.007V8.017h-.004l-.002-.004v-.01l-.002-.007-.006-.005-.006-.014-.01-.007-.01-.001-.01.002-.022.014.015-.002.003-.002-.002.002-.016.003h-.004L10.4 7.98l-.013-.015-.004-.01v-.003l.005.014.006.006.003-.001-.002-.01-.009-.003-.005-.013-.002-.007.001-.004.003.015.001-.008.003-.005v-.01l.006-.007v-.004h-.005l-.011.004h-.008l-.002.003-.002.004.002.004.01.003-.011-.003-.007-.014v-.024l-.007-.018-.017-.02-.023-.018-.03-.03v-.002l.005.001.009.006.008-.006.004-.011V7.77l-.011-.022.001-.009-.002-.007-.006-.01-.006-.006-.009-.019-.01-.028v-.003l.002.008.01.014.006.023-.007-.021-.002-.003v.002l.008.022.04.024.012.001-.005.001h.015l.002-.002-.003-.002v-.005l.011-.014.012-.007.006-.008.007-.014-.003-.006.002-.008-.006-.005.006-.009-.002-.009.005-.006-.001-.006-.005-.008.002-.001v-.004l.008-.007h.005l.01.002h.016v-.005l-.002.001.004-.005.023-.017.002-.006.008-.01.003-.01-.003-.008v-.005l-.013-.012-.003.003v.004l-.002-.002.007-.013v-.006l.006-.007v-.007l.006-.007.005-.014.007-.005.003-.004-.003-.008-.012-.009-.001-.004-.005-.002-.002-.01.007-.01.013-.006V7.43l.005-.01-.002-.002-.002-.013-.003-.003.001-.005.004-.005v-.004l-.007-.01.005-.007v-.005l.002-.003-.005-.011.006-.005-.002-.006v-.005l-.005-.003v-.005l-.004-.003-.001-.005.002.002.005-.008-.01-.007h-.007l-.004-.002-.01.007-.005.002.001.01-.003.008.004.007-.002.01-.01.005h-.006l-.004-.012-.004-.002-.003.002v.006l-.008.01-.001.003.008.011-.002.002v.006l-.007.01v.008l.002.004-.004.005v.005l-.002.002.001.01h-.006l-.004.007-.01.005v.004l-.008.008-.003.014.001.004-.003.003-.003.011-.006.01.004.013-.002.014-.003.003-.001-.002.001.001.003-.005-.002-.002-.002-.001-.002.003h-.004l-.004.006-.01.005-.025.024-.014.001-.004.003h-.005l-.014-.001-.013-.007-.013-.016-.013-.008-.003-.004v-.004l.003.007.006.003.005-.004v-.007l-.003-.003-.003-.01-.014-.016V7.48l-.018-.015-.007-.01-.001-.005.005.004.002.006-.004-.003.004.006h.006v-.004l-.003-.004.002-.009.006-.004h.002l.007-.008-.002-.005.002-.013-.003-.007v.003l-.001-.003.002-.018-.002-.006.002-.01-.002-.004-.004-.002.002-.002V7.36l.003-.007-.003-.007.001-.01-.002-.01h-.006l-.005.01-.004.002-.001.005-.007.006-.003.006v.014l.005.007v.003h.001l-.004.002.003.004h-.003l-.001.005V7.4l.003.003-.005.001-.004.01.002.003v.007l.004.003-.012.005-.005.006-.005-.003-.004-.005-.015-.01h-.017l-.008-.002v-.002l.008.004.009-.001-.002-.003h-.006l-.016-.011-.006-.002.002-.001-.007-.008v-.005l-.003-.006-.008-.001-.008-.007-.014.007.005.002-.003.014v.005h.003l.003.007-.002.005v.004l.015.01v.004l.011.008h.004l.003.011.004.004.001.005.004.001.004.01.003.001.003.009.006.004v.005l.005.011.002.015.004.001.01-.007-.01.02-.002.012-.026.033-.007.006-.018.01-.028.007-.023-.002-.03.003-.023-.004-.02.002-.005-.003-.001-.005.003-.001.002.002.012.004h.015l.008-.004.01-.003.002-.002-.013-.017-.001-.01.003-.005v-.005l-.013-.008-.004-.003v-.004l-.011-.002-.016.006-.009.002v.018l.002.003h.003l.004-.002v-.004.005l-.003.003-.005.012-.007.005-.009.017-.014.016-.005.014v.011l.005.037-.006.017-.01.054-.003.03.007.053.017.053.024.057h-.002l-.013-.033-.004.002v.01l-.003.003v.005l-.001-.005h-.004v.003h-.002v.006l-.002.004.001.001.01-.001.002.001v.005l.003.002h.004l.006-.004.005.005.02.034.02.026.031.029.037.028-.001.001-.005-.003v.002l-.001.001h-.007l.004.005v.004l-.009.005v.003l-.003.003v.006l.007.008.006.003.006-.017.004-.001h.003l.004-.003v-.002h-.002l-.002.002v-.009l.002-.002h-.002v.001l-.001-.004.031.019.03.013-.001.005-.015.022-.006.013-.005.018v.01l.005.01.023.019v.008l-.034.047-.048.057-.002.005-.005.003-.006.012-.003.013.002.006.004.001.005.016v.005l-.01.012-.006.015-.004.013-.003.02.002.025-.009.028v.005l.005.009-.005.003-.01.019-.007.008-.002.006v.003l-.01.01-.005.01-.01.013-.009.022v.004l.003.001-.008.004-.001-.002-.005-.001v-.004h-.008l-.009.005h-.005l-.004.002-.008.007-.011.014-.006.008-.005.01-.004.004-.002.004-.004-.005-.008.004-.004.005.002.003-.003.002v.004l-.01.006v.006l-.008.001-.002.005-.011.008-.003.006h-.002l-.002.002-.002-.001-.006.005h-.001l-.018.014-.01.004h-.008l-.015.014-.01.004-.003.004-.032.043-.009.018-.001.007-.016.02-.019.02-.036.045-.023.035-.002.008-.004.004h-.006l-.005.004H9.59l-.003-.005-.006-.002-.046.01H9.53l-.01.003H9.51l-.038.02-.025.006-.028.02L9.405 9l-.006.002-.054.057-.046.04-.016.01-.014.007-.022.02-.023.016-.025.013-.007-.002-.005-.003.003-.01-.005-.007.005.003h.007l.007-.004.002-.005.022.007.007-.005.006-.001.003-.005.006-.002.017-.015h-.003l.003-.003.009-.004.002-.004h.005l.004-.008.012-.003.006-.009h.007v-.01l-.003-.002-.007-.009-.002-.009-.01-.004-.01.002h-.007l-.01.002H9.25l-.005.001-.008.006h-.006l-.004.004h-.005l-.01.01h-.019l-.006.003-.046.006-.014.005h-.032l-.015.004-.012-.003V9.09l.004-.001.004.002h.01l.005-.005-.003.003.002.002.005-.001h.014l-.007-.008.001.004-.002.003V9.08l-.004-.006v.001l-.018-.006-.036-.008-.014.001-.004-.001-.014.004-.032.022-.007.003v-.003l.007-.004.002-.015-.005-.013-.012-.007-.024-.004-.044.005-.02-.005h-.009L8.86 9.04l-.014-.001-.015-.008-.015.001h-.004v-.003l.015-.013-.007.006-.002.006.003.003.003-.003.004.002.001-.005.002.002.001-.006-.002-.008-.012-.01-.004-.02-.008-.011-.012-.005-.024.001.003-.008.01-.007.002-.01-.003-.008-.006-.006-.014-.004-.014.005-.007.006-.005-.002v-.007l-.005-.002h-.007v-.002l-.003-.006-.005-.003.008-.002.005-.003.009.002.016-.002.018-.023-.008-.003-.011-.009.004-.016.003-.027.007-.013-.003-.01.004-.001.002-.004h-.006l-.004.002-.002.003v.01l-.01-.005-.005-.001-.022.005-.004-.004-.042.003-.008-.003H8.66l-.01-.005-.002-.006h-.003l-.002-.007.005-.007.003-.01v-.006l-.003-.002.004-.01V8.747l-.004-.001-.004-.005-.003-.006v-.008l-.004-.005-.009-.002-.001-.003-.006-.003-.024-.003-.006-.004h.002v-.002l-.003-.001-.002-.004-.012-.007h-.01l-.004-.002-.01.001v-.013l-.016-.013-.008-.001-.005-.003h-.029l-.048.025-.007.005-.016.017-.028.009-.017.007-.003-.015-.007-.016-.008-.004-.008-.002-.011.001-.01-.008-.002-.008-.005-.006-.005-.002h-.004l-.002-.01-.006.002-.01.008.001.008.005.007-.002.012.011.004.002.003h.004l.003.004.005.001-.002.012.003.01.006.004v.004l.01.012.004.004.008.002.016-.004.01.006h.027l.005-.002.018-.004.008-.005.016-.004.013-.007.012-.002.009-.005.011-.015.028-.003.015-.004.001-.005.005-.003.006.041.007.013.005.002.006-.003h.003l.005.016.005.003.003.004.007.004H8.6l.006.005.009.004.019.013.003.016.006.007.01.003.005-.001.002-.003.002.001-.007.034v.006l.004.008-.005.016.002.006v.007l.006.007.006.003h.005l.005.002.004.006.006.003v.004l-.012.016v-.002l-.007.001v-.002l-.01.002-.012.007-.009.01-.021.01-.01-.007-.005.001-.014.007-.01.01-.002.002h-.003l.004-.002-.002-.009-.015-.016-.012-.002-.016.002-.003-.014.002-.01V8.91l-.023-.018-.007.001-.028.014-.007-.014-.01-.008-.017-.004-.012.004-.012-.006-.002-.004h-.003l-.005.002-.009.007-.011.015h-.004l-.005.003-.02.028h-.013l-.006-.002h-.01l-.016.006.006-.016.001-.014-.002-.012-.007-.01-.018-.011-.005-.003-.005.001-.013-.01-.028-.015h-.013l-.012.006v.003l.004.002v.011l.004.007.001.026.003.009.007.007.009.003v.005l.009.037.01.016.002.001.003.007-.001.001.003.003.01.02.015.013.009.012.003.01-.004.004-.004.017-.012.005-.001.002.001.003-.005.003v.001l-.008.008-.014.003-.008-.002-.02.006-.005.004-.003.006-.011.005.013.011.002-.002h.003l.018.017h.001L8.25 9.13l.004.001v.002h.019l.01-.007.01-.01.014-.007.008-.016.002-.013.007-.018.006-.003h.02l.006.001.005.005.013.007.021.016.02.02.008.016.007.008.015.045v.007l.005.002.006-.003.012-.01.006-.003.006-.01.01-.009v-.006l-.003-.002.002-.002v-.01l.018-.022.001-.003.008-.006.004-.008.017-.016.011-.013.017-.023v-.004l.018-.014.002-.001.016.007.009-.002.013.003.017-.006.014-.01.018-.019.015-.009.004-.007.005-.002.015.004.017.008.032-.002.007.006.004-.001.002.003-.016.045-.006.024-.002.022.003.006.005.005-.004.002-.003.01h-.003l-.01.01-.008.032-.009.057.001.02.003.016.003.004.01.03.005.007.01.029.01.011.006.005.007.008h.002l.015.024.011.01.004.012h.003l.003-.002.004.001.011.009.013.014h.002l.033.046.032.033.03.015.012.01.01.004h.005l.008-.002.006-.013.013.005.004.002.001.001-.004-.002-.001.004.003.01.017.01.008.003h.01l.007-.01v-.005l-.01-.021-.006-.004-.002.003.001-.01.017-.013.002-.003.024-.014.012-.009.002-.004.008-.008.012-.015.01-.022v-.016l-.01-.012-.004-.029-.004-.009-.006-.006.001-.002-.004-.004v-.003l-.008.004v.003l.001-.003v.003l-.003.011v.009-.001l-.001-.007.003-.012-.006-.016-.002-.017h.002l.009.017.011.014.032.077.061.162.046.1.01.018.005.006.001.007.004.003.013.041.04.224.01.12-.003.008.006.01.006.058.008.04.01.03.022.052.019.039.037.065.023.03.006.002.01.013.016.015.008.002.003-.002.014.002.014.014.009.005.012.011.023.035.005.01.015.016.007.009.001.005h.002l.002.032.004.02-.003.005h-.002l-.008.005-.015-.012-.009-.002-.005.001v-.002l-.01.007-.007.008-.011.02-.007.024-.002.015.003.033.003.011.01.018v.012l.004.008.015.018.005.002.012-.004.008.007.018.002.005.003h.015l.022.026.007.017-.002.018v.021l.004.008.005.004.007.009.005.02-.004.025.005.008.002.01-.004.007v.017l-.007.005-.003.007-.001.02-.003.006-.01.006-.007-.002-.005.002h-.012l-.02.02-.008.014.005.017-.003.012-.001.012-.002.005-.009.01-.001.01-.004.006-.008.005-.002.006-.01.007-.003-.002-.01.003-.01-.007h-.012l-.01-.003-.003-.003-.014-.002-.024.02-.01.017-.007.018v.013l.02.016.006.007.004.002-.009.014-.007.024.004.016.01.01-.001.006-.009.011v.006l-.002.007-.018.01-.007.002-.004-.006v-.01l-.008-.005-.003-.005-.001-.01-.007-.012v-.007l-.015-.009-.038-.01-.005-.003h-.005l-.006-.005-.025-.007-.016-.011-.008-.002-.01-.005-.027-.005-.012-.005-.01-.007-.022-.005-.016-.009-.04-.012-.02-.012-.027-.006-.018-.012-.012-.003-.008-.006-.022-.007-.007-.004-.006-.008-.006-.005-.001-.004-.01-.006v-.003l-.01-.008-.082-.01-.055-.01-.068-.006-.099.003-.102.014-.04.01-.05.019-.1.054-.055.03-.012.01-.033.028-.021.024-.02.03-.008.008-.018.013-.022.01-.04.007-.064.022-.081.036-.094.051-.041.028-.03.022-.042.04-.007.01h-.003l.002.003-.028.028-.025.014h-.007l-.03.018-.04.01-.063.04-.017.014-.005.006H7.6v.003l-.009.01-.005.02-.004.004-.03.012-.008.007-.019.01-.01-.001-.016.004-.006.008H7.48l-.015-.036.033-.02-.02-.034-.003-.048-.005-.055h-.04v-.045l-.04-.017-.043.008-.014-.046.01-.043-.021-.045-.031-.027.02-.048.034-.037.002-.061-.033-.04-.04.02-.037.008-.014-.048-.036-.031-.046-.022-.025.043-.036-.022-.041.036-.041.017-.035.023-.037-.007-.028.027-.036.034-.036-.017-.015.037-.04.013-.022-.036-.016-.034-.049-.007-.058-.009-.033.04-.035.021-.013-.048-.022-.036h-.055l-.041.044-.044.012.008.04-.053-.003-.039.007-.03.032-.052.023-.032-.035-.038.012v-.049l-.061.031-.036.015-.012.041-.04-.008-.05.015-.046-.007-.04.009-.028-.028-.042.002-.045-.011-.025.032-.048-.02.004-.045-.03-.038-.004-.04-.002-.055-.055-.033.024-.048-.007-.04.008-.048-.037.018-.046-.001-.047-.035-.048-.047-.02-.044-.033-.026-.033-.021-.014-.044-.038-.016-.036-.03-.024-.03h-.039l-.06.028-.04-.022-.066-.055-.039-.006-.023-.033-.013-.039.057-.048.035-.02v-.04l.038-.01.011-.064.052-.035.06-.068.026-.055.03-.04.042-.022.065-.026.02-.034.02-.039.017-.04-.02-.04.004-.075-.029-.027-.039-.018-.006-.048-.033-.032-.058-.001-.04.001-.01-.037-.06-.006-.023-.032.006-.045-.032-.046-.005-.064-.047-.021-.032-.038-.011-.038-.042-.042-.05.02-.036-.033-.035.022-.021.033-.046.008-.043-.016-.037-.012-.016-.05-.052.026-.007-.041-.028-.027-.007-.039-.044-.023-.04-.025-.023-.06-.017-.035-.019-.042-.046-.004-.03.04-.032.044-.038.002-.04.002-.07.01-.038-.02-.06-.047-.041-.004-.04-.007-.041.016-.034.035-.041-.005-.04.007-.011-.038.034-.026-.037-.027-.036-.021.012-.053-.03-.022h-.05l-.04-.014-.036-.013-.028-.032-.038-.034-.04-.023-.055.024.002.063.008.037-.007.052-.042.003-.024-.03-.021-.042-.037-.028-.032-.039-.054-.011-.016-.037-.048-.024-.037-.024-.046-.011-.043.024-.025.03-.041.02-.035-.027-.058-.017-.033-.031-.048.011-.002.041-.032.032-.022.036-.04.005-.06.004.018.052.04.026v.02l-.06.01-.054.02-.04.005-.062-.004-.033-.025-.01-.053-.049-.017-.047-.004-.044.019-.029-.034-.045-.005-.077-.023-.047-.019-.01-.04-.022-.039-.01-.063-.04-.06-.075-.035-.03-.032-.037-.054-.043.002-.044-.012-.04-.02-.051.022-.046.008-.06-.003-.047-.025-.04-.048-.01-.044-.035-.024-.016-.037-.036-.034-.002-.043-.006-.045-.026-.03-.042-.043-.037.015-.055-.005-.018-.046-.036-.03-.043-.013-.031-.025-.046-.024-.04-.02-.04-.002-.046-.038-.03-.023-.05-.014-.002-.05.019-.039.005-.045.005-.044.022-.035.001-.042.034-.038.024-.046.01-.047.024-.03v-.052l-.006-.041-.06.004-.046-.013-.033-.026H.86l-.028-.03L.8 7.36l-.042.001.003-.007-.036-.035-.04-.037.02-.04.036-.015-.006-.042.019-.049.043-.019.013-.052.02-.047.002-.045.039-.019.024-.032.038-.011-.043-.061-.007-.058-.025-.058.013-.04-.03-.044-.012-.037-.037-.021-.047-.025-.056-.023-.058-.047-.025-.045-.031-.03-.04-.022-.04-.023-.042-.048.009-.038v-.04l.018-.068-.039-.019.003-.044-.024-.038.017-.057-.003-.052.014-.058.033-.032.04-.01.068.011.04-.007.053-.018-.021-.037-.01-.049-.046-.02-.042-.018-.001-.044.01-.044.047-.023.026-.056.014-.04.006-.046.038-.019.037-.016.086-.025.042-.01.04.024.034-.025.03-.028.041-.024.04-.023.073.004.043-.029.058-.012.029.046.037-.027.008-.05.07-.003.046-.008h.046l.054.01.055.001.042.005.077-.015.045-.013.07-.017.046-.034.026-.031.056-.032.086-.005.046-.002.03.035.037-.009.038.015.037-.022.03.024.065.025.045.026.057.01.027-.037.008-.042.01-.045.026-.05-.022-.053.037-.034.026-.05.005-.053-.007-.065-.045-.032-.005-.107.062.009.047-.085-.036-.044-.005-.043-.073-.052-.01-.044.01-.043-.029-.038.01-.045.064-.022.033-.036.026-.035-.038-.02-.015-.051-.058-.054-.007-.08-.038-.03-.04-.044.03-.044-.038-.094.03-.028-.027-.05.045-.032.006-.04m8.55 4.617-.01.009-.017.01-.026.013-.025.007-.05.01-.031.002h-.036l-.112-.002-.056-.007-.086.006h-.038l-.063-.007-.071-.02-.006-.005.002-.001.013.007.021.003h-.008l.05.015.075.008.056-.002.051-.005.019.001.042.006.142.002.034-.002.061-.012.028-.01.025-.015v-.002l.006-.002.025-.02v-.003l.009-.012v-.002l.005-.005-.003-.006-.008-.004-.003-.003.011.006.01.002.002-.003.002.002v.005l-.04.036m-.301-6.885.024.032-.029-.036-.027-.03-.032-.027.038.032.026.03M5.057 3.22l-.039-.004-.042-.017.06.011.02.01m.573.261.045-.01.047.008-.044.032-.034.047-.041-.031.027-.046m7.25 5.624.043-.02.048-.007.028.034-.041.016-.056-.002-.023-.02m1.558-1.203-.005.064-.021-.053.026-.011m-2.4-1.355.002-.053.023.123-.031.023.018-.044-.012-.049M9.81 4.43l-.03-.032-.048-.054-.038-.046-.034-.042-.027-.037-.028-.034-.027-.029.042.045.058.074.046.056.084.096.002.003M5.186 3.304l.071.022.095.047.01.06-.02.043-.05.013.012.042-.008.046.001.044-.024.077-.026.042-.077-.017-.04.013-.125-.043-.036-.018-.044-.031-.093-.057-.035-.029-.002-.041-.081-.057-.053-.015.058-.144.04-.047.037-.011.039-.028.038-.024.07.01.051.02.047.015.046.01.02.04.053.02.026-.002m7.852 5.721-.054.003-.05.022-.002-.049.035-.063.038-.038.044.003.042.02.055.03-.052.033-.039.03-.017.009" fill-opacity=".4" stroke="none" fill="#fff"/></g></svg>