<svg height="249.6" version="1.2" xmlns="http://www.w3.org/2000/svg" baseProfile="tiny" width="288" viewBox="0 0 15 13"><g fill-rule="evenodd" stroke-linejoin="bevel" stroke="#000" fill="none" stroke-linecap="square" font-weight="400" font-family=".AppleSystemUIFont" font-size=".903"><path d="M-1.981-1.981h19.81v17.829h-19.81V-1.981" stroke="none" fill="#fff"/><path d="M0 0h14.857v13H0V0" stroke="none" fill="#fff"/><path fill="none" d="M0 0h14.857v12.876H0z" fill-opacity="0" stroke="none"/><g stroke-width=".051" stroke="#96cb65" fill="#96cb65"><path d="M3.603 12.116h.1v-.099H3.8v-.198h.1v.198h-.1.1l-.1.1v.099h-.198v.099h-.099v-.199h.099M2.315 14.097v.067h-.099v-.067h.1v-.099h.098-.099v.1h0M3.405 12.71h-.1v.1-.1.1-.198h.1v-.1.199h0M3.9 11.918v-.099H4v-.099.198h-.1 0M3.108 13.008v.099h-.1v-.1h.1M3.702 11.82h-.099v-.1h.1v.1h0" stroke-width=".05051448"/><path d="M3.306 12.81v.099h-.1v-.1h.1M2.613 13.701v-.099h.099v.1h-.1 0M2.416 13.94h.052v-.051h-.052v.05M2.712 13.503h.099-.1v-.099.1h0M3.2 12.479h.042v-.055H3.2v.055M3.007 12.97h.044v-.031h-.044v.03M3.426 12.196h.023v-.017h-.023v.017M2.835 12.943h.014v-.017h-.014v.017M2.568 13.816h.013V13.8h-.013v.015M2.741 13.354h.015v-.011H2.74v.01M2.58 13.799h.01v-.011h-.01v.01" stroke-width=".05051448"/><path d="m2.766 13.482-.004-.001-.001-.006.007.003-.002.004M8.456 9.244l-.099-.099h.1v.1-.1.1h.098-.099.1v.098h.098-.099v-.099h-.099 0M7.862 9.046v-.099h-.099v-.099h-.099.099v-.1h.1v.1h.098-.099.1-.1.1-.1v.099h.1v.1h.098v.198-.1h-.099.1-.199v-.099h0" stroke-width=".05051448"/><path d="M7.786 8.904h-.002V8.9l.002.002v.002M7.169 6.075v-.1h.099V6.274H7.07v.099h-.198v.099l-.1.099v-.1h.1v-.198h.099v-.198.1-.1.1-.1h-.1v.1-.1H7.17M1.721 6.075v.099l-.099-.1h.1v-.098.099h0M1.127 5.976h-.1v.099-.1h.1M6.674 5.678v.1-.1h.099-.1v.1-.1h0M6.425 4.073h.058V4.05h-.058v.024M3.193 5.478h.02v-.037h-.02v.037M7.272 5.667h.02v-.03h-.02v.03M3.647 5.878h.036v-.017h-.036v.017M1.605 5.681h.02V5.66h-.02v.021" stroke-width=".05051448"/><path d="M6.696 5.72h.01v-.031h-.01v.03M1.962 5.694h.035v-.008h-.035v.008M6.614 4.166h.016V4.15h-.016v.016M6.926 5.358h.013v-.016h-.013v.016M10.376 4.457h.015v-.014h-.015v.014M6.727 4.657h.013v-.016h-.013v.016M6.803 3.416h.012v-.013h-.012v.013M5.383 4.623l-.008-.002-.001-.003.008-.008.003.01-.002.003M6.528 4.703l-.001-.001.006-.02.001.002v.014l-.006.005M1.089 5.89H1.1v-.012H1.09v.013M3.187 5.685H3.2v-.01h-.013v.01M3.654 5.973l-.006-.007.009-.006-.002.012v.002h0M6.601 6.017l.004.01-.006.003-.001-.007.003-.006M2.01 5.693h.021V5.69h-.02v.004M6.62 4.142l-.001-.008.001-.003.005-.001-.004.012M6.616 6.015h.01v-.009h-.01v.01M5.244 10.258h.007v-.01h-.007v.01M6.254 4.964h.006v-.011h-.006v.01M6.398 7.02h.01v-.008h-.01v.007M12.853 1.4l-.003-.004-.003-.007.004.002.002.008M11.96.988h.01V.982h-.01v.006" stroke-width=".05051448"/><path d="M3.19 5.683v.003h-.005l-.001-.004.002-.004.004.005M4.794 10.401H4.8v-.007h-.006v.007M6.284 4.91l-.002-.002.001-.004.006-.001-.005.007M4.519 11.367h-.001l-.005-.001.002-.003.004.004M7.23 3.138h.006v-.004H7.23v.004M4.072 7.501v-.005l.002-.002.001.003-.003.004M3.134 5.638h.006v-.004h-.006v.004M2.009 5.693h-.003l-.008-.002.012.001h-.001M3.236 5.392h-.002l-.002-.006.001.002.002-.001.001.005M4.88 10.546l-.002-.003.003-.002.002.003H4.88v.002M4.839 10.369l-.002.003-.002-.005h.004v.002M5.514 3.975h.009v-.003h-.009v.003M2.167 6.008l-.001-.001v-.004l.002.002v.004h-.001M5.404 4.225h.006l-.006.002v-.002M6.72 7.82l-.002.001-.002-.002.003-.001h.002l-.002.001M5.568 4.576l-.003-.001.002-.003.003.001-.002.003M12.867 1.381l.002.002v.002l-.002-.004h-.002.002M3.569 5.964h.003v-.005H3.57v.005M10.529 4.326l-.003-.002h-.002.002l.003.002M6.9 5.444v.003l-.003-.002v-.002H6.9M3.232 5.36l-.002-.005.002.002v-.003.005M3.233 5.784H3.23L3.23 5.78l.005.003h-.001M10.234 4.663l-.002-.001.001-.003.003.001-.002.003M7.288 3.205h-.002 0l.002-.003v.003M5.564 4.61h.002v.003h-.001l-.001-.003M5.22 3.908h-.001v-.003l.002.002H5.22M4.512 11.37l-.002-.002.002-.002v.003h0M6.816 3.393l.002-.001h0l-.002.002h0M6.456 4.03V4.03l.001-.001v.003M4.799 10.403h-.002v-.001h.002M7.289 3.175h-.002l.002-.002v.002" stroke-width=".05051448"/></g><g stroke-width=".051" stroke="#e3e171" fill="#e3e171"><path d="M5.584 8.452v-.198h.099v.198h-.099 0M.037 1.915v-.1l-.099-.098-.099-.1H-.26l-.099-.099-.099-.198-.099-.099V.726l.1-.198H-.16l.098.099v.198l.1.198v.1l.197.197.1.1.099.197.099.199v.198h.099v.198l-.1.099H.236l-.099-.198-.099-.198h0M.83 2.509h-.1v-.1H.633v-.198H.73v.1H.83v.198h0M.632.924h-.1V.726h.1v.198h0" stroke-width=".05051448"/></g><g stroke-width=".051" stroke="#bdd66b" fill="#bdd66b"><path d="M.235.924H.136V.825L.037.726V.528h.1l.098.099V.924h0M2.613 4.094v.198l-.1-.1V3.897h.1v.198h0M4.99 9.541h-.1.1v-.099.1h0" stroke-width=".05051448"/></g><g stroke-width=".051" stroke="#a9d168" fill="#a9d168"><path d="M10.24 4.49h-.1v.099l-.198.099-.099.099h-.099l-.1.1h-.098v-.199l.099-.1V4.293h-.1v.099h-.098v.198h.099l-.1.099-.098.099-.1-.099v-.1H9.15V4.49l-.1-.1H8.755v-.098l-.1.099v.198l-.099.099h-.099V4.39h-.099v-.098H8.16l-.099.099h-.198v-.1h.1v-.098h.098v-.1h.1l.098-.098.1-.1h.098v-.198l.1-.099V3.5h.098l.1-.099v-.099l.099-.099v-.099h.099l.099-.099v-.099l.099-.099.099-.099h.099v-.099l.099-.1V2.41h.099l.099.099h.099l.099-.1H10.141v-.098h.098v-.198l.1-.1v-.198l.098-.098.1-.1v-.099.1h.098v.099l.1.099v.099h.099v.099h.099v.099l-.1.099v.099h-.099v.099H10.437V2.707h.1l.098-.099H10.933l.099.099h.099l.198-.099.099-.1h.396l.1.1h.198V2.905h-.1v.1l-.099.098v.1H11.625l-.098-.1v-.099h-.1v-.099h-.098v.1l-.1.098-.098.1-.1-.1h-.098l-.1.1V3.498l-.099.1v.098l-.099.1-.099.099h-.099v.198l-.099.099v.198h-.099v.099h0" stroke-width=".05051448"/><path d="M11.032 3.4h.099v.1h-.1V3.3v.1h0M2.414.528h-.099V.132h.199v-.1.397h-.1v.099h0M6.277 6.174l-.099.198-.099.198-.099.099v.198l-.099.1V7.262l-.099.1v.198h-.099v.098h-.099v.1l-.1.198-.098.198-.1.099-.098.099v.099l-.1.198-.098.198-.198.198V9.344h.099v-.1l.099-.099.099-.099h.099v-.099h.099v-.099l.099-.1v-.494l.099-.1v-.098h.198l.1.099v.099h.098v.099h.198v.198l-.099.099V8.947h.1v.1h.098v.098H6.08v.1h-.396v.098h-.099v.1h-.1v.098l-.098.1h-.1v.198h-.098v.198h-.1v.198H4.99l-.1.099-.098-.1h-.1v.199l.1.099V10.829h-.1v.099l-.098.099-.1.099h-.099v.1l-.099.098v.1h-.198v-.1h.1v-.198h.098v-.099h.1v-.1h-.1v-.594h-.099v-.098l-.099-.1V8.849l.1-.1V8.453l.098-.1v-.098l.1-.1.098-.098v-.199h.1V7.66l.099-.099v-.099h.099v.1l.099.098h.099V7.56h.099l.099-.099.099-.099v-.198l.099-.099v-.099l.099-.099V6.47l.099-.098v-.198l.099-.1v-.098l.1-.1v-.099h.098v-.099l.1-.099V5.48h.098l.1-.099.098-.099h.198v.1h.1v.098l-.1.1V5.876l-.099.099v.099l-.099.099h0M4.99 9.54v-.099.1h-.1.1m.594-1.09h.099v-.198h-.099v.198h0M6.376 3.5l.1.098v.1l-.1.099-.099.099-.099.099-.099.099-.099.099v.099h-.099l-.099.099-.099.099v-.1l-.099-.098v-.1l.099-.098v-.198l.1-.1v-.099l.098-.099h.1l.197-.099h.198M7.664 4.688v.099h-.1v.1h-.098l-.1-.1V4.39l.1-.098h.198l.099.099v.099h-.099v.198h0" stroke-width=".05051448"/><path d="M6.178 7.957H6.08v.099H5.98l-.099-.1V7.66h.198l.1-.099h.098v.1h.1v.198h-.1v.099h-.099 0" stroke-width=".05051448"/></g><g stroke-width=".051" stroke="#96cb65" fill="#96cb65"><path d="M14.3.627h-.396.496V.528h.098-.099v.099H14.3h0M16.343 1.32h-.062v-.099h.062v.1" stroke-width=".05051448"/><path d="M16.281 1.42v-.1.1-.1h.062v.1h-.062 0M15.459-.933h.03v-.137h-.03v.137M15.744-.15h.02v-.038h-.02v.038M13.895-.012h.024v-.009h-.024v.009M15.419-.506h.013V-.52h-.013v.014M15.472-1.11h.006v-.027h-.006v.027M15.592-.249h.008V-.26h-.008v.012M15.471-1.085h.004v-.016h-.004v.016M15.456-.984h.003v-.017h-.003v.017M15.387-.581h.005v-.012h-.005v.012M15.59-.199h.01v-.006h-.01V-.2M16.24 1.202v-.006l.006.001V1.2l-.002.002h-.004" stroke-width=".05051448"/><path d="M15.477-1.114h.005v-.009h-.005v.009M15.39-.566h-.003v-.006l.006.004-.003.002M13.47.282h.008V.278h-.009v.004M15.474-1.082h-.003l.007-.004-.002.002-.002.002M15.73-.14v-.004l.005-.001-.005.005h0M16.333.394h.001l-.007.002h-.005l.011-.002M13.88.001l-.004.002-.002.002.002-.002.004-.002M16.322.397h-.004l-.005.001.008-.002h0M16.341.39l-.003.004h-.004.003L16.34.39M16.256 1.34l-.001-.001v-.002l.004-.002v.003l-.003.001M16.032 1.447h-.002l-.001-.005.003.002v.003M13.9-.014h.006v-.003H13.9v.003M16.242-.97h-.003l-.002-.001h.005M15.42-.505v-.003h.002v.002l-.002.001M15.467-1.072h-.001v-.007l.001.001v.006M15.37-.576V-.58h.001l.001.002-.002.002M14.606.408h-.003V.405h.004v.002" stroke-width=".05051448"/><path d="M13.409 1.023h-.1v.1h-.098v.098h-.198v.1h-.1v.098h-.099.1V1.32h-.199v.1-.1.1-.1.1-.1.1-.1h-.099v.1-.1h-.198v-.099h-.099.1v-.099h-.1v-.099h-.099l-.099-.099v.1h-.099l-.099-.1v.1h.1-.1H12.221v.098h.098v.1H12.022v-.1.1h-.099v-.1h-.099.1-.1.1V1.42h-.1.1v-.1h.098v.1h.1v-.1h.198v-.099.1h.098v.098h-.099v.1l.1.098v.1h.098l.1.099v-.1.1-.1h.098v-.198.1l.1.198v.198l.099.198V2.509l.099.099h.099v.397h.099v.198h-.1V3.3h-.098V3.5 3.4h-.199v-.099h-.198v-.099h-.396v.1h-.198V3.4h-.099v.1h-.198l-.1.098h-.098v.1h-.198v.099h-.1v.099h-.198v.099h-.198v-.1.1h-.099.1v.099h-.1v.099h-.198v.099-.1.1l-.099.099h-.099v.099-.1.1h-.099v-.1h.1v-.198l.098-.098v-.198h.1l.098-.1.1-.099v-.099l.099-.099V3.202l.099-.099h.099l.099.1.099-.1.099-.099v-.099h.099v.1h.099v.098l.099.1H11.924v-.1l.098-.099v-.099h.1V2.608h-.199l-.099-.1h-.397l-.098.1-.198.099h-.1l-.098-.099H10.635l-.099.099h-.099V2.41H10.735v-.1h.099v-.098l.099-.1v-.098h-.1v-.1h-.099v-.098l-.099-.1v-.099h-.099v-.099.1l-.099.099-.099.099v.198l-.099.099v.198h-.099v.099H9.843l-.099.099h-.1l-.098-.1h-.1v.1l-.098.099v.099h-.1l-.098.1-.1.098v.1l-.098.098h-.1v.1l-.098.098v.1l-.1.098h-.099v.1l-.099.098v.199h-.099l-.099.099-.099.099H8.06v.099h-.099v.099h-.099v.099h.198l.1-.1h.198v.1h.098V4.688h.1l.098-.1V4.39l.1-.098v.099H9.05l.099.099v.099h.099v.099l.099.099.099-.099.099-.1h-.1V4.39h.1v-.098h.099V4.589l-.1.099v.199h.1l.099-.1h.099l.1-.099.197-.1V4.49h.1v.198-.1h-.1v.1h-.099v.099h-.099v.1h-.099l-.099.098h-.1v.198h-.098v.198h-.1v-.099h-.098v-.198h-.1.1v-.099H9.15v-.099h-.595v.1-.1.1h-.198v.098-.099.1h-.099v-.1.1H8.16v.198H8.06v.098h-.099v.1h-.099v-.199l.1-.099v-.198.1-.1h-.199v.1h.1v-.1.1h-.1l-.099.098h-.1v.1h-.098v-.1V5.481h-.1v-.1h-.098v-.099h-.1v.1-.1.1H7.07v.098-.198.1l-.1-.1h.1-.1v.1-.1.1-.1h-.098v.1h.099-.1.1-.1.1-.1v.098-.099l-.098.1v.198h-.1v.098h.1v.199-.1h-.1v.199-.1h-.099v.1-.1.1h.1v.099-.1.1h-.1v.099-.1.1-.1h-.099v.1h.1-.1.1-.1.1v-.1.1h-.1l-.099.099v.099l-.099.099v.198h-.099v.099l.1.1v.098h.098v.1-.1h.1-.1.1-.1v-.099h.198l.1.1h.099l-.1.098v.1h-.099v.594h.1-.1.199-.1v.099h.1-.1.1v.099h-.1.1v.198h-.1v.099h-.099v-.1h-.099v-.098h-.099v.099h-.099v.099h-.099V8.65H6.08v.198h.1v.199h.098v.198h-.099v.098H5.98v.1h-.099v-.1h-.198v.1h-.099v.098h-.1v.1h-.098.099-.1v.594h.1-.1.1v.099h-.1v-.1h-.098.099-.1.1-.198v.1H4.99v.099h-.1v-.1h-.098v.1h.099-.1.1v.099h-.1.1-.1.1v.099h-.1v.099h.1-.1.1-.1.1-.1v.099-.1h.1v.1h-.1.1-.1v.198h-.098.099-.1.1l-.1.099v.1h-.098v.098h-.1.1-.1l-.099.1v.098h-.099.1-.1v.1h-.099v.098h-.099v.1-.397H4h.1-.1v-.694l-.099-.098v-.496l-.099-.099V9.74l-.099-.297V8.254l.1-.1V7.858l.098-.099.1-.099.098-.099.1-.099v-.396h-.1.1v-.099h.098v.1h.198v-.199H4.792v-.099h.099v-.1h.099l.099-.098v-.1h.099v-.098h.099V6.074h.099v-.098h.099v-.1h.099v-.198h.199V5.58h.098V5.48h.1v-.198h.198V4.985h.098v-.099H6.575v-.198h.099v.099-.099h.198v-.1h.099-.1V4.49l-.098.099v-.1h.099v-.098h.099v-.1h.099v-.098h-.198l.099-.1v-.098h.099V3.4h.099-.1.1l.099-.099h.099v.1h.099v-.1h-.1v-.099h-.098v-.099H7.07l-.1.1h-.198V3.3h-.098.099-.1v.1h.1-.1v.396h-.099.1-.1.1-.1.1l-.1.099h.199v.099h-.1v.099h-.099v-.198.099h-.099.1-.1.1v.099h-.1v-.1h-.099v.1h-.099v.099h-.099v.099-.1.1H6.08v.099H5.98v.099h-.099v.099h-.099v.198-.099.099h-.099v-.099.099h-.099v-.099.099-.099.199h-.1V4.587l.1.1V4.49h-.1v.099h-.098V4.29v.1-.198h.099v-.1h.099-.1.1-.1v-.098h.1-.1.1-.1.1v-.198h-.1l-.098.099h.099-.1v.099-.1.1-.1.1h-.098v-.1.1h-.1.1-.1.1v-.1h-.1.1-.1v-.098H4.99v.099h-.098v-.1.1-.1.1h-.496v.099h-.198v.099h-.099V4.39H4L3.9 4.49v.099h-.099v.198h-.099v.1h-.099v.098h-.099v.1h-.1l-.098.098v.1h-.1v.098-.099h.1-.1v.198-.099l-.098.1v.098h.099v.1-.1h-.1v.198h.1v-.099.1h.099-.1v-.1h.1v.1h.198v.198h-.1v.099-.1h-.198v.1h-.198v-.1H2.91h.099H2.71v.1h.1v-.1.1h-.198v.099h-.199v-.1h-.099v.1h-.099l-.099.099h-.099v-.1H1.92v-.098h.1v-.1h.098v.1-.1H2.415h-.1v-.098h-.198v-.1h-.099v-.099H1.82v.1h-.198.1v-.1h-.1V5.58h-.496v.198h-.098v-.099l-.1.1v.099h.1v-.1.199-.1l-.1.1v-.1.1H.83v-.199H.632v.1h-.1.1-.198l.099.099h-.1v-.1H.137v-.099H.037v.199H-.16v-.199.1H-.26v-.1h-.198l-.099.1H-.854v-.1h-.198v.1h-.396v.099h-.038v-.694H-1.25v.1h.099v.098l.099.1h.396l.099.098h.198V5.381h.496l.098-.099.1-.099.099-.099h.099l.099.1H.929l.099.098h.099l.099.1h.495l.1.098h.198l.098-.099v.1h.1v.098l.098.1h.199V5.975h.198V5.678l-.1-.099v-.198H2.91l.099-.099.099-.099.099-.099h.099l.099-.099v-.099l.099-.099h.099l.1-.198.098-.1v-.098h.1v-.1l.098-.098v-.1h.1v-.098h.098l.1-.1.098-.098H4.693l.099-.1.099-.099H5.188V3.5h.099V3.4l.099-.099.099-.099.099-.099h.199l.098-.099.1-.099h.693l.198-.099.099.1H7.268v.098h.198V2.707h.397l.098-.099h.1v-.1l.098-.098.1-.198v-.1l.098-.098v-.1H8.655v-.098h.198v-.199h.099v-.099l-.1-.099v-.396L8.755.924V.528h.198v.199l-.1.098v.198h.1l.099.1h.099l.099-.1.099-.099.099-.198V.627l.099-.099.099-.1V.33l.099-.1H10.041V.133h.1l.098-.1v.1h.198v-.595l.1-.099.098-.198.1-.099v-.099l.099-.198v-.099h.198v.1l.099.098.099.1v.098l.099.1v.198l-.1.198v.099l-.098.297v.495l.099-.1.099-.098.099-.198v-.198l.099-.198.099-.1.099-.099h.099l.1.1v.198h.198l.098-.1H12.518l.098.1.1.099h.098v-.1h.1v-.098l.099.099h.099l.297.099v-.1l.099-.098h.198l.099-.1.099-.099h.198l.1.1h.098l.1-.1v-.396h-.1v-.198h-.198l-.099-.099v.1l-.099.098v.1h-.199v-.1h-.098v-.099l.099-.099v-.132H6.674v.033h.099v.1h.099l.099.098h.198v-.099h.198v.396l-.1.1H6.972v.098l-.1.1v.099h-.396l-.099-.1h-.099l-.099-.099L6.08-.66 5.98-.76l-.099-.099v-.099h.1l-.1-.099v-.099l-.099-.099-.033-.033h-.297l.033.033v.1h.099l.099.098h.1v.198l.098.1v.198H5.584v.098h-.1v.1l-.098.099h-.1v.099h-.098v.198l-.1.099v.396H4.89v-.1L4.793.33v-.1l-.1-.098h-.098v-.198l.099.099h.198v-.198l.099-.1v-.098l.099-.1h-.1v-.099L4.892-.66h-.1v.1h-.098v.098h-.1v.1l-.099.099h-.099v.099h-.099v-.1h-.099V-.66L4.098-.76V-.462L4-.364v.099h-.595l-.098-.1-.1-.099h-.098v-.099h-.1v.1H2.91v.396l-.1.099v.099L2.713.23V.528l-.1.099v.198h-.098v.198l.099.1v.098l.099.1v.198h-.1l-.098-.1h-.199v.397l.1.099v.198h-.199v-.1l-.099-.098h-.099v-.1H1.82V1.519h-.099V1.42l-.099-.099-.099-.099h-.099v-.099l-.1-.099V.825L1.227.726V.33l-.1-.1-.098-.098-.1-.1-.197-.098-.297-.297-.298-.199H.037L-.062-.66V-.76L-.16-.859H-.26l-.099-.198h-.099l-.198-.099-.1-.099-.065-.033h-.627v.033-.033h-.038H15.39v.033h.099v.198-.099.1-.199h-.1v.198-.099V-.858h.1v.198h-.1v.198h.1v-.1.1-.1.1h.099V-.166v-.1h.099v-.098h.099v.198h-.1.1-.1.1v-.1h.099v-.098h-.1v-.1h-.098v-.099h.099V-.859h-.1.1-.1v-.099h-.098.099-.198.198-.198.396v-.099l.099.1H16.342V.366l-.06.062v-.1.1h.06v.693h-.06v.1h-.1v-.1.1h-.099.198v.098h-.198.1v.1h.16v.197h-.062v-.099h-.099.1l-.1.1v.099h-.198v-.1h.1v-.099.1-.199h-.1v.1h.1-.1v.098h-.099.099-.199v-.099h-.098.099-.1.1l-.1-.099h-.098V1.32h-.1v-.099H15.193v-.099h-.1.1-.198l.099-.099h-.1.1l-.1-.099h.1V.825h-.1V.726l-.099-.099h.1v.1-.1h-.1l-.099-.099h-.099l-.099-.1h-.099v.1-.1h.1-.1.1-.1v.1H14.4v.099h-.396V.528h-.099.1V.33h-.1v-.1.1-.1h-.099V.033v.1h.099v-.198h.1v-.198h-.1v.198h-.199.1v-.1h-.1v-.098.099l-.098-.1v.1h.099v.099-.1.1h-.198v.099l-.1.099V.23h.1V.33v-.1.1h.099v.099h.099-.1v.099h.1-.1v.199h-.098.099l-.1.098v.1h-.098v.098h0M7.664 4.688V4.49h.099v-.1l-.099-.098h-.198l-.1.099v.396l.1.1h.099v-.1h.099v-.099h0M6.376 3.499h-.198l-.198.1h-.099l-.099.098v.1l-.099.099v.198l-.099.099v.099l.099.099v.099l.1-.1.098-.098h.1v-.1l.098-.098.1-.1.098-.098.1-.1.098-.099v-.099L6.376 3.5h0m4.656-.099v-.099.198h.099V3.4h-.1 0M6.179 7.957h.1v-.1h.098V7.66h-.099V7.56h-.099l-.099.1h-.198V7.956l.1.099h.098v-.1h.1m.098-1.782.1-.1v-.098l.098-.1V5.58l.1-.099v-.099h-.1v-.099h-.198l-.099.1-.099.098H5.98v.1l-.099.098v.1h-.099v.099l-.099.099v.099l-.099.099v.198l-.1.099v.396l-.098.1v.098l-.1.1v.198l-.098.098-.1.1H4.99v.098h-.1l-.098-.099v-.099h-.1v.1l-.098.098v.198h-.1v.199l-.099.099-.099.099v.099l-.099.099V8.749l-.099.099v1.288l.1.099v.099h.098v.594h.1v.099h-.1v.099h-.099v.198h-.099v.1h.198v-.1l.1-.099v-.099h.098l.1-.099.099-.1v-.098h.099V10.53l-.1-.098v-.198h.1l.099.099.099-.1h.099v-.198h.099v-.198h.099V9.64h.099l.099-.099v-.099h.099v-.099h.099v-.099h.396v-.099h.1v-.099h-.1v-.099H5.98V8.65l.1-.1v-.198H5.88v-.098h-.099v-.1l-.099-.098h-.199v.099l-.098.099v.495l-.1.099v.099h-.098v.1h-.1l-.098.098-.1.1v.098h-.098V9.046l.198-.198.099-.198.099-.198v-.1l.099-.098.099-.1.099-.197.099-.199V7.66h.099V7.56h.1v-.198l.098-.099V6.966l.1-.099v-.199l.098-.098.1-.198.098-.198h0M2.414.528v-.1h.1V.033v.1h-.199v.396h.1M.532-1.288v.133h.099v.098H.83v-.099l.099-.099v-.033H.533M15.984 1.32h.1V.924l-.1-.099v.1h-.099v.098l-.1.1v.098h.1v.198h.099V1.32h0m.359-1.683h-.062V-.066h.062v-.297m-1.944.099h.1v-.199.1h-.1v.099h0" stroke-width=".05051448"/></g><path d="m13.409-.066-.297-.1h-.1l-.098-.098v.099h-.1v.099h-.099l-.099-.1-.099-.098H12.22l-.099.099h-.198v-.198l-.099-.1h-.099l-.1.1-.098.099-.1.198v.198L11.33.33l-.1.099-.098.099V.033l.099-.297v-.1l.099-.198V-.76l-.1-.099v-.099l-.098-.099-.1-.099v-.099h-.198v.1l-.099.197v.1l-.099.098-.099.198-.099.1v.594h-.198v-.1l-.099.1h-.099V.23H9.744l-.1.099v.099l-.098.099-.1.099v.1l-.098.197-.1.1-.098.098h-.1l-.098-.099h-.1V.825l.1-.099V.528h-.198v.397l.099.098v.396l.099.1v.098h-.1v.199h-.198v.099H8.357v.099l-.099.099v.099l-.099.198-.099.099v.099h-.099l-.099.099h-.396V3.005h-.198v-.1H6.97l-.098-.099-.198.1H5.98l-.099.098-.099.1h-.198l-.1.098-.098.1-.1.098v.1h-.098v.098H4.89l-.098.1-.1.099H4.396l-.099.099-.099.099h-.099v.099H4v.099l-.099.099v.099h-.099v.099l-.099.099-.099.198h-.099l-.1.1v.098l-.098.1h-.1l-.098.098-.1.1-.098.098H2.612v.198l.1.1V5.975h-.198V5.678h-.199l-.099-.099V5.48h-.099v-.099l-.099.1H1.82l-.099-.1h-.495l-.1-.099h-.098l-.1-.099H.633l-.1-.099H.435l-.1.1-.099.098-.099.1h-.495V5.677h-.198l-.099-.099h-.396l-.1-.099v-.099h-.098v-.099H-1.486v-6.57h.038v.033-.033h.627l.066.033.099.1.198.098h.1l.098.198h.1l.098.1v.098l.1.1h.098l.298.198.297.297.198.099.099.099.099.099.099.099v.396l.099.1v.197l.099.1v.098h.099l.1.1.098.098v.1h.1V1.815h.198v.099h.098l.1.099v.099h.198v-.198l-.1-.1V1.42h.199l.099.1h.099V1.32l-.1-.099v-.099l-.098-.099V.825h.099V.627l.099-.099V.23L2.81.133v-.1l.099-.098v-.397h.099v-.099h.099v.1h.099l.099.099.099.099h.594v-.1l.1-.099V-.76l.098.1v.396h.1v.099h.098v-.1h.1l.099-.098v-.1h.099v-.099h.099V-.66h.099l.099.1v.098h.099l-.1.1v.099l-.098.099v.198h-.198l-.1-.1v.199h.1l.099.099V.33l.099.099v.099h.198V.132l.099-.1v-.198h.099v-.098h.099l.099-.1v-.099h.099v-.099H5.881V-.76l-.099-.099v-.198h-.099l-.099-.099h-.1v-.099l-.032-.033h.297l.033.033.1.1v.098l.098.1h-.099v.098l.1.1.098.098.1.1.098.098h.1l.098.1h.397v-.1l.099-.099V-.66H7.268l.099-.099v-.396h-.198v.1H6.97l-.1-.1h-.098v-.099h-.1v-.033h7.033v.133l-.1.098v.1h.1v.098h.198v-.099l.1-.099v-.099l.098.1h.198v.198h.1v.396l-.1.099h-.099l-.099-.1h-.198l-.099.1-.1.099h-.198l-.098.099v.099h0M-.458 3.697v-.099l.1-.099.098-.198v-.198l-.099-.198v-.099l-.099-.099v-.099l-.099-.1V2.212l-.099-.098-.1-.198-.098-.1v-.098H-1.152v.099l.1.099v.198l.099.099v.198l.099.198h.099l.099.198.099.1v.198l-.099.197-.1.1h-.198l-.197-.1h-.335v.755l.038.038v.099l.099.099.099-.1.198-.098h.099v.198l.099.099h.099l.099-.1h.099l.1-.098V3.697h0m.494-1.782.1.198.098.198H.533l.099-.1v-.197h-.1v-.198l-.098-.199-.1-.198-.099-.099-.198-.198v-.099L-.062.825V.627L-.16.528H-.458l-.099.198v.495l.1.1.098.197.1.1h.098l.1.099.098.099v.099h0m.793.594V2.31h-.1v-.1H.633v.199H.73v.099H.83m1.783 1.585v-.198h-.1V4.193l.1.099v-.198h0M-.854 1.122h.099V.924l-.1-.099V.726L-.952.627h-.1v.396l.1.1h.099m.099-1.486.198.099h.198v-.1l-.099-.099-.099-.198-.099-.099h-.198V-.462l.099.099h0M.235.924V.627L.136.528H.037v.198l.1.1v.098h.098m.397 0V.726h-.1v.198h.1" stroke-width=".05051448" stroke="#a9d168" fill="#a9d168"/><g stroke-width=".051" stroke="#7296a8" fill="#cbe2f1"><path d="m13.013 11.324.099.1h-.1v-.1h-.198v-.099l.1.1h.099M12.715 11.225v-.099h-.099.1v.1h0M12.814 11.126h-.099v-.099h.1v.099h0M13.31 11.126h-.1v-.099h.1v.099h0M12.418 11.027v.099h-.099v-.099h.1v-.1.1h0M11.735 10.833h.042v-.026h-.042v.026M10.933 10.73v.099h-.199v-.1h.199M11.017 10.592h.041v-.025h-.04v.025M10.734 10.433v.099h-.198v-.1h-.099v.1-.1h-.099.396" stroke-width=".05051448"/></g><g stroke-width=".051" stroke="#fff"><path d="M3.603 12.116h.1v-.099H3.8v-.198h.1v.198h-.1.1l-.1.1v.099h-.198v.099h-.099v-.199h.099M2.315 14.097v.067h-.099v-.067h.1v-.099h.098-.099v.1h0M3.405 12.71h-.1v.1-.1.1-.198h.1v-.1.199h0M3.9 11.918v-.099H4v-.099.198h-.1 0M3.108 13.008v.099h-.1v-.1h.1M3.702 11.82h-.099v-.1h.1v.1h0" stroke-width=".05051448"/><path d="M3.306 12.81v.099h-.1v-.1h.1M2.613 13.701v-.099h.099v.1h-.1 0M2.416 13.94h.052v-.051h-.052v.05M2.712 13.503h.099-.1v-.099.1h0M3.2 12.479h.042v-.055H3.2v.055M3.007 12.97h.044v-.031h-.044v.03M3.426 12.196h.023v-.017h-.023v.017M2.835 12.943h.014v-.017h-.014v.017M2.568 13.816h.013V13.8h-.013v.015M2.741 13.354h.015v-.011H2.74v.01M2.58 13.799h.01v-.011h-.01v.01" stroke-width=".05051448"/><path d="m2.766 13.482-.004-.001-.001-.006.007.003-.002.004M11.13 3.896h-.098v.099h-.198v-.1.1h-.1.1v.099h-.1v.099h-.198v.099-.1.1l-.099.099h-.099v.099-.1.1h-.099v.198-.1h-.099v.1h-.099v.099h-.099v.1h-.099l-.099.098h-.1v.198h-.098v.198h-.1v-.099h-.098v-.198h-.1.1v-.099H9.15v-.099h-.595v.1-.1.1h-.198v.098-.099.1h-.099v-.1.1H8.16v.198H8.06v.098h-.099v.1h-.099v-.199l.1-.099v-.198.1-.1h-.199v.1h.1v-.1.1h-.1l-.099.098h-.1v.1h-.098v-.1V5.481h-.1v-.1h-.098v-.099h-.1v.1-.1.1H7.07v.098-.198.1l-.1-.1h.1-.1v.1-.1.1-.1h-.098v.1h.099-.1.1-.1.1-.1v.098-.099l-.098.1v.198h-.1v.098h.1v.199-.1h-.1v.199-.1h-.099v.1-.1.1h.1v.099-.1.1h-.1v.099-.1.1-.1h-.099v.1h.1-.1.1-.1.1v-.1.1h-.1l-.099.099v.099l-.099.099v.198h-.099v.099l.1.1v.098h.098v.1-.1h.1-.1.1-.1v-.099h.198l.1.1h.099l-.1.098v.1h-.099v.594h.1-.1.199-.1v.099h.1-.1.1v.099h-.1.1v.198h-.1v.099h-.099v-.1h-.099v-.098h-.099v.099h-.099v.099h-.099V8.65H6.08v.198h.1v.199h.098v.198h-.099v.098H5.98v.1h-.099v-.1h-.198v.1h-.099v.098h-.1v.1h-.098.099-.1v.594h.1-.1.1v.099h-.1v-.1h-.098.099-.1.1-.198v.1H4.99v.099h-.1v-.1h-.098v.1h.099-.1.1v.099h-.1.1-.1.1v.099h-.1v.099h.1-.1.1-.1.1-.1v.099-.1h.1v.1h-.1.1-.1v.198h-.098.099-.1.1l-.1.099v.1h-.098v.098h-.1.1-.1l-.099.1v.098h-.099.1-.1v.1h-.099v.098h-.099v.1-.397H4h.1-.1v-.694l-.099-.098v-.496l-.099-.099V9.74l-.099-.297V8.254l.1-.1V7.858l.098-.099.1-.099.098-.099.1-.099v-.396h-.1.1v-.099h.098v.1h.198v-.199H4.792v-.099h.099v-.1h.099l.099-.098v-.1h.099v-.098h.099V6.074h.099v-.098h.099v-.1h.099v-.198h.199V5.58h.098V5.48h.1v-.198h.198V4.985h.098v-.099H6.575v-.198h.099v.099-.099h.198v-.1h.099-.1V4.49l-.098.099v-.1h.099v-.098h.099v-.1h.099v-.098h-.198l.099-.1v-.098h.099V3.4h.099-.1.1l.099-.099h.099v.1h.099v-.1h-.1v-.099h-.098v-.099H7.07l-.1.1h-.198V3.3h-.098.099-.1v.1h.1-.1v.396h-.099.1-.1.1-.1.1l-.1.099h.199v.099h-.1v.099h-.099v-.198.099h-.099.1-.1.1v.099h-.1v-.1h-.099V3.698v.1-.1h.1-.1.1v-.099h-.199V3.5h.1v.1-.1h.198v-.198h-.1v-.099h.1v-.099h-.1v-.099h-.099v-.099h-.099.1-.1.1v-.198.1-.1h.198v-.099h-.1.1-.1v-.1h.1V2.213h-.1v-.1h.1-.1.1V1.817h.099v-.1h.099-.1.1v-.198h-.1V1.32h.1-.1.1-.1v-.099h.1v-.099h.198v.1-.1H7.268v.1h.099v.098h.099v-.099h-.1.1v-.099.1h.099v.098-.099h.099v.1-.1.1-.1.1h.099-.099.099v.098H8.061v.1-.1h.098v.1-.1h.198-.099.1v.1h.098v.098h.1v.1h.098v-.1h.1v.1-.1.1h.099v.099h.099v.198-.1.1h.198v.099h.099v.198h-.1v.099h-.098v.099h-.1v.099h-.098v.099h.099-.198v.1h.198v.098h.198v.1h.099v.098h.198v.1h-.1V3.3h.1V3.5h.099V3.4v.1h.099v-.1.1-.1.1h.198v-.1h.1v.1-.1.1l.098-.1h.1v-.099.1-.1h.198v.1h-.1.1-.1.1v-.1h.098v.1h.198v-.1.1-.1h.199v-.099.1h.198V3.597h.099v.1h.099-.1v.099h.1-.1.1-.1v.099h0" stroke-width=".05051448"/><path d="M7.169 6.075v-.1h.099V6.274H7.07v.099h-.198v.099l-.1.099v-.1h.1v-.198h.099v-.198.1-.1.1-.1h-.1v.1-.1H7.17M6.674 5.678v.1-.1h.099-.1v.1-.1h0M6.425 4.073h.058V4.05h-.058v.024M7.272 5.667h.02v-.03h-.02v.03" stroke-width=".05051448"/><path d="M6.696 5.72h.01v-.031h-.01v.03M6.614 4.166h.016V4.15h-.016v.016M6.926 5.358h.013v-.016h-.013v.016M10.376 4.457h.015v-.014h-.015v.014M6.727 4.657h.013v-.016h-.013v.016M6.803 3.416h.012v-.013h-.012v.013M6.528 4.703l-.001-.001.006-.02.001.002v.014l-.006.005M6.601 6.017l.004.01-.006.003-.001-.007.003-.006M6.62 4.142l-.001-.008.001-.003.005-.001-.004.012M6.616 6.015h.01v-.009h-.01v.01M5.244 10.258h.007v-.01h-.007v.01M6.254 4.964h.006v-.011h-.006v.01M6.398 7.02h.01v-.008h-.01v.007M4.794 10.401H4.8v-.007h-.006v.007M6.284 4.91l-.002-.002.001-.004.006-.001-.005.007M4.519 11.367h-.001l-.005-.001.002-.003.004.004M7.23 3.138h.006v-.004H7.23v.004M4.072 7.501v-.005l.002-.002.001.003-.003.004M4.88 10.546l-.002-.003.003-.002.002.003H4.88v.002M4.839 10.369l-.002.003-.002-.005h.004v.002M6.72 7.82l-.002.001-.002-.002.003-.001h.002l-.002.001M10.529 4.326l-.003-.002h-.002.002l.003.002M6.9 5.444v.003l-.003-.002v-.002H6.9M10.234 4.663l-.002-.001.001-.003.003.001-.002.003M7.288 3.205h-.002 0l.002-.003v.003M4.512 11.37l-.002-.002.002-.002v.003h0M6.816 3.393l.002-.001h0l-.002.002h0M6.456 4.03V4.03l.001-.001v.003M4.799 10.403h-.002v-.001h.002M7.289 3.175h-.002l.002-.002v.002M.235 5.877H.136v-.1H.037v.199H-.16v-.199.1H-.26v-.1h-.198l-.099.1H-.854v-.1h-.198v.1h-.396v.099h-.038v-2.18h.038v-.099.1h.099v-.1h.099v-.099.1h.198v.099-.1h.099v.199h.198v-.1.1-.1.1-.1h.099v-.099H-.359v.1-.1.1-.1h.198v.1-.1h.1v.1h.098v.198h.1v.594h-.1v.198H-.16v.1H-.26v.098h-.099.1v.198H.036v.1h.1v.098h.198-.1.1v.396-.099.1h-.1v.099h0" stroke-width=".05051448"/><path d="M-1.486-1.288h6.08v.133h.099v.098h.099v.1h.198V-.662h-.1v.198h-.098v.199h.099-.1V.033v-.1.1-.1H4.495v.1h-.099v.099h-.198v-.1h.1-.1v-.098h-.099v.099H3.801v-.1h-.495v-.098h-.1v.198h-.098.099V.23h-.1V.33v-.1H2.812h.099-.1v.1h.1v.099h-.1.1-.1v.198h.1v.1h-.198v.098h-.198v.198h-.1v.1h.1-.1.1v.198h.099-.1.1-.1v.098h-.099v.1-.1.198h-.099v-.099H2.018v.1H1.721v.198h-.099v-.1h-.099v-.099h-.099.099v-.099h-.099V1.42h-.1v.1h-.098v.098h-.1v-.099.1-.1h-.098v.1-.1.1h-.1v-.1H.73v.1-.1.199h.1-.1V2.014H.533v-.1h.1-.1v-.098H.435v.099h-.1v-.1H.037v.1h-.099v.099H-.16v.099-.1.1-.1.1H-.26v.198h-.099V2.608h-.099v.199h.1-.1.1-.1.1V3.3h-.1V3.5 3.4v.1h-.099v.098h-.099v.199h-.1v.099-.1.1-.1.1h-.198v-.199h-.098v.1-.1h-.198v-.099.1h-.1v.099h-.098v-.1.1h-.038v-5.085M8.456 9.244l-.099-.099h.1v.1-.1.1h.098-.099.1v.098h.098-.099v-.099h-.099 0M7.862 9.046v-.099h-.099v-.099h-.099.099v-.1h.1v.1h.098-.099.1-.1.1-.1v.099h.1v.1h.098v.198-.1h-.099.1-.199v-.099h0" stroke-width=".05051448"/><path d="M7.786 8.904h-.002V8.9l.002.002v.002M6.376 3.995v.099h-.099v.099h-.099v.099-.1.1H6.08v.099H5.98v.099h-.099v.099h-.099v.198-.099.099h-.099v-.099.099h-.099v-.099.099-.099.199h-.1V4.587l.1.1V4.49h-.1v.099h-.098V4.29v.1-.198h.099v-.1h.099-.1.1-.1v-.098h.1-.1.1-.1.1v-.198h-.1l-.098.099h.099-.1v.099-.1.1-.1.1h-.098v-.1.1h-.1.1-.1.1v-.1h-.1.1-.1v-.098H4.99v.099h-.098v-.1.1-.1.1h-.496v.099h-.198v.099h-.099V4.39H4L3.9 4.49v.099h-.099v.198h-.099v.1h-.099v.098h-.099v.1h-.1l-.098.098v.1h-.1v.098-.099h.1-.1v.198-.099l-.098.1v.098h.099v.1-.1h-.1v.198h.1v-.099.1h.099-.1v-.1h.1v.1h.198v.198h-.1v.099-.1h-.198v.1h-.198v-.1H2.91h.099H2.71v.1h.1v-.1.1h-.198v.099h-.199v-.1h-.099v.1h-.099l-.099.099h-.099v-.1H1.92v-.098h.1v-.1h.098v.1-.1H2.415h-.1v-.098h-.198v-.1h-.099v-.099H1.82v.1h-.198.1v-.1h-.1V5.58h-.496v.198h-.098v-.099l-.1.1v.099h.1v-.1.199-.1l-.1.1v-.1.1H.83v-.199H.632v.1h-.1.1-.198l.099.099h-.1v-.1H.236v-.099h.1v-.099.1-.397h-.1.1-.199v-.099H.037v-.099H-.26v-.198h-.099.1v-.099h.098v-.099h.198v-.199h.1v-.594h-.1v-.198h-.099v-.099H-.16v.1-.1h-.198v.1-.1.1-.1H-.656v-.099h.099V3.5h.1V3.4v.1V3.3h.098v-.495h-.099.1-.1.1-.1v-.198h.1V2.31h.098v-.198h.1v-.098.099-.1.1-.1h.098v-.098h.1v-.1H.333v.1h.1v-.1h.099v.1h.099-.1v.099h.199V1.716H.83h-.1v-.198.1-.1H.93v.1h.099v-.1.1-.1h.099v.1-.1.1h.099v-.1h.099V1.42h.099v.1h.099v.098h-.099.099v.1h.1v.099h.098v-.199H2.02v-.099H2.314v.1h.1v-.199.1-.1h.099V1.32h.099-.1.1-.1v-.198h-.099.1-.1v-.099h.1V.825h.198V.726h.198V.627h-.1V.428h.1-.1.1V.33h-.1v-.1h.1-.1H3.109v.1-.1h.099V.033h-.1.1v-.198h.099v.1H3.8v.099H4.1v-.1h.098v.1h.1-.1v.099h.198v-.1h.1v-.098H4.791v.099-.1.1V-.265h.099v.1h.198V.132h-.1V.33h.1v.099h.198v.099h.198v.199h.099v.098h.099-.099.099v.1-.1.1h.1v-.1.1-.1h.098v.1-.1.1h.1v.098h.098v.1h.1v.098h.198v.1-.1h.098v.1-.1.1H6.773h-.1.1-.1v.198h.1v.198h-.1.1-.1v.099h-.099V2.113h-.099.1-.1v.099h.1V2.509h-.1v.099h.1-.1.1v.099h-.199v.1-.1.198h-.099.1-.1.1v.1h.098v.098h.1v.1h-.1V3.3h.1V3.5h-.199v.1-.1h-.099v.1h.198v.098h-.099.1-.1v.1-.1V3.995h0" stroke-width=".05051448"/><path d="M1.721 6.075v.099l-.099-.1h.1v-.098.099h0M1.127 5.976h-.1v.099-.1h.1M3.193 5.478h.02v-.037h-.02v.037M3.647 5.878h.036v-.017h-.036v.017M1.605 5.681h.02V5.66h-.02v.021M1.962 5.694h.035v-.008h-.035v.008M5.383 4.623l-.008-.002-.001-.003.008-.008.003.01-.002.003M1.089 5.89H1.1v-.012H1.09v.013M3.187 5.685H3.2v-.01h-.013v.01M3.654 5.973l-.006-.007.009-.006-.002.012v.002h0M2.01 5.693h.021V5.69h-.02v.004" stroke-width=".05051448"/><path d="M3.19 5.683v.003h-.005l-.001-.004.002-.004.004.005M3.134 5.638h.006v-.004h-.006v.004M2.009 5.693h-.003l-.008-.002.012.001h-.001M3.236 5.392h-.002l-.002-.006.001.002.002-.001.001.005M5.514 3.975h.009v-.003h-.009v.003M2.167 6.008l-.001-.001v-.004l.002.002v.004h-.001M5.404 4.225h.006l-.006.002v-.002M5.568 4.576l-.003-.001.002-.003.003.001-.002.003M3.569 5.964h.003v-.005H3.57v.005M3.232 5.36l-.002-.005.002.002v-.003.005M3.233 5.784H3.23L3.23 5.78l.005.003h-.001M5.564 4.61h.002v.003h-.001l-.001-.003M5.22 3.908h-.001v-.003l.002.002H5.22M13.409 1.023h-.1v.1h-.098v.098h-.198v.1h-.1v.098h-.099.1V1.32h-.199v.1-.1.1-.1.1-.1.1-.1h-.099v.1-.1h-.198v-.099h-.099.1v-.099h-.1v-.099h-.099l-.099-.099v.1h-.099l-.099-.1v.1h.1-.1H12.221v.098h.098v.1H12.022v-.1.1h-.099v-.1h-.099.1-.1.1V1.42h-.1.1v-.1h.098v.1h.1v-.1h.198v-.099.1h.098v.098h-.099v.1l.1.098v.1h.098l.1.099v-.1.1-.1h.098v-.198.1l.1.198v.198l.099.198V2.509l.099.099h.099v.397h.099v.198h-.1V3.3h-.098V3.5 3.4h-.199v-.099h-.198v-.099h-.396v.1h-.198V3.4h-.099v.1h-.198l-.1.098h-.098v.1h-.198v.099h-.1v.099h-.098v-.1h.099-.1.1-.1v-.099h.1-.1v-.099h-.098V3.301h-.198v-.099.1h-.199V3.4v-.099.1h-.198v-.1h-.099v.1h-.099.1-.1.1v-.1h-.199v.1-.1.1h-.099l-.099.098V3.4v.1-.1h-.099v.1h-.199v-.1.1-.1.1h-.098v-.1.1h-.1V3.3h-.098v-.099h.099v-.099h-.198v-.099h-.1v-.099h-.198v-.099h-.198v-.099h.199-.1v-.099h.1v-.1h.099V2.41h.099v-.1h.099v-.198h-.1v-.098h-.198v-.1.1-.198h-.098v-.1h-.1v-.099.1-.1h-.099v.1h-.099v-.1h-.099v-.099h-.099V1.42h-.099.1-.199v.1-.1H8.06v.1-.1H7.763V1.32h-.099.099-.099v-.099.1-.1.1-.1h-.1v.1-.1h-.098v-.099.1h-.1.1v.098h-.1v-.099h-.098v-.099H6.97v.1-.1h-.198v.1h-.098v.098h.099H6.475v-.099.1-.1h-.099v.1-.1h-.198v-.099H6.08v-.099H5.98V.924h-.099V.825v.1-.1h-.099v.1-.1.1h-.099v-.1.1-.1h-.099.099-.099V.726h-.1V.528h-.198v-.1h-.198V.33H4.99V.132h.099V-.166H4.89v-.098h-.1v-.199h.1V-.66h.099V-.958h-.198v-.099h-.1v-.099h-.098v-.132H15.39v.033h.099v.198-.099.1-.199h-.1v.198-.099V-.858h.1v.198h-.1v.198h.1v-.1.1-.1.1h.099V-.166v-.1h.099v-.098h.099v.198h-.1.1-.1.1v-.1h.099v-.098h-.1v-.1h-.098v-.099h.099V-.859h-.1.1-.1v-.099h-.098.099-.198.198-.198.396v-.099l.099.1H16.342V.366l-.06.062v-.1.1h.06v.693h-.06v.1h-.1v-.1.1h-.099.198v.098h-.198.1v.1h.16v.197h-.062v-.099h-.099.1l-.1.1v.099h-.198v-.1h.1v-.099.1-.199h-.1v.1h.1-.1v.098h-.099.099-.199v-.099h-.098.099-.1.1l-.1-.099h-.098V1.32h-.1v-.099H15.193v-.099h-.1.1-.198l.099-.099h-.1.1l-.1-.099h.1V.825h-.1V.726l-.099-.099h.1v.1-.1h-.1l-.099-.099h-.099l-.099-.1h-.099v.1-.1h.1-.1.1-.1v.1H14.4v.099h-.396V.528h-.099.1V.33h-.1v-.1.1-.1h-.099V.033v.1h.099v-.198h.1v-.198h-.1v.198h-.199.1v-.1h-.1v-.098.099l-.098-.1v.1h.099v.099-.1.1h-.198v.099l-.1.099V.23h.1V.33v-.1.1h.099v.099h.099-.1v.099h.1-.1v.199h-.098.099l-.1.098v.1h-.098v.098h0" stroke-width=".05051448"/><path d="M14.3.627h-.396.496V.528h.098-.099v.099H14.3h0M16.343 1.32h-.062v-.099h.062v.1" stroke-width=".05051448"/><path d="M16.281 1.42v-.1.1-.1h.062v.1h-.062 0M15.459-.933h.03v-.137h-.03v.137M15.744-.15h.02v-.038h-.02v.038M13.895-.012h.024v-.009h-.024v.009M15.419-.506h.013V-.52h-.013v.014M15.472-1.11h.006v-.027h-.006v.027M15.592-.249h.008V-.26h-.008v.012M15.471-1.085h.004v-.016h-.004v.016M15.456-.984h.003v-.017h-.003v.017M15.387-.581h.005v-.012h-.005v.012M12.853 1.4l-.003-.004-.003-.007.004.002.002.008M11.96.988h.01V.982h-.01v.006M15.59-.199h.01v-.006h-.01V-.2M16.24 1.202v-.006l.006.001V1.2l-.002.002h-.004" stroke-width=".05051448"/><path d="M15.477-1.114h.005v-.009h-.005v.009M15.39-.566h-.003v-.006l.006.004-.003.002M13.47.282h.008V.278h-.009v.004M15.474-1.082h-.003l.007-.004-.002.002-.002.002M15.73-.14v-.004l.005-.001-.005.005h0M16.333.394h.001l-.007.002h-.005l.011-.002M13.88.001l-.004.002-.002.002.002-.002.004-.002M16.322.397h-.004l-.005.001.008-.002h0M16.341.39l-.003.004h-.004.003L16.34.39M16.256 1.34l-.001-.001v-.002l.004-.002v.003l-.003.001M16.032 1.447h-.002l-.001-.005.003.002v.003M12.867 1.381l.002.002v.002l-.002-.004h-.002.002M13.9-.014h.006v-.003H13.9v.003M16.242-.97h-.003l-.002-.001h.005M15.42-.505v-.003h.002v.002l-.002.001M15.467-1.072h-.001v-.007l.001.001v.006M15.37-.576V-.58h.001l.001.002-.002.002M14.606.408h-.003V.405h.004v.002" stroke-width=".05051448"/></g><path d="M-1.486 14.164h17.829V-1.288H-1.486v15.452M7.231 3.137l.002-.003h.003v.003h-.005m-.415.256.002-.001-.002.002m.472-.189h-.002l.002-.003v.003m0-.03h-.001l.002-.002v.002m2.945 1.488-.002-.001.001-.003.003.001-.002.003m.295-.337-.003-.002h-.002.002l.003.002m-4.073-.295v-.002l.001-.001v.003m.262 3.788-.001.002-.002-.002.003-.001h.002l-.002.001m-2.647-.318v-.005l.002-.002.001.003-.003.004m2.55-1.487-.003-.006-.003-.002h.005l.003.003.001.005-.002.001v-.001m.072-.287.002.002.003-.01.006-.005-.002-.002h.003l.01-.005V5.7l.009-.002.002-.006.001.002-.005.007-.011.008-.007.009-.004.02V5.73l-.004.004v.013l-.003-.021m.001-.008v-.007l.006-.014v-.006h.003v-.003l.001.007-.004.012-.006.011m.204-.275v.003l-.003-.002v-.002H6.9M4.8 10.404h-.002v-.001h.002m.04-.033-.002.003-.002-.005h.004v.002m.041.177-.002-.003.003-.002.002.003H4.88v.002m-.368.823H4.51l.002-.003v.003m.007-.002h-.001l-.005-.001.002-.003.004.004m3.267-2.463h-.002V8.9l.002.002v.002m-.97-5.494-.002.006-.011-.004.005-.01h.006l.001.008m-.53 1.5-.002-.006.006-.001-.005.007m.244-.207.005-.02v.015l-.005.005m.2-.046.007-.016.005.008-.013.008m3.658-.214.006.003-.002.007-.012.004.001-.01.007-.004m-3.768-.278-.003-.004.013-.01v.013l-.01.001m.004-.023-.002-.008.006-.004-.004.012m-.14-.078-.007.008-.008-.004-.012.005-.025-.003-.004-.006.026-.015.01.013.02.002m-.08 2.952.002-.004.004.007-.006-.003m.2-1 .004.011-.006.003.002-.013m.682-.378.009.024-.01.004-.01-.023.002-.006h.009m-.357-.284.013-.012-.007.016-.006-.004m-.669-.392h-.003l.006-.01-.003.01m-1.463 5.433H4.8v.006l-.006-.006m.455-.137-.004-.01.006.002-.002.008m5.928-6.391h-.005l-.006-.004-.004-.007h-.013l-.014.003-.018.007-.005.002-.005.006-.005-.004-.004.002-.002-.003-.009.001-.019.007-.027.015-.002.003-.032.02-.01.008-.002.005.001.003.002.001-.003.012h-.004l-.004.005v.006l-.003.003h-.008l-.003-.001h-.005l-.014.006-.003.004v.004l-.008.006-.005.01h-.005l-.002.003-.007.01v.004h-.003v-.005l-.006-.02-.008-.002-.008-.006-.006-.002-.01-.01-.013-.004-.008-.012-.002-.002h-.003v-.003l-.01-.014-.011-.001-.01.001-.013.005-.013.008h-.003v.004l-.011.01.007.023v.01l.002.012-.006.009-.005-.003h-.001l-.005.01.003.002.008.03v.017l.003.009v.008l-.006.01-.01.006-.003.007v-.004l-.003-.003h-.005l-.003-.004h-.007l-.005.002h-.006v-.001l-.004-.002-.011.008-.006.006-.005.002-.005.006-.002.006.007.017.005.005-.002.009-.009.017-.008.006-.009.012-.005.003h-.004l-.008.01-.01.008h-.005l-.004.008-.02.007-.002-.002-.006.002-.003.003v-.001l-.005.001h-.004l-.017-.016-.01-.004-.004-.01-.009-.016h-.006l-.012.004.005-.006v-.002l-.002-.006-.009-.012-.013.002-.016.006-.018.013-.014.015-.007.015.001.003.018.01v.003l.009.002.011.006.008.002.006.003.003.006v.004h.003l.002-.002h.003l.004.006.012.008.002.003.005.012-.003.004-.007-.001-.001.006.016.007-.002.009.002.007h-.004l-.01.014-.005.003-.001.002-.01.001-.01-.006h-.002l-.005-.003h-.009l-.01.003-.007.004-.004.006v.008l-.016.01-.007.002-.013.014-.003.006-.004.005.002.01-.003.005v.009l-.006.004-.026.001h-.004l-.004-.006-.008.001-.007-.003-.008.001-.002-.008-.009-.002V4.38l-.01-.003-.006-.013-.013-.003-.008-.005-.008.002-.009.008-.001.007.006.005.006.013.001.006-.002.005.001.004.013.009.005.001.005.004h.004l.002.003-.002.003.001.005-.003.001-.003.006-.002-.001-.014-.002-.005.003-.002.005h-.003l-.01.003-.008-.001-.007.001-.016-.017-.005-.002-.001.002.013.015.001.004.012.006h.012l.006.002.008-.003.004-.003v-.002l.009-.001.002.004.003.001.003.006-.001.007-.005.002v.011l-.005.012.003.005-.003.003.002.003.003-.001.003-.007.006-.005.004-.006h.004v-.001l-.001-.001.005-.004.003.002-.004.002v.002l.008.004v.01l-.01.017h-.002l-.01.009-.001.005-.008.003-.005-.002-.003.002v.003h-.003l-.002-.004-.006-.003v-.003h-.007l-.008.008-.016.002-.004-.003v-.005l-.004-.001-.002.001v-.002l-.005-.006-.009-.007.001-.007-.003-.002-.007.001-.004-.009-.012-.011h-.003v.005l-.003-.003-.006-.003-.004-.002v.001l-.006-.006-.008-.004-.012-.011-.01.01-.002-.002H10.2l-.003-.001-.002.004v.003l.01-.002.004.001.007.003.003.005.015.009.012.01.008.004-.001.005h-.002l-.003.006-.009.005-.006.005.002.002.008-.006h.005l.003-.002.003-.005.005.002v.007l.004.01.005.005.004.017.003.005.005.002-.002.014.001.005-.007.003v.005h-.004l-.005.005h-.01l-.007.008-.007.016-.008.011v.008l.003.004v.004l-.002.002.006.006h-.004l-.002-.005-.007.003-.003.006.002.01-.002.004-.011-.001-.001-.008-.002-.001-.001-.004.001-.002-.002-.009-.006-.015h-.017l-.003.003-.003.02.002.008h.005l.002.004-.006.004-.008.008h-.006l-.004.004h-.008l-.006.004-.006-.006-.01.003-.011-.002-.006-.016-.008-.002-.011.002-.016.008-.004.005v.013l-.008.004-.01-.001-.014.023v.008l.004.003.009.015-.001.01-.007.01v.004l-.006.003-.003-.001-.011.001-.01-.003-.013.003-.006.003-.015.012-.018.023-.005.011.002.004-.003-.003.001-.002v-.001l-.001.002v.003l-.004.008-.002.01.002.004h-.001v.006h-.002v.002h-.005l-.006.002h-.006l-.005.002-.01.009-.008.003-.004.005h-.002l-.006.007h-.003l-.017.016-.01.006-.014.006-.01-.007H9.84l-.011.006-.021.016-.008.011-.01.009-.003-.003h-.005l-.005.002v.002h-.003l-.001.005-.007.003-.02.001-.01.009-.01.015-.004.007v.01l-.008.01-.002.006-.008-.003h-.007l-.008.009.001.006-.008-.002-.004.001-.001-.001-.01-.001-.01-.004-.003.002-.007.014.004.005v.004l.01.004-.017.005v.012l.002.003.011-.001.003.002h.01v.004h.003l.001.002-.003.002-.002.01v.004l.004.004v.003l-.005.012v-.001h-.003l-.012.01H9.65l-.01.003h-.008l-.006.002-.006.005-.003.006-.005.003-.007.011-.009.023-.005.024-.006.042-.003.013.001.02-.003.019.004.012-.008.014-.002.004.001.006-.003.004v.023l-.004.012.001.006-.008.014-.003.001-.003.006-.003-.001-.01.003-.014.01-.011.003h-.01l-.005-.003-.002-.005-.005-.003-.003-.008-.007-.008-.009-.003h-.013l-.005-.004-.008-.002.002-.003v-.006l.008-.008V5.34l.003-.003-.004-.008-.008-.008-.02-.014-.041-.016-.007-.006-.005-.015-.001-.015-.005-.023-.005-.01-.014-.014v-.02l-.004-.005V5.18l-.001-.01.003-.006-.002-.002v-.005l-.012-.014-.014-.008-.006-.002-.004-.005.001-.01-.005-.011.004-.007v-.003l-.005-.007-.007-.005-.006-.007.002-.006-.003-.009.004-.003V5.05l.003-.008-.002-.009-.009-.012-.022-.018-.019-.011-.045-.02-.014-.015-.015-.009-.001-.004-.005-.003.001-.007-.004-.004-.01-.005-.044-.013-.005-.002.002-.002-.002-.002-.002.003H9.1l-.005-.008-.003.003H9.09l-.071-.01-.05-.003H8.898l-.007.005-.002.008.002.003-.002.002-.008-.002-.003-.006-.005-.003h-.006l-.004.002H8.86l-.006-.008-.002-.01-.008-.003-.011.002v-.01l-.005-.005-.027-.002-.04.002-.027.003-.044.01-.031.01-.038.015-.023.019-.008.001-.02.012-.015.005-.015-.004-.002-.006-.003-.002.001-.009-.003-.002-.007-.001-.008.007-.002.003v.01l.013.016-.008.014-.01.002v-.003l-.002-.003-.009-.003h-.006l-.003.003.001.003-.002.006-.016.012-.011.003-.005.004-.02.008-.014.002L8.415 5l-.013.007-.003.006-.007.005-.012-.007-.01.003-.005.004.001.012-.007.012h-.006l-.005-.008-.012.004v.007l-.006.01h-.004l-.008.008-.019.01h-.012l-.005-.006h-.007l-.015-.01-.01-.008-.005-.007-.004-.003-.002-.007v-.006l-.004-.006h.008l.002.002h.01v-.005H8.24l-.005-.004-.006-.002H8.21l-.001.002.002.002h.01l.007.002.002-.002-.001.003-.001.017-.003.004.01.013-.004.011.009.009.002.005.001.01-.003.003-.002.008-.007.005-.019.001-.005-.001-.005.002-.002.003.001.004h-.004l-.005.005v.005l.001.002.003.001v.002h-.003l-.004.004-.002.005-.005.006-.004.002v.002l-.004.004v.003h-.002l-.009.013-.007-.001h-.01l-.001.002-.002-.001h-.01l-.006-.004h-.003v.003l.011.006.018.002-.002.007-.007.006-.009.018-.007.007-.004.006-.007.016v.006l-.011.024-.015.018-.01.008-.011.017-.017.017-.01.016-.008.008-.003.004-.027.023-.008.009v.003l-.016.012-.009.017-.005.018-.004.005-.007.017-.01.018-.017.016v.002l-.004.003-.012-.002-.002.002-.015.002-.001.002-.004-.002v-.002l-.003-.002-.007.002-.01.006h-.006l-.001.001h-.006l-.003.001-.007-.003v-.015l.001-.004v-.004l.003-.007.003-.015V5.45l-.004-.005v-.004l.01-.015v-.01l.004-.016.005-.006.005-.017.008-.012-.004-.01V5.34l-.003-.007.005-.006v-.004l.005-.008-.005-.013.003-.01v-.006l.002-.007.005-.006.002-.004v-.016l.001-.013.005-.003.018-.006.006-.004.003-.008v-.015l.006-.007.004-.01-.002-.018-.01-.02.003-.007.001-.01-.001-.012-.004-.01.005-.009-.003-.01.002-.005-.004-.013-.011-.025v-.004l.003-.006v-.015l.003.002-.002.005v.009l-.004.009.005.006.004-.003v-.003l.01-.002.002-.003h.002l.003.003.006-.003.015-.02.003-.002.004-.005-.001-.014-.01-.01-.002-.004v-.002l.01-.005-.001-.004-.008-.003.001-.002-.004.001v.008l-.005.002-.01-.012-.016-.007-.02.006-.025.02h.005-.004l.016-.002.006-.004.004.001.004-.002v-.003l.001.001v.003l-.004.003-.02.004h-.025L7.838 5l-.005.004-.005-.002-.003.002h-.007l-.012.007-.008.01-.006.013h.002l.004.008-.001.01.002.006-.004.003-.004-.001.002.002-.002.003-.004-.001-.007.002.001.003-.003.002.002.003.02-.009.011-.01.001-.003h-.003l.005-.002.003-.006V5.04l.005-.007-.001-.002.008-.013v-.003l.022-.017-.018.016-.006.01-.004.017-.006.012-.012.01-.017.009-.042.019-.008.01-.004.013-.014.016-.013.008-.018.006-.002.003.001.004-.02.005-.009.01v-.001l-.032.019-.026.01-.033.016-.012.009-.016.016-.008.006-.006.009-.002.01-.02.014-.015.004-.005-.005.003.001.004-.002.001-.004v-.006L7.49 5.26h-.004l-.003-.003h-.006l-.003-.002V5.25l.005-.005h.004l.002-.003.004-.002v-.002l-.006-.005-.001-.004-.006.003-.004.012-.007.007v.006l.003.004-.002.004-.018.002-.005.006.002-.006.01-.007-.006-.002-.007.003-.006-.004-.011.006-.003.005.007.012-.003.008-.006.003.007.006-.003.005.006-.004h.004l.001-.008.007-.002.004-.004.004.003.004-.001.002-.01.004.007.003-.005.005.003.01-.003.002.002v.005l-.006.009-.004.008v.019l.002.005.004.004.012.007.005-.002-.002.004v.006l.007.004.002.005-.01.002-.01.014-.003.008v.01l-.01.016-.001.015.001.004-.006.01-.007.005-.012.02-.007.007-.004.002-.016.004-.008-.001-.016.006-.009.01-.006.011-.005.003-.004-.002-.005.001-.007.011v.003l-.006.003-.004-.003v-.01l-.001-.008-.01-.007-.001-.007v-.007l.003-.025-.008-.035-.001-.015-.007-.012-.011-.014-.003-.012-.005-.012v-.003l-.003-.003H7.29l-.008-.008-.007-.004v-.002h-.01l-.01-.002.004-.001v-.007l-.009-.009-.009-.016-.012-.01-.006-.009-.015-.013-.008-.002-.006.002-.012-.002-.005.005-.01.004-.006.009v.003h.003v.003l-.005.015h-.002l.003-.022-.004-.006-.004.001-.004.01h-.004l-.003.005-.006.026.003.003v.007l.004.01v.006l.001.001v.004h.007v-.018l.001.002v.007l.002.004-.002-.003.003.008-.001.004-.01.008-.035.008-.006.002-.019.016-.01.013-.008.017v.015l.005.008.011.003.012.01.005-.001.005.004-.001.005-.005.004-.004-.002-.005-.006-.01-.005h-.012l-.017.004-.003-.011.002-.003v-.005l-.005-.005.002-.005.009-.008.011-.002.008-.018.014-.018.002-.004h.003l.018-.01v-.005l-.004-.002-.004-.004-.01-.002v-.002l-.002.005h.003v.004l-.006.005-.005-.002-.005.002-.018-.012-.016-.007-.005-.007V5.33l.002-.003v-.002l-.003.002-.004-.002v.002l-.006.001.001.007h-.005L7.02 5.33l.002-.001-.004-.008h-.003l-.001.003.004.004v.005l-.012-.005h-.011l-.02.006-.008.002-.011.004h-.003l.013-.004.008-.005.001-.001.001.002.013-.005v-.003l-.015.002-.009-.005.004-.003v-.003l-.006-.005-.01.003-.002-.004-.004.003-.002.007-.009.01.001-.004-.001-.003-.016-.006-.006.002-.004-.002-.005.004-.003-.002-.007.004-.006.003-.005.007-.006.003v.004l-.004.01.001.004.006.005.016.006-.001.007.002.007.012-.001.012.005.004-.005v-.006l-.008-.01v-.003h.002l.002.004.001-.001-.001.001.001.004h.005l.004-.005v-.002l.002.004h.003l.003-.002-.002.001-.002-.002.007-.002.007-.008v-.002l-.003.001v-.001h.004l.002.001-.02.02-.009.011-.013.034-.006.009-.003.007-.005.006-.001.005-.006-.007-.005-.002-.023-.007h-.009l-.018.005-.005-.001-.007.006-.008.012-.017.02-.011.017-.012.03-.004.014-.003.028v.007l.006.014.005.021.007.014.003.012-.003.018-.003.005-.024.023-.017.009-.001-.002h.002v-.004l.003.002.005-.002V5.67l.002.001.005-.001.006-.005-.021-.001-.011.002-.006.004-.007.01h-.002.002l.002-.005-.008.004.001-.002-.002-.002-.015.015h.001l.008-.006-.004.007-.006.024v.022l.002.013.001.002v-.015l.002-.004.003.02.007.005h.008l.001.005.027.035.007.017.004.033.001.03-.002.036-.003.006-.008.012-.007.016-.01.01h-.004l.002-.006v-.004l.012-.013.004-.003.002-.005.008-.007.004-.005v-.007l-.004-.005h-.007l-.017.003H6.71l-.023.003-.014.008H6.67l-.008.002-.007.005-.003.006-.003.025.004.021.002.007.005.006-.008-.002-.002-.002.004.008.009.007.006-.001v-.003l-.008-.002.001-.002-.004-.006.012.01.012.007.014.004.014.008.003.003.007.03v.012l-.007.027-.002.008-.005.004-.015.003-.007-.009.024-.003.008-.014.002-.008-.001-.004-.015-.011-.011-.005-.01-.004h-.01l-.008-.004-.007-.006-.004-.006-.004-.002.004.001.01.012.005-.001.004.002.003-.003-.001-.004-.01-.009H6.66l-.015-.006h-.011l.007-.002-.004-.003-.003-.006v-.01l.004-.009v-.004l-.003.008-.005.003v.016l-.005-.002-.003-.004-.012-.002L6.604 6l-.003-.012-.002-.002h-.002l-.001.005.003.007v.004l.004.01v-.004L6.6 6.003v-.007l-.001-.002v-.007l.003.003.002.01.004.004.006.008-.004.006v.001l.002-.004.003-.004-.004-.003-.002-.005.01.005.004.007-.004.005-.001-.002v.003l-.006.001-.002-.003.001.004-.002-.001.002.002-.005.002v-.004l-.001-.002h.002l-.003-.001v-.007l-.006.01v.009l-.004.001-.005-.003-.006.003.001.01.016.033.003.002.009.02.015.024.015.007h.007v-.011l-.007-.007.003-.002.003.002.002.006v.016l-.003.008-.008.014-.012.014-.036.013-.012.007-.014.012-.003.006-.003.01-.008.003v-.003h.005l.003-.002V6.2l.003-.01.008-.009.008-.001-.005.007v.003l.003-.005.007-.004H6.58l.002-.003.013-.004h.01l.012-.004v-.002l-.003-.001.002-.001h-.003l-.002-.004-.002.002-.007-.002L6.6 6.16h.001l.003-.008L6.6 6.15v.003l-.003-.006h-.004v-.003.003l-.004.002v.005h-.005v-.002l-.003-.002.003.007.003.001-.004.003v-.002l-.003.001.002.006.003.003-.004.003-.001-.006h-.003v.005h-.002v.002l-.003-.002v.005H6.57l.01-.003.003-.001.008-.004h.001l-.005.002-.003.004v-.002l-.003.001.003.001.003-.001.002.002-.027.008.007-.006-.003-.001.001.002-.007.004v.003l-.003.004.003-.003v-.003l.002.003-.009.01-.002.013-.005.006v.004l.004-.004-.006.007-.002.006-.004-.006h.001v-.005l-.001.002h-.003v.003H6.53l-.001.002-.004-.004v.002l-.003-.001.001.002-.002.002.005.001-.005.005h-.011v-.003l-.002-.002-.006.003.004.002v.002h-.004l-.001-.003-.008.002.004.006v.001l.001.001-.002.002h.002v.005l-.003.006.001.002-.002.002.01.004.002-.006.004.01h.001l.004-.004.003.004.004-.004v-.006h.004L6.52 6.25l-.004-.015.007.003.005.01.003.003.002-.002.001.002.004-.002-.002-.008.007-.005h.002V6.23l-.002-.002.002-.006.001.008v.008l-.003.007-.004.006-.015.011-.003.004-.042.028-.02.011-.021.016-.023.026-.023.032-.034.057-.021.04-.044.092-.017.04-.016.05-.001.014-.01.03-.02.062-.006.022-.004.034.004.058.01.048.02.041.024.033.03.023.03.015.031.01h.036l.01.007-.003.003h-.002l.001-.002h-.002L6.4 7.053h-.004l-.009.004v-.002l-.003.002v-.003l-.003.001v.008h.002l.003-.003.006.002-.001-.002.004-.003v-.003l.008.002-.001.004H6.4l-.002.003-.001.01-.002.002.006.005-.002.002h-.005l-.002.007-.01.008-.005.008-.004.004-.003.013-.013.009v.002l.004.003v-.002l.001.002v.001l.001.002.001-.003-.002-.004.004-.003v.002l.002-.002v.004l.003.003.002-.002v.002l.004-.003v.002l.002-.001h.003l-.004-.002h-.002v-.003h.001l.001.001.001-.003h.003-.002v-.004l.003.002h.003l-.002-.004h.002v-.002l.004.001-.002-.003.002.003.002-.001.007-.012.003-.001.005.002.004-.005v-.007l.003-.004-.001-.001.003-.009.005-.003v-.001l.002-.002.002.002.008-.006-.001-.008-.003-.003-.001.001V7.06l-.002.006v-.002l.002-.014-.004-.01.002-.008-.001-.007-.002-.002.002-.008-.007-.017.004-.005v-.007l-.003-.003.006-.008-.001-.004.007-.003.003-.01.009-.009v-.006l-.002-.002v-.002l.017-.007h.008l.014.006.011-.002.007-.005-.001-.005.003-.002.004.002.001.004.008.006v.003h.002l.006.007.013.004.004-.003v.005l.008.008.004.001.008-.002.01.005.003.007.01.003.005.007.007.003.008.01.013.012.026.016h.011l.016.003.007-.004.016.002h.013l.002.005.007.013.009.012.001.007.01.013.003.01.006.006.006.003-.002.003-.005.002-.01.018-.008.006-.002.005-.009.008-.003.012v.006l.006.009-.001.004.002.005-.002.006H6.71l-.001.017-.007.007-.014.002-.01.005-.011.031v.012l-.002.003-.007.017-.003.001-.007.007-.006.003H6.64l-.007.002-.009.008-.007.003h-.007l-.006.005-.003.005-.008.002-.003-.002-.005.003-.015.012-.011.02-.011.006-.013.024-.004.022-.002.037.003.055.012.056.011.024.003.01.005.03-.006.036-.01.034-.001.021-.01.041v.042l-.003.009v.005l.008.016.014.018.021.017.018.006H6.6l.011-.003.002-.008.003.001.005-.003v-.002l.003-.002.001-.005-.001-.003.002-.001.005.003h.01l.008-.011h.004l.01.009.01.002h.002l.004-.007.017.002.01-.003.005-.006v.002l.003.002-.002.02.007.006h.002v.004h.004v.005l.01.002-.005.006-.007.014-.002.009-.006.012V7.913l.012.017.002.009v.005l-.005.003-.005.011.003.012v.01l.005.01v.012l.005.008-.002.006-.002-.003-.005.002-.002.005v.011l.013.01.004.008v.008l.007.005.01.041.004.006.002.002.002.01-.001.002v.002l-.001.005-.007.014v.008l.007.048.004.01v.003l-.016.009-.012.01-.003.006-.006.003-.007.002-.008-.001-.01.002-.009.004-.009.007-.013.016-.017.028-.015.035v.004l.003.002-.01-.003-.003.003-.004-.003h-.008l-.013-.006-.018-.003-.01-.006-.014-.014-.015-.008-.013-.025-.013-.016v-.015L6.52 8.24l-.004-.005-.011-.006-.007-.007-.008-.012-.003-.012-.012-.012-.01-.004H6.45l-.009.002-.021.011-.011.004.009-.004-.003-.001-.01.005-.025.006-.019.01-.035.013-.02.012-.02.013-.02.018-.012.015v.005l-.007.01-.003.011v.01l.006.004h.005l-.002.008-.007.006-.008.012-.007.02v.007l.002.004v.004L6.22 8.4l-.01.02-.003.01v.004l-.003.004-.01.02-.002.008.001.003-.004.01.004.005-.001.007-.006.01v.006l-.008.006-.01.02-.003.01-.003.002-.006.009-.012.027-.01.03-.007.03-.006.048-.002.041v.025l.001.005v.009l.004.058.01.055.015.052.019.051.007.013.015.011h.003l.001-.002v.004l.01.01.002.005v.006l.006.004v.005h.006l.002.004.004.015.017.018.003.01-.002.005.002.013.007.005.003.012.004.003.004.001.002.003.012.008.002.003.003.002.003.003-.002.003.002.008v.002l-.002.001-.004-.003h-.003l-.005.002-.006.01V9.183l.008.007v.008l.003.003-.002.009.004.006-.008.002-.01.008-.009.003-.007.007v.008H6.24l-.001.006-.01.002-.006.003-.002.004-.002.008-.003.004v.005h-.007l-.007.013-.008.003-.002.003h-.005l-.002.005-.01.006-.003.005-.014.01-.012.016-.002.007v.001l-.004.008h-.003l-.004.004v.006l-.001-.001-.003.005h-.002l-.003.004-.005.004-.003.006-.006.005h-.006l-.002.002-.008-.005-.027-.005-.02.002-.003.003-.005.001-.007-.003-.008.003-.004-.004h-.008l-.018.006-.003.004h-.004l-.006.001-.009-.002-.005.004h-.008l-.011.003-.006.003-.002.004-.001-.006-.005-.003h-.006l-.008-.01-.008-.004-.006-.007v-.014l.002-.004-.003-.008.002-.01-.002-.004-.014-.004-.028-.003-.03.001-.038.01-.039.015-.04.023-.002-.005v.003h-.005l-.005.004v.004l.01-.007v.003l-.048.03-.069.06-.028.03-.016.027-.012.008v.005h-.004l-.001.004h-.004l-.005.004v.005h-.002l-.003.002-.001-.002h-.003l-.003.004v.005h-.002l-.002.001-.002-.002h-.004l-.003.01-.003-.003-.003.002v.006l-.003.003-.012-.001v.002h-.002l-.001.002.002.002h-.003l-.001.005H5.47l-.002.002v.004h-.003l-.009.01-.013.019-.02.034.005-.014.01-.013v-.003h-.002l.003-.001.003-.006-.005-.002v-.003l-.001.003H5.43l-.003.005-.002-.001.002.002-.004.003.006.006-.005.006-.004-.002.002.005-.008.006v.003h.006v.006l.002.002-.003.013v.003l.005.001-.004.001v.008H5.42l-.003.008v.004l-.003.008.001.001-.006.01v.005l-.01.022-.017.052-.012.052-.003.04.001.037.003.015.005.01.004.004.006.002.003-.001.003-.003v-.002l.004.003v.002H5.39l-.003.004.002.018.002.006.003.002.003.017.008.003.001.003v.004h.003l.001.007v.01l-.003-.001-.002.002.002.008.003.003-.003.011.003.003-.002.005.002.011-.001.002-.003.012-.003.001h-.006v-.004h-.005l-.008-.006h-.003l-.005.003-.005.007-.006.01-.002.016.003.007.003.003-.002.01.005.009.005.003h.003l.009-.008.002.001.005.008H5.4l.001.001-.005.002-.001.012-.006.003-.002.005v.005l.003.007.006.005.005.002.008-.004v-.004h.003l.002-.001v.003l.003.002v.005l.001.001-.003.004v.003l-.003.005-.006.003-.007.009-.001.006-.006.005v.004l-.003.003.005.007h.003l.003-.003v.006l.004.007.003.013h.003l-.002-.02.005-.008.007-.006h.012l.005-.002-.006.007.002.005-.006.01.003.007.007-.001.004.002.003.004v.007h.002l-.004.005.001.006-.002.005v.005l.003.004.004.002-.002.002v.004l.004.001.002.005-.001.001h-.004l-.003.005-.002.008.005.004-.005.003v.009l-.006.001-.005-.006-.007-.002-.007.002h-.003l-.002-.01-.007-.001-.003-.006-.008-.005-.003.001-.005-.005-.008-.004v-.003l-.001-.002-.01-.001-.003-.005-.003-.002-.01-.002-.002-.006h-.003l-.001-.003H5.34l-.003-.004h-.002l-.003-.005-.005-.003.004-.011.006-.007-.001-.004h.002v.002l.017-.018.011-.003.002-.003h.002l-.003-.003v.003l-.004-.003-.006.001-.002-.001-.004.001-.003.004-.003-.002h-.002l-.01.013v.005l-.003.003-.006.002-.007.011-.003.001-.011-.007-.003-.003v-.004l-.004-.005H5.29l-.006-.005-.007-.001-.015.003-.013.006-.006.006-.016.002-.007.002-.001.002v.003l-.002.005-.003-.001-.006.005v.004l-.006.007-.003.012-.008.005-.003.008-.005-.002H5.18l-.009-.01-.009.001-.028.01-.006.001v-.002h-.003v.004l.007-.002-.044.019-.019.01-.032.022-.049.04-.034.04-.01.016-.014.016-.003.007h-.004l-.008.006-.003-.005h.002v-.003l-.008-.009.003-.002v-.012l-.003-.004v-.004l-.005-.001-.002.004h-.002l-.003-.007v-.004H4.89l.003-.009.004.002.001.005.006.002.001.003.009-.006v.003l.002.002v-.006H4.91l-.002-.002v.003l-.004-.005.003-.006-.003.002-.002-.001v.002-.005h-.003v-.003.003l-.005-.005v-.01l-.003-.006h.001v-.002H4.89l.001.006H4.89v-.013l-.007-.006-.004-.005v-.004h-.002.001l-.003-.001-.001.002v-.001l-.003.002-.004-.01-.008-.001-.01.002h-.002l.001-.003h-.003l-.001.002H4.84v.002l-.002.002h.002v.006l-.002-.001.002.002h-.005l-.003.002.003.001v.004l-.003-.003H4.83v-.004h-.002.002v.003h.002v.004l-.01.008H4.82v.001h-.005l-.006.004-.007-.001-.002.008h-.007l.002.01-.002-.003v.003h.004l.002.008H4.8v.001h-.001l.006-.003.005-.001.004.002v.007h.006l.002.003-.007.002-.007.006v-.001h-.002l-.005-.001-.001.002-.001.008.001.007h.002l-.001.002.004.01.005.004h-.003v.006h.002-.003l.003.001.001-.003v.002l.002-.002.002.001v-.001.001l.003.001.003-.002.001.001h.005l.006.004.005.001.005-.002.012.002v-.002l-.003-.002h-.003l-.002-.004.003-.003v-.004l-.013-.004-.002.001H4.83l-.005-.002-.005-.007h.009l.001-.002.004.002.01.002.005.009h.003l.012.001.002-.003-.001-.002.009-.001.007.002h.002l.001.001h.002v.006l.002.005.002.001v.002l-.002-.001-.006.002.003.014-.003-.001-.003.002h-.006l-.001.002v.007l.008.001.002.005.008.002-.006.004-.001.002H4.88l-.002.006-.003-.002h-.002v.006l-.002.002-.003-.001-.003.002-.003.007-.001.009v-.013l-.005-.01.001-.003v.001l.002-.002h-.003l-.003-.003-.002.002-.003-.002-.004.002v.003h.004l.002.006-.007.002v.001l.002.001.005-.001.008.003.001.004v.004l-.004.003-.003-.003v.001-.003h-.006v-.001h-.003l-.002.001.003.002v.002l.001-.002.003.003.002-.002.006.004h.002v-.003l.004.005-.003.008-.007-.002-.011.002h-.004l-.004-.004-.005.003-.002.005v.004l.003.001-.002.011.002.006.007.006h.007l.022.012.009.01-.003.008-.008-.001v.002l-.004.001.001.005.003.002.004.001-.004.003-.002.006-.008.001v.003l.002.004-.002.009-.003.003-.005-.002-.008.005-.005-.001-.001-.003-.003-.003-.012-.004-.012-.011H4.8l-.001-.004h-.005l-.004.005.015.017.013.006-.013-.004-.005.008v.005l.007.008.013.011.003.005.008-.002.008.002.003.007-.002.004v.004l.005.009-.005.012-.006.002-.002.003.002.006h.004l.006.007-.002.001-.004.008-.006.005-.011-.002-.002.005.005.002.003.003-.02.02-.01.003v.004h.006l.004.003.018-.017.006-.003h.003l.003-.004.007.007.009.006h.005l-.002.002h-.004l-.001.004.008.007.003.01-.001.003-.002-.003-.006.001-.001.01-.014.005-.004.005-.006.004.001.006.004.004.015-.005h.005l.003.004.003.007-.002.01h-.002l-.002.002.001.002v.005l-.005.004-.004.006-.005.004-.005-.004-.01.004-.001-.002h-.007l-.002.001H4.81l-.001.003.003.002.001.004h.004v.002l-.007.005-.007.011h-.007l-.003-.001-.003.002-.004.011v.009l.003.004h.009v.012l-.006.006-.009.021-.007-.008h-.003l-.011.006-.007.01-.003.012.005.009.006.006v.005l-.009.004-.001.003v.01l-.007.006.001.004.004.002-.002.007h-.007l-.002.002v.003l.005.001-.002.002v.005l-.003.006.004.006-.001.006-.007.009-.007.004-.012.016-.004.01-.006.002-.003.004-.008.014-.003.002-.007.008v.003h-.002v.004l-.003.004.003.002-.002.003H4.68l-.005.007.002.008h-.012l-.003.006-.01.004-.008.009-.007.016v.008l-.004.005v.004l-.002.003h-.005l-.005.006-.003.015v.003h.003l-.003.001-.004-.001-.006.004-.001.005.001.001-.002.001-.001.006-.008.01v.008l.002.001-.005.003-.007-.002-.007.004-.006.012-.006.004v.007l-.002.004-.007-.004-.007.004-.008.008.002.004-.003.002v.002h-.005l-.004.005-.002-.003h-.004l-.005-.003-.008.001-.013.01-.026.012-.015.012-.018.023-.011.021-.006.021.002.005h.003v.004h-.006l-.002.006.003.008v.002l-.014.007-.005-.003-.004.002-.005-.004h-.002l-.015.01-.01.015.001.006-.01.006-.005.014h-.004l-.004.004-.002.005v.007l-.003.003.003.003h-.005l-.002.005v.005l-.004-.002-.003.002v.006l-.003.005-.009.004-.004.005-.009-.002-.005.005-.003.01-.008.007-.005.001-.004.004-.004-.002-.005.003-.007.009-.002.007-.005.006-.01.003-.001.004-.004.002-.003.007-.009.006-.005.008-.005.003-.006.009-.003.001v.004H4.21l-.023.015-.001.004-.005.004-.004.006-.002.007.001.002h-.004l-.005.005v.003l-.004.003-.002.005h-.003l-.001.004-.005.003-.002.003.001.004-.011.006-.008.012-.004.004-.001.005-.007.005h-.004l-.01.012h-.002l-.002-.002-.001-.006.001-.004.016-.016.009-.013.005-.01-.001-.003.002-.001.002-.005.006-.009.004-.012v-.014l-.004-.003.002-.01v-.021l-.004-.01-.006-.005-.012.004-.002-.002.002-.003-.002-.004.009-.037v-.008l-.003-.016-.013-.01-.004-.011-.01-.014-.022-.002-.016-.013-.008-.028.002-.02-.004-.004.001-.005-.002-.003v-.031l-.003-.011-.004-.004v-.015l-.006-.013v-.016l-.003-.005.001-.01-.001-.003.002-.01-.003-.008.003-.001v-.006l.002-.003.002-.028.001-.056v-.071l-.006-.066.001-.002-.004-.07-.008-.076-.014-.082-.012-.052-.016-.053-.005-.009-.012-.04-.024-.081-.019-.051-.022-.081-.007-.043-.01-.12-.008-.088-.01-.08-.018-.105-.015-.137-.03-.18-.065-.305-.023-.147-.008-.064h.001l-.012-.078-.018-.136-.002-.004.001-.002-.001-.02-.009-.081-.002-.035.001-.08.007-.071.009-.051.015-.128.006-.1.001-.074.01-.037.017-.048.012-.058.012-.036.021-.096.02-.066.025-.118.018-.053.03-.066.009-.013.011-.014.017-.014.01-.003v.003l-.005.001v.007l-.009.008-.001.006.002.007.018-.005.004-.01v-.005l.005-.008-.001-.003-.002.001.002-.005-.002.001-.001-.002.003-.01.01-.006.001.002h.002l.01-.008.034-.022.027-.023.017-.02.017-.026.012-.03.002-.02-.003-.011-.004-.002.003-.007-.001-.002.006-.006h.004l.007.01h.006l.011.01H4.1v.005l.008.006h.006l.008-.005.007-.002.005-.006v-.002l-.007-.004.002-.01.011-.025.014-.02.01-.025.014-.025.015-.037.007-.01.032-.078.007-.03v-.034l-.006-.045-.01-.037-.02-.052-.012-.023-.013-.014h-.004l-.014-.01h-.004l-.003.007H4.15l-.002-.004.024-.036.003.002.004-.003.001-.009h-.004v-.003l.004-.009h.002v.004l.005.001.012-.003.007-.012.011-.01.007-.003v-.003l.004-.001.006-.01.006-.002h.002l.003.012.007.006-.003.004v.005l.006.01.007.006.022.01.025.008.025.005h.025l.02-.004.034-.014.034-.023.02-.04v-.005l-.002-.001.006-.01v-.005l-.002-.003.002-.005-.003-.003.002-.006-.004-.005.007-.002.006-.004.009-.012.01-.008v-.004l.005-.004.002-.007v-.006l-.008-.005.01-.01.006.002h.018l.007-.003-.002.005.005.012.01.004.017.005.03.003.035-.002.043-.01.013-.007.018-.013h.009l.005-.004v-.003l.007-.006.036-.025.005-.007.01-.007.027-.038.053-.048.042-.044.025-.022.03-.017.09-.07.019-.019.014-.017.011-.017.01-.023.004-.005v-.003l.015-.03.045-.037.015-.02.017-.026.006-.007.026-.02.014-.018.023-.034.012-.023.004-.01-.004-.006.005-.005.002-.008.013.003.002.002h.003l.009-.01.01-.017.004-.008.006-.03.003-.025-.002-.012-.004-.01-.002-.001-.007.001-.002-.001.018-.043v-.005h.006l.014-.017.007-.013.001-.013.01-.024.004-.006.018-.015L5.4 6l.018-.011.013-.014.014-.023.006-.004.003-.006.01-.01.002-.008.004-.003v-.004h.004l.004-.001.013-.01.004-.006.009-.016v-.003l-.001-.001h.001v-.002l.003-.009h.008l.006-.002.003.002.006.001.01-.005.014-.008.031-.032.012-.022.006-.016.008-.033-.002-.01.005-.01.01-.04.007-.004h.022l.016-.003.017-.007.007-.006.007-.002.003-.004-.001-.002.024-.001.008-.006v.002h.007l.028-.01.012-.01.01-.015.002-.004.01-.015.004-.012v-.011l-.003-.002V5.58l.004-.003.004.002.012-.004.005-.007v-.004l.005-.002.005-.005.004-.006v-.003l.01-.002.018-.012.005-.006.003-.002.012-.016.01-.019v-.005h.004l.006-.002.02-.018.02-.042.008-.024h.003l.003-.005.005-.003v-.004l.004-.002.002-.005h.002l.002.002.005-.002.007-.019.006-.004.005-.012.005-.008.003-.014.003-.001.008-.013.007-.002.005-.003.008.001.009-.001.003-.005.005-.001.01-.01.01-.009.018-.01.005-.007.007-.002.01-.01.017-.01.012-.013.008-.006.007-.015.011-.01.002-.006.014-.011.01-.02.003-.018v-.027L6.2 5.105l-.007-.012-.003-.001-.004.003-.008.013.002-.01.005-.01v-.006l.002-.012.003-.004v.003h.003l.002-.004V5.06h-.004l.003-.009-.002-.01.002-.002.001-.004v-.007l.002-.002v-.004l.003-.006v-.01l.003-.002.008-.001.005-.006.008.005.005-.001.008-.009.01-.012.002-.007h.002l.001-.004h-.002v-.003l.004.001.001.003h.004l.002-.002v-.005l.018-.004.008-.005.004-.006.008-.021.005-.008.01.001.005-.002.006-.001.005-.004.012-.002.022.003.012-.002.006-.002.006-.007.008-.016.005-.005.011-.007.002-.004.002-.001.002-.007h.006l.002-.01.004.002.003-.003h.007l.003.003.009.005.01.001.006.003.008.001.008-.001.005-.005.008-.001.005-.003.006-.009v-.01l.007.006h.003l.007-.005.007-.01.012-.021.005-.015.014-.014.014-.02.001-.007-.003-.008V4.74h.007l.004-.004h.009l.01-.006v-.004h.005l.014-.006.007.004.003.007.01.005v.003l.003.002.023-.002.005-.004v-.01l-.002-.003-.005.002-.002-.003-.005.003v-.007l.002.003h.003l.011-.002.01-.01.005-.009.006-.003H6.7l.007.008.012.003.01-.001.014-.005.01.003.021-.005.008-.01.014-.004.034-.021.008-.002h.006l.019-.015.018-.004.003.004.004.008h.008l.014-.012.005-.023.005-.007.006-.005v-.002L6.924 4.6l-.004-.002-.009.002-.01-.007h-.004l-.007-.007-.01-.012-.008-.005-.006.001-.008-.007-.004-.001-.003-.005-.005-.004-.008.001V4.55l-.006-.013-.005-.001-.007.009-.001-.01-.001-.002-.004.001v-.002l.01-.019.01-.004.006-.009.008-.002.003.003h.006l.008-.008V4.49h.002l.002-.014h.002l.001-.001v-.009l-.004-.016-.004-.001v-.004h.001l.001-.002.004.002.005-.005.008-.014h.009l.005-.002.012-.015.004-.002.002-.005.004-.001.002-.007.004-.003h.007l.009-.006.003-.005.014-.007.004-.004.005-.001.003-.003.007.001.008-.005.007-.007.007-.02-.003-.022.007-.011.008-.011.002-.002.007-.01v-.014l.006-.006.003-.01-.002-.01-.01-.022-.004-.013-.012-.017-.023-.015-.014-.004-.002.002H6.95l-.01.005-.002.004.002.004-.003.003-.001.006-.008.005-.009-.018-.001-.025.01-.026.017-.031.009-.025.005-.02.003-.04.004-.013.017-.007.007-.005h.008l.008.003.017-.002.006-.01.01-.007-.002-.003.007-.06.002-.013v-.015l.001-.007-.002-.015-.004-.012-.006-.006.007-.007.009-.025.006-.027v-.006l-.008-.017.004-.007v-.01l-.007-.028.002-.006v.005l.007-.006.006-.018-.005-.037-.009-.027h.003l.012-.014.005-.012-.002-.014-.007-.023.002.002.007-.018V3.52l.005-.033.003-.003v-.005l.005-.008.006-.004h.005l.006-.006.007-.003.007-.02.009-.001-.002-.002v-.001l.008-.001.002-.004.008-.001.004-.005.006-.002.002.003.006-.003h.006l.006-.014h.016l.007-.005.002-.005V3.39l.004-.025.014-.004.006.001.007-.013.006-.02.007.001.014-.002.005.004.012-.014.004-.002.022.004h.011l.006-.004.01.003.003.005.012.008.026.007.03.018.025.006.025-.004.006-.004.01-.018V3.33l.004-.007-.01-.034-.005-.003-.004-.005-.012-.01-.013-.005-.005.001-.001-.006-.003.003-.011-.008h-.003l-.005-.006-.008-.002-.004-.007-.006-.004h-.006l-.004-.003h-.006v-.002l-.01-.002-.002.001-.004-.004-.004.002-.004.004-.01-.009h-.003l-.003-.004-.005-.004-.006-.002v-.002L7.3 3.206l.001-.004-.002-.006.003-.002V3.19l-.004-.003-.008-.014-.001-.012-.007-.006h-.004l-.006-.007-.002-.011-.003-.007-.007-.008-.018.002-.001.003-.013-.01h-.003l-.002.004-.002-.002-.006-.002-.002.003-.021-.01h-.024l-.008.007-.007.002-.004.006-.012.01-.007.003h-.013l-.014-.003-.004.002h-.005l-.008-.002-.007.004-.01.003-.007.003-.016.002-.01-.002-.016.01-.008.006-.002.007-.01.014-.01.022h-.006l-.008-.002-.01-.008-.004-.007-.005-.002-.024.001-.012.003-.035.018-.022-.001-.013.006-.015.014-.026.01h-.015l-.001-.001.001-.003-.004-.002-.007.005-.033.01-.022.01v.003l-.003.001-.008.01.004.01.003.024-.002.01-.002.005-.017.011-.006-.001-.01.011.01.006h.008l.004.004.001.008v.02l.001.002.017.01.012-.003.026.03.001.004-.002.004-.006.004h-.026l-.01.004-.01.005-.004.007-.002.008.002.004.006.004v.003l-.009.008-.006-.003-.01.005-.01.01-.026.032v.003l.001.005.004.001-.003.01.002.017-.003.002v.003l.006.01.004.012v.002l-.002.003v.004l.006.006.006.002-.002.003.003.007-.002.006.001.006h-.003v.004h-.005l-.003.002H6.66l.003.012.007.012h.002l.007-.005.005-.002.004.005.003-.001.002.002.004.002v.004l.002.002-.003.002v.003l-.003.002.001.002h-.001l-.003.003-.004.001-.004.006-.007.004v.004l.002.003-.003.004.004.014h-.005l-.004.009h-.005l.003.007h-.002l-.001.006H6.66v.006l-.005-.002v-.003l-.002-.001-.003.005-.003-.002.001.004-.004.002.003.003h.002l-.002.003.006.001v.003l-.006.004.006.004v.002l-.005-.002-.001.003-.004.003-.006-.002.002.002.005.003v.002h-.002l-.008.005-.002-.002-.002.006-.002-.001-.003-.005v.003l.004.005h-.004l-.004.004.004-.003.003.001v.006l.002-.007h.006l.002-.002.002.002.004-.002.003.002-.003.005h-.003l-.003.005.001.005.005-.002-.002.003v.004l-.005.007v.003l-.005-.002-.002.004h-.002l.002.002.003-.004.002.002-.004.004v.013h-.003l-.001.004-.002.001v.003h-.001v.004l-.001.003.001.005-.014.021-.003.002.003.01.005.007.022.017.021.01.002-.003h.008l.004.003-.001.003.001.004.009.006.003-.001H6.68l.002-.001.007.001h.002l.014.005h.006l.006.001.017.008.001.006.006.003.008.004.002-.001h.003l.003.007-.007.006-.002.006v.009l.003.005-.002.01-.007.001-.002.002.001.001-.001.002-.017.006-.007.001-.007-.002-.005.003v.004l-.004.003v.006l.002.003.005-.001.002.005.004.003-.001.004h-.004l-.006-.004h-.004l-.003-.007.002-.003-.004-.002-.012.001-.013.008-.007.008-.011.022v.002l.01.005.003.004-.002.008v.003l.004.003v.003l-.007.009-.019.016-.011.005-.012-.013V4.1l-.002-.003.002-.01-.005-.007-.006-.004.001-.003-.002-.004.004-.006-.001-.003-.006-.003-.01.002-.001.001h-.006v-.003L6.58 4.05l.005-.003.004-.007-.003-.005-.007-.006h-.01l-.005.009h-.001l.003-.008-.001-.006.003-.005.014-.007.007-.006.006-.002h.003v-.001l-.003-.009-.001-.01-.01-.015-.018-.015-.003-.005-.008-.006-.01.002-.009.005-.023.008-.009.01-.005.002-.002-.001-.006.005-.011.004-.003.004-.008.004v.004l.004.005.002.008.007.014h.005l.012.006.022-.006v.003l.005.004v.008l.003.002.005.006-.005.005-.006.002-.002-.003-.005.001.002-.003-.001-.002-.009-.003-.01-.002-.004.002v.002H6.49l-.002-.004-.006-.003v-.005l-.005-.002v-.007h-.005l-.01.002v-.006l-.01-.01-.025-.012-.019-.007v-.063l-.007-.04-.025-.031-.006-.049-.032-.04.032-.028.048.008-.002-.037.016-.032v-.04l-.054-.01-.04-.007-.048-.039.036-.044.046-.012.044-.022.033-.02.052.01.02-.035.01-.04-.003-.049.005-.046-.04-.103.028-.031.03-.047-.044-.037-.042-.008-.022-.03.03-.026-.026-.045-.034-.018-.055-.028-.032-.034.004-.04.008-.04.004-.04.032-.043.052-.004.033-.024.041-.024.033-.024-.001-.038-.006-.037.002-.039-.036-.019-.008-.035.04.001.027-.03.034-.033.014-.05.01-.062.011-.036-.042-.022-.004-.04-.03-.035-.033-.019-.008-.038.027-.052.038-.002.03-.018.004-.046-.009-.04-.025-.027-.012-.035.005-.047-.017-.038.023-.03.038-.007.037-.012.035.015.034-.035-.003-.044.016-.04h.036l.008-.042.049-.014-.04-.013.01-.037-.025-.037-.012-.036-.034-.017-.008-.037-.007-.038-.005-.042.022-.036.007-.016v-.02l-.038-.024-.017-.05.056-.003.038-.004.021-.034.03-.03.002-.039.045-.01.032.03.054.015.033.025.038-.018.024-.029.04-.023.044.01.034.024.046.022.015.035.05.01.031.037.035.026.02.04.022.029.04-.003.006-.05-.008-.035-.002-.06.053-.022.037.023.036.032.026.03.035.012.037.013h.046l.03.02-.012.05.033.02.036.026-.033.024.011.035.037-.006.04.005.03-.033.04-.015.037.006.038.004.057.044.036.019.066-.01.037-.001.036-.002.031-.041.028-.038.043.004.018.04.016.032.021.057.038.023.042.022.006.037.027.025.006.04.049-.026.015.048.035.01.04.016.044-.008.02-.03.032-.021.035.03.046-.018.04.039.01.036.03.035.045.02.005.06.03.044-.006.042.02.03.058.006.01.035.037-.001h.055l.03.031.007.045.036.018.027.024-.003.07.018.04-.016.037-.018.036-.02.032-.06.025-.04.021-.028.037-.024.052-.057.064-.049.032-.01.06-.037.01v.037l-.032.02-.053.045.011.037.022.03.037.006.061.052.039.02.056-.025h.036l.024.027.034.029.035.015.013.041.032.02.03.025.02.042.044.043.045.033.043.001.035-.016-.008.044.006.038-.022.046.052.03.001.052.004.038.03.035-.005.043.045.018.024-.03.042.011.04-.002.026.026.038-.008.043.006.046-.013.038.007.012-.039.034-.014.057-.028v.045l.036-.011.03.033.05-.021.027-.03.037-.007.05.002-.008-.037.041-.012.04-.042h.051l.02.035.013.045.033-.02.031-.037.055.008.045.006.015.033.02.033.04-.011.013-.035.034.015.034-.032.026-.025.036.007.032-.022.039-.016.038-.034.034.02.024-.04.043.02.034.03.013.046.035-.008.037-.02.031.038-.001.058-.032.035-.02.045.03.026.02.042-.01.04.014.044.04-.008.038.016-.001.042h.038l.005.052.003.045.019.033-.031.018.014.035M6.798 6.51l-.016-.034.047-.02.04-.05.014-.052.022-.029.018-.046.005-.066.024-.037.034-.042-.03-.02-.048.01.043-.014.053-.007.052-.02.035-.024.05-.022.025-.032.028-.03.039-.026.02.03.019.046.022.04.015.034-.016.04v.037l-.02.044-.036.007-.044.004-.036.015-.036.03-.048.003-.024.028-.033.016-.021.03-.054.026-.024.031-.03.023-.036.022-.015.035-.018.034-.02-.014m1.667 2.68.033.019.01.044.05.037.024.028.036.047.027.026-.031-.029-.034-.017-.04-.048-.053-.031-.035-.04-.034-.021-.03-.033-.004-.037.033.013.006.036.035.012.007-.005m-.431.024-.03-.024-.02-.03-.04-.016-.018-.04-.035-.019-.019-.051-.03-.033v-.046l-.04-.045-.024-.042-.065-.022.068-.028.043-.021.039.024.05-.005-.006.044v.045l.02.058.023.031.02.042.018.034.041.033.038.035.013.082-.002.046-.038-.029-.006-.023" fill-opacity=".4" stroke="none" fill="#fff"/></g></svg>