<svg height="249.6" version="1.2" xmlns="http://www.w3.org/2000/svg" baseProfile="tiny" width="288" viewBox="0 0 15 13"><g fill-rule="evenodd" stroke-linejoin="bevel" stroke="#000" fill="none" stroke-linecap="square" font-weight="400" font-family=".AppleSystemUIFont" font-size=".903"><path d="M-1.981-1.981h19.81v17.829h-19.81V-1.981" stroke="none" fill="#fff"/><path d="M0 0h14.857v13H0V0" stroke="none" fill="#fff"/><path fill="none" d="M0 0h14.857v12.876H0z" fill-opacity="0" stroke="none"/><g stroke-width=".051" stroke="#96cb65" fill="#96cb65"><path d="M14.018 11.407h.1v-.099h.198v.396h-.199v.1h-.198v.098h-.099l-.099.1v.099h-.099l-.099.099v.099-.198h.099v-.199h.1V11.605h.098v-.099h-.099.1v.1-.1h-.1v.1h-.099.1v-.1H14.017v-.099h0M5.302 11.407l-.099.1-.099.098v-.198h.099v.1-.1h.1M4.113 11.308h.1v.1h-.1v-.1h0M13.325 10.912h.099v-.1.1h-.1 0M13.028 8.139v.099h-.1v-.1h.1M7.594 10.506h.032v-.062h-.032v.062M14.28 10.815h.033v-.051h-.033v.051M8.339 11.16h.058v-.027H8.34v.027M4.991 10.838h.034v-.035H4.99v.035" stroke-width=".05051448"/><path d="M13.336 10.9h.017v-.05h-.017v.05M5.575 10.858h.059v-.011h-.059v.011M13.202 8.353h.027v-.025h-.027v.025M13.713 10.308h.022v-.026h-.022v.026M13.388 9.16h.02v-.027h-.02v.027M13.511 7.124h.02v-.021h-.02v.021M11.184 9.104 11.17 9.1l-.001-.004.014-.014.005.018-.004.004M13.061 9.235l-.002-.003.01-.031.002.002-.001.023-.009.009M4.144 11.181h.02v-.02h-.02v.02M7.584 10.843h.022v-.016h-.022v.016M8.35 11.317l-.01-.012.014-.01-.004.02.002.004-.002-.002M13.181 11.388l.006.017-.01.005-.001-.012.005-.01M5.655 10.858h.035v-.007h-.035v.007M13.213 8.316l-.004-.014.003-.004.008-.004-.007.022M13.205 11.385h.015v-.014h-.015v.014M12.611 9.662h.01v-.018h-.01v.018M12.848 13.031h.015v-.012h-.015v.012" stroke-width=".05051448"/><path d="M7.589 10.84v.005H7.58l-.002-.005.003-.008.007.009M12.661 9.573l-.004-.002.002-.007.01-.002-.008.011M14.212 6.669h.01v-.007h-.01v.007M9.035 13.821v-.008l.004-.004.001.006-.005.006M7.497 10.767h.01v-.007h-.01v.007M5.653 10.857h-.005l-.012-.003.018.002h-.001M7.665 10.363H7.66l-.002-.01v.003h.003l.003.007M11.4 8.04h.013v-.004h-.014v.005M5.912 11.374l-.002-.003v-.005l.003.002.001.008-.002-.002M11.218 8.45h.002l.009.002-.011.002V8.45M11.487 9.026l-.004-.001.003-.005.004.001-.003.005M8.21 11.301h.005v-.007H8.21v.007M13.67 10.449v.004l-.005-.002v-.004l.006.002M7.657 10.31l-.003-.006.004.002-.001-.004.002.007-.002.001M7.66 11.006h-.005l-.003-.004.008.004h0M14.307 6.78h-.003l-.002-.002.005-.004v.005M11.48 9.082h.003l.002.005h-.003l-.002-.005M10.917 7.931h-.003l.002-.005.002.003-.001.002M13.533 7.087l.003-.002.002.002-.005.002v-.002M12.943 8.132v-.003l.002-.002v.003l-.002.002M14.308 6.73l-.002.001-.002-.002.004-.002v.003" stroke-width=".05051448"/></g><g stroke-width=".051" stroke="#e3e171" fill="#e3e171"><path d="M1.538 7.643v.198l.1.1v.297l-.1.099-.099.099-.099.099-.099.099-.198.099H.944l-.1-.198-.098-.198-.1-.1H.549l-.297.199-.1.099H.054l-.1-.1v-.197l-.198-.1h-.099l-.198-.098-.099.099v.892H-.74l-.099-.199-.099-.198-.198-.297-.1-.496-.098-.099-.1-.099v.1l-.052.157V5.36l.053.104.099.297v.1l.198.198.198.198.297.297.297.099.1.297H.448l.297.1.099.098h.198l.1-.099.098-.198.198-.198v-.396l-.099-.198-.198-.198-.099-.1-.198-.198-.1-.198v-.198L.648 4.97v-.297l-.1-.1v-.197l.199-.1h.099l.099.1.099.099.1.198.098.297.1.198.098.198.1.198v.198l.098.199.1.099.098.297.1.198v.198l-.1.198v.297l-.099.1-.198.098v.198h0M2.43 4.672l-.1-.1v-.197l-.098-.1h-.1l-.099-.098-.198-.1-.198-.296-.099-.298-.099-.396.1-.396.098-.198.198-.1.298.1.099.099.099.297v.297l.099.198.297.198.198.298.198.297.1.297v.099l.098.099v.396l-.099.198-.099.1h-.198l-.198-.1-.198-.297-.1-.297h0M3.618 5.662H3.52v-.198l-.099-.099v-.198h.1l.098.1.1.098v.198l-.1.1h0M.944 3.384H.746v-.099l-.1-.198-.098-.198v-.198l.099-.099h.099l.198.099.099.1.1.197V3.286l-.1.098H.944h0M3.321 3.087l-.099-.099V2.691h.1l.098.1v.198l-.099.098h0M1.142.81h-.099L.944.71V.611l-.1-.198.1-.198h.099l.1.099h.197l.1.198.197.198.1.198.098.1v.098h-.198l-.198-.099L1.142.81h0" stroke-width=".05051448"/></g><g stroke-width=".051" stroke="#bdd66b" fill="#bdd66b"><path d="M2.826 2.988v.1h-.198v-.1l-.1-.099-.098-.297V2.294h.099l.099.1v.099l.099.198.099.297h0M6.689 8.337l-.1.099v.099l-.098-.1v-.098l-.1-.1V8.14l.1-.1v-.098l.099-.1v.1h.099v.396h0" stroke-width=".05051448"/></g><g stroke-width=".051" stroke="#a9d168" fill="#a9d168"><path d="M6.293 2.295v.099h-.1v-.1h-.099V1.999l.1-.1V1.8h.198v-.198h.099V1.7l.099.099v.198l-.1.099-.098.099-.1.099h0M12.632 11.605l-.199.396-.099.199-.099.198-.099.198v.198l-.099.198v.199l-.099.098v.396l-.099.1-.099.098v.1h-.099l-.099.098-.041.083H9.957v-.281l.1-.099h.098v.1h.1v.098H10.551l.099-.099h.099l.099-.099.099-.099v-.198l.099-.099v-.099l.099-.099v-.099l.099-.099v-.198l.099-.1V12.2l.099-.1v-.099l.099-.099V11.605l.1-.099v-.099l.098-.099v-.099l.1-.099.098-.198.1-.1.098-.098.1-.198.098-.1.1-.098h.098l.1-.1H12.929v.1h.099l.099.099v.099l-.1.198v.099l-.098.198v.1l-.1.197-.098.198-.1.1h0M12.83 7.247l.099.1V7.642l-.1.1v.098h-.098l-.1.1-.099.099-.099.198-.198.099-.099.099-.099.099-.198.198-.099.099h-.099v-.1l-.099-.098V8.336l.1-.098v-.1l.098-.197v-.199l.1-.198.197-.099.198-.099.198-.099h.397M14.91 9.13l-.1.197v.1H14.514l-.099-.1V8.733l.1-.1.098-.098H14.91l.099.099V8.93l-.1.1v.098h0" stroke-width=".05051448"/></g><path d="M-1.486-1.288h17.829V7.4l-.047.046v.1l-.099.098v.1l-.099.098v.1l-.198.099-.099.099-.099.099-.099.099h-.1v.099h-.098v.099h-.1v.198h.1l.099-.1h.198l.1-.098H16.097v.198l.1.099v.397H16.342v.395h-.047v.1h-.198v.098H15.9v-.099h-.099.1-.1v.1h.1v.098h-.1v.1h-.099v.099h-.099v.099l-.1.099-.098.099v.099h-.198v-.1l.099-.098V10.02h.099l-.1-.099h.1-.1v-.198.1h.1v-.1l-.1-.099v.1h-.198v.098h.1v-.099.1h-.198v.098l-.1.1h-.098l-.1.099-.099.099v-.1.1-.1h-.099.1-.1v.1h.1v.198l-.1.099h-.099v.099-.198l-.099-.1v-.098h-.099v-.1h-.099v.1-.1.1h-.099.1v.099-.1.1h-.1l-.099.099h.1v.099-.1h-.1v-.098h.1-.1v-.1.1l-.099-.1v.1h-.099.1v-.1h-.199v.1h.1v.099h-.199v.099h-.1v.198h.1v.099h-.198.099-.1v.198h.1V11.309v-.1h-.198v.1l.099.098v-.099h-.1.1v.1l.099.098h-.1v-.099h-.098.099-.1v-.099.1-.1h-.098.099l-.1.1h.1v-.1h-.1.1v.1h-.1l.1.098v.1-.1.1l-.1.098v-.099h.1-.1v.1-.1.1h-.098.099-.1v.098-.099.1l.1-.1v.1h-.1l-.098.098h-.1v.199h-.098l-.1.198v.198l-.099.099V12.893l.1.099h.099v.099h.099v.1-.1h.099v-.199h.198v.1h.198v.099h.099v.1h-.1v.198l-.098.098h-.1v.1h-.098v.198l.099.098v.281H8.885l.082-.083v-.198h.099v.1h.099v-.199l.099-.099v-.495h-.1v-.099h.1v-.099h.099v.099h.198l.1-.099v-.1h.098v-.098h.396v-.1l.1-.098h.098v-.1h.1v-.098l.198-.1.099-.098v-.1h.099v-.099l.099-.099.099-.099v-.099h.099v-.099h-.1l.1-.099v-.099h.099v-.099h.099v-.198h.198V10.812H11.84v-.098l.098-.1h.1v-.098l.098-.1v-.098h.1v-.1h.098v-.098h.1v-.1h.098v-.198.1-.199h.1v-.099.1-.1h.198v-.099h.198v-.099h.099v-.099l.099-.099v.1h.099v-.1h.198V9.13h.199V9.03h-.199v-.099h.099v-.199h.198v-.198h.1v-.098h-.1v-.1h-.099v.1V8.138h.1V8.04h.098V7.247h.1v-.099h.098V7.05h.1V6.95h.198l.098.1h.1v-.1h-.1v-.099h-.198v-.199h-.495v.1h-.198l-.099.099h-.198l.099.1h-.1v.098h.1v.1h-.1v.098h-.098v.1h.099-.1.1v.198-.1.198h-.1V7.941h.199v.099h-.1v.099h-.098.099v.099h-.1v-.1h-.098V8.04h-.198l.099.099h-.1v-.1h-.098v.1h-.1v.099h-.098v.099h-.1.1v.099h-.1v-.1.1-.1h-.099v.1h.1v.099h-.1v-.1.1h-.099v.099-.1.1h-.099.1v.099h-.1.1-.199.1v.099h-.1v.099h-.099v.1h-.099v.098h-.099v.198h-.099v-.099.1-.1.1H11.443h.099v.098h-.099v.1h-.1v-.1h.1l-.1-.099h.1v-.099h-.1.1-.1l.1-.099v.1-.1h.099-.099.099l-.099-.099h.099v-.099H11.245v.1h-.1.1-.1v-.1h.1V8.634h-.1v-.1h.1v.1-.1h-.1.1v-.098h.099-.1.1v-.1h-.1.1v-.098h.099V7.94h.099v-.099h-.099.099v-.099h-.099.099v-.099h-.099v.1h-.1v.098h-.098v.1h-.1v.099-.1.1-.1.1h-.098v-.1.1h-.1V7.84v.1h-.098v-.199H10.55h.1-.1v.1h-.495v.099H9.76l-.099-.1v.1h-.099v.099h-.198v.099h-.099v.099h-.198v.495-.1h-.1v.1h-.098v.099h-.1v.099l-.098.1h-.1.1-.1l.1.098V9.03v.1h-.1v.198h-.098v.098h-.1v.1h-.099v.098h-.099v.1h-.099l-.099.098h-.099v.199h-.099l-.099.198v.198-.198l.1-.1h-.1l-.099.1h.1v.198h-.1.1-.199V10.714h.1v.099-.1h-.1v.199h-.099l.1.099h.098v-.099.099h.1-.1.1v-.099h-.1.198l.1.099h.098v-.099.099h.1v.1h.098v.098h-.099.1v.1h-.1.1-.199.1-.199v.098h-.099v-.099H7.58v.198l-.099-.099v.1h-.198v-.199h-.099v-.099.1h-.198v-.1.1h-.1.1-.1v.098-.099.1-.1.198-.099h-.098v.1-.1.1h-.1v.198H6.49v-.1h-.098v-.099h-.1v.1-.1l-.099.1h-.099.1v.098H5.895v.1h-.099v-.1h-.099v.1H5.6v-.199l-.099-.099v-.099.1l.1-.1h.098v-.099.1-.1.1h.396l.1-.1h.099-.1v-.099H5.896v-.198h-.099v-.099h-.099v-.1h-.396v.1h.1-.1.1v.099h-.199.1l-.1-.099h-.099.199v-.1h-.1v.1h-.099v-.1h-.1.1-.1v-.098h-.198l-.098-.1h-.396.099-.1l-.098.1h-.1v.099h.1-.1.1-.1.1-.1v.099h.1v.099-.099h-.1v.099h-.099v-.099h-.099v.199h.198-.099v.098h.1l-.1.1v-.1h-.099v.1-.1h-.099v.1-.1h-.099v-.099l-.099-.099H3.52v.1h-.198v.098h-.198v.1-.1h-.099v-.099h-.1v.1-.1H2.629v-.099H2.33V11.309h-.098.099-.1v.098h-.098v-.099h-.1v-.099.1-.1l.1-.099v-.099h-.1.1-.1v.1l-.099-.1h-.198v.1-.1h-.099l-.099.1H.944l-.1-.1H.747v.1H.548v.098-.099H.25l-.098.1h-.199l-.099.098-.099.1-.099.098h-.099v.1l-.099.098v.1L-.64 12H-.74v.1h-.099l-.099.099h-.099v.099l-.099.099h-.1l-.098.099V12.794h-.1v.198l-.052.052v1.12h0V12.45l.053-.052V12.2l.099-.1.099-.099.099-.099.099-.099v-.099l.1-.099v-.099l.098-.099.1-.099h.098l.1-.099h.098l.1-.099v-.099l.098-.099-.099-.1v-.395l.1-.1.098-.098h.397l.099.099.099.099v.099l.099.099.099.099H.944l.099-.1h.198l.1.1.098.099H1.737v-.496H2.032l.1.1.198-.1H2.628l.099-.098.099-.1v-.098l.099-.1h.397l.098.1h.198l.1.099h.495v.099l.198.099h.099v.099h.099l.099-.1H5.005l.099.1.198.099h.1l.098-.1h.396v.1l.1.099v.099h.396v.099h.099v.496h.198l.099-.1v-.397l-.1-.098-.098-.1v-.098l.099-.1v-.098h.396l.099-.1h.099l.198-.197.1-.1.098-.099.198-.099.1-.198.197-.099.1-.099.099-.198.099-.099.099-.198.099-.1.099-.098h.099v-.198l.099-.1.099-.197.099-.1h.099l.099-.198.1-.099H10.056l.098-.099.297-.198.1-.099H10.849l.099-.099h.099l.099-.099V6.95l.099-.099h.099l.198-.198h.396l.1-.198.098-.198h.198l.198.099h.496l.099-.1h.198l.198-.098.297.099h.396l.1.198h.197v-.1h.1V6.059l.099-.098.198-.1h.594l.099-.198.198-.297v-.198l.1-.198.098-.198.1-.099h.244v-5.96H13.72v.116l-.099.1h-.099v.098l-.1.1-.098.098v.198l.099.1v.099l.099.099H13.82l.1.099h.098l.1-.1.098-.098h.1l.098.099v.099l.1.099v.198l-.1.099v.099l-.099.099h-.396l-.099.099-.099.099v.1l-.099.197h-.099l-.1.1h-.296l-.198-.1L12.73.81l-.1-.099-.099-.099-.099-.099-.099-.1h-.099V.315h-.099v-.1h-.099V-.38h-.099l-.099-.198-.099-.099-.099-.198-.099-.099-.099-.099-.1-.099h-.098l-.1-.099v-.017h-.28l-.016.017V-.973l.099.098.099.1.099.098.099.199.198.099.099.099h.198l.1.099v.198l.098.099v.099l.1.099v.099l-.1.099v.099l-.099.1h-.396l-.1.098v.198h-.098l-.1.1h-.098l-.1.098-.098.1v.098l-.1.199v.693l-.098.099h-.199l-.099-.1-.099-.197-.099-.1-.099-.197h-.099l-.099-.1V1.404l.1.1h.098l.1.099h.198v-.1l.098-.099V1.106l.1-.099V.908L10.65.81V.611l-.1-.099H10.255l-.099.099h-.099v.1l-.099.098-.099.1v.098l-.099.1-.099.098H9.363v-.099L9.264.908V.611h-.1V.314h-.098V.809h-.1v.198l-.098.1h-.892l-.099-.1-.099-.099L7.68.81H7.58L7.481.71H7.184V1.007l-.1.198v.1l-.098.197v.199l-.1.099V2.097l-.098.099v.099l-.1.198v.099l-.098.099v.198h-.1v.198l.1.198.099.1v.197l.099.1V3.979H6.59v-.1h-.1l-.098-.098h-.1l-.099.099v.099l-.099.099v.198l.1.198.099.099V4.87l-.1.098h-.099l-.198-.099-.099-.198-.099-.1H5.5l-.099-.098v-.198l-.099-.198v-.1h-.099l-.099-.098-.198-.1-.1-.198-.098-.099-.1-.198v-.099L4.51 2.89l-.1-.198v-.397l-.098-.197v-.1l-.1-.098-.198-.1-.198-.197-.198-.199-.495-.396L2.628.71 2.43.611l-.1-.198-.098-.1-.199-.098-.099-.198-.198-.1-.198-.197-.198-.1-.198-.198-.396-.099-.198-.099-.1-.099H.153l-.1.1v.098l-.099.1v-.1l-.099-.099v-.198l-.099-.198-.099-.099-.016-.017h-1.126M14.91 9.13V9.03l.099-.099V8.634l-.1-.1H14.613l-.099.1-.099.099v.594l.1.1H14.81v-.1l.099-.198h0m-2.08-1.882h-.397l-.198.1-.198.098-.198.1-.099.197v.199l-.099.198v.099l-.099.099V8.634l.1.099v.099h.098l.1-.1.197-.197.1-.1.098-.098.198-.1.1-.197.099-.1.099-.099h.099v-.099l.099-.099V7.346l-.1-.099h0m-.098 6.917v-.083l-.1-.099h-.198v.1h-.396v.082h.694m-.1-2.559.1-.099.099-.198.099-.198v-.099l.099-.198v-.1l.099-.197v-.1l-.1-.098h-.098v-.1H12.63l-.099.1h-.099l-.099.099-.099.099-.099.198-.099.099-.099.099-.099.198-.099.1v.098l-.099.1v.098l-.099.1V11.901l-.099.1v.099l-.1.099v.495l-.098.099v.198l-.1.099v.1l-.098.098v.1l-.1.098v.198l-.098.1-.1.098h-.098l-.1.1H10.255v-.1h-.099v-.099h-.099l-.099.1v.28h1.544l.041-.083.1-.099h.098v-.099l.1-.099.098-.099v-.396l.1-.099v-.198l.098-.198v-.198l.1-.198.098-.198.1-.199.198-.396h0m-6.34-9.31.1-.1.099-.098.099-.1V1.8l-.1-.098v-.1h-.098V1.8h-.199v.099l-.099.099V2.295h.1v.099h.099v-.1h0M3.816-1.27 3.8-1.288h-.62l-.057.116v.396l.1.198.098.199v.099l.198.099h.198l.1-.1.098-.197v-.397l-.099-.198v-.198h0" stroke-width=".05051448" stroke="#96cb65" fill="#96cb65"/><path d="M16.343-1.288v5.96H16.098L16 4.771l-.099.198-.099.198v.198l-.198.297-.1.199H14.91l-.197.099-.1.099V6.356h-.099v.099h-.198l-.099-.198h-.396l-.297-.1-.198.1h-.198l-.1.099h-.495l-.198-.1h-.198l-.099.199-.099.198h-.396l-.198.198h-.1l-.098.1v.197l-.1.1h-.098l-.1.098H10.552l-.099.1-.297.197-.099.1H9.462l-.099.098-.099.199h-.1l-.098.099-.1.198-.098.099v.198h-.1l-.098.099-.1.099-.098.198-.1.1-.099.197-.099.1-.198.098-.099.198-.198.1-.099.098-.099.1-.198.198h-.099l-.1.099H6.69v.099l-.1.099v.099l.1.099.099.099v.396l-.1.1H6.49V10.812h-.098v-.1h-.397v-.098l-.099-.1v-.098H5.5l-.099.099h-.099l-.198-.1-.1-.098H4.709l-.1.099H4.51v-.1h-.1l-.197-.098v-.1h-.496l-.099-.098H3.42l-.099-.1h-.397l-.098.1v.099l-.1.099-.098.099H2.33l-.197.099-.1-.1H1.736v.496H1.44l-.099-.1-.099-.098h-.198l-.099.099H.646l-.098-.1-.1-.098v-.1l-.098-.098-.1-.1h-.396l-.099.1-.099.099v.396l.1.099-.1.099v.1l-.099.098h-.099l-.099.1H-.74l-.099.098-.099.1v.098l-.099.1v.098l-.099.1-.1.098-.098.1-.1.099v.198l-.052.052V-1.288H-.36l.016.017.1.1.098.197v.198l.1.1v.098l.099-.099v-.099l.099-.099H.449l.099.1.198.098.396.1.198.198.198.099.198.198.198.099.1.198.198.099.099.099.099.198.198.1.495.296.495.396.198.199.198.198.199.099.099.099v.099l.099.198v.396l.099.198.099.297v.1l.099.197.099.1.099.198.198.099.099.099h.1v.099l.098.198v.198l.1.099h.198l.098.099.1.198.197.1h.1l.099-.1V4.573l-.1-.1-.099-.197v-.198l.1-.1V3.88l.099-.1h.099l.099.1h.099v.099h.198V3.68l-.1-.099v-.198l-.098-.099-.1-.198V2.89h.1v-.198l.099-.099v-.1l.099-.197v-.1l.099-.098V1.799l.099-.098v-.199l.099-.198v-.099l.099-.198V.71H7.481l.1.1h.098l.1.098.098.1.1.098h.891l.099-.099V.81h.099V.314h.099V.61h.099V.908l.099.198v.1H9.661l.098-.1.1-.099V.908L9.956.81l.1-.099V.611h.098l.1-.099H10.551l.099.099v.198l-.1.1v.098l-.099.1V1.402l-.099.1v.099h-.198l-.099-.1h-.099l-.099-.099V1.701l.1.099h.098l.1.198.098.099.1.198.098.099h.199l.099-.1v-.692l.099-.199v-.099l.099-.099.099-.099h.099l.099-.099h.099V.81l.099-.099h.397l.098-.099V.512l.1-.1V.315l-.1-.1V.117l-.099-.1v-.198L11.74-.28h-.198l-.099-.1-.198-.098-.1-.199-.098-.099-.1-.099-.098-.099V-1.27l.016-.017h.28v.017l.1.1h.099l.099.098.099.1.1.098.098.198.1.1.098.198h.1v.594h.098v.099h.1v.099h.098l.1.099.098.099.1.1.099.098.198.1.198.098h.297l.099-.099h.099l.1-.198V.611l.098-.099.1-.1h.396l.098-.098v-.1l.1-.098v-.198l-.1-.1V-.28l-.099-.1h-.099l-.099.1-.099.099h-.099l-.099-.1H13.523l-.1-.098v-.1l-.098-.099v-.198l.099-.099.099-.099v-.099h.099l.1-.099v-.116h2.62M1.539 7.643v-.198l.198-.099.1-.099V6.95l.098-.198v-.198l-.099-.198-.099-.297-.099-.1-.099-.198v-.198l-.099-.198-.099-.198-.099-.198-.099-.297-.099-.198-.099-.1-.1-.098H.747l-.198.099v.198l.099.099v.297l.099.198v.198l.099.198.198.198.1.1.197.198.1.198v.396l-.199.198-.099.198-.099.1H.845l-.1-.1L.45 6.95h-.694l-.099-.297-.297-.1-.297-.296-.198-.198-.198-.198v-.1l-.1-.297-.052-.105V7.9l.053-.158v-.099l.099.1.099.098.099.496.198.297.1.198.098.198h.1v-.892l.098-.098.198.099h.1l.197.099v.198l.1.099h.099l.099-.1.297-.197h.099l.099.099.099.198.099.198h.099l.198-.1.1-.098.098-.1.1-.098.098-.1v-.296l-.099-.1v-.198h0m.793-3.07.099.099.099.297.198.297.198.1h.198l.1-.1.098-.198v-.396l-.099-.1v-.098l-.099-.297-.198-.297-.198-.298-.297-.198-.1-.198V2.89l-.098-.297-.1-.1-.297-.098-.198.099-.099.198-.099.396.1.396.098.298.198.297.198.099.1.099h.099l.099.099v.198h0m1.287 1.09.1-.1v-.198l-.1-.099-.099-.099H3.42v.198l.1.1v.197h.098m3.07 2.675V7.94H6.59v-.1l-.1.1v.099l-.098.099v.099l.099.099v.099l.099.099v-.1l.099-.098h0M-.84 3.285h.396l.1-.198.098-.099.1-.198-.199-.297-.198-.198-.198-.297-.099-.297v-.298l-.198-.198-.297-.198-.152-.227v2.459l.053-.053h.099l.198-.099.198.198h.1m1.782.1h.099l.1-.1V2.988l-.1-.198-.099-.099-.198-.099h-.1l-.098.099v.198l.099.198.099.198v.1h.198M1.142.808l.297.198.198.1h.198v-.1L1.736.908 1.637.71 1.44.512 1.34.314h-.198l-.099-.1H.944l-.1.199.1.198v.1l.099.098h.1m1.683 2.18-.1-.298-.098-.198v-.1l-.1-.098H2.43V2.592l.099.297.099.1v.098h.198v-.099h0m.495.1.1-.1V2.79l-.1-.099h-.099V2.989l.1.098h0" stroke-width=".05051448" stroke="#a9d168" fill="#a9d168"/><g stroke-width=".051" stroke="#fff"><path d="M16.343 9.624h-.047v.1h-.198v.098H15.9v-.099h-.099.1-.1v.1h.1v.098h-.1v.1h-.099v.099h-.099v.099l-.1.099-.098.099v.099h-.198v-.1l.099-.098V10.02h.099l-.1-.099h.1-.1v-.198.1h.1v-.1l-.1-.099v.1h-.198v.098h.1v-.099.1h-.198v.098l-.1.1h-.098l-.1.099-.099.099v-.1.1-.1h-.099.1-.1v.1h.1v.198l-.1.099h-.099v.099-.198l-.099-.1v-.098h-.099v-.1h-.099v.1-.1.1h-.099.1v.099-.1.1h-.1l-.099.099h.1v.099-.1h-.1v-.098h.1-.1v-.1.1l-.099-.1v.1h-.099.1v-.1h-.199v.1h.1v.099h-.199v.099h-.1v.198h.1v.099h-.198.099-.1v.198h.1V11.309v-.1h-.198v.1l.099.098v-.099h-.1.1v.1l.099.098h-.1v-.099h-.098.099-.1v-.099.1-.1h-.098.099l-.1.1h.1v-.1h-.1.1v.1h-.1l.1.098v.1-.1.1l-.1.098v-.099h.1-.1v.1-.1.1h-.098.099-.1v.098-.099.1l.1-.1v.1h-.1l-.098.098h-.1v.199h-.098l-.1.198v.198l-.099.099V12.893l.1.099h.099v.099h.099v.1-.1h.099v-.199h.198v.1h.198v.099h.099v.1h-.1v.198l-.098.098h-.1v.1h-.098v.198l.099.098v.281H8.885l.082-.083v-.198h.099v.1h.099v-.199l.099-.099v-.495h-.1v-.099h.1v-.099h.099v.099h.198l.1-.099v-.1h.098v-.098h.396v-.1l.1-.098h.098v-.1h.1v-.098l.198-.1.099-.098v-.1h.099v-.099l.099-.099.099-.099v-.099h.099v-.099h-.1l.1-.099v-.099h.099v-.099h.099v-.198h.198V10.812H11.84v-.098l.098-.1h.1v-.098l.098-.1v-.098h.1v-.1h.098v-.098h.1v-.1h.098v-.198.1-.199h.1v-.099.1-.1h.198v-.099h.198v-.099h.099v-.099l.099-.099v.1h.099v-.1h.198V9.13h.199V9.03h-.199v-.099h.099v-.199h.198v-.198h.1v-.098h-.1v-.1h-.099v.1V8.138h.1V8.04h.098V7.247h.1v-.099h.098V7.05h.1V6.95h.198l.098.1h.1v-.1h-.1v-.099h-.198v-.199h-.495v.1h-.198l-.099.099h-.198l.099.1h-.1v.098h.1v.1h-.1v.098h-.098v.1h.099-.1.1v.198-.1.198h-.1V7.941h.199v.099h-.1v.099h-.098.099v.099h-.1v-.1h-.098V8.04h-.198l.099.099h-.1v-.1h-.098V7.743h-.1v-.099h.199-.1.1v-.198h-.198v-.099h-.1.199v-.099h.198v-.495h.099v-.1h-.1l-.098-.098v-.1h-.1v-.098h-.098V6.058h.198V5.96h.099v-.397h.099l.099-.099h-.1.1v-.198h-.1v-.099h-.098V4.97h.099V4.87v.1l.099-.1h-.1.1-.1v-.396.099-.1h.199v-.098h.099v-.198h.099-.1.1v-.1h-.1V3.98h-.098V3.68h.099-.1v-.198h.199v-.198.1-.1h.099-.099v.1h.099v-.1.1h.1v.098h.098v-.099.1-.1h.198-.099.1v-.099.1h.198v.198l.098-.1v.1h.1v.099h.098v-.199h.199v.1H15.009h-.1.1v.198h.099v.099h-.1.199v-.1h.099v.1h.198v.099h.099v-.1h.099v.1-.1h.198v-.098.099-.1h.1-.1.1v.199h.098v.099h.1v.099h.098v.099-.1h.047v5.448" stroke-width=".05051448"/><path d="M14.018 11.407h.1v-.099h.198v.396h-.199v.1h-.198v.098h-.099l-.099.1v.099h-.099l-.099.099v.099-.198h.099v-.199h.1V11.605h.098v-.099h-.099.1v.1-.1h-.1v.1h-.099.1v-.1H14.017v-.099h0M13.325 10.912h.099v-.1.1h-.1 0M13.028 8.139v.099h-.1v-.1h.1M14.28 10.815h.033v-.051h-.033v.051" stroke-width=".05051448"/><path d="M13.336 10.9h.017v-.05h-.017v.05M13.202 8.353h.027v-.025h-.027v.025M13.713 10.308h.022v-.026h-.022v.026M13.388 9.16h.02v-.027h-.02v.027M13.511 7.124h.02v-.021h-.02v.021M13.061 9.235l-.002-.003.01-.031.002.002-.001.023-.009.009M13.181 11.388l.006.017-.01.005-.001-.012.005-.01M13.213 8.316l-.004-.014.003-.004.008-.004-.007.022M13.205 11.385h.015v-.014h-.015v.014M12.611 9.662h.01v-.018h-.01v.018M12.848 13.031h.015v-.012h-.015v.012M12.661 9.573l-.004-.002.002-.007.01-.002-.008.011M14.212 6.669h.01v-.007h-.01v.007M9.035 13.821v-.008l.004-.004.001.006-.005.006M13.67 10.449v.004l-.005-.002v-.004l.006.002M14.307 6.78h-.003l-.002-.002.005-.004v.005M13.533 7.087l.003-.002.002.002-.005.002v-.002M12.943 8.132v-.003l.002-.002v.003l-.002.002M14.308 6.73l-.002.001-.002-.002.004-.002v.003M2.727 11.11h-.1v-.099H2.332V11.309h-.1.1-.1v.098h-.098v-.099h-.1v-.099.1-.1l.1-.099v-.099h-.1.1-.1v.1l-.099-.1h-.198v.1-.1h-.099l-.099.1H.944l-.1-.1H.747v.1H.548v.098-.099H.25l-.098.1h-.199l-.099.098-.099.1-.099.098h-.099v.1l-.099.098v.1L-.64 12H-.74v.1h-.099l-.099.099h-.099v.099l-.099.099h-.1l-.098.099V12.794h-.1v.198l-.052.052v1.12h0V7.049h.152V6.95h.099-.1.1v-.099h.099v.1-.1.1h.099v.098h.198v.198h.1v.198h.198v.1h.198v-.1.1-.1.1h.098v.098h.1v.1h-.1.198v-.1h.199v.1-.1H.25h-.1.1v-.198H.35v.1H.647h-.1v.098h.1-.1.1v.1h-.1.1v.098-.099.1-.1h.099v-.099h-.1.199-.1.1V7.941h.198v-.1.1-.1h.198v-.099h-.099.1v-.198H1.537 1.44h.1v.1h.098-.099.1v-.1l.098.1h.198v-.1h.1-.1.1v.1-.1h.099v.1-.1.1h.099v.098-.099.1h.099v.098h.099v.199h.099v.198h.099v.594h-.1v.099h.1v.1H2.43h.099-.1v.098h.1-.1.1v.1h-.1v.198h-.098v-.1h-.198v.1h-.1v.098h-.099v.1h-.099v.098h.1v.1h-.1v.098h.1v.1h.396v-.1h.099v.199h.099-.1.199V10.417h.099v-.1h.099v.1h.099v.495h-.1v.199h-.098 0" stroke-width=".05051448"/><path d="M-1.486-1.288h11.641v.117H9.858v.198H9.76h.1-.1v.198h.1v.396h.098-.099.198v.099h.1v.099-.1.1h.098v.099h.198V.215h.1v.198h-.1V.61h-.099v.198h-.099v.1h-.099v.098h.1v.1h.098-.099v.396h-.099v-.1h-.198v.1H9.76v.099h-.198V1.8h-.198v-.1h-.099.099v-.098h-.099v-.1h-.1v-.099h-.098v-.099.1h-.1v.198h-.098v-.1.1-.1.1h-.1v-.1H8.67v.1-.1h-.1v-.099h-.098v.1h-.1v-.1h-.198v-.099.1h-.198v.098-.099h-.198v-.099H7.68v.1-.1H7.58v.198h-.099v.1h.1V1.7h.098-.099v.198h-.099v.099h-.099v-.1H7.084v.1h-.098v.099h.099v.099h-.1.1v.099h-.1v.198h.1v.198h-.198v.1h-.1v.098-.099H6.69v.1-.1.1H6.49v.098-.099V3.187h-.1V3.482h.1v.1h.099v.198h-.1v.099h-.198v.198h.1-.1v.099h.1H6.094h.1-.1v-.198h-.198v.099h-.198v.198-.1H5.401v.1h-.198v-.1.1h-.099.099v.198h-.199v-.1h-.098v-.098.099h-.1v-.396h-.098v-.1h-.1v.1H4.51v.099h-.198v.099h-.1v-.1H3.916v.1-.1h-.099V3.98h-.198v.099H3.52v.198h.1V4.573h-.1v.198H3.42v.1-.1h-.099v-.099h-.099v-.1h.1-.1v-.098h-.099v.099h-.099v.099h-.1v-.1h-.198v-.098H2.43l-.1.099h.1-.1v.198h-.098v.1h-.199v.098-.099.1h-.198v.098-.099h.1V5.267h-.1v.396h-.099.1-.1v.198h-.099v.198h.1-.1.1v.099h-.1.1v.396h.098v.099h-.099v.099h.1-.1.1v.099h-.1.1-.199v.1h-.099.1V7.246h-.199.1v.1h-.1.1-.1v.098H1.34v.1h-.099v.198h-.099.1v.098h-.199v.1-.1.1H.844V7.643H.747h.099-.198.099v.1h-.1v.098-.099.1-.1H.549h.099v-.099h-.1.1-.1v-.099h.1H.349v-.099H.252v.198h-.1.1-.1v.1-.1h-.198v.1h-.198.1v-.1h-.1v-.099h-.099v-.099.1-.1.1h-.198v-.1H-.74v-.198h-.099V7.05h-.198V6.95h-.099v-.099.1-.1h-.1v.1h-.098.099-.1v.098h-.151v-8.337" stroke-width=".05051448"/><path d="M12.83 8.04v.099h-.1v.099h-.098v.099h-.1.1v.099h-.1v-.1.1-.1h-.099v.1h.1v.099h-.1v-.1.1h-.099v.099-.1.1h-.099.1v.099h-.1.1-.199.1v.099h-.1v.099h-.099v.1h-.099v.098h-.099v.198h-.099v-.099.1-.1.1H11.443h.099v.098h-.099v.1h-.1v-.1h.1l-.1-.099h.1v-.099h-.1.1-.1l.1-.099v.1-.1h.099-.099.099l-.099-.099h.099v-.099H11.245v.1h-.1.1-.1v-.1h.1V8.634h-.1v-.1h.1v.1-.1h-.1.1v-.098h.099-.1.1v-.1h-.1.1v-.098h.099V7.94h.099v-.099h-.099.099v-.099h-.099.099v-.099h-.099v.1h-.1v.098h-.098v.1h-.1v.099-.1.1-.1.1h-.098v-.1.1h-.1V7.84v.1h-.098v-.199H10.55h.1-.1v.1h-.495v.099H9.76l-.099-.1v.1h-.099v.099h-.198v.099h-.099v.099h-.198v.495-.1h-.1v.1h-.098v.099h-.1v.099l-.098.1h-.1.1-.1l.1.098V9.03v.1h-.1v.198h-.098v.098h-.1v.1h-.099v.098h-.099v.1h-.099l-.099.098h-.099v.199h-.099l-.099.198v.198-.198l.1-.1h-.1l-.099.1h.1v.198h-.1.1-.199V10.714h.1v.099-.1h-.1v.199h-.099l.1.099h.098v-.099.099h.1-.1.1v-.099h-.1.198l.1.099h.098v-.099.099h.1v.1h.098v.098h-.099.1v.1h-.1.1-.199.1-.199v.098h-.099v-.099H7.58v.198l-.099-.099v.1h-.198v-.199h-.099v-.099.1h-.198v-.1.1h-.1.1-.1v.098-.099.1-.1.198-.099h-.098v.1-.1.1h-.1v.198H6.49v-.1h-.098v-.099h-.1v.1-.1l-.099.1h-.099.1v.098H5.895v.1h-.099v-.1h-.099v.1H5.6v-.199l-.099-.099v-.099.1l.1-.1h.098v-.099.1-.1.1h.396l.1-.1h.099-.1v-.099H5.896v-.198h-.099v-.099h-.099v-.1h-.396v.1h.1-.1.1v.099h-.199.1l-.1-.099h-.099.199v-.1h-.1v.1h-.099v-.1h-.1.1-.1v-.098h-.198l-.098-.1h-.396.099-.1l-.098.1h-.1v.099h.1-.1.1-.1.1-.1v.099h.1v.099-.099h-.1v.099h-.099v-.099h-.099v.199h.198-.099v.098h.1l-.1.1v-.1h-.099v.1-.1h-.099v.1-.1h-.099v-.099l-.099-.099H3.52v.1h-.198v.098h-.198v.1-.1h-.099v-.099h-.1v.1-.1h-.198.1v-.198h.099v-.496h-.1v-.098h-.098v.099h-.1V10.119H2.43h.1-.1v-.198h-.098v.1h-.397v-.1h-.099v-.099h.1v-.099h-.1v-.099h.1v-.099h.098v-.099h.1v-.099h.198v.1h.099v-.199h.099V9.13h-.1.1-.1V9.03h.1-.1.199v-.099h-.1v-.099h.1v-.594h-.1V8.04H2.43V7.84h-.1v-.099h-.098v-.099.1-.1h-.1v-.099.1-.1h-.099v.1-.1h-.099.1-.1v.1h-.198l-.099-.1v.1h-.099.1-.1v-.1H1.44h.1-.199v-.099h.1v-.099h.098-.099.1v-.099h-.1.198V6.95h-.099.1v-.099h.198-.1.1v-.099h-.1.1-.1v-.1h.1v-.098h-.1v-.396h-.099.1v-.1h-.1.1-.1V5.86h.1v-.198h.098-.099.1v-.396h.098V4.97h-.099v.1-.1h.198V4.87v.1-.1h.199v-.099h.099v-.199h.099-.1l.1-.098H2.727v.099h.198v.099h.099v-.1h.099v-.098h.1v.099h.098-.099v.099h.1v.099h.098v.1-.1h.1v-.199h.098V4.277H3.52v-.198h.1v-.1h.198v.1h.098v.099-.1H4.213v.1h.099v-.1h.198V3.98h.099v-.1h.099v.1h.099v.396h.099v-.1.1h.099v.099h.198v-.198h-.099.099v-.1.1h.198v-.1H5.7v.1-.198h.198v-.1h.198v.199h.098-.099H6.392h-.1v-.1h.1-.1V3.88h.199v-.098h.099v-.199h-.1v-.099h-.098V3.186h.099V2.89v.1-.1h.198V2.79v.1-.1h.099v.1-.1h.099v-.099h.198v-.199h-.1v-.198h.1v-.098h-.1.1v-.1h-.1v-.098h.1v-.1H7.383v.1h.098v-.1h.1V1.7h.098-.099v-.098h-.099v-.1h.1v-.198h.098v.1-.1h.1v.1h.198v.098-.099h.198v-.099.1h.198v.098h.099v-.099h.099v.1h.099v.099-.1h.099v.1h.099v-.1.1-.1.1h.099v-.199h.099v-.099.1h.099v.098h.099v.1h.099V1.7h-.099.099V1.8h.198v-.198h.198v-.1h.198v-.099h.198v.1h.1v-.397h.198v.1h.099v.098h.099v-.099.1h.099v.198h-.1V1.8h-.098V2.097h.198v.099h.198v.099h.099l.099.099h.198v.099h.099v.099h-.1.1-.1l.1.099v.1h.099v.098h.1-.1v.1h.594v.098h.1v.1h.098l.1.098v.198h.198v.1-.1.1-.1.1h.396v.198h.198v-.1h.198-.1V3.98h.1v.099h.099v.099h-.1.1-.1v.198h-.098v.099h-.198v.099-.1.398h.099-.1.1l-.1.098V4.87v.1h-.098v.198h.099v.098h.099v.198h-.1.1l-.1.1h-.098v.396h-.1v.099h-.198V6.356h.1v.099h.099v.099l.099.099h.099v.099h-.1v.495h-.198v.1h-.198.1v.098h.198v.198h-.1.1-.198v.1h.099V8.04h0" stroke-width=".05051448"/><path d="m5.302 11.407-.099.1-.099.098v-.198h.099v.1-.1h.1M4.113 11.308h.1v.1h-.1v-.1h0M7.594 10.506h.032v-.062h-.032v.062M8.339 11.16h.058v-.027H8.34v.027M4.991 10.838h.034v-.035H4.99v.035M5.575 10.858h.059v-.011h-.059v.011M11.184 9.104 11.17 9.1l-.001-.004.014-.014.005.018-.004.004M4.144 11.181h.02v-.02h-.02v.02M7.584 10.843h.022v-.016h-.022v.016M8.35 11.317l-.01-.012.014-.01-.004.02.002.004-.002-.002M5.655 10.858h.035v-.007h-.035v.007" stroke-width=".05051448"/><path d="M7.589 10.84v.005H7.58l-.002-.005.003-.008.007.009M7.497 10.767h.01v-.007h-.01v.007M5.653 10.857h-.005l-.012-.003.018.002h-.001M7.665 10.363H7.66l-.002-.01v.003h.003l.003.007M11.4 8.04h.013v-.004h-.014v.005M5.912 11.374l-.002-.003v-.005l.003.002.001.008-.002-.002M11.218 8.45h.002l.009.002-.011.002V8.45M11.487 9.026l-.004-.001.003-.005.004.001-.003.005M8.21 11.301h.005v-.007H8.21v.007M7.657 10.31l-.003-.006.004.002-.001-.004.002.007-.002.001M7.66 11.006h-.005l-.003-.004.008.004h0M11.48 9.082h.003l.002.005h-.003l-.002-.005M10.917 7.931h-.003l.002-.005.002.003-.001.002M16.343-1.288v5.465h-.047v.099-.1h-.099v-.098h-.099v-.1H16V3.78H15.9h.1-.1v.1-.1.1h-.198v.099-.1h-.099v.1h-.1v-.1h-.198v-.098h-.098v.099h-.198.099v-.1h-.1v-.198h-.098.099H14.71v-.099h-.198v.199h-.099v-.1h-.099v-.099l-.099.1v-.199h-.198v-.099.1h-.099.1-.199v.098-.099.1h-.099v-.1h-.099v-.099.1h-.099v-.1h.099-.099v.1-.1.198h-.198v.199h.099-.198v.099h-.198v-.199h-.396v-.099.1-.1.1-.1h-.199v-.198l-.099-.099h-.099v-.099h-.099v-.099h-.594V2.89h.1-.1V2.79h-.099v-.099l-.1-.099h.1-.1.1v-.1h-.1v-.098h-.198l-.098-.1h-.1v-.098h-.198v-.1h-.198V1.8h.1V1.502h.099v-.198h-.1v-.099.1h-.098v-.1h-.1v-.099h-.198v-.099h-.099V.908h.1V.81h.098V.611h.1V.412h.099V.215h-.1V-.081h-.198v-.1h-.099V-.28v.099-.1h-.099v-.098h-.198.1-.1v-.397H9.76v-.198h.1-.1.1v-.198H10.154v-.116h6.188" stroke-width=".05051448"/></g><path d="M-1.486 14.164h17.829V-1.288H-1.486v15.452m14.35-6.105-.026-.01-.01.005v.005l-.014.004-.004.007.004.007-.004.009.001.01-.012.015v.009l-.006.006.003.003-.005.003h-.006l-.002-.004-.008.005-.019-.004-.007.003.008.01.02.01-.003.014-.011.009-.01.002-.014.01-.002.016-.007.003v.007l-.004.005-.007.001-.005-.01-.019-.002v.008l.01.007.003.007-.004.003v.005l.001.007.004.006-.002.01.002.001-.017.013-.017.004-.004.016-.006.006-.011-.012-.008.005.003.007v.016l.003.005-.015.008-.004.009-.008.006v.01l.005.003.001.007-.006.006-.02.003-.005-.01-.003.01-.013-.002-.005.003.015.006.001.01.005.006-.007.006-.011.001-.006.006v.003l.003.004-.009.019-.005.003v.007l-.006.003-.008.01h-.02l-.014-.006-.01.001v-.02l-.009-.01.003-.009-.007-.007.003-.006v-.015h-.004l-.005-.006-.008.002.001.035.009.027v.015l.007.004.009.013-.005.005.003.007-.004.004.002.003-.006-.002-.003.003.004.006-.004.003h-.003l-.003.004-.014.001-.003-.008-.008-.007-.001-.011-.008-.01-.006-.018-.015.008-.002.01.008.021-.014.016.007.018v.009l-.01.013v.006l-.016.004v-.005l-.004-.001-.004.008h-.005l-.013.007h-.006l-.001.003-.004-.002-.007.007v-.017l-.004.007.002.004-.003.005.004.003v.007l-.005.001v-.006l-.01.002-.011.032h-.004l-.003-.01h-.008l-.002.014-.009-.002-.006.003-.01-.004-.01.002-.004-.002.001-.01-.003.008h-.004l-.009.006h.012l.003.004.01.002.003.005.006-.001-.002.006.005.008-.001.01.004.016-.018.018-.001.007.005.006v.006l-.007.001-.004.005-.01-.009-.01.001.003-.012-.003-.002h-.004l-.013.008-.006-.002-.004-.006-.009.003-.002.004v.007l-.007.009v.01l-.006.012-.006.001-.003.006-.005-.002-.017.008v.003l.003.001-.006.001.005.002v.005l.009.001.003.007.017.01-.003.004.001.003-.005.015-.012-.001-.007.004h-.006l-.009.012h-.01v.003l-.004-.001.002.01-.007.013-.005.001-.006.01.003.01-.011-.003-.01.011-.007.013-.012-.002-.01.007h-.005l-.003.004-.015.004-.003-.002V8.89l-.01-.003-.005.001-.003.012.007.021-.013.016h-.004l-.007.008-.002.02.003.012-.01.001-.014.01-.01.019h-.004v-.004h-.01l-.006.006-.013.007h-.005l-.003.007-.012.006-.006.01-.01.002-.011.01-.004.014-.01.015-.015.013-.006.003-.021-.003-.006.003-.002.005-.001.02.004.01-.008.019-.013.004-.006.01-.005.002v.015l.003.004-.007.022-.009.006v.013l-.004.008v.01l-.002.003.002.008-.003.003-.004.01-.002.01.004.013-.005.002-.002-.003-.005.001-.01.013-.005.014.003.02-.003.002-.021-.016-.01-.002-.006-.005-.01-.024-.019-.007V9.277l.003.003v-.011l-.005-.001-.004.017-.005.002-.011.012-.003.014-.007.01v.01l-.004.011-.015.002-.003-.008-.004-.003-.007-.003-.005.002-.004-.006.003-.016-.015-.004-.01.005v.007l-.007.007-.003.009h-.015l-.007.02-.012.002-.007.01-.001-.003-.007-.004h-.01l-.002-.002-.008.004-.008-.003-.003-.015.004-.01.016-.021.004-.01V9.3l-.007-.01.003.002h.003l-.005-.002-.002-.006-.003.014-.005.002v.01l-.008.002-.002.004-.008-.002v.01l-.004.008-.012-.006h-.01l.006.003.001.006.003-.002.01.007.003.022-.003.015-.006.007v.003h.004l-.01.03-.015.01-.006-.004-.012.001-.014.025v.014l.004.002.001.003-.016.023-.004.002h-.016l-.003.004.002.002-.001.004-.015.014-.021.004-.003.004h-.005v.004l-.005-.002-.008.002.001-.01-.006-.003v-.003l-.003-.002.004-.006-.002-.007.003-.006-.003-.002h.002l.001-.014.004-.007-.002-.009.005-.005-.001-.007.004-.002.001-.005-.002-.01-.006-.003v-.003l-.003-.003.006-.01.005.001.003-.005.005.005.008-.004.016.009.003-.001.005-.016-.007-.012.003-.005-.001-.005-.008-.007v-.008l.008-.006.005.001-.003-.006.003-.005.004.002.002-.002.007.001.002.004.006-.007-.004-.002V9.34l-.003-.001-.002.002-.005-.008.012-.017-.004-.008.002-.007-.004-.014.005-.02-.001-.006-.009-.017-.037-.042-.002-.007.013.004.006-.003.003-.005-.003-.01.007-.005.001-.005.01.016.009.004v.004l.007.002-.002-.016-.003-.004.002-.003v-.009l-.005-.01.003-.006-.002-.006.003-.005-.005-.005v-.008l.004-.003h.005l.008.008.001-.008-.003-.006.007-.01-.005-.007.003-.007h.004v-.003h.004l.004.018.008.001.004.013v-.004l.008-.006-.002-.003-.005.003-.002-.01-.003.002-.001-.004v-.005l.004-.003.001.001.005-.003.002.003h.004l.003.005.004.001.005-.009.005-.002.006.004-.008.006.005.006.007-.007.003.004.001-.007.008-.004-.005-.005-.004.002-.002-.004h-.006l-.002-.007h-.005v-.007l-.003-.002v-.003h-.006v-.006l.012-.004v-.007l-.003-.001.003-.01h.004l.003-.008.009-.007-.004-.011.01-.008.005-.012.018-.005.002-.009-.007-.015-.005-.004-.007.003.01-.01v-.007l.009-.003V8.93l.008-.01.002-.008-.002-.002-.006.004-.01-.003-.001.004-.006.002L11.5 8.9l-.004.008-.009.005.002.006-.006.003.001-.003-.003-.004-.009.004-.006-.002v.004l-.012.002-.014.011-.02-.013h-.006l-.019-.01-.011-.004-.008.004-.003.013-.005-.002-.01.005v-.005h-.01l-.002.005.002.004-.003.003-.013.006-.004-.002-.01.002-.004.01-.007.003v.005h-.004l-.001-.004-.005.003.01.01-.008.003-.004.005.002.002-.005.001-.007.009-.008-.004-.006.004-.005-.001v.012l.002.003-.012.01-.005.002-.001-.006-.007-.002-.011.002-.006.008.003.011-.003.016h-.008l-.004-.007-.013-.002-.011.004-.003-.006.002.008-.005.01.003.007.01.007v.006l-.01.007h-.006l-.002-.007-.009-.008-.021-.01-.018.004-.008-.002-.002-.002.013-.007.017-.017-.002-.01.006-.005.001-.01-.002-.005h-.005v-.006l.021-.013.017-.03.012-.01.009-.002.004-.005.009-.029.016-.014V8.88l-.008-.01v-.006l.01-.008v-.012l.005-.007.008-.001.008-.008.002-.01-.002-.01-.02-.037.003-.005.005-.002.001-.004-.001-.008-.007-.012v-.015l-.015-.025-.022-.023.005-.006.003-.001.003-.007h.009l.003-.002v-.016l-.008-.014-.018-.015-.011-.006-.011.006-.007-.003h-.008l-.006.019h-.003l-.011.017-.007-.003v-.007l-.007-.003h-.009l-.003.004h-.01l.02-.015-.002-.008-.008-.007h-.005l.013-.005v-.004h.015l.006-.006v-.012l-.004-.002.001-.002-.004-.007h.005l.002-.004.03.003.005-.004.003.002.012-.003.006.005-.002.006.002.006h.01l.011.008-.014.004.027.011-.006-.008-.001.002v-.004l.032-.023v-.006l-.006-.004-.003.003-.007-.002-.004.007h-.014l-.013-.007v-.006l-.005-.005-.003-.01H11.2v-.005l-.006-.002-.001-.004h-.008l-.002-.003.003-.001.003-.008h.003l.002.012.012.003.002-.007.004-.001.017-.018h.007l.007-.006.001-.03-.006-.016-.007-.006h.02l.004-.004h.006l.002-.002.003.008.004-.005h.012l.006.008.009-.003.004-.007-.002.007h.015l-.004-.008h-.017v-.003l-.006-.008.009-.006.005-.01.021-.015.007-.022v-.015l-.009-.017-.02.006-.006-.004-.002.003h-.005l-.005-.003v-.003l.005-.002.003-.007.007-.002.002-.01.013-.005-.002-.005.013-.003v-.01h.01l.002-.007-.003-.01.002-.004.006-.003.028-.002.028-.01.01-.013.002-.008-.002-.005.017-.005.005-.006.001-.01h.006l-.002-.005.003.001.006-.006-.002-.006h.002l-.006-.009-.004-.003-.004.003-.002-.008h-.006l.005-.005-.001-.012-.005-.007.012-.015.007-.001V8.14l.005-.004-.007-.017-.006-.002-.001-.004.007-.002.006-.006.008-.002.009-.01.005-.008.006-.025-.004-.013-.01-.015-.012-.001-.008-.007-.009.001-.001-.004.01-.003.003-.005.02-.012.02-.023.014-.007.005-.014.011-.017.005-.002v-.005l.013-.007-.01-.03.006-.007-.003-.01-.01-.006h-.005l-.015-.006.008-.016.018-.006.005-.01-.004-.023v-.009l-.006-.008-.007-.002.002-.004-.006-.009.003-.005.01-.002.002-.01-.012-.038-.012-.002-.003-.006.014-.014v-.009l-.006-.006.003-.004-.001-.002h-.016l-.015-.004h-.012l-.015.02h-.007l-.01.01-.003-.006v.006l-.006.002-.008.007-.005.013.002.004-.016.013v.006l-.006.005-.009.005-.008-.004-.008.003-.013-.003-.006.007.003.009-.006.007-.006-.002-.007.003-.006.01v.005l-.008-.002-.002.007-.008-.002-.01.005v.005l-.007-.002-.002.005.002.005-.013.016.006.003-.007-.001v.019l-.007.005.001.003h.006l-.007.007-.003.006.002.003-.015.015.005.01-.001.007-.007.011.001.004h-.015v.009l.002.008-.004.005-.006.004-.005.014-.018.006-.003.009.002.003-.003.002.002.006-.008.002-.003.008h-.014v-.006h-.005l-.004-.004h-.008l-.002-.004-.005.009-.004.001-.002-.006h-.005l.002-.004-.003-.002-.003-.018-.003.004.003.008-.005.018v.01l-.005.001-.02-.007-.019.007.006-.009-.01-.003-.005-.015-.004-.002-.005-.012v.012l.007.006-.004.02.005.013v.01l-.016-.007-.001.004-.01.003h-.014l-.005.013-.012-.005.002.012-.01.003-.001.005h-.01l-.002.007-.004-.003-.002.005.002.006-.003.004h-.003l-.004-.008.002-.002-.007-.007-.006.002V8.06h-.004l-.003-.005-.006.002-.003-.003.003-.004-.006-.004.009-.006-.004-.01h-.004l.003-.004-.007-.004.003-.01-.004-.011.002-.008.005.005.003-.01h.003l-.001-.008.004-.004-.004-.006.001-.01.003-.002v-.014l.003-.006-.008-.004.001-.004-.005-.008.006-.005-.002-.022.01-.005-.004-.006.004-.004-.005-.006.006-.005.001-.007.013.003-.003-.006.005-.009-.015-.005-.009.006-.013-.001.008.017-.002.012-.006.005-.002-.003h-.007l-.015.013-.001.009.002.01-.005.011-.006-.005.002-.007-.004-.004.004-.006-.003-.004-.017-.006-.006.003-.003-.006h-.007l-.003-.008-.006-.003v-.01l-.006-.008-.007-.001-.003.003v-.008l-.013-.004.001-.003-.002-.01.003-.003.009-.001.002-.003h.005v-.002l.01.001.004-.012v-.01l-.003-.01.005-.009v-.01l-.005-.01-.018-.013-.03-.014-.028-.008-.052-.02h-.003l-.025-.007-.021.007-.016-.002-.006-.004-.016-.002-.01.006-.017.003.004-.003v-.007l-.02.001-.003-.005-.01-.002-.004-.004v.013l.014.017-.001-.006v-.002h.001l.003.01-.008.004v.004l-.006.008-.008.001-.003-.005-.008-.002-.01.005-.007-.001-.003-.005h-.005v.003l-.007-.001-.005-.008h-.004l.01.02-.002.003.002.003-.015.006-.018.025.002.012-.003.009.003.003-.007.002-.003.005.003.003v.012l.003.001-.003.015H10.5l-.002.003-.008-.002-.005.006h-.004l-.001-.006-.01-.004-.013.002-.006.005h-.006l-.003-.002v-.007h-.003l.005-.006-.002-.004-.029-.011h-.026l-.006.002.002.004-.004.002-.021.002h-.006v-.004h-.023l-.016.005-.006.01.001.006-.003.007-.015.025-.012.003-.003.005h-.007l-.001-.006.002-.006-.005-.007-.007-.002-.004.001-.002-.005-.003-.001.001-.005-.02-.006-.002-.004-.008-.005-.056-.007-.027.002-.015.005-.006.006v.012l-.013.011-.003.012-.012.012-.011.006-.01.016h-.007l-.002-.005-.01.002-.002.004-.005.002-.003.015-.006.003.001.007-.003.003-.002-.003-.01.006-.007.012v.005L10 7.963 10 7.954h-.004l-.001-.007-.005.001-.002-.003.004-.002h-.004l-.003.006.003.008-.003.015-.013-.008-.006.006-.002-.003.004-.006-.004-.004h-.007v-.003l-.015-.003h-.01v.006l-.001-.004-.004-.001-.006.003v-.01l.006-.01-.01-.01-.02-.003-.013.004v-.008l-.002-.002-.007-.003-.005.004-.005-.002-.002.002-.002-.006h-.003v-.003l-.006.002-.004-.007-.012-.005h-.05l-.009.005h-.004L9.77 7.9l-.02.004-.007-.003h-.013l-.06-.014-.04.002-.006.01-.012-.001-.003.01-.004.002-.002-.005h-.002l-.006.002-.003.005h-.005l-.002.007.004.002.002.006-.004.004.001.004h-.006l-.006.01-.009.007-.003-.001-.005.002-.012.015-.006.013-.003.017.01.007.002.007-.003.003v.003l-.006.004-.002.011-.012.01-.003-.002.004-.008-.004-.002v-.007h-.006l-.004-.005-.019-.002-.013.004-.004-.002-.06.031-.049.016-.03.015-.008.001-.014.011-.015.022.005.014-.024.051-.003.01.003.003v.003l-.003.002v-.005l-.003-.002-.007.015-.006.003-.024.024-.034.02-.019.008-.032-.002-.036-.011h-.013L9.1 8.25l-.007.01-.002.01.015.001.003.007-.005.002-.003-.001-.009.005-.007.017.003.005-.005.018.002.007-.005.015.002.003-.003.028-.01.015-.007.068.006.019h.004l.001.012.004.001.001.011-.001.01.003.013-.007.014H9.07v.01l-.004.001v.04l.007.014v.01l.006.002-.001.03.008.011-.006.002-.001.008.008.008-.002.003.001.005h-.002v.005l-.006.004v.003l-.004.003v.004h-.01l-.002-.008.002-.004-.003-.01-.022-.005-.022.004-.033.018-.06.05-.011.004-.044.045-.045.065-.014.006-.033.026-.052.05-.036.048-.013.041-.006.004-.003-.005H8.66l-.009.01-.007.02v.015l-.003.001V9.07l-.003-.002.002-.013-.004-.008h-.01l-.016.01v.007l.017-.002.001.003-.004.007-.004.003.003.007.013.003v-.004H8.63l-.001-.006.003.004.012.001.003.004-.002.005h-.004l-.008.007-.001.006-.007.002-.005.015-.01.01-.007.02v.029L8.6 9.19l.001.015-.008.015.002.023.004.013-.004.016.007.012-.002.004.005.01-.004.011-.007-.001-.005.006v.005l.008.005v.01H8.6l-.002.01-.004.005h-.001l-.008.005v-.008l-.004-.004h-.007l-.006-.006.002-.01-.004-.006-.012-.001-.022.005-.005.006.006.006-.005.006-.003.013-.005.003-.012.014-.01.018h-.004v.004H8.49l-.01.012-.003.014-.013.005.001-.003-.004-.004-.003.002-.013-.004-.008.006.002.004-.012.01h-.006l-.003-.004-.006.002-.005.005v.004l-.006.011-.009.004-.002-.002h-.007l-.008.007-.002.008H8.37l-.006.014-.003.002-.002.012-.006.007.001.004-.003.003-.002-.007h-.004l-.008.001-.01.011h-.004l-.009.036.003.004v.017l.003.007-.006.004-.012-.002-.014.028-.006-.015-.008-.004-.002-.006-.005-.001-.025.002-.014.007-.008.007h-.003l-.008.004-.024.034-.023.005-.008.016-.01.011-.011.027-.006.009h-.005l-.02.032-.009.002-.01.011-.009-.001-.01.003-.041.031-.025.007-.013.006-.065.071-.02.028-.048.084-.06.06-.09.171-.017.036-.006.026-.008.052-.003.045-.003-.022.015-.092.013-.035.041-.078-.027.011h-.02l-.013.005-.053.035-.003.01v.022h.004l.002.004h-.005l.005.003-.005-.002.004.006-.003-.003-.001.004.018.022v.012l-.005.007.004.003.004-.002v-.008l.004.003.007.02-.002-.003v.014l.01.008.003.01-.002.013-.003-.004-.001.01.003.016.008.018.003.001v.01l-.004.004.003.03-.003.008-.012.005-.003-.001-.006.007H7.64l.011-.008h-.005.001l-.011.007-.007.012-.005.002.008-.007.002-.006.005-.004h-.004v-.001l.01-.003H7.64l-.005.002v.002l-.002.001-.002-.001.009-.006.01-.003.004-.015-.016.004-.004-.01h-.014l-.027.01-.007-.005-.02-.002-.035.015h-.019l-.007.009-.014.006.011.027-.003.023.003.023-.007.048.002.024.007.042.018.055.015.036.06.104.001.006-.003.002.001-.002v-.003l-.002.008-.01-.02-.022-.028-.018-.012-.003-.007.004-.001.001-.006-.004-.014.003.003.003-.005-.012-.022-.019-.012-.014.006-.01.017-.006.028-.005.01.014.009v.012l-.004.011-.007.007-.002.01-.009.017-.01.002-.008.01v.015l-.003.012-.003.001v.007l-.004-.007-.023-.002-.019.022-.002.007v.006l.006.007-.003.005.01.005v.005l.01.013.009.016.003.02.005.004h.005l.012.004.002.007.084.013.007-.003v-.007l.01-.012.001-.01.013-.006.005-.007.002-.02.006-.018-.001-.013-.008-.01.016-.005.003-.003v-.002l.001-.001v-.003l-.003.002.001.004-.004-.004.012-.01h.005l.008.006.005.034-.002.01h-.003l-.005.012-.013.003v.014l.005.006.01.005.008.01.007.004-.005.004-.005.022.004.01v.008l.005.008.008.001.006-.005h.007l.016.002.004-.002.004.005.01-.002v.003h.005l.006-.002.006-.007v-.019h.002l-.006-.006h-.006L7.675 11l-.003-.004.001-.012-.007-.004-.007-.012-.008-.007-.005-.028.006-.017.004-.005-.009-.008-.014-.004v-.005l-.005-.003v-.01l-.005-.006v-.01l.019.01.039.029.032.009.014-.001.01-.005.019-.016.006-.017.005.003.007-.001.049.057.028.029.02.015.018-.004.01-.01.023.01.022-.003.007-.005-.001-.014.007-.007.01-.009h.02l.015.02.004.002.004-.003v.004h.003l.001.034.007.017v.008l.005.004.007-.002v.003l.003.003-.006.002v.004l.013.01.006.003v.005l.011.02.006.004.008-.004.008.011.032.006.005.008.006.002v.005l.005.005.01.02h.001l-.003.009h.003l-.001.003h-.005l-.004.007.007.012h.003l.006.019-.006.003-.008-.006-.005.003-.006-.001-.015.014-.002.006.006.008-.004.004.004.006-.002.012.018.02.007.012-.001.01h.003l-.016.017-.014.004-.011-.005H8.09l.015.012.007.025.016.015v.007l-.006.003-.02-.004-.002-.004-.023-.003-.01-.008-.022-.004-.011.002-.007.005-.002.007.002.005-.005.007-.012-.004-.008-.011-.012-.006-.02-.003-.003.001-.017-.006h-.006l-.004.007-.03.001-.015-.01-.02.008-.005.006-.003.01-.003.032.003.015.012.013-.001.004-.007-.008-.018-.007-.036-.005-.008.002v-.003l-.005-.003-.012-.002-.012-.014-.015-.004-.006-.005-.002-.012-.005-.006-.02-.007-.002-.002.008-.007-.002-.006-.006-.005h-.006l.001-.002-.006-.005-.012-.004-.005-.008-.012-.001-.006.004-.004-.01-.006.005-.004-.004-.023.006-.013.006-.008.009-.017.011h-.014l-.001-.007-.008-.004-.004.004v-.005l-.004-.004h-.008v.003l-.003-.001h-.002l.002.003h.003v.003l.012.002.006.008-.001.004-.01-.008-.008.005-.002.005.004.003.004.014-.001.005.005.03h.004v-.003l.004.003-.006.006-.003-.001-.004.007.004.005h.003v.008l-.004.004.005.007-.002.006h.006l-.002.008-.002.001-.005-.006-.002-.013-.006.001-.006.007.002.003.003-.001v.004l-.007.006-.004.014-.01.01-.012.004-.025-.008-.012-.015-.004.001-.002.008-.012-.001-.007.003h-.01l-.012.007-.016.018-.017.014-.03.02-.009.002-.006-.01-.016-.006-.004-.006-.017-.003-.003-.002H7.33l-.001-.002-.013.001-.005-.006-.005-.003-.022-.037v-.003l.005-.001v-.004l-.015-.016.003-.007-.005-.013-.016-.016-.007-.019-.023-.01-.029-.009-.03-.004-.014.005-.005-.004v-.007l.016-.013.003-.016.003-.004.007-.003.01.01.004-.015.015.007-.006-.009.004-.009v-.007h.004l-.004-.003.01-.008h-.007l-.006-.006H7.19l-.001.01-.006.005.002.004-.017.003-.01.01h-.006l-.002-.004-.004.006.004.004-.003.005.006.002-.008.022-.005.005-.022.004-.029-.016v-.01l-.004-.006-.013-.003-.01-.004-.008-.007-.027-.01-.023.002-.028.007-.025.013-.003.006v-.006l.014-.008v-.003l.003.002.029-.011-.006-.003-.005-.007-.007.003-.004.007-.008-.006-.008-.013-.014.003.005.01v.006l-.003.005.001.003h-.002l.001.001-.002-.001-.005.008.01.012-.012.013.005.026-.01.01-.002.015.003.013-.007.003-.001.004-.005-.005.002-.001-.003-.004-.006.001v-.007l.004-.002-.003-.003.001-.005h-.002l-.005-.003.003.008h-.007l-.002.004-.005-.002-.004.003.006.004.001.009-.004.003-.005.01h-.01l-.004.005.006.004h.005v.005l.003-.004.014-.004-.003-.003.004-.002v-.006l.009-.004.018.013-.004.004.008.012-.002.003-.013-.008h-.006l-.002.009-.006.002h.009l.004-.005.006.006.001.008.007.003-.002.006-.012.005v.005l.003.002.001-.002.002.004-.002.004-.005-.001-.004.003-.022-.003-.011.005-.012-.003-.004-.007-.005-.001-.017.005-.025.001-.003.006-.013.001h-.01l-.011-.006-.007.006-.007-.001-.001.004h-.014l-.007.008-.005-.001-.009.006-.019.005-.01.013-.006.034-.022.018-.005.008-.006.048-.013.015-.009.02v.021l.006.013-.005.012H6.64l-.004.003-.003-.016-.004-.003-.046-.01-.012.002-.006.005-.005-.001-.02.007-.007.007-.002.005h-.005l-.006-.014-.014-.005-.024-.024-.016-.002-.014-.005-.042-.006-.003-.02-.007-.005-.005-.012-.006-.002.003-.003-.002-.004-.018-.011-.003-.004v-.004l-.01-.008-.013-.004-.008.002-.004-.004.002-.003-.002-.003-.011-.001-.004-.003.005-.014-.001.006.005-.002v-.005h.01l-.006-.01-.005.002.002.005-.012-.006-.004.003-.004-.008h-.006l-.003-.01h-.01v-.005l-.007-.004-.007.009v.005l.002.005.014.007-.003.006-.007-.004-.001.003.008.008h.004l-.003.007.013.006.008.01-.001.004-.006-.006-.011.004-.024-.006-.02.003-.02.005-.012.01-.026.004-.033.017-.011.012-.005.016.004.006v.008l.002-.003.002.01-.003.032-.01.011-.003.008-.014.008-.004-.001-.004.005-.01.002-.005.008-.002-.002-.02.003-.034.012-.01-.003h-.04l-.01.004-.014-.002-.009.002-.002-.005H5.95l-.008.006-.04.012-.005.01-.007.005-.016.003-.005.005-.01-.005-.002.005-.007.005h-.005l-.003-.003-.043-.005-.01-.009-.032-.013-.026.004H5.7l-.021.01-.007.006-.001.006h-.01l-.005.006-.006-.001-.009.005-.015.002.002-.007.008-.005.002-.015-.03-.041-.002-.015h.002v-.006l-.002-.004-.015-.019-.009-.002-.008-.01-.008-.002.004-.009-.008-.014v-.012l-.003-.002v-.006l-.005-.004.007-.013-.003-.006v-.01l-.04-.04-.014-.024v-.012l-.009-.012-.001-.017-.008-.008-.004-.01-.014-.014.007-.003.044.029.026-.002.008-.009.007-.002.008-.01h.014l.006-.002h.021l.02-.015.014-.004.009-.009v-.018l.005-.004.006-.01.003.001.004-.006.01-.002.004-.01.007.006h.01l.003-.007.005.007.01.002.008.005.01-.003.05.011.023-.005.015-.015.013.008.02.022.016.01.019.005.02-.002.005-.004v-.01l.026-.005.048.02.005-.003h.015l.004-.004h.008l.003-.004.007-.001.012-.016h.01l.006.006.005-.002.016.006.008-.001.003-.004.013.003.007-.004h.01l.013-.008.017-.025.004-.009h.017l.007-.018.012.002.019-.005.013.004.006-.01.012.004.001.005.011-.001.007-.016v-.026h-.005l-.005-.005-.007-.002-.002-.008-.007-.004h-.011l-.016-.025-.012.001-.007-.003-.002-.003.002-.005-.003-.01-.012-.001-.01-.013v-.009l-.014.02h-.007l.005-.003-.006-.014v-.011h-.006l-.004.01-.006.005v.003h-.006l-.004.004-.003-.004.001.006-.013.013h-.006l-.005-.004-.002.003-.004-.004.002.004-.001.003-.017-.001-.007.013h-.004l-.037-.013-.008-.008-.005-.015L6 11.192l-.007-.012-.008-.004-.012.005v.003l-.01.003-.01-.004-.02-.001-.052.004-.003-.007v-.017l-.01-.01.015-.002.006-.011.01-.002.002-.014.002-.003-.002-.011-.012-.005-.019-.025-.005-.012-.012-.005-.002-.007.006-.006v-.012l-.013-.033-.024-.038-.035-.035-.017-.008-.03-.002-.014-.02v-.004l-.004-.008.005-.006-.001-.005-.036-.025-.01-.011.002-.003.004.003.004.006h-.003l.009.004.003.005.01.004h.006l-.022-.03-.005-.013.001-.007H5.68l-.012-.016-.016.003-.014-.002-.002.014-.01.03-.008.003.001.003-.004.006-.006-.003v.001-.002h-.003l.003.003-.007-.002-.003.001.001.002h-.012l-.005-.007-.002-.012-.002.013-.006.003-.04-.016-.043-.01h-.004l-.002.007-.003-.004-.006-.002h-.036l-.015.01-.016.001-.003.007h-.01l-.02.011-.01.004-.01-.003-.008-.009-.011.013-.004.008v.009l.006.014.008.008.01.006h.01l-.005.017.001.004-.002-.002-.009.005-.007.012.003.009h.013l.017.005-.013.011-.005.01v.007l.003.003v.003l-.009.01-.009.004-.033-.008h-.009l-.02.014h-.02l-.016.009-.01-.004.004-.007-.007-.004.005-.008-.004-.008.02-.007.005-.008-.006-.014-.013-.011-.021-.002-.036-.011-.023.006-.02.01-.007.001-.017-.008h-.008l-.008.007v.01l-.014-.002-.009-.007.018-.002.003-.015.006-.005h.01l.018-.007.012-.009.021-.002.02-.012.004-.001.012.007.047-.013.005-.007-.001-.003.001.002.004-.002-.001-.003.005-.001-.003-.016-.005-.012-.012-.001-.026.004-.017-.002-.02.015-.013.003-.022.011-.009-.005-.008.002-.016-.018-.018-.006-.01.007.009-.007.001-.006-.01-.011-.006-.002v-.004l-.007.002-.015-.003-.004.004v-.007l.009-.015-.007-.007-.002-.02-.005-.004-.018-.006-.02.006-.019-.014.002-.005-.005-.005-.024-.01-.069-.009-.052-.01-.116-.062-.05-.022-.064-.022-.082-.018-.05-.004-.022.001-.032.007-.064.028.003-.003-.001-.006-.009-.005-.006.003.008.003.002.004-.015.01-.027.012-.058.043-.05.033-.036.033-.018.002-.006.007-.01.003-.001.008-.006.002.024.007.002-.001-.001-.006.003.007.003-.002h-.002.005l-.003.025.004.005h.005l-.004-.002-.002-.005.003.005.005.003-.002.01.005.005.001.005-.003.007-.01.005v.02l.006.001.005.011h.008l.01.011h.019l.019.004.01.005.002.01.006.005.003.01-.01.032.006.012v.007l-.015.003-.015-.018-.003-.01-.004-.002-.059-.003-.022.012-.007.007h-.003l-.003.005-.017.015-.006-.005h-.014l-.012.008-.003-.002-.008.003-.012-.015h-.004l-.013-.01-.007-.015-.004-.002.002-.003-.001-.006-.006-.005.009-.007v-.007l.005-.002-.003-.01h.006l.003-.003V10.9l.006-.002.005.002.001-.004.01-.005-.006-.009-.013-.004-.015-.013-.01.007H4l.001.005-.002.009-.01.006-.002.004.002.003.002-.001-.01.012-.021.012-.013.014-.016.03.007.012.005.004-.008.003-.002-.005-.01-.007-.006.005-.005.011V11l.003.03v.054l.006.014.01.011.024.008.012-.003v.009l.002.003.005.002.009-.003.004-.02.007-.006.007-.012.03-.018.009.004-.005.032-.007.016v.005l.003.002.006-.001.01-.008.01.002.004-.003-.011-.018v-.009l-.007.005.005-.005.007-.004.02.002.012-.003.002.002.007.019-.015.015-.014.008-.01.02v.007l-.007.005v.004l.007.003-.009.012v.007l.003.003.014.003.01.016-.005.038-.007.013-.012.01-.014-.01-.003-.01-.007-.006-.006-.017-.01-.012h-.006l-.009-.005-.025.004-.007.004-.009.038-.007.008-.007-.005-.02.007-.004-.007v-.015l.008-.007-.002-.005v-.005l-.001.004-.015-.005-.022.007-.01.006-.027.005-.014.008-.01.011-.033-.01h-.034l-.018-.006-.019-.003-.003-.007.01-.003.01-.011v-.015l-.005-.019-.017-.018.01-.02-.005-.01.003-.009-.01-.024.001-.003-.004-.017-.024-.017-.043-.02-.063-.006-.072.008-.037.014-.007.006-.02-.004h-.029l-.009.006-.02-.003-.02.006-.033.019-.024.032.002.01.007.01.005.005h.007l.003.01.013.011.003.007-.002.012-.016.016-.015.023-.005.002-.02-.007h-.01l-.012-.01-.013-.03-.033-.012-.01-.001-.042.018-.023.022-.004.007.001.01.016.016-.01.019-.014-.009-.01.001-.017-.005-.018-.02-.02-.008-.002-.012-.011-.009-.007-.016-.017-.013-.023-.005-.022-.031-.006-.002-.023.002-.04.014-.01.007-.01-.002-.008-.01-.01-.005v-.015l-.005-.004-.02-.013-.01-.002-.014.005-.006-.012-.005-.004h-.007v-.003l-.034-.001-.022.003.049-.046.06-.006-.01-.06.035-.063.003-.073.016-.106-.033-.067.059-.05-.046-.08-.013-.074-.043-.058-.014-.064-.06-.006-.057.047-.053-.034-.052-.048-.004-.06-.002-.08-.047-.038-.076-.01-.003-.081L2.414 10l-.094-.024-.087.046-.083.002-.058.024-.06-.025-.056-.035-.066-.05-.023-.06.038-.066-.014-.071-.07-.01v-.098l.06-.038.062-.073.049-.045.088-.005.035-.054.055-.068.06-.044.025.054.055.022.05.032.048-.036.024-.064-.012-.059.055-.084-.017-.076.031-.07.095.006.035-.078-.062-.073.067-.048-.023-.078.019-.075-.04-.129.036-.13-.007-.091-.066-.065-.03-.07.007-.066-.052-.058-.044-.043-.016-.066-.034-.048-.015-.058-.03-.06-.047-.058-.064-.01-.032-.07-.082-.065-.072-.014-.073-.022-.06-.039-.006.105-.057.038-.067.008-.007-.058-.074-.004-.075.041-.048-.041-.093-.042-.025-.059-.065.01-.054.032-.024-.012-.001-.068.06-.025.032-.064.072.002.02-.068-.004-.06.057.02.066-.063-.002-.06-.02-.095.015-.069-.034-.056.059-.035.102.006.065-.058-.031-.066-.015-.06-.015-.076.032-.067-.056-.023.015-.091.021-.08-.015-.061-.005-.059-.023-.082-.017-.062-.012-.068-.032-.089.006-.12.057-.08.039-.061.023-.055.015-.087.018-.089L1.81 5.4l.043-.055.023-.054.06-.077-.017-.071.002-.074-.034-.052.062-.058.078-.04.115-.044.054-.028.063-.013.037-.073v-.06l.068-.076.02-.093.002-.06.07-.034.09.04.074.02.067.006.118.027.061.04.05.075.046.042.064-.029.023-.058v-.06l.057-.024.061-.004.05-.049.058.092-.053.074.017.06.063.023.009.085.06-.023.09.049.034-.054.026-.065.032-.054v-.074l.042-.044.035-.052.007-.078-.026-.061-.081-.051-.02-.063-.014-.073.014-.066.085-.022.01-.059.057-.07.063.012.065.036.02.069.1.073.07-.01.07-.02.076-.014.063.007.037.067.094.008.012-.064.076.023.056-.047.015-.057.046-.04.077-.072.066-.023.068.03.01.07.07.02.026.053-.048.06-.015.06.004.069.028.06.07.027.007.068.066.016.078.005.056.033.086.023-.005-.082.02-.069-.051-.036.029-.068.101.016.13-.01.058-.02.092-.012.057-.025.05.062.037-.078.023-.056.08-.024.136-.053.099-.028.059.052.03.057.014.068.073.028.072-.022.065-.04-.015-.09-.014-.058-.017-.062.068-.026.077-.048.047-.06.06-.037.042-.05-.013-.098-.038-.046-.062-.055-.045-.04-.023-.078-.006-.076-.014-.063.039-.06.033-.07.02-.166.043-.045.097-.042.038-.049.12-.013.055-.057.118-.051.076-.019.058-.097-.027-.062-.056-.02-.001-.062.005-.064.014-.07.033-.08.018-.078-.013-.082-.01-.097.041-.06.103-.056.09.003h.083l.052.051-.008.081.071-.014.051-.042.041-.054.032-.073.018-.078.01-.07-.039-.059-.087-.012.019-.061.046-.05.028-.098.054-.024.035-.057.061.037.151.044.036.095.116-.03.017-.067.064-.009.057.026.05.043.072-.007.06-.007.053.033.064-.065.073.09.053.028.078.066.055-.039.066.02.07-.003.051.042.041-.08.028-.057.068-.044.02-.068.061.059.034.08.055.062.085.09-.018.065.046.081.074.02.073-.005.069-.01.007-.064.012-.071.084-.038.057-.02.054-.104.067-.01.104-.01.06-.037.062-.014.05.048.076.018.054.034-.006-.128-.015-.07v-.092l.042-.043.03-.078.066-.002.047.068.043.047h.077l.052.042.071.02.093-.008.008.065.001.08-.039.045-.014.073-.037.071-.052.059-.003.064-.033.055-.008.067-.008.07-.029.059.004.079.076.021.047.035.072.059.06.004.062.03.07.037.05.04.066.019.055.045.028.071.084.008.058-.023.064.066.04.047.01.069.003.066.056.054.023.056.054.038.017.067.062.074.07.038.094.006.07-.013.081-.034.06.031.068.018.067-.002.057.083.046.049.115.054.064.092.014.098.034.06.015.062.073.029.118.036.07.008.045.051.068-.028.072.005.076.027.015.082.052.038.095.007.062-.01.083-.03.093-.014-.012.027-.035.059.007.069.011.062.013.06.056.028.02.06.04.06-.014.06.064.022-.08.022-.012.07-.06-.001-.027.067.006.072-.056.056-.057-.024-.061.02-.062.01-.038.05.028.063-.009.076.02.058.042.046.014.064-.005.076-.051.03-.062.003-.045.084.014.063.054.03.05.059.005.064.07.037-.017.058-.018.102-.023.083-.056.053-.043.05-.066-.002.012.058.059.03-.003.065.01.06.002.063-.054.039-.067.039-.054.04-.086.006-.053.07-.006.065-.013.068-.006.065.051.055.09.046.057.029.042.074-.049.044.037.048.068.013.073.061-.05.077-.045.05.065.17-.009.075.006.079-.018.067-.032.056-.085-.014-.055.03-.07.037-.076.02-.06.072.08.064.065.01.087.018.002.066-.028.053.005.06-.08-.013-.052.046.052.065.011.08.04.05.01.067.002.103" fill-opacity=".4" stroke="none" fill="#fff"/></g></svg>