<svg height="249.6" version="1.2" xmlns="http://www.w3.org/2000/svg" baseProfile="tiny" width="288" viewBox="0 0 15 13"><g fill-rule="evenodd" stroke-linejoin="bevel" stroke="#000" fill="none" stroke-linecap="square" font-weight="400" font-family=".AppleSystemUIFont" font-size=".903"><path d="M-1.981-1.981h19.81v17.829h-19.81V-1.981" stroke="none" fill="#fff"/><path d="M0 0h14.857v13H0V0" stroke="none" fill="#fff"/><path fill="none" d="M0 0h14.857v12.876H0z" fill-opacity="0" stroke="none"/><path d="M5.769 2.863H5.471l-.098-.198v-.496h.198l.099-.099.099.1h.099l.1.099.098.099v.396l-.099.099H5.77h0" stroke-width=".05051448" stroke="#bdd66b" fill="#bdd66b"/><path d="M-1.486-1.288h17.829v15.452h-4.83V13.857h.1v-.198h.099V13.361H12.009v-.494h-.099v-.1h-.1v-.396l.1-.099.099-.099h.1v-.198h.098v-.099h.1v-.099h.594v-.099h.198V11.381h.099l.099-.1v-.098h.099v-.1h.099v-.098l-.1-.1h.1v-.098h.099v-.1h.099v-.198l.099-.099h-.1v-.099h-.098v-.198h-.198v-.396h-.1v-.099h-.098V9.4h-.1v-.099H13V9.003h.099v-.098h.099v-.1h.099V8.51h.099v-.496l.099-.099h.099l.099-.297V7.42h-.1V7.32l-.098-.099h-.198l-.198.099-.1-.099h-.198l-.099.099h-.198l-.099.1h-.495l-.1.098-.098.1h-.396v.198h-.1l-.098-.1v.1h-.198l-.1.098h-.099v.1h-.198v.098l-.099.1v.098H10.127v-.099h-.099v.1l-.099.198v.099h-.198l-.1.099h-.098l-.1-.1h-.197l-.1.1h-.792l-.099.099v.198h-.099l-.198.099h-.099l-.1.099-.098.297h-.198l-.1-.099h-.197l-.1.1.1.098V9.896l-.1.098-.098.1v.098h-.1v.1h.1v.098l-.1.1h-.495v-.1h-.099l-.099-.099h-.099l-.099.1v.099h-.099v.099h-.099l-.099-.1-.1.1h-.396l-.098-.1v.1h-.1v.198h-.198v-.198l-.099.099h-.198v.099l-.099-.1h-.099l-.099-.098h-.198v.099l-.099.099H3.69V10.489H3.59v-.099h-.397l-.098.1H2.797l-.098-.1-.1.1-.099.099h-.099l-.099.099H2.005l-.099-.1h-.099v-.594h-.099v-.099l-.099-.099v-.198H1.51V9.5l-.396-.297v-.198H.916v-.198l-.1-.1.1-.098.099-.1V8.41l.099-.1v-.099l.099-.099v-.099h.099v-.198h.099v-.099h-.1v-.099l-.098-.099V7.42l-.1-.099V7.022l.1-.098v-.1h-.1l-.098-.098v.099h-.1l-.098.099h-.1v-.495H.62v-.1H.42v-.198h.1v-.198l.099-.099v-.198h.099v-.198l.099-.099V5.24h.099v-.199H.618l-.099.1H.321v-.198H.024l-.198.099h-.099l-.099.099h-.099l-.099-.1v-.098l-.1-.1-.197-.098v-.1h-.1l-.098-.098-.1-.1V4.35H-1.46v-.397h-.025v-5.24H.957l.157.189.297.693.099.595-.1.99V4.051l.1.496.198.396v.495l-.198.693-.1.694.1.594.198.495.198.198H2.6l.397-.099.198-.297.099-.297.099-.594-.1-.595v-.396l.1-.396.198-.198.396-.297.396-.1H6.264l.396-.098.397-.297.396-.1.297-.297.396-.396.198-.198.198-.198.297-.495.298-.297.198-.1h.099l.198.1.198.099.396.297h.396l.397.099h.297l.297-.1.198-.098.198-.198.198-.297.198-.298.297-.396.397-.495.396-.297.792-.297.693-.595.397-.297.495-.198.47-.094v-.59H-1.485m17.829 15.452V12.6l-.372.465-.1.594v.505h.472" stroke-width=".05051448" stroke="#96cb65" fill="#96cb65"/><path d="M-1.486-1.288h17.829v.59l-.471.094-.495.198-.397.297-.693.595-.792.297-.396.297-.397.495-.297.396-.198.298-.198.297-.198.198-.198.099-.297.099h-.297l-.397-.1h-.396l-.396-.296-.198-.1-.198-.098h-.1l-.197.099-.298.297-.297.495-.198.198-.198.198-.396.396-.297.298-.396.099-.397.297-.396.099H4.382l-.396.099-.396.297-.198.198-.1.396v.396l.1.595-.1.594-.098.297-.198.297-.397.1H1.906l-.198-.199-.198-.495-.1-.594.1-.694.198-.693v-.495l-.198-.396-.1-.496V1.18l.1-.991-.1-.595-.296-.693-.157-.189h-2.443m7.552 3.755v-.1l-.099-.098-.099-.1h-.099L5.67 2.07l-.1.1h-.198v.495l.1.198H5.967l.1-.1V2.467h0" stroke-width=".05051448" stroke="#a9d168" fill="#a9d168"/><g stroke-width=".051" stroke="#fff"><path d="M16.343 14.164h-3.64V13.956h.098v-.099.1H13.1v-.397h.198v-.199l.099-.098h.198v-.1h.099v.1h.099v-.1h.099-.1.1v-.098h.198v.099h.1v.099-.1h.198v.1h.098V12.965v.1h.1v-.1h.098v-.098h.198v.099h.199v.099h.099v-.1.1h.198v.198h.099v.099h.099v.198h.198v.198h-.1v.198h-.098v.198h.198v-.099H16.07v-.099h.199l.074.075v.133" stroke-width=".05051448"/><path d="M16.343-1.288v15.319l-.075-.075h-.198v.1H15.772v.098h-.198v-.198h.1v-.198h.099v-.198h-.198v-.199h-.1v-.098h-.098v-.198h-.198v-.1.1h-.1v-.1h-.198v-.098h-.198v.099h-.099v.099h-.099v-.1V13.264h-.099v-.1h-.198v.1-.1h-.099v-.098h-.199v.099h-.098.099-.1v.099h-.098v-.1h-.1v.1h-.198l-.098.099v.198h-.198v.396H12.8v-.099.1h-.099V14.163h-1.188V13.857h.099v-.198h.099V13.361H12.009v-.494h-.099v-.1h-.1v-.396l.1-.099.099-.099h.1v-.198h.098v-.099h.1v-.099h.594v-.099h.198V11.381h.099l.099-.1v-.098h.099v-.1h.099v-.098l-.1-.1h.1v-.098h.099v-.1h.099v-.198l.099-.099h-.1v-.099h-.098v-.198h-.198v-.396h-.1v-.099h-.098V9.4h-.1v-.099H13V9.003h.099v-.098h.099v-.1h.099V8.51h.099v-.496l.099-.099h.099l.099-.297V7.42h.198V7.32h.099l.099-.099v-.198h.1v-.198h.098v-.1h.198l-.099-.098V6.329h-.099V6.23H13.99v.1h-.1v.099h-.198v.099h-.098v-.1h-.1V6.33l-.098-.1v.1H13h.099v-.1h-.1v-.198H12.9v.1-.1h-.099v-.198h-.099.1l-.1-.099v.1h-.099v-.199h-.099v.1h-.396v.198h.1v.098h-.1v-.099h-.099v.198-.099.1h-.099v-.1.1-.1.1h-.1v-.1.1-.1.1h-.198.1v.098h-.1v-.099.1-.1h-.098v.1h-.1v-.1h.1H11.216v.1-.199.1h-.098v.098-.099h-.1v-.099h-.098v.1-.1h-.1.1l-.1-.099v.1-.1.1-.1h-.099v-.099h-.099.1-.1v-.099h-.099l.1-.099h-.1v.1-.1h-.099.1-.1.1-.1v.198h-.099v-.099h.1v-.099h-.1v.1h-.099v-.1.1h-.099v-.1.1h-.099v-.1H9.93v-.099h-.1v-.099.1h-.098v-.199h-.1V5.24h-.494v-.099h-.1v-.198l-.098-.1v-.198h-.1.1v-.098h.099v-.1.1-.397h-.1v-.099H8.84l-.198-.198v-.099h.1-.1v-.099h-.198v-.099h-.099v-.099h-.099v-.099h-.099v.1-.1h-.198V3.26h-.199v.1-.1l-.098.1v-.1.1h-.1V3.06h-.098.099v-.1h-.1.1v-.098H7.254v.198-.1h-.098v.1h-.198v-.1h-.199v.1H6.66h.1v.099H6.56v-.099H6.264v-.1h-.099.1-.1.1v-.098h-.1.1v-.1h.098v-.098h-.099v-.198H5.967v-.1h-.099V2.07h-.099v.1H5.57v-.1.1-.1h-.198v.1h-.098v.396h.099v.099h-.1v-.1.1h-.198v.198h.1-.1.1-.1v.099h-.098v.099h.099v.199h-.1v-.1H4.68v-.099H4.58v-.198h-.198v.099h-.396v.099h-.099v.099H3.69v.1H3.49v.198h-.098v-.199h-.198V3.16h.099v-.199h.099V2.666h.099v-.198h.099v-.1h-.1V2.07h.1v-.099h-.1v-.198h.1v-.198h-.1v-.099h-.098v-.198H3.094V1.18h-.098V1.08h.099V.981h.198v-.1h.099v.1h.099V.783h.099-.1v-.1.1-.1h-.098.099-.1V.586h.1V.189h.099v-.1h-.1V-.01h-.098v-.099.1l-.1-.1-.098-.099h-.1.1v-.099h.099l-.1-.099h.1V-.703h-.1v-.099h-.098V-1h.099v-.099h-.1l.1-.1h.198v-.089h12.95" stroke-width=".05051448"/><path d="M14.485 6.726h-.198v.099h-.099v.198h-.099v.198l-.099.099h-.1v.1H13.595v-.1l-.1-.099h-.198l-.197.099-.1-.099h-.198l-.099.099h-.198l-.099.1h-.495l-.1.098-.098.1h-.396v.198h-.1l-.098-.1v.1h-.198l-.1.098h-.099v.1h-.198v.098l-.099.1v.098H10.127v-.099h-.099v.1l-.099.198v.099h-.198l-.1.099h-.098l-.1-.1h-.197l-.1.1h-.792l-.099.099v.198h-.099l-.198.099h-.099l-.1.099-.098.297h-.198l-.1-.099h-.197l-.1.1.1.098V9.896l-.1.098-.098.1v.098h-.1v.1h.1v.098l-.1.1h-.495v-.1h-.099l-.099-.099h-.099l-.099.1v.099h-.099v.099h-.099l-.099-.1-.1.1h-.396l-.098-.1v.1h-.1v.198h-.198v-.198l-.099.099h-.198v.099l-.099-.1h-.099l-.099-.098h-.198v.099l-.099.099H3.69V10.489H3.59v-.099h-.397l-.098.1H2.797l-.098-.1-.1.1-.099.099h-.099l-.099.099H2.005l-.099-.1h-.099v-.594h-.099v-.099l-.099-.099v-.198H1.51V9.5l-.396-.297v-.198H.916v-.198l-.1-.1.1-.098.099-.1V8.41l.099-.1v-.099l.099-.099v-.099h.099v-.198h.099v-.099h-.1v-.099l-.098-.099V7.42l-.1-.099V7.022l.1-.098v-.1h-.1l-.098-.098v.099h-.1l-.098.099h-.1v-.495H.62v-.1H.42v-.198h.1v-.198l.099-.099v-.198h.099v-.198l.099-.099V5.24h.099v-.199H.718v-.098h.099v-.1h.198v-.098h.099v-.1h.099v-.098.099h.099v-.1h.198v-.098.099-.1h.099v.1-.1.1-.1.1h.199-.1.198v.099h.1v-.1h.098v-.098h-.099V4.05v.1l.1-.1V3.754h.098-.099l.1-.099h-.1l.1-.099v-.099h.098V3.26h.1v.1H2.6l.099-.1h.099l.099.1v-.1h.099V3.16l.099.1v-.1.1H3.392v.198h.099v-.199h.198V3.16h.199v-.099h.098v-.1h.396v-.098h.198v.198h.1v.099H4.976v.1h.099V3.06h-.1v-.1h.1v-.098h.099-.1.1-.1v-.198h.199v-.1.1h.099v-.1h-.1V2.17h.1V2.07h.198v.1-.1.1h.198v-.1h.099V2.368h.1v.099H6.263v.198h.1v.099h-.1v.099h-.099.1v.099h-.1.1-.1.1v.099H6.56v.099h.198v-.099H6.66h.1v-.1h.198v.1h.198v-.1h.099v.1-.198H7.552v.099h-.1.1v.099h-.1.1V3.358h.099V3.26v.1l.099-.1v.1-.1h.198v.1h.198v.098-.099h.1v.1h.098v.098h.1v.1h.198v.098h.098-.099v.1l.198.197h.1v.1h.099v.396-.1.1h-.1v.099H8.84h.1v.198l.099.099v.198h.099v.099h.495v.1h.099v.198h.099v-.1.1h.099v.098h.1v.1h.098v-.1.1h.1v-.1.1h.098v-.1h.1v.1h-.1v.098h.1v-.198h.098-.099.1-.1.1v.1-.1h.098l-.099.1h.1v.098h.098-.099.1v.1h.098v.098-.099.1-.1l.1.1h-.1.1v.098-.099h.099v.1h.099v.098-.099h.099v-.099.198-.099H11.514h-.1v.1h.1v-.1h.099v.1-.1.1h.099v-.1h-.1.199v-.099.1-.1.1h.099v-.1.1-.1.1h.099v-.1.1-.199h.1v.1h.098v-.1h-.099v-.198h.396v-.099h.1v.198h.098v-.099l.1.1h-.1.1v.198h.098v.098-.099h.1v.198h.099v.1h-.1.397v-.1l.099.1v.099h.099v.099h.099v-.1h.198V6.33h.099v-.1H14.287v.1h.1V6.627l.098.099h0" stroke-width=".05051448"/><path d="M-1.486-1.288h4.878v.09h-.198l-.1.099h.1V-1h-.1v.198h.1v.1h.099V-.407h-.1l.1.1h-.1v.098h-.098.099l.099.1.099.098v-.099.1h.099V.09h.099v.099h-.1v.396h-.098v.099h.099-.1.1v.099-.1.1h.099-.1V.98h-.098v-.1h-.1v.1h-.198v.099h-.098v.1h.099v.098H3.392v.198h.099v.1h.099v.198h-.1v.198h.1v.098h-.1V2.368h.1v.099h-.1v.198h-.098V2.962h-.1v.198h-.098v.1h-.1v-.1.1l-.098-.1v.1h-.1v.098l-.098-.099h-.1l-.099.1h-.198v-.1h-.099v.198h-.099v.1l-.099.098h.1l-.1.1h.1-.1V4.05l-.099.1v-.1.397h.1v.099h-.1v.099h-.099v-.1h-.198.1-.199v-.098.099-.1.1-.1H1.51v.1-.1.1h-.198v.099h-.1v-.1.1h-.098v.099h-.1v.099H.817v.099H.719v.099h-.1L.52 5.14H.321v-.198H.024l-.198.099h-.099l-.099.099h-.099l-.099-.1v-.098l-.1-.1-.197-.098v-.1h-.1l-.098-.098-.1-.1V4.35H-1.46v-.397h-.025v-5.24" stroke-width=".05051448"/></g><path d="M-1.486 14.164V3.952h.025v.397H-1.164v.099l.099.099.099.099h.099v.099l.198.099.099.099v.099l.099.099h.099l.1-.1h.098l.198-.098H.322v.198H.52l.099-.1H.916v.199h-.1v.1l-.098.098v.198h-.1v.198l-.099.1v.198H.42v.198H.62v.099h.099v.495h.099l.099-.1h.099v-.098l.099.099h.099v.099l-.1.099V7.32l.1.1v.098l.099.1v.098h.099v.1h-.1v.198h-.098v.098l-.1.1v.098l-.098.1v.099l-.1.099-.098.099.099.099v.198h.198v.198l.396.297v.1h.099v.197l.099.1v.098h.1v.595h.098l.1.099H2.301l.1-.1H2.5l.1-.098.099-.1.099.1H3.095l.099-.1h.396v.1h.099V10.787h.199l.098-.1v-.098h.198l.1.099h.098l.1.099v-.1h.198l.099-.098v.198h.198v-.198h.099v-.1l.099.1h.396l.099-.1.099.1h.099v-.1h.1v-.099l.098-.099h.1l.098.1h.1v.099h.495l.099-.1v-.099h-.1v-.099h.1v-.099l.099-.099.099-.099V9.598l-.1-.099.1-.099h.198l.099.1h.198l.099-.298.099-.1h.099l.198-.098h.1v-.198l.098-.1H9.137l.099-.098h.198l.099.099h.099l.099-.1h.198V8.51l.1-.199v-.099h.098v.1H10.425v-.1l.098-.099v-.099h.198v-.099h.1l.099-.099h.198v-.099l.099.1h.099v-.199h.396l.099-.099.099-.099H12.405l.1-.099h.198l.098-.099H13l.099.099.198-.099h.198l.099.099v.1h.099v.198l-.1.296h-.098l-.1.1v.495h-.098V8.806h-.1v.099H13.1v.099h-.1V9.3h.1V9.4h.099v.198h.099v.1h.099v.396h.198v.198h.099v.098h.099l-.1.1v.198h-.098v.099h-.1v.099h-.098l.099.099v.099h-.1v.099h-.098v.099l-.1.099H13.1V11.678H12.9v.1h-.594v.098h-.099v.1h-.099v.198h-.099l-.099.098-.1.1v.396h.1v.099h.099v.495H11.712V13.66h-.1v.198h-.098V14.163h-13" stroke-width=".05051448" stroke="#7296a8" fill="#cbe2f1"/><path d="M-1.486 14.164h17.829V-1.288H-1.486v15.452m15.922-7.485-.007.02-.004.007-.02.01-.009.008-.017.01-.006.006-.02.022-.01.007-.018.005-.008.001-.005-.005-.002-.006V6.76l.002-.005V6.75l-.001-.004-.002-.005-.006.001-.005.005-.001.001-.002.004-.002.004-.006.002h-.014l-.016.003-.008.007v.01l.006.019.004.008-.024.022-.007.005-.01.012-.011.013-.008.012-.004.019-.005.021-.003.011-.012.017-.01.017-.003.016-.005.014-.006.01-.007.005-.005.015v.014l-.003.04v.007l-.007.02-.003.007-.022.019-.015.017.009.014-.015.023-.026.057-.01.017-.006.009-.038.038-.012.016-.008.01-.006.006-.008.008-.006.005-.01.008-.012.009-.009.003-.019.012-.029.014-.035.012-.02.008-.013.006-.016.004-.014.003-.043.005-.023.017-.082-.016-.044-.045-.046-.068-.075-.045-.076-.017-.033-.008-.103-.003-.125.032-.112-.029-.06-.019-.047-.035-.03-.002h-.026l-.07.016-.113.112-.08.047-.124.004-.101.04-.17-.004-.039.003-.15-.033-.106.01-.084.1-.068.115h-.16l-.064-.014-.048-.011-.06-.002-.061.06-.005.048-.017.058-.042.03-.068.012-.071-.021-.042.012-.07.044-.114.044-.137.034-.084.064-.028.01-.094-.001-.067.017-.03.075.004.071-.033.036-.02.046-.013.053-.022.043-.05.026h-.052l-.145-.06-.055-.023-.063.008-.047.045-.035.244-.034.03-.042.017-.065.024-.096.02-.085.038-.068-.005-.095-.052-.045-.01h-.02l-.136.038-.12.08-.073.026H9.02l-.082-.042-.181-.033-.19.008-.073.013-.1-.023-.052.02-.06.107-.062.172-.008.023-.073.045-.221.08-.04.025-.12.078-.135.242-.013.023-.042.022-.03.017-.038.008-.053-.025-.14-.148-.113.005-.052.024-.028.04-.016.054.067.155.027.08-.005.062-.072.073-.09.093-.012.015-.077.1-.006.007-.018.08-.01.041.002.06.037.064.001.018.004.055-.043.058-.104.058-.025.013-.06-.017-.02-.005-.043.008-.042.012-.035-.004-.007-.006-.027-.02-.042-.042h-.102l-.046-.02-.014-.006-.023-.03-.014-.017-.04-.022-.073-.016-.023-.007-.031-.01-.048.002-.06.003-.051.028-.031.04-.017.103-.045.032-.032.024-.064-.008-.081-.023-.16.054-.068.008-.041-.006-.032-.005-.037.003-.01.003-.063.02-.094-.008-.093-.069-.05.016-.013.019-.02.03-.013.117-.007.027-.031.018-.065.016-.03.005-.018-.008-.032-.013-.033-.045-.017-.058-.027-.013-.005.004-.073.053-.032.024-.063.02-.054.004-.054.005-.074-.027-.03-.018-.05-.028-.006-.006-.078-.078-.018-.018-.064-.017-.101.028-.004.004-.043.056-.055.099-.073.053-.086.001-.049-.014-.038-.026-.045-.08.007-.068-.001-.08-.021-.058-.082-.046h-.044l-.056-.001-.115-.03h-.087l-.068.032-.051.026-.065.019-.15-.007-.034-.005-.011-.002-.034-.005-.12-.019-.148.068-.07.08-.002.002-.03.034-.108.027-.037.007-.122.022-.096-.016-.102-.006-.102-.038-.063-.044-.02-.014-.03-.054-.02-.141v-.3L1.767 10l-.023-.037-.04-.081-.064-.13-.057-.114-.033-.069-.052-.086-.385-.324-.012-.034-.006-.015-.014-.057-.037-.027-.046-.014-.036-.017L.93 8.96l-.02-.067.006-.058-.006-.039-.069-.061v-.074l.041-.094.084-.07.093-.118.071-.045.018-.041-.009-.114.04-.096.008-.06.04-.037.06-.015.032-.04.023-.076.05-.047.017-.04-.03-.046-.02-.039v-.072l-.032-.042-.103-.037-.032-.031-.028-.115-.028-.108-.052-.116-.007-.034.003-.03.01-.024.01-.021.027-.035.044-.072.009-.034V6.89l-.014-.042-.047-.054-.025-.013-.037-.005-.02.003-.027.01-.036.019-.107.067-.008.005-.033.008-.047.007-.028-.006-.024-.018-.022-.024-.008-.021L.696 6.8.69 6.657V6.57l.003-.048-.003-.037-.022-.053-.02-.033-.016-.013-.003-.002-.019-.01-.046-.011-.044-.011-.052-.01H.463L.45 6.334l-.017-.011-.01-.026-.002-.032v-.03l.012-.039.025-.042.013-.025.005-.012.025-.05.02-.038.035-.085.01-.03.025-.065.02-.066.02-.065.015-.046.014-.033.012-.029.02-.08.028-.064.05-.09.025-.042.004-.006.02-.022.023-.024.015-.02.025-.03.026-.036.017-.034.004-.042-.001-.02-.021-.036-.02-.02-.02-.012-.027-.01-.043-.007-.032.008-.002-.038v-.012l.001-.002V4.97H.761L.76 4.969l-.002-.003v-.001l-.002-.003v-.006l.001-.004.002-.001.002-.002v-.002l.002-.002.001.001V4.96l.002.001.002-.001v-.003l.002-.002.001-.001.002-.003.002-.002.001-.001h.002v.001H.78v-.001l.002-.001v-.004H.78v-.003l.002-.002v-.004l.001-.002h.004l.001-.001.001-.002v-.003H.785v-.002l-.001-.001.002-.003.002-.002h.005l.001-.002.001-.001v-.002h.003v-.003l-.002-.001v-.002l.001-.001.002-.001h.002l.001.002h.002l.003-.001.002-.002V4.9l-.001-.002-.002-.002v-.005L.81 4.89l.001-.002h.004l.001-.001.001-.003.003-.003h.006l.002.002.002.002h.004l.002-.002.002-.002.003-.003.001-.004V4.87L.84 4.867l-.003-.002-.002-.002H.832V4.86L.83 4.86v-.001l.001-.002h.004l.003.001.001.001h.002l.001-.001.002-.002.002-.002v-.001L.846 4.85l-.002-.002v-.002h.007l.002.001.001-.001v-.003h.002l.001-.002h.001l.001-.002v-.002l.001-.001h.003v.003l.001.001.001.002h.002l.002-.001v-.002h.004l.001-.003.002-.001h.008l.001.001H.89v-.001h.002v-.001l.001-.001v-.007l.002-.002h.001v-.005l.002-.002.001-.003.003-.002H.91l.002-.002h.005l.002-.005h.004l.002.002.001.001v.001l-.002.003v.002l.002.002h.006l.002-.002.002-.002.002-.001h.008l.004.002.003.001h.024l.001-.001.001-.003.001-.001.003-.002.003-.003h.001l.003-.001h.002L.995 4.8V4.8l.001-.002.001-.002h.005v-.004L1 4.79H.999v-.005h.002v-.003L1 4.777v-.006h.004l.002-.001.002-.002.002-.002.001-.001v-.001l.001-.001.002-.001v-.003h-.001l-.002-.002H1.01v-.005l.002-.001h.006l.001-.001.001-.002v-.003l.002-.002h.002v.003l.002.002h.004l.002.001.002-.002v-.004l-.002-.001h-.001v-.003h.002l.002-.001h.002v.002l.002.002h.002l.002-.002.003-.003h.003l.002-.002h.002v.002l.002.001h.001l.001-.002v-.005l.001-.002.002-.003.003-.002V4.72h.002V4.72h.01l.001.002h.002l.002-.001h.004v.002l.002.001h.004V4.72l-.001-.003v-.002l.004-.001h.001l.001.002h.006l.002-.001.001.001h.002v-.003h.004v-.003h.01l.002-.002h.003l.004.002.001.001v.001h.004l.003-.001.001-.002.001-.003v-.001l-.008-.01-.002-.003-.001-.002-.002-.004-.004-.015-.008-.024.045-.019.01-.006.01-.007.028-.024.027-.024.004-.004.004.015.001.017-.009.01.011.017.007.005.01.002v-.002l.001-.001h.005l.001.002.001.002h.002v-.003l.001-.001h.007l.003-.002h.002l.002-.002h.001l.003-.003h.007l.001-.001v-.001l.002-.001h.004l.003-.003h.002l.002-.001h.002l.001-.002v-.001l-.001-.004v-.001l.001-.001.003-.003.004-.005.001-.002V4.59H1.32l-.001-.002.002-.002h.005v-.004h-.001V4.58h.002l.005-.002.001-.003h.003v.001l.001.003h.003l.002-.002.002-.003v-.01l.004-.004.002-.003.002-.003.002-.001.002-.002v-.002h.001l.002-.002h.003l.002-.001.002-.001h.002l.002.001h.002l.001-.001v-.003h.004l.001.001.001.001h.003l.001-.002v-.014l.002-.002h.003l.004-.001.001-.001.002-.002V4.52l.002-.002H1.4l.001.002.001.001h.005v.003l.002.001h.003v.002H1.427l.002-.002v-.002h.003l.002.001h.003l.001-.001.001-.002.001-.002v-.008l.002-.002.002-.001.001-.001h.007l.001.001.002.002H1.466l.004-.003h.002l.002-.002.001-.001.003-.002h.001L1.48 4.5l.002-.001.002-.002h.004v-.005h.002V4.49l.001-.001.002-.001H1.5l.002.001.002.002.001.002.001.001.001.001.002.001v.001h.002V4.5h.003v.002h.001v.003l.002.002v.005h.001V4.51l.002-.001h.001v.001l.001.001h.001l.003.002h.002l.002-.002h.003v-.003l.002-.001.001.002h.002l.001-.002h.005l.002-.001v-.002l-.002-.001V4.5l.002-.001h.005l.002-.002h.003l.002-.001.003-.001h.006l.001.001.004.002h.007l.001-.002.001-.001.002-.001h.008l.002.001h.003l.001.002h.003v-.002h.003v.002h.001l.001.001.004.002h.001v.002l.002.001H1.622v.002h.001l.001.001h.002l.001-.003h.001l.002.001.004.002v.005l.002.001.002.002.002.001h.006v-.003h.001l.001-.001h.001l.001.002h.002l.002.002.002.001h.004l.005.002.004.003.005.005.003.004.001.002.002.001h.006v.001h.005v.001l.002.002h.001l.001.001v.001l-.001.001v.002h.003l.001.002.001.002.006.003.004.002h.005l.001.001h.004l.003-.001.006-.003h.006v-.001l-.002-.002v-.002h.006v-.001h.001l.003-.001h.003l.002.003h.004l.002.001.001.001h.001v.003h.002v.006l.002.001h.005l.002.001.002.001.002.001h.001l.002-.001h.003l.001.003.002.001v.001h.002l.002-.002h.005l.002-.001v-.003h.002l.003-.001h.002l.002-.001.002-.001h.003l.003.002.002.003.002.003h.002l.002.001.004-.001h.001l.003.002.003.001h.004l.001.001v.003l.001.003.002.001.005.002h.003v-.001l.001-.004V4.57l.003-.002h.008l.004.003v.005l.003.002.004.003.004.003h.006l.002-.001v-.002h-.002v-.005l.003-.002.001-.001h.007l.002.002v.003h.004l.004.001.003.002v.002h.004l.002.001v.004h.001l.003.002.001.002.002.001h.003l.001.002.002.001v.001l.002.004h-.001v.003l.002.003.002.001H1.932l.002-.001h.005v.003h.004l.001.001.002-.002H1.96l.001.002h.008l.005-.002h.002l.002-.001h.003l.001.001v.002l.002.001h.003l.002-.002.001-.001h.002v-.001h.002l.002.002v.002h.006l.002-.002V4.61l.001-.002h.002l.002-.001h.004v-.001l.001-.002.002-.001h.002l.003-.001v-.002l.003-.001.001-.001v-.003l.001-.001V4.59h.003v-.002l.003-.002h.001l.001-.001h.002v-.001h.006l.001.001.001.001h.003l.002-.001.001-.001.001-.001v-.001l.001-.002v-.002l.001-.001h.003l.002-.001h.003l.001.001h.004l.001-.002v-.003l.002-.002.002-.001.001-.001v-.005l-.002-.003v-.008h-.003l-.001-.001v-.002l.002-.003v-.002h.001v-.002l.001-.004h.001V4.53l.001-.001h.001v-.016l.001-.001V4.51h.003v-.004l-.001-.001h-.001l-.002-.002-.003-.001-.004-.003-.003-.002-.005-.002h-.002l-.002-.002H2.05L2.05 4.49l-.001-.002-.001-.004v-.019l-.001-.002-.003-.002-.003-.001H2.03l-.006.002-.005.002h-.006l-.005-.002-.002-.003-.002-.002v-.007l-.001-.003L2 4.446l-.003-.002h-.001v-.007l.002-.006v-.002l-.002-.001v-.006l.001-.011V4.402l-.002-.004-.001-.003-.002-.004-.002-.005-.002-.009-.001-.002-.006-.005-.001-.001v-.005l.006-.004.006-.006.001-.001V4.35l-.001-.006-.003-.005-.004-.008-.006-.013v-.007l.001-.01V4.3l-.005-.012v-.004l.002-.001.008-.001.008-.002.004-.002.007-.003.006-.004.001-.002.001-.002.001-.003v-.002l-.004-.002h-.003L2 4.25l-.004-.005-.003-.006v-.004l.002-.005.004-.003.008-.003.003-.003.002-.003.001-.006.004-.01v-.008l.002-.004.002-.007V4.16l-.003-.008.003-.014v-.012l.006-.012.001-.003.004-.008.006-.002h.013l.011-.01.01-.005.002-.003-.001-.005-.007-.01v-.037l.002-.006.005-.01.003-.008.002-.014V3.98l-.003-.01-.002-.009v-.003l.005-.006.006-.006.005-.009.003-.004.005-.005.003-.004.003-.006.004-.005.005-.003.003-.003V3.88l-.003-.004-.002-.004.002-.006.004-.007.014-.052-.002-.037.013-.018.021-.023-.003-.005-.004-.012.005-.017v-.007l-.007-.01-.012-.025v-.005l.03-.056.003-.009V3.56l.008-.011.013-.011.02-.01.009-.016.023-.035.012-.015.004-.028.014-.023.006-.013.006-.018-.008-.016-.011-.012.001-.009.014-.005.02-.003.008-.004.03-.025.054-.013h.013l.017.004.007.014.004.014.005.006.022.024.025.013.01.003.044-.012h.025l.009-.011.015-.018.034-.014.026-.022.018-.015.005-.02.009-.005.024.002.02.004.018.005.017-.003.004-.005.004-.01.005-.01.008-.004.045.002.01.001-.001.021-.004.015.004.018.006.016.014.02.009.006.005-.001.018-.017.017.002.012-.013.008-.019.005-.012.022-.009.012-.014.009-.008.006-.012.003-.003.005-.002.007-.002.005-.003.004-.003.003-.003.004-.005.007-.007h.005l.008.002.006.002.007.006.001.001h.003l.002-.003.002-.001h.004l.002.001.004.003.005.005.004.007.002.003.003.002.003.002h.003l.003.001h.006l.006.002H3.1v.001l.002.001h.001l.002.002.002.002.002.001.002.001h.008l.008-.001h.001l.004-.003.002-.001.004-.003.001-.001.001-.001h.006l.003.001.006.001h.006l.002-.002.005-.003.003-.001h.008l.003.001.004.001.004.002.003.003.003.003.003.004.002.002.002.001h.003l.004-.001.009-.004.004-.002.007-.001h.012l.003.003h.002l.003.003h.003v.001h.001l.001.002.002.004v.002l.002.002.001.001h.002l.001.001.001.001.002.001.001.001.002.002h.001l.003.002.003.001h.001l.004.002.008.004.003.002.002.001.008.003.005.002.005.002.004.002.003.001.003.002.004.001.004.002.005.001h.004l.004.002h.006l.004-.001h.003l.002.001.001.002.001.001v.002l.001.002v.011l.001.003.001.004.001.004.002.005.002.004.002.003.002.004.001.002.002.003v.001l.003.003.002.003.003.003.002.002.001.001.001.002.002.003v.01h-.001l-.003.003-.004.004-.002.002-.001.002-.001.002-.001.001v.007l.002.005V3.4l.001.002v.002l.001.003.002.004v.004l.002.003v.002l.002.002.004.002.004.003h.001l.002.002h.001l.002.002v.003h.001v.002l.002.004v.01h.001l.003.001h.016l.004-.001H3.438l.004.002.002.002.004.002h.002l.001-.002.001-.003.002-.004.002-.002.001-.002.001-.002v-.002h.001V3.41l-.001-.007v-.008l.001-.002.001-.003v-.002l.002-.003.003-.004.001-.003.002-.003.003-.004.002-.003.003-.004.004-.006.001-.001.001-.001.002-.002h.002l.002-.001h.005l.013-.005.004-.002v-.001l-.003-.012-.002-.01V3.31l-.001-.007v-.006l.003-.003.005-.004.004-.003.007-.006.01-.014.004-.002.006-.003h.008l.004.001.001.002.001.004v.003l.002.005.001.002.004.001.003.001h.002l.007.001h.001l.008.002h.003l.004-.001H3.61l.003-.001.01-.004.004-.001h.016l.018-.004h.006l.006-.003.004-.004.003-.005.003-.004.003-.004v-.002l.004-.003.003-.001.002-.001.01-.004.004-.004h.001l.004-.003.003-.005.004-.01.002-.005v-.004l-.001-.004-.003-.005-.004-.005-.006-.005-.002-.003v-.004l.002-.002.005-.002.01-.004.008-.003.008-.003.004-.002h.006l.004.001.008.002.003.002.004.002.004.004.007.003h.013v.001l.005.002.003.001h.001l.001.001h.003l.002-.001v-.001l.004-.002.005-.003.005-.005.004-.003.004-.002h.002l.002-.002.003-.004.003-.005.003-.006.002-.004v-.001l.007-.008.001-.002.002-.002v-.002l.002-.003V3.13l-.003-.007V3.12l-.001-.002-.001-.004v-.006l.002-.006.003-.008v-.016l.003-.003h.008l.015-.002h.003l.006-.003.012-.003.007-.003.006-.003.003-.003.002-.002.002-.003.003-.003.004-.006.003-.002.003-.004.001-.002.003-.003.005-.006.007-.004h.001l.004-.004h.001v-.001l.001-.006v-.01l.001-.005.003-.003.007-.006.004-.002.006-.005.004-.001.007-.001.003-.002L4 2.972l.002-.005.003-.005h.01l.001.001.004.004.002.001.002.001.012.019h.008l.002-.003h.002l.01-.005.004-.001h.006l.002.002.002.001.004.003.006.002.007.001h.008l.004.002v.001l.002.001.003.003.003.002v.004l.003.002h.012l.003-.002.003-.005.003-.002.002-.003.004-.003.004-.003h.002l.004-.002.003-.002.002.001.002.002.004.003h.003l.004-.001h.006l.001.001.001.001.001.002.002.003.002.002.002-.001h.001l.007-.006.007-.008.005-.007.006-.004.006-.005.006-.006.004-.005.001-.007.002-.002h.003v.016l.002.004.005.006.006.003.008.006.003.003h.003l.003-.001.001-.001.001-.001.005-.004.001-.002.002-.002.004-.002h.002l.002-.002.004-.004H4.292l.003-.002.003-.002H4.3l.002.001.003.001.004.001.002.001h.002l.002-.003.004-.004.004-.002.005-.001.006-.003.005-.004.004-.005h.004l.002.003.003.004v-.002l.009-.008.007-.006.002-.003.001-.004v-.002l.003-.005.002-.004.003-.006.004-.004.002-.002.002-.006.003-.004.001-.001.007-.004.004-.003.006-.004.008-.007.001-.002V2.86h.002l.002-.005v-.001l.002-.002.001-.002.003-.005.001-.003.002-.003.001-.002h.005l.002.001h.002l.001.002.003.002.001.001.002.003.002.002.002.002.004-.002h.003v-.001h.007l.002.001.002.001.001.001.003.002h.001v.001h.002l.005.004.003.002h.002l.001.001.002.003v.014l-.001.004v.005l.002.002.004.003.003.001.005.002h.001l.01.003.002.002.002.001.002.002.002.004.003.003.003.002h.006l.002.001.001.003v.013l.008.006.005.004.006.006.007.009.005.006.003.003.003.005.002.002v.002l-.001.003-.002.004v.002l.002.003.004.002.003.002.005.008.007.008v.001l.006.006.005.003.006.001h.005l.001.001h.001v.007l-.001.002v.006l.003.007v.002l.003.004.003.002.004.002.004.002.003.002.005.005h.001l.003.002.008.001.004.001.001.002v.006l.002.007.004.007.003.004v.002l.002.002.003.004.003.004.002.007.001.003v.007l-.003.001v.002l.003.004.003.005.003.002.002.001.003.002.003.004.003.004v.006l-.002.003v.002h.005l.003.001.003.002.004.003.003.002h.004l.003-.001.001-.005v-.004l.001-.001.002-.003.004-.004.003-.004.006-.009v-.003l.005.002.004.002.005-.001.005-.001h.002l.002.004.003.007.003.003.003.002h.003l.012-.002.002.002.002.003.003.007.003.003.003.002H4.8V3.15l.03-.009.018-.005.013-.01h.008l.008.002.013.01.024.006.007.003.01.019.009.015.008.012.009.004-.006.006.006.002h.008l.006.004.005.004.003.004.002.002h.003l.006.002h.006L5 3.224l.008.004.003.002.001.001.003.003.002.001h.002l.003-.001.007-.003v-.002l.001-.002v-.001l.001-.004.003-.008.003-.005.004-.003.005-.002.004-.003.003-.005.003-.005.001-.007v-.001l.002-.003.005-.002.001-.001h.001l.002-.004.001-.002-.001-.004-.002-.003-.001-.002-.001-.003V3.145l.001-.005.001-.005v-.003l-.002-.002v-.001l-.002-.002v-.003l-.001-.003v-.01l.001-.005.002-.005v-.006l-.003-.002h-.008l-.004-.001h-.022l-.01-.003-.007-.002h-.007l-.005-.004-.001-.001-.002-.005v-.001l-.003-.013-.002-.009v-.01h-.001l-.002-.003-.003-.005v-.005l.001-.001v-.001l-.002-.002-.001-.003-.002-.002-.003-.002V3.011l.002-.003-.002-.006v-.007l-.002-.005-.001-.005v-.002l.004-.004.006-.005.005-.002.01-.007.004-.005V2.96l.001-.006.001-.008V2.936l.003-.007.003-.003.003-.002.008-.004.004-.005.004-.004.004-.001.004-.002.002-.003.005-.005.003-.002.006-.002.005-.001h.005l.002.001h.006l.001-.002.004-.001.002-.001.005-.002h.015l.004-.001h.006l.001.001.004-.001h.002l.004-.003h.001l.002-.002h.002l.001-.002v-.007l-.001-.007-.001-.005v-.007l.001-.005.002-.005.002-.005v-.003l-.002-.002-.005-.003-.006-.004-.005-.004-.004-.005-.001-.004-.001-.006-.003-.003-.003-.003-.004-.002-.007-.003-.008-.004-.006-.004-.002-.004V2.78l-.003-.005-.003-.005-.002-.006-.002-.004V2.76l-.001-.005v-.008l-.002-.002h-.002l-.003-.002-.003-.003v-.004l.002-.007.002-.007.003-.006V2.71l.001-.002V2.7l-.002-.003-.003-.007-.001-.003-.001-.003-.002-.002-.004-.002-.003-.002v-.001l-.003-.002-.001-.002-.003-.003-.002-.005v-.003l-.001-.001v-.008l.002-.003.002-.002.003-.003h.002l.004-.002.005-.003.005-.003.003-.001.002.003h.006l.002-.001.003-.002.004-.001h.001l.003-.002h.006l.003.003.004.003.004.003.003.005.002.003.004.004.005.006.002.004.005.001.005.001h.003l.006-.003.007-.006.005-.005.005-.004h.005l.003.001h.005l.004-.003h.006l.004.001h.007l.003.001.004.001H5.212l.004.001.003.001h.003l.002-.002.003-.004.004-.005.003-.006v-.001l.003-.007.003-.004.003-.003h.006l.005.001H5.275l.002-.002H5.3l.002.002h.001l.004-.002.002-.002.002-.001h.003l.002.001h.017l.006.002h.002l.003.002h.003l.004-.001.002-.004v-.012l-.001-.01-.003-.002-.002-.001-.001-.001-.003-.004-.001-.002-.002-.001-.002-.002-.003-.003v-.001l-.002-.005-.003-.003-.001-.001-.002-.003v-.008l-.002-.002-.004-.003-.003-.003-.002-.003-.003-.002h-.005l-.002-.001-.003-.001h-.001l-.005-.003-.004-.003-.002-.004-.002-.003h-.002l-.002-.002-.002-.003v-.001l-.001-.004H5.28l-.001-.003-.005-.003-.005-.004-.001-.001-.004-.005L5.26 2.5l-.004-.004-.002-.003-.002-.003v-.002l-.001-.004v-.006l.002-.004.002-.007V2.46l-.001-.002-.001-.003v-.007l-.001-.004-.001-.003-.001-.004V2.423L5.25 2.42v-.007l.001-.002.002-.003.002-.003.002-.004V2.4l.002-.003.001-.003.002-.003.001-.003.001-.002V2.37h.001l.001-.002.001-.001.002-.001.002-.003.004-.002h.003V2.36l.002-.002.002-.002.002-.001.001-.002.002-.002V2.35l.001-.002v-.014l-.002-.003v-.007l-.002-.002v-.003l-.001-.002v-.001l-.001-.001-.003-.001h-.005l-.001-.001-.002-.001V2.31l-.002-.001v-.012l.001-.002V2.29l-.002-.002v-.001l-.002-.002V2.28h.002v-.002h.003l.002-.002.002-.002-.002-.002h-.008l-.003-.002-.002-.002-.002-.002V2.26l-.001-.002V2.25l.001-.004.001-.002V2.24l.002-.001v-.003l.002-.002.003-.001.001-.001h.003l.003-.002.003-.001.003-.002v-.002l.003-.003.002-.004.001-.002.002-.002h.002l.002-.002h.005l.003-.002.002-.002.002-.002.002-.001.002-.002.003-.001h.001v-.001l.001-.001V2.17l.002-.003.001-.003.002-.002.001-.001h.002l.002-.002.003-.001.001-.001.002-.001.001-.002.002-.002.002-.001.001-.003.002-.002.001-.004.001-.002.002-.003.001-.001.003-.003.002-.002.006-.004.003-.003.005-.002.002-.002.005-.002.002-.002.002-.001.002-.002.002-.002.002-.003.002-.002.003-.003.003-.003.001-.001.004-.003.002-.001.003-.002.002-.002.002-.002h.002l.003-.001h.004l.001.001.002.002h.001l.001.002.001.001.002.002.002.003.002.003.001.002.001.002.002.002v.001h.001l.001.001h.002l.001-.001.003-.002h.004v-.001l.003-.002.005-.003h.008l.001-.001.001-.001.002-.002.002-.002h.005l.003.002.003.002.001.001h.004l.005-.001.005-.002h.001l.006-.002.002-.001.001-.003.002-.002h.002l.002.001.002.002H5.511l.003.001v.002h.001v.006l-.001.004v.004l.002.003.002.002.002.001.005.002h.001l.005.003.008.005.004.002h.003l.001.001h.005l.004-.003.004-.004.003-.002h.004l.003-.001.002-.001.002-.002.002-.001h.002l.001-.001h.005l.003-.002h.001l.001.002.002.005.002.002.003.003.003.003.002.001v.003l.002.004.001.002.002.003.006.007.002.003.003.004.003.003.005.005.003.002.004.002h.002l.003.003.002.003.003.004.004.008.007.005.003-.002.004-.003.006-.004h.003l.002-.001h.003l.003-.001h.008l.011.001H5.714l.005.002h.01v.001l.007.003.004.002.003.001.005.001.003.001h.004l.004-.001.002-.002h.001l.001-.002.002-.002.002-.003.001-.004.002-.003.003-.003.009-.009.005-.007.003-.004.002-.002.002-.003.001-.002.002-.005.004-.009.004-.01v-.005l.001-.002h.003l.008.004.003.001.003.001.002.001.003.004.001.004.002.004v.006l.002.003.002.003.001.003h.002l.002.001h.001l.002-.001h.002l.003.004.003.001.003.001.007.001.003.002h.002l.001.002.002.002.001.004.001.005.001.004.001.003.002.002.004.004.003.004.001.002.001.006.002.004v.005l.002.004.002.005.002.004.002.002.002.002h.001l.007.005.004.004.003.004.001.004.001.003v.009l.001.008V2.265l-.001.006v.017l.001.003.001.006v.011l-.003.002-.002.002v.005l-.003.004-.004.006v.003l-.001.001v.005l.001.002.003.001v.008l.002.003.001.003.002.004.001.004.002.004.005.005.005.005.002.001.002.001H5.938l.003.002.003.002v.001h.001l.002.002.005-.002.005-.001h.002l.005.001.002.001.001.003.002.005.002.001.006.005.005.003.007.006.005.005.004.003v.001l.002.004.002.006v.002l.003.006.004.008.002.002.003.003.004.002.004.001.004.001.005.001h.002l.003.001.004.002.004.002h.004l.003.001.003.002h.001l.008.008.002.002.002.002.003.001h.003l.006.003h.005l.002-.002.002-.001.003-.001h.005l.003-.003.002-.001.002-.002h.011l.004.001h.001l.003.001h.003l.003.001h.006l.003.001.003.002.003.003.003.003.005.006.003.003.003.004.003.003.004.001h.004l.001-.001.001-.002.002-.002.002-.001h.004l.007.004.005.002h.007l.003-.002.003-.003.003-.004v-.002l.003-.002h.008l.005.001h.006l.001-.001.001-.001.002-.002.002-.001h.019l.003-.001.003-.001h.001V2.484l.002.005.002.005v.003l.001.005.002.004v.002l.002.002.002.002.002.003.007.008.004.004.002.003v.033l-.003.005.004.006.004.01.002.006.002.006.002.003.005.008.002.004.004.005.005.009h.001l.005.008.005.009.001.01v.005l.002.009.003.01.002.004V2.69l-.002.006-.002.007-.004.007-.004.004-.007.008-.002.004-.002.005-.002.008-.001.006v.014l-.001.006v.006l.003.006.001.005.001.006v.006l-.001.002-.003.002H6.296l-.005.005-.005.005h-.014l-.002-.001-.002-.001h-.003l-.002.001h-.007l-.003.003-.005.005-.003.002-.002.002h-.004v-.001l-.002-.001-.003-.001h-.001l-.002.002v.001l-.003.002-.006.007-.003.004v.003l-.005.005-.003.004-.003.002-.002.003-.001.003-.002.005v.012l.002.003v.001l-.002.004V2.888l.007.015.006.01h.001V2.922l-.002.003-.001.004v.005l.001.004.001.003v.008l-.002.004-.002.003v.006l.002.003.002.002.002.002v.001l.001.002v.003l-.002.005v.003l.001.001.002.002h.001l.002.002.003.002.004.002h.002v.001l.005.002.006.006.004.006v.001l.002.004v.008l.002.004.002.002v.002l.004.005.002.001v.003h.001v.006l.003-.004.005-.005.003-.003.004-.002.002-.001.004-.002.002-.001.011-.005.013-.004h.002l.002.002.002.004.002.002.002.001h.002l.004.001h.005l.005.001.007.002.004.002.004.003.003.003.004.003.005.004.002.002.002.001h.014l.002.002.004.002.012.009.003.003.002.002.001.002v.002l.001.002.002.006.001.004.001.001.001.002.005.002.004.003.008.004h.007l.003.002.002.002.001.002.003.002.002.001.002.001h.002l.002.002.001.001h.001l.002.001h.006l.003-.002.004-.001.003-.002.002-.001.003-.002.002-.001h.006v.001l.01.005.002.001.002.001h.005l.008-.003h.008l.003.003.004.005.01.01.002.002v.007l-.002.002-.001.004v.008l.001.002.001.007v.001l.003.002.003.003v.002h.001l.002.004h.001l.002.003.001.001.001.001.003.002h.002l.003.001.004.001.002.001.001.001.002.002v.006l.001.001v.001h.001l.002.001h.002l.003.001.002.001.002.001.001.001h.001l.001.001h.002l.002-.002.002-.003.007-.004.005-.001.004-.001h.003v-.001l.004-.003H6.624l.003.001h.001l.002.002h.006l.002-.001h.001l.003-.003v-.006l-.001-.003-.001-.004-.001-.003V3.15l-.001-.005v-.004l.001-.002.003-.002.003-.002.004-.002.002-.001.002-.001h.004l.004.001.003.001h.006l.003-.001h.004l.002-.001h.004v-.001l.001-.002v-.002l.001-.001.002-.002.003-.003.004-.001.003-.002h.008l.003.002.003.001h.001l.001-.004v-.003l.001-.002V3.11l.001-.003v-.004l-.002-.005v-.003l-.002-.003-.001-.003-.003-.003v-.001l-.003-.002-.001-.002-.001-.002v-.003l.002-.004V3.07l.001-.003v-.002l.001-.005v-.002l.005-.004.003-.002.002-.001.006-.004.006-.004.006-.003.008-.004.003-.002.004-.001.004-.001.005-.001H6.776V3.03l.002-.002.002-.001.003-.001.004-.002.003-.003.001-.002.003-.003H6.8l.003-.001.003-.003.002-.003v-.002l.002-.005v-.001l.003-.006v-.003l.001-.001V2.98l.002-.002.002-.001.002-.001.006-.001h.01l.004.003.004.002.004.003.002.002.002.003.001.001h.003v.001h.006l.003-.001.007-.004.003-.002.003-.002.006-.006.002-.001.003-.003.004-.003h.002l.004-.001h.005l.01-.001h.006l.001.001.001.001.002.002.002.004.002.002.001.002.003.003.003.003.005.004.004.003.003.003v.001L6.95 3 6.952 3l.003.003.002.002.001.002.002.004.002.002.002.002.004.004.001.001.001.002.003.002.003.002.002.001.005.004.004.003.003.002.004.003.003.003.001.001.003.004.003.005.002.003.002.003.002.002.003.004.002.004v.002l.004.003.003.002.003.001.002.002.003.003.003.002.003.003.002.002.004-.001h.006l.002-.001.002-.001h.004l.003-.002h.003l.002-.001h.003l.002-.001h.012l.002-.001h.002l.002-.001h.007l.003.003.001.001.001.002.002.002.001.003.002.003.002.002.003.003v.001l.002.002.003.003.004.003.003-.003.002-.003.002-.002h.002l.002-.002.002-.002.004-.002.002-.002.001-.001.002-.002.002-.002.002-.001.001-.001.002-.002.002-.001.001-.002h.001l.001-.001.002-.002.002-.003.002-.002.001-.002.002-.001v-.002l.003-.001.001-.002h.001l.001-.002.001-.002v-.002l.002-.001V3.05l.001-.001.002-.004v-.01l-.002-.002v-.002l-.002-.002v-.001l-.001-.002-.002-.004-.002-.003v-.003l.002-.003.004-.003.008-.004.003-.002.005-.003L7.191 3l.004-.001.007-.002.003-.001.002-.001h.002l.002-.001.004-.002h.003l.002-.002h.004l.002-.001h.01v.001h.003l.002.002h.003l.002.002.002.002.002.002.003.002.001.002.002.001.002.002.002.002.002.001.002.001h.004l.003.002h.002l.003.002.002.001v.002h.002l.001.003.002.002.003.005.001-.001.001-.002V3.02l.001-.002.001-.002v-.005h.001l.002-.003.001-.002.002-.004v-.002l.002-.005v-.003L7.3 2.99v-.007l-.002-.002-.001-.001-.002-.002h-.001l-.003-.003-.001-.002-.002-.002-.003-.004-.002-.006-.002-.001v-.002l-.002-.002-.002-.004-.002-.005v-.001l-.002-.004-.001-.003-.001-.004-.001-.005V2.93l-.001-.003V2.92l.001-.002.001-.001h.002v-.001l.001-.001v-.001l.003-.004.002-.004.001-.002.001-.002V2.9l.001-.001v-.002l.002-.002.002-.001.003-.002.003-.001.002-.001.003-.002.001-.001.004-.002h.002l.002-.002.005-.001.002-.001.003-.001h.002l.002-.001h.003l.002-.001h.004l.003-.001h.003l.002-.001h.002l.002-.001h.003l.003-.002.005-.001h.007l.002.002.002.002.002.001.002.002.002.001.002.002.003.002.001.001.001.001.003.002.002.001v.001h.002l.004.003h.016l.001.001.004.002h.001l.002.002h.001l.004-.004.005-.003.004-.004.004-.002.002-.004.003-.003.008-.007.006-.005.003-.002h.003l.004-.002h.005l.003-.001.001-.001.002-.001.002-.002.003-.001h.006l.005.005.01.01h-.001l.002.002h.007l.002.001.004.004v.008l.002.004.001.003v.001h.001v.008l-.002.003-.002.002v.002l.002.007v.006l-.003.003-.002.003-.001.007v.006l.001.003.002.005v.005l.003.003v.003l-.003.001-.002.002-.002.003-.002.003v.005L7.5 2.98v.005l-.002.003-.002.003v.004L7.496 3l.001.003.003.001.001.003.002.004.002.004.003.001.006.003.003.004.002.003v.002l-.002.005-.002.004-.002.006-.002.006v.012l-.003.005-.008.01-.002.004v.004l.002.001.003.001.003.003h.004l.003.001.003.003.002.002H7.528l.003.004.001.003v.005l-.003.006-.002.004v.001l-.002.002-.001.003.001.007.001.004.001.003.003.004.004.006.003.005.002.002h.003l.003-.001h.006l.004.002.003.002.003-.001.003-.001h.005l.002.002.002.006.004.008.002.004.002.003V3.187l-.002.005-.002.003-.003.004-.002.002v.002l.002.005.001.007v.01l-.001.001v.003l.002.005.002.005.001.004V3.256l-.003.005-.003.005-.002.004-.001.001-.003.004-.001.004-.001.003-.001.002-.002.005v.003l-.001.001v.001l.001.001.003.002.01.005.004.001.002.002.002.003.004.006.002.003.003.007.001.003.001.001H7.608l.003-.001.005-.001h.016l.002-.001h.003l.001-.002.004-.002.001-.001.006-.006.003-.002.006-.005.005-.004.003-.002.002-.002.001-.002v-.001l.002-.001h.003l.003.002.002.002h.001l.006.004.002.002.003.002.001.002h.007l.003-.001.005-.002h.005l.002-.001.003-.001h.005l.002.001.002.002h.01l.003-.001.003-.001h.02l.002.001.004.002.005.001h.001l.004.002h.004l.001-.002v-.003l.001-.002.002-.002V3.3l.002-.002h.002v-.001h.002l.002-.001h.001l.001-.001v-.002l.002-.003v-.01l.001-.003.003-.001h.001l.006-.002.004-.002.002-.001.002-.001.001-.002.003-.003.002-.002.002-.003.004-.006.006-.005h.011l.004-.003.001-.003.003-.005.008-.003.005-.002h.006l.003.002H7.9l.007.002.002.006v.002l-.001.004-.002.008v.005l.001.003V3.298l.001.001.002.002.003.002.002.002.002.003.002.003.002.004.001.001v.002l.001.002.001.004v.006l.001.003.002.006v.003l.002.004v.002h.001l.001.001h.007l.002-.002h.002l.003-.002h.008l.001.002.002.001v.001l.004.004.002.001.002.002h.003l.003.001h.002l.001.001.002.001.001.002h.002l.001.003.003.003v.001l.003.004.001.001h.003l.003.001h.017l.003-.001h.003l.001.001.002.002.003.002.004.005.002.003.001.002.003.002.003.002.001.001h.008l.006.001.003-.004.003-.005.004-.003.001-.001h.002l.003-.002.003-.001v-.001l.002-.004.002-.003.003-.003.005-.005h.003l.005.002h.008l.003.002H8.1l.002.001h.002l.001-.001v-.003h.001l.003-.003.002-.002h.005l.004.003.002.001h.006l.005.002h.007l.002.002.002.005.002.007.002.005.005.004.002.002.001.003.003.005.001.005.003.003.002.002.001.004.001.004.004-.002.006-.003.005-.003.002-.002.006-.002.007-.003h.005l.01.003h.008l.01-.001h.007l.008.003.006.003.013.008.025.001.005-.003.01-.003h.008l.006.005.003.001.01.002.004.002.015.009.004.001.005.001.009.019-.003.008v.008l.01.012.002.012-.002.003v.003l-.002.002-.004.007v.003l.002.003v.004l.008.015.005.016.006.008.004.004.005.004.01.007.01.024.002.005.006.008.002.005v.011l.003.009.002.005.003.003h.005l.003-.001.006-.004h.004l.014.001h.016L8.5 3.63h.011l.007.006.01.01.003.006.007.005.011.006.013.003.033.011.01.002.007.005.002.006v.007l.001.008.003.003h.01l.004-.002.008-.001.008.002.008.003.013.007.002.002.013.008v.011l-.001.011.009.011.002.004.008.007v.002l-.004.002-.006.007h-.008l-.003.004-.004.005-.002.004v.006l.003.004.003.005.005.009.002.002v.006l-.002.005-.001.004v.001l-.003.001-.003.002-.005.007.001.008v.015l.001.013.006.003.158.127.073.06.008.013.007.01.06.074.014.023.009.022.014.027.006.014-.002.003v.003l.005.007.002.008.002.002h.004l.003.003-.002.005v.004l-.001.002v.003l.003.002v.003l.003.005h.002l.004-.004.005.001.005.004v.002l-.005.004v.008l-.003.001v.003l.002.002h-.004v.003l.002.004-.002.004-.003-.001-.002.002v.004l.002.002v.001h-.004v.003l.001.003V4.362l.001.002h-.005l-.001.001v.004l.002.002.005.004v.001l-.004.004v.003h.001l.003.002v.003l-.002.002v.004l.005.004V4.4l-.001.003h-.006l-.002.004-.001.004-.001.002H9.04l-.002-.001h-.002v.003l.002.004-.001.001h-.005v.003l.003.003v.005l.001.002h.003v.005l-.003.003v.005l-.001.001-.002.004-.001.002v.003l.002.003h.006l.002.004h.005l.002.001v.01l-.005.002H9.04v.002l.002.004-.005.002v.003l.004.004.001.006.002.002h.002l.005-.007h.001l-.001.004-.001.003-.002.002h-.007l-.001.001v.002l.002.003.004.003-.003.002-.002.001v.003l.002.002.002.002v.001l-.003.001-.001.002v.002l.001.003.003.004v.002h-.004l-.003-.002h-.001l-.005.003H9.03l-.003-.003h-.001l-.003.002h-.002v-.006h-.003l-.003.002h-.003l-.001.002-.001.002v.006l.002.004v.001l-.004.004-.001.001h-.006l-.007.005h-.002l-.003-.002-.001-.003-.003-.001h-.003l-.002.003-.001.002v.003l.003.003v.002H8.98l-.01-.004-.003.001v.008l-.001.002-.005.004v.005l.002.002-.001.001h-.007l-.002-.002-.003-.005-.001-.002h-.003l-.005.006v.004l.008.006h.006l.001.002v.01h-.003l-.002-.002H8.95l-.005.007H8.94l-.003.002-.002.005-.001.004-.005.005-.004-.002h-.002v.01l.002.002v.002h-.006l-.004.002v.007l-.007-.004h-.005l-.001.003v.003l.001.004.001.002v.002L8.9 4.652 8.9 4.65l-.002-.008-.001-.002h-.008l-.003.005.005.01.011.037.012.025.006.01.023.063.037.091.045.085.01.02.014.026.013.024v.01l.003.006h.01l.005.006-.001.015-.01.008-.006.005-.001.01.005.008.003.006-.005.003v.006l.003.001.002.003v.007l-.008.006v.014l.002.01.002.005.003.005v.006l-.002.005.01.003.022.004.033.008.051.01.044.009.041.005.045.007.03.005.03.007.045.007.034.007.068.005.058.007.03.004.022.003.008.001.005.008.015.021.007.004H9.683l.008.003.006.007-.002.01.001.005.012.013.002.008.002.006v.005l-.002.005v.005l.006.008.009.007.009.013-.002.011v.014l.005.006.007.007.005.007.006.007.005.01v.008l.002.009.01.01.012-.001.008-.003.015-.002.006.003.014-.004h.01l.005.003.001.008v.005l.007.009.002.005-.004.007-.01.007-.007.003-.007.005-.007.01v.016l.004.013.008.003.004.002.012-.003.008-.004.009-.002h.011l.01.006.01.008.003.007.002.005.007.003.004.004h.005l.01.001.005.002.006.009.001.01v.018l-.006.005-.003.002-.004-.001H9.92l-.002.003-.003.001-.001.002-.002.006.004.001.006.001.003.004.006.002.004-.001v-.005l.002-.001.01.007.007.007.002.004.001.003h.016l.005-.005.006-.009h.005l.006.002.005.004.003.008v.004l-.006.006-.004.005v.007l.003.012.004.002.007.002.005.005.006.006.007.008.007.007h.002l.003-.004.003-.003.005-.002h.005l.004.003v.002h.006l.002-.004v-.003l-.003-.005-.003-.005.005-.004.007-.005.01-.004h.006l.003.007.004.006.008.006.007.001h.008l.008-.002.008-.003.004-.002.003-.005v-.006l-.002-.004-.002-.004V5.693l.004-.008.003-.003.004-.002.004.001.002.005.004.003.007.002.003.004.007.003h.004l.007-.003.007-.005.005.001.004.004.002.004.005-.001v-.012l.003-.005.006-.006.011-.001.006-.002.006-.002.005-.002h.008l.005.002.006.004.002.005.002.003.003.004h.007l.01.005.011.002h.01l.003.003h.007l.004-.005.008-.004.004-.002.004-.002V5.68l.003-.003.002-.002.003-.005.004-.003h.006l.012-.001h.003l.006.005.002.007.002.004.002.004.001.004.004.003.005.003v.008l-.003.014-.003.007-.002.005-.007.006h-.005l-.001.004-.005.005-.006.005-.004.003h-.006l-.006-.001-.005.002-.001.003-.002.007-.007.01v.003l.002.004.001.003.002.007.003.004.007.004.005.005.005.002.003-.004.004-.001H10.378l.006-.002.005-.004v-.019l.003-.004.002-.003.003-.004.001-.002.012-.007.004.002.006-.002.005-.006.005-.006.002-.012.002-.01-.003-.011-.004-.016-.001-.012-.005-.002-.003-.008-.001-.006-.007-.009-.002-.007-.001-.01-.003-.006.002-.006V5.62l.003-.006.002-.004v-.003l.003-.002.001-.004h.008l.004.001h.011v.002h.006l.003.001.003.005.003.002h.004l.005.002v.008l.003.004.001.003.004.002h.006l.001.002-.006.004-.005.003-.002.005h.002l.003.002v.003l-.001.004.001.004.003.004-.001.006-.001.002.003.002.001.001v.008l.001.003.002.003.003.001V5.697l.002.004.002.004.002.003.007.005.003.004.002.005.002.003h.005l.003-.002.006-.004.004.003v.007l.006.005h.004l.003-.002.001-.005-.002-.006.002-.002h.004l.001.006.003.002.006-.001.005-.005.002-.004.003-.007.003-.004.001-.004.001-.008.002-.004-.001-.007v-.002l.002-.004V5.67l.002-.006v-.004l-.002-.001v-.003h.005l.004-.003h.002v.005h.004l.001.002v.003h.007l-.002.005.001.003.004.002.001.001v.007h-.007l-.006.002-.006.008v.006l.005.01.01.007h.009l.009-.002.01-.003.01-.003h.015l.006.004.003.01v.007l-.004.007-.005.01-.004.007v.007l.002.004.009.002.006-.002.005-.004.007-.004h.005v.005l-.001.008-.005.005-.007.005-.006.003-.001.007.004.005.008.003h.008l.008.001.002.004-.005.01-.006.004-.01.003-.004.003v.007l.002.004.007.004h.007l.005-.002.005-.003.002-.007.001-.005.001-.008.006-.005.008-.002h.02l.007-.008.008-.005h.004l.006.005.003.01-.002.005-.004.005-.007.004-.005.002-.006.002-.01.003-.004.004-.001.009-.002.009v.007l.003.011.008.012.005.007.007.002h.015l.007.002.005.006-.002.009-.001.006-.01.009-.004.006-.005.005-.004.008-.005.007-.003.01v.008l.005.006h.017l.004-.003.005-.006.005-.008.002-.008.002-.007.006-.005h.005l.004.002.007.004.005.006.003.008-.001.013.001.007.003.008.004.002h.017l.009.002.01.006.008.001.007-.004.005-.005.004-.005h.005l.004.002.002.006-.001.013-.003.01-.003.007v.006l-.002.015-.002.006v.007l.005.005.009.002.01.001.007.004.005.005.006.002h.01l.005.001v.008l-.008.006H10.9l-.005.004v.005l.003.007.007.001h.004l.014-.008.005-.01v-.009l.002-.01.002-.004.001-.01-.008-.004h-.008l-.004-.003-.002-.006v-.004l.004-.004h.007l.009.003.012.01.008.012.012.01.01.004h.012l.005-.001.005.001.009.001.009.001.005.006.005.01-.001.012-.005.007-.004.007-.001.006.002.005.006.003h.008l.013-.002.007.003.001.006.001.005-.002.004-.003.005-.003.005v.002l.004.004h.01l.005-.004.005-.004.007-.007.008-.004.008-.002.008.002.005.006v.012l-.002.003-.003.006-.007.002-.01.002-.005.003-.002.005.001.004.003.007.007.003.008-.002.008-.006.006-.005.005-.006.003-.008.005-.011.006-.01.007-.012v-.006l-.003-.007.001-.009.003-.006.008-.005.007-.002h.01l.005.003.006.005.002.011.002.014.001.007.005.007.006.002h.009l.005-.005.005-.005.001-.009V6.12l-.004-.008-.006-.007-.005-.003-.004-.005-.004-.011.003-.01.004-.008.007-.003h.01l.007.005.004.008v.01l-.004.014-.002.009.002.011.01.005.003.006v.008l-.006.007-.011.006-.008.003-.007.004-.004.005v.008l.01.01.01.002.01-.002.01-.005.01-.012.005-.014.003-.004.008-.006.01-.005.004-.001h.009l.008.001.006.002.008.01.003.01v.005l.007.005.004.002h.006l.006-.005.002-.008v-.014l.002-.007.01-.006h.02l.008-.001.013-.004h.009l.005.004.004.01.004.01.005.005.007.002h.012l.007-.006.008-.008.004-.004.005-.004.007-.003.007.002.003.005.002.01-.006.008-.012.005h-.012l-.006.003-.002.005-.001.008.005.008.005.006h.021l.011-.005.014-.006.005-.01.01-.003.009-.002.009-.004.005-.01.001-.007-.001-.01.001-.008.006-.004.005.003.006.004.01.01.012.012.005.006.007.003.009.006.007.01.009.004.008-.002.003.001v.01l.001.007.003.003.011.004h.035l.005.001h.007l.004-.003.003-.004v-.006l-.004-.006-.002-.018-.011-.008-.003-.003-.002-.01-.004-.01-.001-.008.004-.01.007-.002.004-.003.007.002.004.006.006.005.005.006.004.009.006.006.008-.002h.02l.016.004.006-.005.001-.011-.005-.01-.008-.007-.012-.005-.01-.005-.002-.006.002-.006.006-.005.009-.002H11.755l.01-.006.008-.003.013-.007.008-.006.007-.001.007.005.006.01.004.002.008-.001.003-.007.01-.003.006.003.004.01.006.007.008-.002.005-.003.01-.01.004-.002.006.005.007.007h.01l.006-.006.003-.007.009-.009.011-.005.009.004.006.005.003.01-.001.006-.002.005-.005.006-.002.004v.006l.003.002.006.002.008-.002.004-.005.004-.012.005-.01.006-.003.008.002.007.006h.005l.003-.004-.002-.006-.002-.008v-.004l.006-.001.007.001.002.006.007.007.007.002.005-.003.003-.006v-.012l-.007-.009-.014-.007-.01-.005-.007-.003-.006-.008.001-.01.002-.008.008-.007.01-.003h.006l.012.003L12.04 6l.007-.004.008-.014.003-.007.005-.005.007-.003h.008l.006.008.005.013.005.008.004.005h.006L12.116 6h.007l.005.004v.005l-.005.008-.002.006v.017l.004.006.007.004h.005l.014-.002.007-.008.014-.013.003-.009-.001-.019-.008-.017-.01-.016-.006-.011-.006-.01-.013-.005-.015-.013-.002-.01v-.008l.007-.009.01-.003.007-.004V5.89l-.005-.004h-.007V5.88l.004-.005.006-.007-.004-.007-.007-.005-.005-.003-.012-.009V5.84l.006-.014-.004-.01.005-.013.005-.005.016-.009.01-.004.016-.003.01.002.014-.001.008-.002.01-.005.005-.013.002-.008V5.74l.001-.016.002-.007.004-.01.003-.007.004-.006.008-.007.01.001.015.01.008.014v.017l-.004.014v.016l.007.01.008.008.01.003.01-.001.01-.005.009-.005.014-.008.008-.002.01-.001.01.003.007.006.006.008.003.001h.008l.008-.004.004-.01.003-.01.003-.005.004-.005h.01l.012.008.009.005.008.002.01-.002.007-.005.005-.006.007-.013.006-.012.004-.007.008-.005.014-.005.02-.007.01-.004.018-.012.018-.007.015-.005h.01l.005.003.004.003.004.004.005.005.005.006.003.005.002.005V5.711l-.004.01-.004.012-.005.014-.002.009-.002.007v.01l.001.01.003.007.003.006.004.005.006.004.007.003h.006l.006.001h.004l.004-.002.005-.003.005-.004.004-.004.005-.008.005-.011.003-.009.004-.006.005-.005.004-.004.006-.003.007-.002h.01l.006.002.005.002.005.004.006.005.01.013.005.008.004.01.001.008v.007l-.002.004-.007.008-.011.011-.004.006-.003.006v.011l.002.007.003.004.004.004.008.004.008.004.004.002.003.004.003.006.003.012v.01l-.001.01-.004.013-.001.01V5.97l.001.009.003.005.006.007.004.004.006.002.013.003.014.003h.011l.01.002.015.001.01.003.009.003.007.004.005.005.006.007.007.01.003.004v.002l.001.004v.016l-.001.003-.003.004-.005.003-.006.008-.006.008-.006.007-.002.002-.001.005v.007l.001.007.002.003.003.003.005.004h.015l.008-.005.007-.01.006-.017.001-.003.002-.01.004-.006.005-.005.003-.002h.011l.007.001.006.005.003.005.002.006.002.005.007.006.013.008.013.006.008.007.008.008.008.015.004.012.005.02.005.013.005.008.004.005.005.003.008.004.01.002h.016l.019-.006h.01l.012.003.007.004.009.006.006.01.002.007-.002.01-.001.005-.003.007v.005l-.004.004-.001.002-.006.005-.01.006-.012.005-.016.006-.016.008-.006.005-.01.016-.005.01-.002.007.001.01.003.01.005.006.007.006.008.003h.016l.009-.004.007-.004.01-.007.014-.016.014-.01.011-.009.005-.002.007-.003h.008l.017-.003.017-.005.014-.003h.009l.015-.001h.016l.01.002.017.006.024.01.013.002h.02l.006-.001.009-.004.007-.006.004-.008v-.006l-.003-.009-.003-.008-.002-.004-.002-.009.002-.01.005-.007.008-.006.01-.005h.007l.007.005.008.008.009.003h.008l.007.004.009.01.008.015.005.017.004.02V6.346l.007.016.006.015.004.008.011.014.02.011.014.008.01.006.01.009.014.016.01.016.021.018.01.008.014.009h.017l.02-.004.014-.007.005-.001.008-.002.016-.002h.04l.008-.006.004-.004.008-.009.002-.003.002-.005.003-.014v-.015l.001-.014.001-.008.004-.005.007-.007.013-.005.011-.002.016.005.011.007.008.001.008-.002.005-.004.008-.01.003-.007.002-.01-.001-.009.002-.007.002-.001.004-.004.004-.001h.005l.014.005.008.001h.006l.016-.004.012-.008.015-.013.004-.003.008-.005.02-.01.012-.005.009-.001.005-.001.009-.004.006-.005.006-.01.005-.014V6.24l-.003-.015.002-.015.004-.01.005-.006.01-.004.01.001.015.008.017.007.014.007.015.005.011.001.014.003.009.003.012.007.014.015.007.006.01.012.01.009.014.005.004-.003.012-.009.016-.007.008-.006.008-.009.012-.01.007-.002h.01l.007.002v.001l.004.007.006.01.008.02.007.011.002.003v.002l.008.013.004.009V6.32l.006.012.004.008.011.004.011.002.005.001.006.001-.001.031.002.028.003.03v.041l.003.044.002.011.012.033.015.043.012.039.011.031" fill-opacity=".4" stroke="none" fill="#fff"/></g></svg>